<svg width="24" height="24" viewBox="0 0 24 24" fill="none" xmlns="http://www.w3.org/2000/svg">
<g clip-path="url(#clip0_83_715)">
<path d="M12.0002 0C8.81865 0.00344108 5.7684 1.26883 3.51871 3.51852C1.26902 5.76821 0.00363259 8.81846 0.000191505 12C-0.125809 21.573 11.1592 27.429 18.9002 21.817C19.0114 21.743 19.1067 21.6475 19.1804 21.536C19.2541 21.4246 19.3048 21.2995 19.3293 21.1682C19.3539 21.0369 19.3519 20.902 19.3234 20.7714C19.295 20.6409 19.2406 20.5174 19.1637 20.4082C19.0867 20.299 18.9886 20.2063 18.8752 20.1357C18.7618 20.065 18.6354 20.0178 18.5035 19.9968C18.3715 19.9758 18.2367 19.9815 18.107 20.0135C17.9773 20.0454 17.8553 20.1031 17.7482 20.183C11.3002 24.856 1.90019 19.978 2.00019 12C2.54919 -1.266 21.4532 -1.263 22.0002 12V14C22.0002 14.5304 21.7895 15.0391 21.4144 15.4142C21.0393 15.7893 20.5306 16 20.0002 16C19.4698 16 18.9611 15.7893 18.586 15.4142C18.2109 15.0391 18.0002 14.5304 18.0002 14V12C17.7482 4.071 6.25119 4.072 6.00019 12C6.01183 13.216 6.39164 14.3999 7.08958 15.3958C7.78751 16.3916 8.77079 17.1526 9.90984 17.5784C11.0489 18.0043 12.2902 18.075 13.4703 17.7812C14.6503 17.4875 15.7137 16.8431 16.5202 15.933C16.954 16.6986 17.6282 17.2998 18.4383 17.6435C19.2484 17.9871 20.1492 18.0541 21.0012 17.8339C21.8532 17.6137 22.6088 17.1187 23.151 16.4256C23.6932 15.7325 23.9916 14.8799 24.0002 14V12C23.9968 8.81846 22.7314 5.76821 20.4817 3.51852C18.232 1.26883 15.1817 0.00344108 12.0002 0V0ZM12.0002 16C10.9393 16 9.92191 15.5786 9.17177 14.8284C8.42162 14.0783 8.00019 13.0609 8.00019 12C8.00019 10.9391 8.42162 9.92172 9.17177 9.17157C9.92191 8.42143 10.9393 8 12.0002 8C13.0611 8 14.0785 8.42143 14.8286 9.17157C15.5788 9.92172 16.0002 10.9391 16.0002 12C16.0002 13.0609 15.5788 14.0783 14.8286 14.8284C14.0785 15.5786 13.0611 16 12.0002 16Z" fill="url(#paint0_linear_83_715)"/>
</g>
<defs>
<linearGradient id="paint0_linear_83_715" x1="11.9997" y1="0" x2="11.9997" y2="24.0072" gradientUnits="userSpaceOnUse">
<stop stop-color="#393BAA"/>
<stop offset="1" stop-color="#5154EC"/>
</linearGradient>
<clipPath id="clip0_83_715">
<rect width="24" height="24" fill="white"/>
</clipPath>
</defs>
</svg>
