<svg width="24" height="24" viewBox="0 0 30 30" fill="none" xmlns="http://www.w3.org/2000/svg">
    <g clip-path="url(#clip0_171_2593)">
        <path d="M14.983 15C15.9097 15 16.8155 14.7068 17.5859 14.1573C18.3564 13.6079 18.9569 12.827 19.3115 11.9134C19.6661 10.9998 19.7588 9.99445 19.5781 9.02455C19.3973 8.05464 18.9511 7.16373 18.2959 6.46447C17.6407 5.7652 16.8059 5.289 15.897 5.09607C14.9882 4.90315 14.0462 5.00216 13.1902 5.3806C12.3341 5.75904 11.6024 6.3999 11.0876 7.22215C10.5728 8.04439 10.298 9.01109 10.298 10C10.298 11.3261 10.7916 12.5979 11.6702 13.5355C12.5488 14.4732 13.7405 15 14.983 15ZM14.983 7.5C15.4463 7.5 15.8992 7.64662 16.2845 7.92133C16.6697 8.19603 16.9699 8.58648 17.1472 9.04329C17.3245 9.50011 17.3709 10.0028 17.2806 10.4877C17.1902 10.9727 16.9671 11.4181 16.6395 11.7678C16.3118 12.1174 15.8944 12.3555 15.44 12.452C14.9856 12.5484 14.5146 12.4989 14.0866 12.3097C13.6586 12.1205 13.2927 11.8 13.0353 11.3889C12.7779 10.9778 12.6405 10.4945 12.6405 10C12.6405 9.33696 12.8873 8.70107 13.3266 8.23223C13.7659 7.76339 14.3618 7.5 14.983 7.5ZM25.1262 11.4462L24.284 11.1475C24.4356 9.7474 24.3081 8.32893 23.9099 6.98511C23.5118 5.64128 22.8519 4.40245 21.9737 3.34986C21.0955 2.29727 20.0187 1.4547 18.8139 0.877392C17.6092 0.300084 16.3037 0.00108435 14.983 0C13.6452 0.000551212 12.323 0.307118 11.1055 0.899044C9.88801 1.49097 8.80355 2.35451 7.92517 3.43147C7.0468 4.50843 6.39491 5.77381 6.01343 7.14234C5.63195 8.51087 5.52974 9.95076 5.71369 11.365C4.59283 11.588 3.55638 12.1524 2.72932 12.99C2.15678 13.5709 1.70162 14.2707 1.39183 15.0463C1.08204 15.8219 0.924172 16.6569 0.927922 17.5V22.5938C0.930383 23.9454 1.3423 25.26 2.10222 26.3413C2.86213 27.4227 3.92929 28.2128 5.14446 28.5938L8.50597 29.7187C9.07059 29.9063 9.65865 30.0011 10.25 30C10.7864 29.9993 11.3203 29.9211 11.837 29.7675L18.6069 27.63C19.21 27.4543 19.8462 27.4543 20.4493 27.63L23.2451 28.63C23.9342 28.809 24.6523 28.8187 25.3454 28.6584C26.0385 28.4981 26.6884 28.172 27.2462 27.7046C27.804 27.2373 28.2551 26.6409 28.5655 25.9604C28.8759 25.2799 29.0375 24.5331 29.0382 23.7762V17.34C29.0355 16.0468 28.6581 14.786 27.9578 13.7307C27.2574 12.6753 26.2683 11.8769 25.1262 11.445V11.4462ZM10.0146 4.7025C10.6661 4.00436 11.4404 3.4504 12.293 3.07241C13.1456 2.69443 14.0598 2.49985 14.983 2.49985C15.9063 2.49985 16.8205 2.69443 17.6731 3.07241C18.5257 3.4504 19.3 4.00436 19.9515 4.7025C21.2659 6.11393 22.0046 8.02227 22.0071 10.0122C22.0095 12.0021 21.2753 13.9124 19.9644 15.3275L15.8029 19.6463C15.5857 19.8735 15.2937 20.0008 14.9895 20.0008C14.6853 20.0008 14.3932 19.8735 14.176 19.6463L10.0146 15.3463C8.69744 13.9317 7.95818 12.0185 7.95818 10.0244C7.95818 8.0302 8.69744 6.11701 10.0146 4.7025V4.7025ZM26.6956 23.7762C26.6964 24.1548 26.6161 24.5286 26.4611 24.8691C26.306 25.2097 26.0802 25.5079 25.8008 25.7413C25.5368 25.9678 25.2293 26.1294 24.9002 26.2148C24.571 26.3001 24.2283 26.307 23.8963 26.235L21.1497 25.25C20.1108 24.9315 19.0098 24.9245 17.9674 25.23L11.1928 27.365C10.5419 27.5566 9.8531 27.544 9.20873 27.3288L5.8191 26.2037C5.08549 25.9773 4.44048 25.5031 3.98093 24.8521C3.52137 24.2012 3.27207 23.4088 3.27044 22.5938V17.5C3.26781 16.9947 3.36204 16.4942 3.54735 16.0293C3.73266 15.5643 4.00513 15.1447 4.348 14.7962C4.88474 14.2503 5.56847 13.8979 6.30283 13.7888C6.77497 15.0377 7.47805 16.1724 8.37011 17.125L12.548 21.4412C13.201 22.1236 14.0785 22.5058 14.9924 22.5058C15.9063 22.5058 16.7838 22.1236 17.4368 21.4412L21.61 17.1125C22.5444 16.1113 23.2683 14.9092 23.7335 13.5863L24.3625 13.8087C25.0446 14.0696 25.6347 14.5487 26.0522 15.1807C26.4698 15.8126 26.6945 16.5667 26.6956 17.34V23.7762Z" fill="url(#paint0_linear_171_2593)"/>
    </g>
    <defs>
        <linearGradient id="paint0_linear_171_2593" x1="14.983" y1="0" x2="14.983" y2="30" gradientUnits="userSpaceOnUse">
            <stop stop-color="#393BAA"/>
            <stop offset="1" stop-color="#5154EC"/>
        </linearGradient>
        <clipPath id="clip0_171_2593">
            <rect width="28.1102" height="30" fill="white" transform="translate(0.929077)"/>
        </clipPath>
    </defs>
</svg>
