<svg width="24" height="24" viewBox="0 0 24 24" fill="none" xmlns="http://www.w3.org/2000/svg">
    <g clip-path="url(#clip0_1125_4857)">
        <path d="M23.1212 9.06911L15.5362 1.48311C14.5974 0.5471 13.3259 0.0214844 12.0002 0.0214844C10.6745 0.0214844 9.40295 0.5471 8.4642 1.48311L0.879195 9.06911C0.599621 9.34689 0.377965 9.67741 0.227078 10.0415C0.0761903 10.4056 -0.000927295 10.796 0.000195185 11.1901V21.0071C0.000195185 21.8028 0.316266 22.5658 0.878875 23.1284C1.44148 23.691 2.20455 24.0071 3.0002 24.0071H21.0002C21.7958 24.0071 22.5589 23.691 23.1215 23.1284C23.6841 22.5658 24.0002 21.8028 24.0002 21.0071V11.1901C24.0013 10.796 23.9242 10.4056 23.7733 10.0415C23.6224 9.67741 23.4008 9.34689 23.1212 9.06911V9.06911ZM15.0002 22.0071H9.0002V18.0731C9.0002 17.2775 9.31627 16.5144 9.87888 15.9518C10.4415 15.3892 11.2045 15.0731 12.0002 15.0731C12.7958 15.0731 13.5589 15.3892 14.1215 15.9518C14.6841 16.5144 15.0002 17.2775 15.0002 18.0731V22.0071ZM22.0002 21.0071C22.0002 21.2723 21.8948 21.5267 21.7073 21.7142C21.5198 21.9018 21.2654 22.0071 21.0002 22.0071H17.0002V18.0731C17.0002 16.747 16.4734 15.4753 15.5357 14.5376C14.598 13.5999 13.3263 13.0731 12.0002 13.0731C10.6741 13.0731 9.40234 13.5999 8.46466 14.5376C7.52698 15.4753 7.0002 16.747 7.0002 18.0731V22.0071H3.0002C2.73498 22.0071 2.48063 21.9018 2.29309 21.7142C2.10555 21.5267 2.0002 21.2723 2.0002 21.0071V11.1901C2.00112 10.9251 2.10638 10.6711 2.2932 10.4831L9.8782 2.90011C10.4419 2.33904 11.2049 2.02405 12.0002 2.02405C12.7955 2.02405 13.5585 2.33904 14.1222 2.90011L21.7072 10.4861C21.8933 10.6734 21.9985 10.9261 22.0002 11.1901V21.0071Z" fill="#302053"/>
    </g>
    <defs>
        <clipPath id="clip0_1125_4857">
            <rect width="24" height="24" fill="white"/>
        </clipPath>
    </defs>
</svg>
