<svg width="719" height="501" viewBox="0 0 733 510" fill="none" xmlns="http://www.w3.org/2000/svg">
    <g clip-path="url(#clip0_159_3983)">
        <path d="M612.189 78.4202L555.668 78.9708C553.011 65.8918 544.085 31.5747 552.124 22.2144C552.49 18.6914 554.201 15.4454 556.901 13.1523C559.6 10.8591 563.08 9.69539 566.616 9.90339C575.376 -3.80966 589.968 -1.75073 599.83 6.81366C609.756 10.2385 613.498 16.3228 612.189 24.5795C619.54 31.0137 620.896 38.8417 617.596 47.7524L612.189 78.4202Z" fill="#2F2E41"/>
        <path d="M606.748 113.24L565.97 107.593L557.814 95.6736C569.049 88.2214 573.024 77.8127 567.852 63.6781L596.083 63.0508C594.76 75.6378 598.923 85.3835 610.512 91.2821L606.748 113.24Z" fill="#FFB9B9"/>
        <path d="M556.329 481.049L554.769 502.366C554.699 503.331 554.835 504.299 555.17 505.207C555.504 506.115 556.029 506.941 556.709 507.629C557.389 508.317 558.208 508.853 559.111 509.198C560.015 509.544 560.982 509.693 561.948 509.634L572.897 508.971C573.404 508.94 573.898 508.798 574.344 508.555C574.791 508.311 575.178 507.973 575.478 507.563C575.779 507.153 575.985 506.682 576.083 506.183C576.181 505.684 576.168 505.17 576.045 504.677L569.967 480.367L556.329 481.049Z" fill="#E6E6E6"/>
        <path d="M591.775 480.367L585.698 504.677C585.575 505.17 585.561 505.684 585.659 506.183C585.757 506.682 585.964 507.153 586.264 507.563C586.565 507.973 586.952 508.311 587.398 508.555C587.844 508.798 588.338 508.94 588.846 508.971L599.795 509.634C600.761 509.693 601.728 509.544 602.631 509.198C603.535 508.852 604.354 508.317 605.034 507.629C605.713 506.941 606.238 506.115 606.573 505.207C606.907 504.299 607.044 503.331 606.973 502.366L605.414 481.049L591.775 480.367Z" fill="#E6E6E6"/>
        <path d="M606.121 484.008L591.345 482.526L576.635 325.286L571.076 482.019L556.559 481.499L532.092 264.432H625.569L606.121 484.008Z" fill="#36A793"/>
        <path d="M583.536 73.7145C599.127 73.7145 611.767 61.0749 611.767 45.4832C611.767 29.8915 599.127 17.252 583.536 17.252C567.944 17.252 555.304 29.8915 555.304 45.4832C555.304 61.0749 567.944 73.7145 583.536 73.7145Z" fill="#FFB9B9"/>
        <path d="M639.371 269.453L525.191 270.707C542.136 206.2 552.272 146.279 534.602 105.084L562.833 91.2821C576.445 105.48 591.605 104.016 608.003 90.0273L634.979 96.9283C630.359 150.949 632.43 208.805 639.371 269.453Z" fill="#36A793"/>
        <path d="M493.823 202.951L564.715 231.182L580.565 235.843C581.274 236.052 582.017 236.115 582.751 236.029C583.485 235.943 584.194 235.709 584.835 235.342C585.477 234.975 586.037 234.482 586.483 233.893C586.929 233.303 587.252 232.63 587.431 231.913C587.745 230.656 587.604 229.328 587.033 228.166C586.461 227.003 585.496 226.08 584.309 225.56L567.852 220.517L518.29 191.658L528.642 164.368L506.998 152.762L493.823 202.951Z" fill="#FFB9B9"/>
        <path d="M494.45 151.509C507.938 156.771 518.666 165.751 527.073 177.858L553.422 139.589L534.601 105.084L494.45 151.509Z" fill="#36A793"/>
        <path d="M615.354 40.9078C603.896 37.9555 592.63 37.5502 581.679 41.2949C574.703 44.6735 566.326 44.3622 557.009 41.5785V13.4121L607.306 14.7534L615.354 40.9078Z" fill="#2F2E41"/>
        <path d="M564.48 170.059C562.263 170.061 560.137 170.943 558.57 172.51C557.002 174.078 556.121 176.203 556.118 178.42L559.419 247.508C559.421 249.725 560.303 251.85 561.87 253.417C563.438 254.985 565.563 255.867 567.78 255.869H605.514C607.731 255.867 609.856 254.985 611.424 253.417C612.991 251.85 613.873 249.725 613.875 247.508L617.176 178.42C617.173 176.203 616.291 174.078 614.724 172.51C613.156 170.943 611.031 170.061 608.814 170.059H564.48Z" fill="#3F3D56"/>
        <path d="M671.542 197.732L609.75 222.336L605.088 224.193C604.939 224.25 604.791 224.3 604.634 224.349L589.015 228.945C587.018 229.531 584.254 226.841 582.637 224.985C581.836 224.09 581.383 222.938 581.358 221.738C581.334 220.537 581.741 219.368 582.505 218.442C582.721 218.193 582.958 217.964 583.215 217.757C583.816 217.288 584.525 216.977 585.277 216.849L600.88 213.78C601.44 213.67 601.978 213.469 602.472 213.186L609.75 208.945L647.531 186.948C648.582 186.337 649.382 185.373 649.788 184.228C650.195 183.082 650.181 181.83 649.751 180.693L642.539 161.675C642.097 160.511 642.093 159.226 642.529 158.06C642.965 156.894 643.81 155.926 644.907 155.338L656.855 148.935C657.537 148.569 658.294 148.362 659.069 148.33C659.843 148.299 660.614 148.444 661.324 148.753C662.034 149.063 662.665 149.53 663.169 150.119C663.672 150.708 664.035 151.403 664.231 152.153L674.603 191.659C674.922 192.87 674.786 194.157 674.223 195.275C673.659 196.394 672.705 197.268 671.542 197.732Z" fill="#FFB9B9"/>
        <path d="M675.13 144.607C661.643 149.869 650.915 158.85 642.508 170.956L616.158 132.687L634.979 96.9277L675.13 144.607Z" fill="#36A793"/>
        <path d="M602.324 70.6103C589.974 75.7475 577.024 75.5389 563.544 70.6103C567.466 63.9154 561.603 58.672 558.594 51.9137L608.925 50.418C605.076 56.2891 599.396 63.2257 602.324 70.6103Z" fill="white"/>
        <path d="M608.392 51.5361L607.807 50.9527L608.633 50.1276L613.562 44.375L614.189 44.9113L609.238 50.687L608.392 51.5361Z" fill="white"/>
        <path d="M555.145 48.0397L554.616 48.6738L559.567 52.7993L560.095 52.1652L555.145 48.0397Z" fill="white"/>
        <path d="M609.814 56.3871L601.148 70L601.844 70.4432L610.51 56.8303L609.814 56.3871Z" fill="white"/>
        <path d="M556.054 56.385L555.357 56.8281L564.021 70.4423L564.717 69.9992L556.054 56.385Z" fill="white"/>
        <path d="M611.4 207.777V222.725L606.196 224.798C606.03 224.862 605.865 224.917 605.69 224.973L588.255 230.103C586.026 230.756 582.941 227.754 581.136 225.682C580.242 224.683 579.736 223.397 579.708 222.057C579.681 220.717 580.135 219.412 580.988 218.378C581.229 218.1 581.494 217.845 581.78 217.614C582.452 217.091 583.243 216.743 584.083 216.601L601.499 213.174C602.124 213.052 602.724 212.828 603.277 212.511L611.4 207.777Z" fill="white"/>
        <path d="M618.941 154.46H615.959C615.959 112.288 607.277 82.8996 598.815 82.8996L598.07 79.918C605.658 79.918 610.496 92.1493 613.218 102.41C616.909 116.321 618.941 134.806 618.941 154.46Z" fill="#3F3D56"/>
        <path d="M550.363 144.025H547.381C547.381 105.403 556.124 81.4102 568.998 81.4102L568.253 84.3918C559.348 84.3918 550.363 102.831 550.363 144.025Z" fill="#3F3D56"/>
        <path d="M617.45 162.66C621.567 162.66 624.904 159.323 624.904 155.206C624.904 151.089 621.567 147.752 617.45 147.752C613.333 147.752 609.996 151.089 609.996 155.206C609.996 159.323 613.333 162.66 617.45 162.66Z" fill="#3F3D56"/>
        <path d="M538.436 161.914H535.454C535.454 151.227 541.473 142.533 548.872 142.533V145.515C543.118 145.515 538.436 152.871 538.436 161.914Z" fill="#3F3D56"/>
        <path d="M562.289 161.914H559.308C559.308 152.871 554.626 145.515 548.872 145.515V142.533C556.27 142.533 562.289 151.227 562.289 161.914Z" fill="#3F3D56"/>
        <path d="M560.799 165.641C562.445 165.641 563.78 164.306 563.78 162.659C563.78 161.013 562.445 159.678 560.799 159.678C559.152 159.678 557.817 161.013 557.817 162.659C557.817 164.306 559.152 165.641 560.799 165.641Z" fill="#3F3D56"/>
        <path d="M536.945 165.641C538.592 165.641 539.927 164.306 539.927 162.659C539.927 161.013 538.592 159.678 536.945 159.678C535.299 159.678 533.964 161.013 533.964 162.659C533.964 164.306 535.299 165.641 536.945 165.641Z" fill="#3F3D56"/>
        <path d="M177.62 62.4588L125.254 71.3267C123.96 71.5474 122.631 71.2804 121.523 70.5773C120.415 69.8743 119.607 68.7852 119.255 67.5208C115.472 53.8658 107.562 36.0524 115.242 27.1101C115.633 23.3481 117.46 19.882 120.343 17.4332C123.225 14.9845 126.941 13.7418 130.717 13.9639C140.072 -0.679439 155.653 1.51917 166.185 10.6646C176.784 14.3217 180.779 20.8188 179.382 29.6357C183.961 33.6436 186.361 38.1579 186.868 43.1128C187.107 45.8701 186.757 48.6469 185.838 51.2579C184.92 53.8689 183.456 56.254 181.542 58.2541L177.62 62.4588Z" fill="#2F2E41"/>
        <path d="M169.479 103.685L128.883 101.297C132.862 92.1656 134.451 83.3726 132.863 75.0293H163.111C163.042 81.4353 166.23 92.5164 169.479 103.685Z" fill="#9F616A"/>
        <path d="M120.613 478.797L118.948 501.559C118.873 502.59 119.018 503.624 119.376 504.594C119.733 505.563 120.293 506.445 121.019 507.18C121.745 507.915 122.62 508.486 123.584 508.855C124.549 509.225 125.582 509.383 126.613 509.321L138.305 508.613C138.847 508.58 139.375 508.428 139.851 508.168C140.327 507.908 140.741 507.547 141.062 507.109C141.383 506.671 141.603 506.168 141.708 505.636C141.812 505.103 141.798 504.554 141.667 504.027L135.177 478.068L120.613 478.797Z" fill="#E6E6E6"/>
        <path d="M158.465 478.068L151.975 504.027C151.843 504.554 151.829 505.103 151.933 505.636C152.038 506.168 152.259 506.671 152.579 507.109C152.9 507.547 153.314 507.908 153.79 508.168C154.267 508.428 154.794 508.58 155.336 508.613L167.028 509.321C168.059 509.383 169.092 509.225 170.057 508.855C171.021 508.486 171.896 507.915 172.622 507.18C173.348 506.445 173.908 505.563 174.266 504.594C174.623 503.624 174.769 502.59 174.693 501.559L173.028 478.797L158.465 478.068Z" fill="#E6E6E6"/>
        <path d="M173.783 481.958L158.005 480.374L142.297 312.467L136.36 479.833L120.859 479.278L94.7323 247.484H194.551L173.783 481.958Z" fill="#36A793"/>
        <path d="M148.785 84.6915C165.434 84.6915 178.931 71.1944 178.931 54.5449C178.931 37.8955 165.434 24.3984 148.785 24.3984C132.135 24.3984 118.638 37.8955 118.638 54.5449C118.638 71.1944 132.135 84.6915 148.785 84.6915Z" fill="#9F616A"/>
        <path d="M182.762 40.1443C170.526 38.0135 158.496 37.7209 146.802 40.4237C139.353 42.8623 130.407 42.6376 120.459 40.6283V20.2988L174.168 21.2669L182.762 40.1443Z" fill="#2F2E41"/>
        <path d="M168.848 78.734C155.659 84.2198 141.831 83.997 127.437 78.734C131.625 71.585 125.365 65.9859 122.151 58.7691L175.896 57.1719C171.786 63.4413 165.722 70.8484 168.848 78.734Z" fill="white"/>
        <path d="M118.45 54.6509L117.921 55.2852L123.208 59.6903L123.736 59.0561L118.45 54.6509Z" fill="white"/>
        <path d="M176.87 63.5592L167.617 78.0957L168.313 78.5389L177.566 64.0023L176.87 63.5592Z" fill="white"/>
        <path d="M119.414 63.5589L118.717 64.002L127.969 78.5399L128.665 78.0968L119.414 63.5589Z" fill="white"/>
        <path d="M91.4718 192.038L68.3882 177.711L88.0744 120.053C90.2701 114.104 94.4756 109.109 99.9639 105.931L106.596 102.092L107.172 160.257L91.4718 192.038Z" fill="#36A793"/>
        <path d="M191.249 220.042L187.834 190.791C187.652 175.351 190.279 160.423 196.542 146.669L199.726 103.685L164.703 89.3574C164.595 90.0711 164.504 90.7844 164.401 91.498L147.987 99.7053L131.978 96.067L132.067 90.9494L100.228 105.277C110.757 154.229 105.014 205.063 86.9073 265.107L128.853 276.576L129.202 256.435L166.584 253.765C166.969 260.299 167.279 266.718 167.458 272.994C188.552 280.76 189.277 280.631 208.496 269.512C200.842 253.42 194.782 236.675 191.249 220.042Z" fill="#36A793"/>
        <path d="M245.097 184.876L223.606 177.712L189.229 137.692L199.726 103.686L247.485 170.548L245.097 184.876Z" fill="#36A793"/>
        <path d="M177.743 215.858C178.094 217.401 179.044 218.742 180.382 219.586C181.721 220.431 183.34 220.71 184.884 220.362L203.128 216.231L200.491 204.586L182.247 208.717C180.703 209.067 179.361 210.015 178.516 211.355C177.671 212.694 177.393 214.314 177.743 215.858V215.858Z" fill="#E6E6E6"/>
        <path d="M194.154 202.386L204.502 221.49C221.907 216.636 236.991 201.332 251.465 183.283L247.485 170.547L222.81 176.915L194.154 202.386Z" fill="#36A793"/>
        <path d="M59.234 142.463L79.0991 146.01L124.505 210.572L100.383 204.896L59.234 142.463Z" fill="#E6E6E6"/>
        <path d="M55.7106 141.672C55.4079 141.676 55.1119 141.762 54.8537 141.92C54.5955 142.078 54.3846 142.303 54.2429 142.571C54.1012 142.838 54.034 143.139 54.0483 143.441C54.0626 143.744 54.1579 144.037 54.3242 144.29L96.7669 208.686C97.0037 209.046 97.3695 209.301 97.7891 209.4L117.536 214.046C117.869 214.124 118.218 214.099 118.537 213.975C118.855 213.85 119.129 213.632 119.32 213.349C119.512 213.065 119.613 212.73 119.61 212.388C119.606 212.046 119.499 211.713 119.302 211.433L72.703 145.175C72.5767 144.994 72.416 144.841 72.2301 144.722C72.0442 144.604 71.8368 144.523 71.6198 144.485L56.0289 141.701C55.9238 141.682 55.8173 141.672 55.7106 141.672Z" fill="#3F3D56"/>
        <path d="M82.1865 187.715L83.3661 199.596L101.98 197.749C103.556 197.592 105.005 196.816 106.008 195.592C107.012 194.367 107.488 192.794 107.331 191.218C107.175 189.643 106.399 188.194 105.174 187.19C103.95 186.187 102.376 185.711 100.801 185.867L82.1865 187.715Z" fill="#E6E6E6"/>
        <path d="M66.0005 186.338C66.0275 190.389 67.6547 194.266 70.5274 197.123C73.4 199.98 77.2854 201.585 81.3368 201.59H84.3976L86.6258 183.021L68.1762 176.379L66.0005 186.338Z" fill="#36A793"/>
        <path d="M174.426 59.2263L173.842 58.6429L174.723 57.7617L179.988 51.6172L180.615 52.1535L175.328 58.3211L174.426 59.2263Z" fill="white"/>
        <path d="M732.69 508.35H0V510H732.69V508.35Z" fill="#3F3D56"/>
        <path d="M279.709 507.525H452.98V297.358C452.98 286.229 442.019 277.176 428.546 277.176H304.144C290.67 277.176 279.709 286.229 279.709 297.358V507.525Z" fill="#E6E6E6"/>
        <path d="M292.911 498.834H439.779V320.693C439.779 311.26 430.488 303.586 419.068 303.586H313.622C302.202 303.586 292.911 311.26 292.911 320.693V498.834Z" fill="white"/>
        <path d="M278.4 260.82C274.118 260.82 270.633 263.698 270.633 267.236V285.754C270.633 289.291 274.118 292.17 278.4 292.17H454.29C458.573 292.17 462.057 289.291 462.057 285.754V267.236C462.057 263.698 458.573 260.82 454.29 260.82H278.4Z" fill="#3F3D56"/>
        <path d="M314.513 475.992C312.502 475.998 310.575 476.799 309.154 478.221C307.732 479.643 306.93 481.57 306.925 483.58C306.93 485.591 307.732 487.518 309.154 488.94C310.575 490.361 312.502 491.163 314.513 491.169H328.716V475.992H314.513Z" fill="#3F3D56"/>
        <path d="M341.752 475.992H327.938V491.169H341.752C343.763 491.163 345.69 490.361 347.112 488.94C348.533 487.518 349.335 485.591 349.341 483.58C349.335 481.57 348.533 479.643 347.112 478.221C345.69 476.799 343.763 475.998 341.752 475.992Z" fill="#36A793"/>
        <path opacity="0.2" d="M346.704 477.85C347.901 479.222 348.561 480.98 348.562 482.801C348.556 484.812 347.755 486.739 346.333 488.16C344.911 489.582 342.985 490.383 340.974 490.389H327.938V491.168H341.752C343.763 491.162 345.69 490.36 347.112 488.939C348.533 487.517 349.335 485.59 349.341 483.579C349.339 482.491 349.102 481.416 348.647 480.427C348.192 479.438 347.529 478.559 346.704 477.85Z" fill="black"/>
        <path d="M378.607 361.694C377.224 360.235 375.319 359.383 373.309 359.324C371.299 359.264 369.348 360.003 367.88 361.378C366.421 362.761 365.569 364.666 365.51 366.676C365.45 368.685 366.189 370.637 367.564 372.104L377.306 382.44L388.35 372.03L378.607 361.694Z" fill="#3F3D56"/>
        <path d="M397.292 381.515L387.816 371.463L376.772 381.873L386.248 391.925C387.632 393.384 389.536 394.236 391.546 394.296C393.556 394.355 395.508 393.617 396.975 392.242C398.434 390.858 399.286 388.954 399.346 386.944C399.405 384.934 398.666 382.982 397.292 381.515Z" fill="#36A793"/>
        <path opacity="0.2" d="M399.336 386.392C399.158 388.204 398.331 389.89 397.007 391.14C395.54 392.515 393.589 393.254 391.579 393.195C389.569 393.135 387.664 392.283 386.281 390.824L377.339 381.338L376.772 381.872L386.248 391.924C387.632 393.383 389.536 394.235 391.546 394.295C393.556 394.354 395.508 393.616 396.975 392.241C397.766 391.493 398.386 390.583 398.793 389.574C399.201 388.564 399.386 387.479 399.336 386.392Z" fill="black"/>
        <path d="M338.177 385.622C336.794 384.163 334.889 383.311 332.879 383.251C330.869 383.192 328.918 383.93 327.45 385.305C325.991 386.689 325.139 388.594 325.08 390.603C325.02 392.613 325.759 394.565 327.134 396.032L336.876 406.367L347.92 395.957L338.177 385.622Z" fill="#3F3D56"/>
        <path d="M356.862 405.443L347.386 395.391L336.343 405.801L345.818 415.853C347.202 417.312 349.106 418.164 351.116 418.224C353.126 418.283 355.078 417.544 356.545 416.17C358.004 414.786 358.856 412.881 358.916 410.872C358.975 408.862 358.237 406.91 356.862 405.443Z" fill="#36A793"/>
        <path opacity="0.2" d="M358.906 410.321C358.728 412.133 357.901 413.82 356.577 415.07C355.11 416.445 353.159 417.184 351.149 417.124C349.139 417.065 347.234 416.213 345.851 414.753L336.909 405.268L336.343 405.801L345.818 415.854C347.202 417.313 349.106 418.165 351.116 418.224C353.126 418.284 355.078 417.545 356.545 416.17C357.336 415.422 357.956 414.513 358.363 413.503C358.771 412.494 358.956 411.409 358.906 410.321Z" fill="black"/>
        <path d="M378.607 407.899C377.224 406.44 375.319 405.588 373.309 405.529C371.299 405.469 369.348 406.208 367.88 407.583C366.421 408.966 365.569 410.871 365.51 412.881C365.45 414.891 366.189 416.842 367.564 418.309L377.306 428.645L388.35 418.235L378.607 407.899Z" fill="#3F3D56"/>
        <path d="M397.292 427.72L387.816 417.668L376.772 428.078L386.248 438.13C387.632 439.589 389.536 440.442 391.546 440.501C393.556 440.56 395.508 439.822 396.975 438.447C398.434 437.063 399.286 435.159 399.346 433.149C399.405 431.139 398.666 429.187 397.292 427.72Z" fill="#36A793"/>
        <path opacity="0.2" d="M399.336 432.599C399.158 434.411 398.331 436.097 397.007 437.348C395.54 438.722 393.589 439.461 391.579 439.402C389.569 439.342 387.664 438.49 386.281 437.031L377.339 427.545L376.772 428.079L386.248 438.131C387.632 439.59 389.536 440.442 391.546 440.502C393.556 440.561 395.508 439.823 396.975 438.448C397.766 437.7 398.386 436.79 398.793 435.781C399.201 434.771 399.386 433.686 399.336 432.599Z" fill="black"/>
        <path d="M403.272 455.314C404.714 453.913 405.543 451.998 405.578 449.988C405.613 447.978 404.85 446.035 403.458 444.585C402.057 443.142 400.142 442.313 398.131 442.278C396.121 442.244 394.178 443.006 392.728 444.398L382.512 454.266L393.055 465.182L403.272 455.314Z" fill="#3F3D56"/>
        <path d="M383.679 474.24L393.615 464.643L383.072 453.727L373.135 463.324C371.693 464.725 370.864 466.64 370.829 468.65C370.794 470.661 371.556 472.603 372.949 474.053C374.35 475.496 376.265 476.325 378.275 476.36C380.286 476.394 382.228 475.632 383.679 474.24Z" fill="#36A793"/>
        <path opacity="0.2" d="M378.826 476.343C377.012 476.187 375.316 475.381 374.049 474.073C372.657 472.622 371.895 470.68 371.93 468.669C371.965 466.659 372.794 464.744 374.236 463.343L383.612 454.286L383.072 453.727L373.135 463.324C371.693 464.725 370.864 466.64 370.829 468.65C370.794 470.661 371.556 472.603 372.949 474.053C373.706 474.835 374.624 475.444 375.638 475.839C376.652 476.234 377.739 476.406 378.826 476.343Z" fill="black"/>
        <path d="M348.815 431.387C350.257 429.985 351.086 428.071 351.121 426.06C351.156 424.05 350.394 422.107 349.001 420.657C347.6 419.215 345.685 418.386 343.675 418.351C341.664 418.316 339.722 419.078 338.271 420.471L328.055 430.338L338.599 441.254L348.815 431.387Z" fill="#3F3D56"/>
        <path d="M329.222 450.312L339.158 440.715L328.615 429.799L318.679 439.396C317.236 440.797 316.407 442.712 316.372 444.722C316.338 446.733 317.1 448.675 318.492 450.126C319.893 451.568 321.808 452.397 323.819 452.432C325.829 452.467 327.772 451.705 329.222 450.312Z" fill="#36A793"/>
        <path opacity="0.2" d="M324.369 452.415C322.555 452.26 320.859 451.453 319.593 450.145C318.2 448.694 317.438 446.752 317.473 444.742C317.508 442.731 318.337 440.816 319.779 439.415L329.156 430.359L328.615 429.799L318.679 439.396C317.236 440.797 316.407 442.712 316.372 444.722C316.338 446.733 317.1 448.675 318.492 450.126C319.25 450.907 320.167 451.516 321.181 451.912C322.195 452.307 323.283 452.478 324.369 452.415Z" fill="black"/>
        <path d="M426.374 402.51C427.817 401.109 428.646 399.194 428.681 397.183C428.715 395.173 427.953 393.23 426.561 391.78C425.16 390.338 423.245 389.509 421.234 389.474C419.224 389.439 417.281 390.201 415.831 391.594L405.615 401.461L416.158 412.377L426.374 402.51Z" fill="#3F3D56"/>
        <path d="M406.781 421.433L416.718 411.836L406.174 400.92L396.238 410.517C394.796 411.918 393.967 413.833 393.932 415.844C393.897 417.854 394.659 419.796 396.052 421.247C397.453 422.689 399.368 423.518 401.378 423.553C403.389 423.588 405.331 422.826 406.781 421.433Z" fill="#36A793"/>
        <path opacity="0.2" d="M401.929 423.536C400.115 423.381 398.418 422.574 397.152 421.266C395.76 419.816 394.997 417.873 395.032 415.863C395.067 413.852 395.896 411.937 397.339 410.536L406.715 401.48L406.174 400.92L396.238 410.517C394.796 411.918 393.967 413.833 393.932 415.844C393.897 417.854 394.659 419.796 396.052 421.247C396.809 422.028 397.726 422.638 398.741 423.033C399.755 423.428 400.842 423.6 401.929 423.536Z" fill="black"/>
        <path d="M409.136 462.356C407.752 460.897 405.848 460.045 403.838 459.986C401.828 459.926 399.876 460.665 398.409 462.04C396.95 463.423 396.098 465.328 396.038 467.338C395.979 469.348 396.718 471.299 398.093 472.766L407.835 483.102L418.878 472.692L409.136 462.356Z" fill="#3F3D56"/>
        <path d="M427.82 482.177L418.345 472.125L407.301 482.535L416.777 492.587C418.16 494.046 420.065 494.899 422.075 494.958C424.085 495.017 426.036 494.279 427.504 492.904C428.963 491.52 429.815 489.616 429.874 487.606C429.934 485.596 429.195 483.644 427.82 482.177Z" fill="#36A793"/>
        <path opacity="0.2" d="M429.865 487.056C429.687 488.868 428.86 490.554 427.536 491.805C426.069 493.179 424.117 493.918 422.108 493.859C420.098 493.799 418.193 492.947 416.81 491.488L407.868 482.002L407.301 482.536L416.777 492.588C418.16 494.047 420.065 494.899 422.075 494.959C424.085 495.018 426.036 494.28 427.504 492.905C428.294 492.157 428.915 491.247 429.322 490.238C429.729 489.228 429.915 488.143 429.865 487.056Z" fill="black"/>
        <path d="M355.504 461.53C354.121 460.071 352.216 459.219 350.206 459.16C348.196 459.1 346.245 459.839 344.778 461.214C343.319 462.597 342.466 464.502 342.407 466.512C342.348 468.521 343.086 470.473 344.461 471.94L354.204 482.276L365.247 471.866L355.504 461.53Z" fill="#3F3D56"/>
        <path d="M374.189 481.353L364.713 471.301L353.67 481.711L363.145 491.763C364.529 493.222 366.434 494.074 368.443 494.134C370.453 494.193 372.405 493.455 373.872 492.08C375.331 490.696 376.183 488.792 376.243 486.782C376.302 484.772 375.564 482.82 374.189 481.353Z" fill="#36A793"/>
        <path opacity="0.2" d="M376.233 486.23C376.055 488.042 375.228 489.728 373.905 490.978C372.437 492.353 370.486 493.092 368.476 493.032C366.466 492.973 364.561 492.121 363.178 490.662L354.236 481.176L353.67 481.71L363.145 491.762C364.529 493.221 366.434 494.073 368.443 494.133C370.453 494.192 372.405 493.453 373.872 492.079C374.663 491.331 375.283 490.421 375.69 489.412C376.098 488.402 376.283 487.317 376.233 486.23Z" fill="black"/>
        <path d="M370.601 434.309C370.601 436.831 369.73 439.277 368.135 441.231C366.539 443.186 364.318 444.529 361.846 445.033C360.401 445.325 358.913 445.325 357.469 445.033C354.997 444.528 352.776 443.185 351.18 441.231C349.585 439.277 348.714 436.831 348.714 434.309C348.714 431.786 349.585 429.341 351.18 427.387C352.776 425.432 354.997 424.089 357.469 423.584C358.913 423.292 360.401 423.292 361.846 423.584C364.318 424.089 366.539 425.432 368.135 427.386C369.73 429.34 370.601 431.786 370.601 434.309Z" fill="#36A793"/>
        <path opacity="0.2" d="M361.846 423.584V445.033C360.401 445.325 358.913 445.325 357.469 445.033V423.584C358.913 423.292 360.401 423.292 361.846 423.584Z" fill="black"/>
        <path d="M375.551 390.578C375.552 393.101 374.681 395.547 373.085 397.501C371.49 399.455 369.268 400.798 366.797 401.303C365.352 401.595 363.864 401.595 362.419 401.303C359.948 400.798 357.726 399.454 356.131 397.5C354.536 395.546 353.664 393.101 353.664 390.578C353.664 388.055 354.536 385.61 356.131 383.656C357.726 381.702 359.948 380.359 362.419 379.854C363.864 379.562 365.352 379.562 366.797 379.854C369.268 380.358 371.49 381.701 373.085 383.656C374.681 385.61 375.552 388.055 375.551 390.578Z" fill="#36A793"/>
        <path opacity="0.2" d="M366.797 379.854V401.303C365.352 401.595 363.864 401.595 362.419 401.303V379.854C363.864 379.562 365.352 379.562 366.797 379.854Z" fill="black"/>
        <path d="M375.551 453.285C375.552 455.808 374.681 458.254 373.085 460.208C371.49 462.162 369.268 463.505 366.797 464.01C365.352 464.302 363.864 464.302 362.419 464.01C359.948 463.505 357.726 462.162 356.131 460.207C354.536 458.253 353.664 455.808 353.664 453.285C353.664 450.763 354.536 448.317 356.131 446.363C357.726 444.409 359.948 443.066 362.419 442.561C363.864 442.269 365.352 442.269 366.797 442.561C369.268 443.065 371.49 444.408 373.085 446.363C374.681 448.317 375.552 450.762 375.551 453.285Z" fill="#36A793"/>
        <path opacity="0.2" d="M366.797 442.561V464.01C365.352 464.302 363.864 464.302 362.419 464.01V442.561C363.864 442.269 365.352 442.269 366.797 442.561Z" fill="black"/>
        <path d="M402.78 483.815C402.78 486.337 401.909 488.783 400.314 490.737C398.718 492.691 396.497 494.035 394.025 494.539C392.58 494.831 391.092 494.831 389.648 494.539C387.176 494.034 384.955 492.691 383.359 490.737C381.764 488.782 380.893 486.337 380.893 483.815C380.893 481.292 381.764 478.847 383.359 476.892C384.955 474.938 387.176 473.595 389.648 473.09C391.092 472.798 392.58 472.798 394.025 473.09C396.497 473.595 398.718 474.938 400.314 476.892C401.909 478.846 402.78 481.292 402.78 483.815Z" fill="#36A793"/>
        <path opacity="0.2" d="M394.025 473.09V494.539C392.58 494.831 391.092 494.831 389.647 494.539V473.09C391.092 472.798 392.58 472.798 394.025 473.09Z" fill="black"/>
        <path d="M426.833 427.644C428.65 429.394 429.806 431.719 430.106 434.224C430.406 436.728 429.831 439.26 428.479 441.39C427.687 442.632 426.654 443.704 425.441 444.542C423.362 445.971 420.854 446.638 418.339 446.43C415.825 446.223 413.46 445.153 411.644 443.402C409.827 441.652 408.672 439.327 408.372 436.823C408.072 434.318 408.646 431.786 409.998 429.656C410.79 428.414 411.823 427.342 413.035 426.505C415.114 425.075 417.623 424.408 420.137 424.615C422.651 424.823 425.017 425.893 426.833 427.644Z" fill="#36A793"/>
        <path opacity="0.2" d="M413.035 426.506L428.479 441.391C427.686 442.634 426.654 443.705 425.441 444.543L409.998 429.658C410.79 428.415 411.823 427.343 413.035 426.506Z" fill="black"/>
        <path d="M430.133 451.572C431.95 453.322 433.106 455.646 433.406 458.151C433.706 460.656 433.131 463.188 431.779 465.318C430.987 466.56 429.954 467.632 428.741 468.469C426.663 469.898 424.154 470.566 421.64 470.358C419.126 470.15 416.76 469.081 414.944 467.33C413.128 465.58 411.972 463.255 411.672 460.75C411.372 458.246 411.946 455.714 413.298 453.584C414.09 452.342 415.123 451.27 416.336 450.432C418.414 449.003 420.923 448.335 423.437 448.543C425.952 448.751 428.317 449.821 430.133 451.572Z" fill="#36A793"/>
        <path opacity="0.2" d="M416.336 450.434L431.779 465.319C430.987 466.561 429.954 467.633 428.742 468.47L413.298 453.585C414.09 452.343 415.123 451.271 416.336 450.434Z" fill="black"/>
        <path d="M331.946 457.349C333.763 459.099 334.919 461.424 335.219 463.929C335.519 466.433 334.944 468.965 333.592 471.095C332.8 472.338 331.767 473.409 330.554 474.247C328.476 475.676 325.967 476.343 323.453 476.135C320.939 475.928 318.573 474.858 316.757 473.108C314.941 471.357 313.785 469.033 313.485 466.528C313.185 464.023 313.759 461.492 315.111 459.361C315.903 458.119 316.936 457.047 318.149 456.21C320.227 454.78 322.736 454.113 325.25 454.32C327.765 454.528 330.13 455.598 331.946 457.349Z" fill="#36A793"/>
        <path opacity="0.2" d="M318.149 456.209L333.592 471.094C332.8 472.337 331.767 473.408 330.554 474.246L315.111 459.361C315.903 458.118 316.936 457.047 318.149 456.209Z" fill="black"/>
        <path opacity="0.2" d="M296.624 260.82H292.498V291.349H296.624V260.82Z" fill="black"/>
        <path opacity="0.2" d="M320.552 260.82H316.426V291.349H320.552V260.82Z" fill="black"/>
        <path opacity="0.2" d="M344.48 260.82H340.354V291.349H344.48V260.82Z" fill="black"/>
        <path opacity="0.2" d="M368.408 260.82H364.282V291.349H368.408V260.82Z" fill="black"/>
        <path opacity="0.2" d="M392.336 260.82H388.21V291.349H392.336V260.82Z" fill="black"/>
        <path opacity="0.2" d="M416.264 260.82H412.138V291.349H416.264V260.82Z" fill="black"/>
        <path opacity="0.2" d="M440.191 260.82H436.066V291.349H440.191V260.82Z" fill="black"/>
    </g>
    <defs>
        <clipPath id="clip0_159_3983">
            <rect width="732.69" height="510" fill="white"/>
        </clipPath>
    </defs>
</svg>
