<svg width="700" height="600" viewBox="0 0 848 600" fill="none" xmlns="http://www.w3.org/2000/svg">
    <g clip-path="url(#clip0_145_1926)">
        <path opacity="0.1" d="M281.611 599.663C322.862 599.663 356.302 594.292 356.302 587.666C356.302 581.041 322.862 575.67 281.611 575.67C240.36 575.67 206.919 581.041 206.919 587.666C206.919 594.292 240.36 599.663 281.611 599.663Z" fill="#7EA6F4"/>
        <path opacity="0.1" d="M687.623 600C739.098 600 780.826 594.629 780.826 588.004C780.826 581.378 739.098 576.007 687.623 576.007C636.148 576.007 594.42 581.378 594.42 588.004C594.42 594.629 636.148 600 687.623 600Z" fill="#7EA6F4"/>
        <path opacity="0.1" d="M10.6089 259.243H88.4048V365.278H16.3042C16.1126 366.367 15.9286 367.463 15.7293 368.559H88.4048V454.074C88.2745 454.036 88.1595 453.99 88.0369 453.944C85.9825 453.131 83.9436 452.273 81.9046 451.353L80.6014 450.763C78.5574 449.797 76.5132 448.775 74.4691 447.697C73.7563 447.321 73.0434 446.93 72.3382 446.531C60.9902 440.175 50.6812 432.12 41.7686 422.646C41.508 422.393 41.2627 422.125 41.0021 421.88C39.7603 420.53 38.5415 419.166 37.361 417.771L36.0579 416.238C34.6628 414.528 33.3137 412.773 32.0029 410.995C31.8113 410.734 31.6273 410.473 31.428 410.228C26.0971 402.837 21.6708 394.833 18.2436 386.389C18.1363 386.136 18.0443 385.86 17.9446 385.622C16.8919 382.914 15.9593 380.18 15.1468 377.42C14.7942 376.263 14.4569 375.121 14.1656 373.917C14.0583 373.565 13.9663 373.22 13.882 372.875C9.52804 355.881 9.01447 338.227 9.01447 320.697C9.01447 318.65 9.01447 316.596 9.01447 314.564C9.01447 307.474 9.09878 300.337 9.22143 293.208C9.22143 291.361 9.29808 289.521 9.33641 287.666C9.44373 282.96 9.59703 278.253 9.79633 273.547C9.84233 272.236 9.90365 270.933 9.97264 269.63C9.97264 268.879 10.011 268.127 10.0876 267.376C10.2716 264.647 10.4249 261.941 10.6089 259.243Z" fill="#7EA6F4"/>
        <path opacity="0.1" d="M88.4049 141.181H45.7317C52.6684 130.324 60.2477 119.89 68.4289 109.937C74.7681 102.149 81.46 94.5601 88.4049 87.2474V141.181Z" fill="#7EA6F4"/>
        <path opacity="0.1" d="M88.4048 144.462V255.962H10.8542C10.8542 255.64 10.9078 255.311 10.9308 254.989C10.9998 254.107 11.0688 253.226 11.1455 252.352C11.2298 251.325 11.3218 250.29 11.4214 249.286C11.5211 248.282 11.6284 247.055 11.7434 245.944C11.8584 244.832 11.9657 243.705 12.096 242.594C12.2263 241.482 12.3413 240.371 12.4792 239.267C12.6172 238.163 12.7399 237.044 12.8855 235.94C13.0005 235.021 13.1231 234.108 13.2458 233.189C13.4221 231.893 13.6061 230.59 13.8054 229.302C13.8054 229.111 13.859 228.911 13.8897 228.727C15.2888 219.3 17.1951 209.955 19.6004 200.733C22.1181 191.06 25.3332 181.581 29.2204 172.371C33.3518 162.737 38.189 153.422 43.6927 144.5L88.4048 144.462Z" fill="#7EA6F4"/>
        <path opacity="0.1" d="M106.978 259.235V365.278H273.141V259.235H106.978ZM106.978 368.551V459.616C107.929 459.815 108.871 460.007 109.807 460.168C111.079 460.413 112.344 460.636 113.639 460.827C113.885 460.866 114.138 460.904 114.406 460.927C114.912 461.011 115.433 461.08 115.939 461.149C117.219 461.326 118.491 461.471 119.772 461.586C120.377 461.648 120.99 461.701 121.604 461.747L123.083 461.862C123.888 461.923 124.685 461.969 125.475 461.992C125.965 461.992 126.456 462.038 126.962 462.054C127.345 462.054 127.728 462.054 128.127 462.054C128.525 462.054 129.093 462.054 129.576 462.054C130.235 462.054 130.894 462.054 131.546 462.054H132.427C133.086 462.054 133.746 462.054 134.397 461.992H134.443C134.895 461.992 135.355 461.992 135.815 461.931C135.943 461.939 136.071 461.939 136.198 461.931C136.582 461.931 136.965 461.931 137.333 461.877H137.601L140.169 461.678C141.012 461.602 141.863 461.502 142.722 461.41L144.469 461.203C151.58 460.207 158.611 458.711 165.511 456.726C181.01 452.403 196.172 446.355 211.664 441.925C231.694 436.214 253.824 433.408 273.179 440.391V368.551H106.978ZM273.141 141.181V0.00766829C254.949 -0.189427 236.806 1.93833 219.153 6.33927C177.078 16.9098 139.326 39.837 106.978 69.1187V141.173H115.318V144.446H106.978V255.962H273.141V144.454H149.559V141.181H273.141ZM486.568 93.4947C476.158 93.1267 465.81 89.8306 456.45 84.7408C438.552 75.0057 424.256 59.9739 408.281 47.2877C375.09 20.8652 333.927 4.92118 291.698 0.965841V141.181H528.904L529.494 140.56L486.568 93.4947ZM508.176 89.662L531.088 114.804V83.0697C523.415 84.0202 516.693 86.2815 508.207 89.6313L508.176 89.662ZM531.088 482.229V368.551H482.267C482.137 368.069 482.007 367.578 481.853 367.087C481.999 367.578 482.122 368.069 482.26 368.551H291.729V450.763C293.538 452.104 295.324 453.515 297.095 454.948C299.004 456.481 300.889 458.098 302.783 459.685L304.691 461.264C305.603 462.031 306.523 462.797 307.451 463.518C309.29 465.01 311.148 466.482 313.023 467.933C313.951 468.7 314.902 469.39 315.844 470.11C330.813 481.554 346.602 491.882 363.086 501.009C366.781 503.053 370.509 505.049 374.27 506.996C376.776 508.276 379.298 509.548 381.828 510.783C385.63 512.638 389.463 514.426 393.326 516.148C428.944 532.137 466.608 543.109 505.241 548.749C513.821 550.017 522.434 551.013 531.081 551.739V482.221H531.847L531.088 482.229ZM291.729 144.454V255.962H531.119V144.454H291.729ZM291.729 259.235V365.278H531.119V259.235H291.729ZM549.7 82.9318V118.33L578.943 86.2432C569.254 84.6795 559.506 83.5629 549.7 82.8934V82.9318ZM549.7 259.274V365.278H782.536V259.235L549.7 259.274ZM781.685 490.646L782.505 368.551H549.7V552.958C564.697 553.588 579.718 553.408 594.696 552.421H594.956C602.111 551.971 609.232 551.317 616.32 550.459H616.481C654.294 546.058 691.269 536.192 726.249 521.169M827.432 276.697C826.558 274.635 825.646 272.589 824.718 270.565C822.986 266.732 821.154 263.007 819.268 259.281H801.101V365.278H847.032C847.009 335.261 839.413 304.599 827.455 276.659L827.432 276.697ZM801.101 368.59V473.605C814.04 461.203 824.971 447.014 832.844 430.794C842.31 411.263 846.641 390.114 846.994 368.574L801.101 368.59ZM801.101 228.375V255.97H817.567C812.586 246.471 807.097 237.246 801.124 228.336L801.101 228.375ZM643.194 103.736C641.983 103.276 640.772 102.808 639.553 102.356C626.699 97.6089 613.564 93.6613 600.222 90.5358L555.472 139.648L554.613 140.56L555.188 141.189H714.46C692.277 125.92 668.363 113.335 643.217 103.697L643.194 103.736ZM719.128 144.492H552.965L549.7 147.482V255.962H578.322H578.368H782.566V203.416C764.095 181.076 742.774 161.253 719.151 144.454L719.128 144.492Z" fill="#7EA6F4"/>
        <path opacity="0.1" d="M88.4048 200.703V255.962H10.8542C10.8542 255.64 10.9078 255.311 10.9308 254.989C10.9998 254.107 11.0688 253.226 11.1455 252.352C11.2298 251.325 11.3218 250.29 11.4214 249.286C11.5211 248.282 11.6284 247.055 11.7434 245.944C11.8584 244.832 11.9657 243.705 12.096 242.594C12.2263 241.482 12.3413 240.371 12.4792 239.267C12.6172 238.163 12.7399 237.044 12.8855 235.94C13.0005 235.021 13.1231 234.108 13.2458 233.189C13.4221 231.893 13.6061 230.59 13.8054 229.302C13.8054 229.111 13.859 228.911 13.8897 228.727C15.2888 219.3 17.1951 209.955 19.6004 200.733L88.4048 200.703Z" fill="#7EA6F4"/>
        <path opacity="0.1" d="M10.6089 259.243H88.4048V365.278H16.3042C16.1126 366.367 15.9286 367.463 15.7293 368.559H88.4048V454.074C88.2745 454.036 88.1595 453.99 88.0369 453.944C85.9825 453.131 83.9436 452.273 81.9046 451.353L80.6014 450.763C78.5574 449.797 76.5132 448.775 74.4691 447.697C73.7563 447.321 73.0434 446.93 72.3382 446.531C60.9902 440.175 50.6812 432.12 41.7686 422.646C41.508 422.393 41.2627 422.125 41.0021 421.88C39.7603 420.53 38.5415 419.166 37.361 417.771L36.0579 416.238C34.6628 414.528 33.3137 412.773 32.0029 410.995C31.8113 410.734 31.6273 410.473 31.428 410.228C26.0971 402.837 21.6708 394.833 18.2436 386.389C18.1363 386.136 18.0443 385.86 17.9446 385.622C16.8919 382.914 15.9593 380.18 15.1468 377.42C14.7942 376.263 14.4569 375.121 14.1656 373.917C14.0583 373.565 13.9663 373.22 13.882 372.875C9.52804 355.881 9.01447 338.227 9.01447 320.697C9.01447 318.65 9.01447 316.596 9.01447 314.564C9.01447 307.474 9.09878 300.337 9.22143 293.208C9.22143 291.361 9.29808 289.521 9.33641 287.666C9.44373 282.96 9.59703 278.253 9.79633 273.547C9.84233 272.236 9.90365 270.933 9.97264 269.63C9.97264 268.879 10.011 268.127 10.0876 267.376C10.2716 264.647 10.4249 261.941 10.6089 259.243Z" fill="#7EA6F4"/>
        <path opacity="0.1" d="M165.473 160.421V255.962H106.978V160.421H115.318V128.073H149.552V160.421H165.473Z" fill="#7EA6F4"/>
        <path opacity="0.1" d="M165.473 259.236H106.986V365.271H165.473V259.236Z" fill="#7EA6F4"/>
        <path opacity="0.1" d="M106.978 368.559H165.473V456.711C158.573 458.694 151.541 460.187 144.431 461.18L142.683 461.395C141.825 461.494 140.974 461.579 140.131 461.663C139.288 461.747 138.414 461.809 137.563 461.862H137.295C136.927 461.862 136.528 461.908 136.168 461.916H135.777C135.317 461.916 134.857 461.962 134.397 461.977C133.746 462.015 133.094 462.023 132.427 462.031C132.144 462.031 131.875 462.031 131.592 462.031C130.932 462.031 130.281 462.031 129.622 462.031H128.173C127.782 462.031 127.406 462.031 127 462.031L125.521 461.977C124.754 461.977 123.926 461.893 123.129 461.839L121.657 461.732L119.825 461.563C118.537 461.448 117.257 461.303 115.993 461.126L114.459 460.912L113.693 460.804C112.413 460.605 111.148 460.39 109.86 460.145C108.917 459.984 107.982 459.785 107.032 459.593L106.978 368.559Z" fill="#7EA6F4"/>
        <path opacity="0.1" d="M531.119 149.138H482.888V255.955H531.119V149.138Z" fill="#7EA6F4"/>
        <path opacity="0.1" d="M531.127 259.236V365.278H291.729V319.539H419.243V346.521H482.888V259.236H531.127Z" fill="#7EA6F4"/>
        <path opacity="0.1" d="M531.885 482.252H531.119V551.815C522.483 551.085 513.872 550.091 505.287 548.834C466.635 543.175 428.955 532.18 393.326 516.164C383.039 511.534 372.962 506.48 363.094 501.002C346.61 491.87 330.818 481.542 315.844 470.102C312.083 467.22 308.371 464.272 304.707 461.257C302.169 459.164 299.647 457.018 297.095 454.933C295.324 453.499 293.538 452.089 291.729 450.74V368.559H482.252C482.122 368.069 481.991 367.578 481.853 367.095C481.999 367.578 482.137 368.069 482.267 368.559H531.119V482.206C531.38 482.214 531.632 482.237 531.885 482.252Z" fill="#7EA6F4"/>
        <path opacity="0.1" d="M656.908 141.181H625.48V131.415H639.569V102.325C640.79 102.77 642.006 103.227 643.217 103.697V131.415H656.908V141.181Z" fill="#7EA6F4"/>
        <path opacity="0.1" d="M732.626 255.962H578.338C578.338 255.962 578.338 255.962 578.391 256.001L578.322 255.962H549.7V149.145H557.81V228.099H594.872V181.34H625.487V144.462H656.915V181.371H687.531V228.129H732.626V255.962Z" fill="#7EA6F4"/>
        <path opacity="0.1" d="M549.7 259.236V365.278H732.626V259.236H549.7ZM782.283 490.101L782.536 406.166H732.626V368.605H549.7V552.958C564.697 553.588 579.718 553.408 594.696 552.421H594.956C602.111 551.971 609.232 551.317 616.32 550.459H616.481C654.294 546.058 691.269 536.192 726.249 521.169" fill="#7EA6F4"/>
        <path opacity="0.1" d="M804.351 368.559H847.025C846.649 390.091 842.326 411.24 832.867 430.771C824.994 446.999 814.056 461.188 801.132 473.583V406.127H804.351V368.559Z" fill="#7EA6F4"/>
        <path opacity="0.1" d="M847.048 365.278H804.351V276.659H827.455C839.413 304.599 847.009 335.261 847.048 365.278Z" fill="#7EA6F4"/>
        <path opacity="0.1" d="M531.127 178.833H505.287V212.323H531.127V178.833Z" fill="#7EA6F4"/>
        <path opacity="0.1" d="M531.127 248.251H505.287V255.962H531.127V248.251Z" fill="#7EA6F4"/>
        <path opacity="0.1" d="M531.127 259.236H505.287V281.733H531.127V259.236Z" fill="#7EA6F4"/>
        <path opacity="0.1" d="M531.127 317.669H505.287V351.159H531.127V317.669Z" fill="#7EA6F4"/>
        <path opacity="0.1" d="M531.127 387.086H505.287V420.576H531.127V387.086Z" fill="#7EA6F4"/>
        <path opacity="0.1" d="M531.119 482.206C531.38 482.206 531.632 482.206 531.885 482.252H531.119V490.032H505.287V456.504H531.119V482.206Z" fill="#7EA6F4"/>
        <path opacity="0.1" d="M531.119 525.906V551.777C522.483 551.046 513.872 550.052 505.287 548.795V525.906H531.119Z" fill="#7EA6F4"/>
        <path opacity="0.1" d="M402.471 362.818H291.729V365.278H402.471V362.818Z" fill="#7EA6F4"/>
        <path opacity="0.1" d="M402.471 368.551H291.729V377.98H402.471V368.551Z" fill="#7EA6F4"/>
        <path opacity="0.1" d="M402.471 408.887H291.729V424.049H402.471V408.887Z" fill="#7EA6F4"/>
        <path opacity="0.1" d="M402.463 454.956V470.118H315.844C312.083 467.246 308.368 464.297 304.699 461.272C302.162 459.179 299.647 457.033 297.087 454.956H402.463Z" fill="#7EA6F4"/>
        <path opacity="0.1" d="M402.463 501.017V516.164H393.318C383.042 511.529 372.967 506.472 363.094 500.994L402.463 501.017Z" fill="#7EA6F4"/>
        <path opacity="0.1" d="M616.504 269.515H594.703V291.315H616.504V269.515Z" fill="#7EA6F4"/>
        <path opacity="0.1" d="M144.485 167.941H122.684V189.741H144.485V167.941Z" fill="#7EA6F4"/>
        <path opacity="0.1" d="M144.485 218.578H122.684V240.379H144.485V218.578Z" fill="#7EA6F4"/>
        <path opacity="0.1" d="M144.485 269.216H122.684V291.016H144.485V269.216Z" fill="#7EA6F4"/>
        <path opacity="0.1" d="M144.485 319.846H122.684V341.646H144.485V319.846Z" fill="#7EA6F4"/>
        <path opacity="0.1" d="M144.485 370.483H122.684V392.284H144.485V370.483Z" fill="#7EA6F4"/>
        <path opacity="0.1" d="M144.485 421.121H122.684V442.921H144.485V421.121Z" fill="#7EA6F4"/>
        <path opacity="0.1" d="M699.727 269.515H677.926V291.315H699.727V269.515Z" fill="#7EA6F4"/>
        <path opacity="0.1" d="M616.504 323.287H594.703V345.088H616.504V323.287Z" fill="#7EA6F4"/>
        <path opacity="0.1" d="M699.727 323.287H677.926V345.088H699.727V323.287Z" fill="#7EA6F4"/>
        <path opacity="0.1" d="M616.504 377.052H594.703V398.853H616.504V377.052Z" fill="#7EA6F4"/>
        <path opacity="0.1" d="M699.727 377.052H677.926V398.853H699.727V377.052Z" fill="#7EA6F4"/>
        <path opacity="0.1" d="M616.504 430.825H594.703V452.625H616.504V430.825Z" fill="#7EA6F4"/>
        <path opacity="0.1" d="M699.727 430.825H677.926V452.625H699.727V430.825Z" fill="#7EA6F4"/>
        <path opacity="0.1" d="M616.504 484.598H594.703V506.398H616.504V484.598Z" fill="#7EA6F4"/>
        <path opacity="0.1" d="M699.727 484.598H677.926V506.398H699.727V484.598Z" fill="#7EA6F4"/>
        <path opacity="0.1" d="M594.703 552.421V538.363H616.496V550.42L594.703 552.421Z" fill="#7EA6F4"/>
        <path opacity="0.1" d="M13.7977 228.712V241.184H88.4048V228.712H13.7977ZM21.2331 240.402H15.1468V229.479H21.2791L21.2331 240.402ZM28.6608 240.402H22.5285V229.479H28.6608V240.402ZM36.0733 240.402H29.941V229.479H36.0733V240.402ZM43.501 240.402H37.3764V229.479H43.5087L43.501 240.402ZM50.9211 240.402H44.7888V229.479H50.9211V240.402ZM58.3489 240.402H52.2166V229.479H58.3489V240.402ZM65.7766 240.402H59.6443V229.479H65.7766V240.402ZM73.1967 240.402H67.0644V229.479H73.1967V240.402ZM80.6168 240.402H74.4845V229.479H80.6168V240.402ZM88.0369 240.402H81.9046V229.479H88.0369V240.402Z" fill="#7EA6F4"/>
        <path opacity="0.1" d="M13.7977 265V277.471H88.4048V265H13.7977ZM21.2331 276.682H15.1468V265.789H21.2791L21.2331 276.682ZM28.6608 276.682H22.5285V265.789H28.6608V276.682ZM36.0733 276.682H29.941V265.789H36.0733V276.682ZM43.501 276.682H37.3764V265.789H43.5087L43.501 276.682ZM50.9211 276.682H44.7888V265.789H50.9211V276.682ZM58.3489 276.682H52.2166V265.789H58.3489V276.682ZM65.7766 276.682H59.6443V265.789H65.7766V276.682ZM73.1967 276.682H67.0644V265.789H73.1967V276.682ZM80.6168 276.682H74.4845V265.789H80.6168V276.682ZM88.0369 276.682H81.9046V265.789H88.0369V276.682Z" fill="#7EA6F4"/>
        <path opacity="0.1" d="M13.7977 301.303V313.798H88.4048V301.303H13.7977ZM21.2331 312.985H15.1468V302.085H21.2791L21.2331 312.985ZM28.6608 312.985H22.5285V302.085H28.6608V312.985ZM36.0733 312.985H29.941V302.085H36.0733V312.985ZM43.501 312.985H37.3764V302.085H43.5087L43.501 312.985ZM50.9211 312.985H44.7888V302.085H50.9211V312.985ZM58.3489 312.985H52.2166V302.085H58.3489V312.985ZM65.7766 312.985H59.6443V302.085H65.7766V312.985ZM73.1967 312.985H67.0644V302.085H73.1967V312.985ZM80.6168 312.985H74.4845V302.085H80.6168V312.985ZM88.0369 312.985H81.9046V302.085H88.0369V312.985Z" fill="#7EA6F4"/>
        <path opacity="0.1" d="M13.7977 337.606V350.063H88.4048V337.606H13.7977ZM21.2331 349.288H15.1468V338.381H21.2791L21.2331 349.288ZM28.6608 349.288H22.5285V338.381H28.6608V349.288ZM36.0733 349.288H29.941V338.381H36.0733V349.288ZM43.501 349.288H37.3764V338.381H43.5087L43.501 349.288ZM50.9211 349.288H44.7888V338.381H50.9211V349.288ZM58.3489 349.288H52.2166V338.381H58.3489V349.288ZM65.7766 349.288H59.6443V338.381H65.7766V349.288ZM73.1967 349.288H67.0644V338.381H73.1967V349.288ZM80.6168 349.288H74.4845V338.381H80.6168V349.288ZM88.0369 349.288H81.9046V338.381H88.0369V349.288Z" fill="#7EA6F4"/>
        <path opacity="0.1" d="M14.1196 373.902C14.4186 375.075 14.7559 376.248 15.1085 377.405V374.684H21.2408V385.584H17.96C18.0596 385.837 18.1593 386.113 18.2589 386.351H88.4048V373.902H14.1196ZM28.6839 385.584H22.5515V374.684H28.6839V385.584ZM36.0963 385.584H29.964V374.684H36.0963V385.584ZM43.524 385.584H37.3764V374.684H43.5087L43.524 385.584ZM50.9441 385.584H44.8118V374.684H50.9441V385.584ZM58.3719 385.584H52.2396V374.684H58.3719V385.584ZM65.7996 385.584H59.6673V374.684H65.7996V385.584ZM73.2197 385.584H67.0874V374.684H73.2197V385.584ZM80.6398 385.584H74.5075V374.684H80.6398V385.584ZM88.0599 385.584H81.9276V374.684H88.0599V385.584Z" fill="#7EA6F4"/>
        <path opacity="0.1" d="M31.4434 410.205C31.6351 410.45 31.819 410.726 32.0183 410.972H36.0733V416.207C36.5102 416.728 36.9395 417.25 37.3841 417.74V410.941H43.5164V421.88H41.0328C41.2781 422.133 41.5157 422.401 41.7993 422.646H88.4279V410.205H31.4434ZM50.9211 421.88H44.7888V410.987H50.9211V421.88ZM58.3489 421.88H52.2166V410.987H58.3489V421.88ZM65.7767 421.88H59.6444V410.987H65.7767V421.88ZM73.1967 421.88H67.0644V410.987H73.1967V421.88ZM80.6168 421.88H74.4845V410.987H80.6168V421.88ZM88.0369 421.88H81.9046V410.987H88.0369V421.88Z" fill="#7EA6F4"/>
        <path opacity="0.1" d="M72.3688 446.501C73.0664 446.899 73.7793 447.267 74.4998 447.666V447.283H80.6321V450.732L81.9352 451.338V447.283H88.0675V453.913C88.1851 453.972 88.3084 454.018 88.4355 454.051V446.501H72.3688Z" fill="#7EA6F4"/>
        <path opacity="0.1" d="M578.338 255.962H578.384H578.338ZM531.119 482.198H531.885H531.119ZM481.853 367.087C481.999 367.578 482.122 368.069 482.26 368.551C482.137 368.069 482.007 367.578 481.853 367.087ZM578.338 255.939H578.384H578.338ZM115.349 141.158V144.431H149.59V141.158H115.349ZM531.119 482.198H531.885H531.119ZM481.853 367.087C481.999 367.578 482.122 368.069 482.26 368.551C482.137 368.069 482.007 367.578 481.853 367.087ZM578.338 255.939H578.384H578.338ZM531.119 482.175H531.885H531.119ZM481.853 367.087C481.999 367.578 482.122 368.069 482.26 368.551C482.137 368.069 482.007 367.578 481.853 367.087Z" fill="#7EA6F4"/>
        <path d="M353.834 291.032C353.834 291.032 350.814 290.61 350.814 286.21C350.814 281.81 348.652 273.593 348.652 273.593C348.652 273.554 346.782 259.282 344.199 257.013C341.615 254.744 338.296 241.421 338.296 241.421C338.296 241.421 337.729 234.193 336.572 232.637C335.414 231.081 333.85 227.271 331.543 221.836C329.236 216.401 319.616 212.638 319.616 212.638C319.616 212.638 302.223 202.55 297.294 199.262C296.846 198.991 296.427 198.675 296.045 198.319C295.186 197.192 291.445 197.169 291.445 197.169C291.054 194.701 290.679 191.864 290.556 189.297C290.556 189.021 290.556 188.745 290.518 188.469C296.014 185.22 300.154 180.098 302.177 174.042C302.269 173.751 302.346 173.445 302.43 173.153C302.759 173.045 303.062 172.869 303.32 172.636C303.577 172.404 303.783 172.121 303.925 171.804C304.369 170.815 304.377 169.658 304.929 168.738C305.573 167.65 306.799 167.067 307.765 166.247C310.203 164.177 310.831 160.689 310.716 157.516C310.64 154.948 310.226 152.357 310.387 149.805L310.433 149.161C310.479 148.777 310.532 148.394 310.601 148.026C310.977 146.125 311.797 144.331 312.257 142.446C312.717 140.56 312.763 138.437 311.69 136.812C310.118 134.428 306.845 133.953 303.971 133.707C300.713 133.431 297.8 133.792 295.715 131.086C294.739 129.671 293.641 128.345 292.434 127.123C292.005 126.724 287.835 124.179 287.835 124.011C283.765 122.126 279.152 121.772 274.842 123.014C272.681 123.643 270.642 124.67 268.449 125.183C263.72 126.302 258.277 125.091 254.261 127.797C252.022 129.33 250.681 131.768 249.424 134.144C248.402 136.101 247.364 138.056 246.312 140.008C244.618 143.22 242.893 146.485 242.18 150.042C242.03 150.816 241.938 151.6 241.904 152.388V152.426C241.904 152.71 241.904 152.993 241.904 153.277V153.637C241.904 153.906 241.904 154.166 241.95 154.404C241.996 154.641 241.988 154.718 242.011 154.879C242.034 155.04 242.073 155.4 242.119 155.646C242.165 155.891 242.257 156.32 242.349 156.657C242.387 156.803 242.441 156.941 242.487 157.079C242.563 157.34 242.655 157.593 242.755 157.846C242.809 157.976 242.862 158.114 242.924 158.244C243.039 158.512 243.177 158.773 243.314 159.011C243.376 159.118 243.422 159.218 243.483 159.317C243.697 159.674 243.932 160.017 244.188 160.344C245.829 162.391 248.243 163.694 250.029 165.611C250.029 165.687 250.029 165.764 250.029 165.833C250.029 166.047 250.029 166.254 250.029 166.469C250.124 170.743 251.262 174.929 253.343 178.663C255.424 182.397 258.387 185.566 261.972 187.894C261.972 188.185 262.01 188.484 262.026 188.775C262.175 191.051 262.147 193.334 261.941 195.605C261.629 195.238 261.238 194.945 260.798 194.748C260.358 194.552 259.879 194.457 259.396 194.471C259.067 194.455 258.737 194.483 258.415 194.555L258.346 194.501V194.57C256.66 194.984 254.583 196.74 252.597 201.73C252.597 201.73 246.557 208.537 241.958 208.253C237.359 207.969 225.715 215.336 225.715 215.336C225.715 215.336 214.355 222.71 211.917 230.222C210.555 234.482 208.921 238.65 207.027 242.701L192.984 271.638L190.393 294.596C190.393 294.596 191.826 304.806 191.543 306.362C191.259 307.918 197.437 321.954 197.437 321.954C197.437 321.954 217.85 357.82 226.19 359.66L226.788 359.238C227.145 359.424 227.523 359.566 227.915 359.66L229.632 358.449C229.735 359.798 229.691 361.155 229.501 362.496C228.352 366.037 229.931 389.148 231.939 393.679C233.947 398.209 233.235 457.608 233.235 457.608L232.951 462.851C232.951 462.851 232.951 463.02 233.02 463.311L232.951 464.553L233.158 464.66C233.373 466.323 233.303 468.011 232.951 469.65C232.23 471.95 231.939 478.45 231.939 478.45C231.939 478.45 226.198 515.152 228.919 522.526C231.64 529.9 233.955 537.979 233.955 537.979C233.955 537.979 236.83 547.178 234.093 548.749C231.357 550.321 223.576 552.958 225.178 556.79C226.635 560.332 232.161 569.821 232.982 571.209L232.913 571.937L231.786 584.148C231.968 585.76 232.405 587.333 233.081 588.809C234.315 591.468 236.715 594.228 241.276 593.929C242.042 593.875 242.931 593.783 243.79 593.668C252.137 592.549 262.417 588.824 262.417 588.824C261.883 588.485 261.394 588.081 260.96 587.62C260.55 587.223 260.225 586.746 260.005 586.219C259.785 585.692 259.674 585.125 259.68 584.554C259.803 582.331 255.64 571.738 254.606 569.132C254.445 568.756 254.36 568.541 254.36 568.541C254.36 568.541 263.85 558.622 262.271 549.83C262.271 549.83 251.769 543.698 255.227 540.333C258.684 536.968 264.862 527.302 264.862 527.302C264.862 527.302 265.145 491.159 264.862 485.763C264.566 482.017 264.744 478.249 265.391 474.548C265.506 473.989 265.644 473.445 265.789 472.908C270.57 473.622 275.397 473.988 280.231 474.004C281.994 474.004 283.788 474.004 285.597 473.897C285.597 474.408 285.62 474.96 285.666 475.553C286.064 484.506 286.808 500.204 287.413 506.038C288.272 514.401 293.017 536.937 293.017 536.937C293.017 536.937 283.964 542.747 294.596 557.066C294.596 557.066 294.596 562.256 293.891 563.007C293.138 565.463 292.531 567.961 292.074 570.488C291.629 573.187 291.445 575.915 292.166 577.333C293.891 580.722 304.239 580.446 304.239 580.446L304.492 580.4C306.446 580.198 308.42 580.386 310.3 580.953C312.181 581.52 313.93 582.455 315.446 583.703C319.378 586.862 334.303 585.474 342.382 584.47C345.548 584.071 347.663 583.703 347.663 583.703C347.766 583.345 347.802 582.971 347.771 582.6C347.686 580.614 346.13 576.26 335.583 572.374C335.583 572.374 325.664 565.705 325.802 559.895H325.595H324.445C325.28 559.849 325.817 559.895 325.817 559.895C325.817 559.895 321.931 545.714 323.517 544.564C325.104 543.414 320.352 527.7 320.352 527.7C320.352 527.7 317.63 501.331 317.485 499.484C317.491 497.899 317.731 496.323 318.198 494.808L317.485 480.351C317.485 480.351 317.347 475.545 317.485 473.981C317.461 472.624 317.351 471.269 317.155 469.926C317.086 469.39 317.017 468.83 316.94 468.278C320.658 467.335 323.073 466.461 323.073 466.461L322.644 416.138C325.802 410.006 326.384 396.553 326.369 387.01C326.369 380.877 326.093 376.34 326.093 376.34L330.409 369.295C330.409 369.295 331.405 360.863 329.826 359.016C329.128 358.18 329.443 357.314 330.018 356.601C330.316 356.364 330.631 356.149 330.96 355.957C330.96 355.957 330.914 355.888 330.861 355.789C331.162 355.537 331.482 355.309 331.819 355.106C331.819 355.106 330.286 352.73 331.658 351.726C332.946 352.6 334.096 353.259 334.969 353.796C334.908 354.355 334.847 354.677 334.847 354.677L335.215 353.911C336.058 354.386 336.572 354.677 336.572 354.677C336.572 354.677 343.332 341.209 343.187 339.224C343.041 337.238 347.786 328.876 347.786 328.876C347.786 328.876 348.361 324.483 350.952 322.644C353.543 320.804 352.96 307.474 352.96 307.474C352.96 307.474 353.681 300.529 355.405 297.693C357.13 294.857 353.834 291.032 353.834 291.032ZM224.473 285.122L224.603 288.333C223.837 287.099 223.285 286.21 223.285 286.21L224.473 285.122Z" fill="url(#paint0_linear_145_1926)"/>
        <path d="M336.939 348.859L335.284 355.911C335.284 355.911 322.023 349.143 319.631 340.542C317.239 331.942 323.632 328.676 323.632 328.676L335.989 333.912L336.939 348.859Z" fill="white"/>
        <path opacity="0.1" d="M336.939 348.859L335.284 355.911C335.284 355.911 322.023 349.143 319.631 340.542C317.239 331.942 323.632 328.676 323.632 328.676L335.989 333.912L336.939 348.859Z" fill="black"/>
        <path d="M262.516 588.87C262.516 588.87 250.252 593.377 241.82 593.944C237.343 594.243 234.99 591.499 233.779 588.855C233.117 587.384 232.69 585.82 232.514 584.217L233.61 572.067L234.193 565.598L252.107 560.945L254.644 568.702L254.882 569.292C255.901 571.883 259.987 582.423 259.864 584.623C259.859 585.187 259.968 585.745 260.184 586.265C260.4 586.786 260.719 587.257 261.121 587.651C261.532 588.115 262.001 588.525 262.516 588.87Z" fill="white"/>
        <path d="M346.291 582.692C346.322 583.06 346.286 583.432 346.184 583.788C346.184 583.788 319.953 588.165 314.587 583.788C313.074 582.509 311.311 581.561 309.41 581.004C307.509 580.447 305.513 580.293 303.549 580.553C303.549 580.553 293.4 580.829 291.706 577.487C291.001 576.084 291.185 573.363 291.622 570.68C292.067 568.166 292.661 565.681 293.4 563.237L293.806 562.915L296.221 560.976L324.491 560.14H324.706C324.568 565.92 334.303 572.55 334.303 572.55C344.643 576.383 346.169 580.714 346.291 582.692Z" fill="white"/>
        <path opacity="0.1" d="M346.291 582.692C346.318 583.061 346.279 583.432 346.176 583.788C346.176 583.788 319.953 588.165 314.587 583.788C313.075 582.51 311.313 581.562 309.414 581.005C307.514 580.448 305.519 580.294 303.557 580.553C303.557 580.553 293.4 580.829 291.714 577.487C291.008 576.076 291.185 573.363 291.622 570.68C295.531 571.071 301.702 572.044 304.124 574.367C307.788 577.901 313.997 581.427 317.807 581.703C320.788 581.894 338.626 582.462 346.291 582.692Z" fill="black"/>
        <path opacity="0.1" d="M262.516 588.87C262.516 588.87 250.252 593.377 241.82 593.944C237.343 594.243 234.99 591.499 233.786 588.847C236.906 589.897 241.237 591.001 243.514 589.989C246.212 588.793 255.778 588.019 261.144 587.689C261.553 588.136 262.013 588.533 262.516 588.87Z" fill="black"/>
        <path d="M280.714 225.646C270.596 221.713 257.58 208.721 260.83 202.65C261.552 201.118 261.981 199.464 262.095 197.774C262.304 195.481 262.335 193.174 262.187 190.876C261.959 187.111 261.506 183.364 260.83 179.654C260.83 179.654 292.419 180.366 290.579 185.019C290.043 186.384 289.958 188.752 290.104 191.405C290.25 194.057 290.633 197.054 291.032 199.591C291.583 203.071 292.135 205.723 292.135 205.723C292.135 205.723 290.204 208.429 289.069 208.575C287.935 208.721 295.232 231.249 280.714 225.646Z" fill="#CF6F80"/>
        <path opacity="0.1" d="M254.859 569.292L254.621 569.553C245.177 558.132 233.756 572.366 233.756 572.366L233.587 572.067L234.17 565.598L252.084 560.945L254.621 568.702L254.859 569.292Z" fill="black"/>
        <path opacity="0.1" d="M324.713 560.945C324.713 560.945 317.814 560.799 314.135 564.049C310.456 567.299 292.672 564.755 293.438 564.049C293.666 563.7 293.802 563.3 293.837 562.884L296.252 560.945L324.522 560.109C324.629 560.623 324.713 560.945 324.713 560.945Z" fill="black"/>
        <path d="M266.61 471.252C266.096 472.523 265.706 473.839 265.444 475.185C264.805 478.868 264.628 482.618 264.916 486.345C265.199 491.711 264.916 527.67 264.916 527.67C264.916 527.67 258.852 537.259 255.472 540.639C252.091 544.02 262.371 550.091 262.371 550.091C263.904 558.829 254.613 568.702 254.613 568.702C245.17 557.281 233.748 571.523 233.748 571.523C233.748 571.523 227.539 560.792 225.991 556.959C224.442 553.126 232.054 550.474 234.729 548.918C237.404 547.362 234.599 538.186 234.599 538.186C234.599 538.186 232.338 530.145 229.655 522.81C226.972 515.474 232.614 478.956 232.614 478.956C232.614 478.956 232.905 472.471 233.602 470.21C233.954 468.578 234.024 466.898 233.809 465.243C233.763 464.683 233.71 464.215 233.671 463.901C233.633 463.587 233.602 463.441 233.602 463.441L233.71 463.257L237.542 456.113C237.542 456.113 268.449 466.753 266.61 471.252Z" fill="#7EA6F4"/>
        <path d="M324.713 560.102C324.713 560.102 317.814 559.956 314.135 563.168C310.456 566.38 292.672 563.873 293.438 563.168C294.205 562.463 294.144 557.243 294.144 557.243C283.711 543 292.611 537.22 292.611 537.22C292.611 537.22 287.95 514.799 287.107 506.482C286.517 500.672 285.788 485.058 285.397 476.143C285.229 472.31 285.129 469.673 285.129 469.673L293.653 467.956L294.749 467.734L315.308 463.61C315.308 463.61 315.875 467.443 316.258 470.578C316.449 471.916 316.557 473.265 316.58 474.617C316.442 476.15 316.58 480.949 316.58 480.949L317.278 495.337C316.822 496.846 316.587 498.413 316.58 499.99C316.718 501.822 319.393 528.053 319.393 528.053C319.393 528.053 324.046 543.705 322.46 544.832C320.873 545.959 324.713 560.102 324.713 560.102Z" fill="#7EA6F4"/>
        <path opacity="0.1" d="M290.579 185.019C290.043 186.384 289.958 188.752 290.104 191.405C285.873 193.952 281.009 195.255 276.07 195.163C271.132 195.071 266.32 193.587 262.187 190.883C261.959 187.116 261.506 183.366 260.83 179.654C260.83 179.654 292.419 180.351 290.579 185.019Z" fill="black"/>
        <path d="M302.79 168.079C302.796 170.841 302.362 173.587 301.502 176.212C299.582 182.094 295.644 187.108 290.384 190.367C285.125 193.627 278.882 194.922 272.76 194.024C266.638 193.126 261.03 190.092 256.928 185.46C252.826 180.827 250.494 174.893 250.344 168.707C250.344 168.493 250.344 168.293 250.344 168.079C250.284 164.597 250.919 161.138 252.21 157.904C253.501 154.67 255.424 151.725 257.865 149.242C260.306 146.758 263.218 144.786 266.429 143.439C269.641 142.093 273.088 141.399 276.571 141.399C280.053 141.399 283.501 142.093 286.712 143.439C289.924 144.786 292.835 146.758 295.277 149.242C297.718 151.725 299.64 154.67 300.932 157.904C302.223 161.138 302.857 164.597 302.798 168.079H302.79Z" fill="#CF6F80"/>
        <path opacity="0.1" d="M280.714 225.646C270.596 221.713 257.58 208.721 260.83 202.65C261.552 201.118 261.981 199.464 262.095 197.774L275.946 209.158L284.516 216.187L291.032 199.599C291.583 203.079 292.135 205.731 292.135 205.731C292.135 205.731 290.204 208.437 289.069 208.583C287.935 208.728 295.232 231.249 280.714 225.646Z" fill="black"/>
        <path d="M316.534 275.954L304.967 470.271L289.882 471.26L250.819 358.587L257.227 224.818L258.576 196.556L275.946 210.821L284.524 217.85L291.231 200.779L303.702 211.649L316.534 275.954Z" fill="#7EA6F4"/>
        <path opacity="0.1" d="M266.61 471.252C266.096 472.523 265.706 473.839 265.444 475.185C254.468 473.49 243.807 470.159 233.817 465.304L233.61 465.197L233.679 463.962L233.717 463.319L237.55 456.174C237.55 456.174 268.449 466.753 266.61 471.252Z" fill="black"/>
        <path opacity="0.1" d="M293.829 475.215C291.023 475.693 288.193 476.015 285.351 476.181C285.183 472.348 285.083 469.712 285.083 469.712L293.607 467.995L293.829 475.215Z" fill="black"/>
        <path opacity="0.1" d="M316.212 470.616C310.762 472.034 302.346 473.629 294.811 472.632L294.703 467.772L315.262 463.648C315.262 463.648 315.829 467.443 316.212 470.616Z" fill="black"/>
        <path opacity="0.1" d="M294.673 473.521C263.244 478.887 234.461 463.503 234.461 463.503L234.737 458.29C234.737 458.29 235.45 399.198 233.472 394.667C231.494 390.137 229.954 367.164 231.073 363.638C232.192 360.112 226.987 307.236 226.987 307.236L226.144 285.773L195.283 273.271L209.081 244.51C210.945 240.478 212.547 236.33 213.879 232.092C216.279 224.626 227.417 217.291 227.417 217.291C227.417 217.291 238.838 209.962 243.353 210.238C247.868 210.514 253.785 203.753 253.785 203.753C258.155 192.616 262.11 197.659 262.11 197.659C262.11 198.188 262.11 197.66 261.895 199.308C260.362 211.534 286.685 250.167 287.061 250.85L289.567 311.912L292.105 389.187L294.673 473.521Z" fill="black"/>
        <path d="M293.829 473.521C262.401 478.887 233.61 463.503 233.61 463.503L233.894 458.29C233.894 458.29 234.607 399.198 232.621 394.667C230.636 390.137 229.103 367.164 230.23 363.638C231.357 360.112 226.144 307.236 226.144 307.236L225.293 285.773L194.417 273.225L208.215 244.464C210.074 240.43 211.677 236.283 213.013 232.046C215.405 224.58 226.55 217.245 226.55 217.245C226.55 217.245 237.972 209.916 242.479 210.192C246.986 210.468 252.912 203.707 252.912 203.707C257.289 192.57 262.11 197.614 262.11 197.614C262.11 198.142 261.65 198.38 261.895 199.262C265.268 211.12 285.842 250.121 286.218 250.804L288.755 311.866L291.292 389.141L293.829 473.521Z" fill="white"/>
        <path opacity="0.1" d="M285.359 252.544C281.979 251.133 264.072 230.69 264.072 230.69V226.037C263.421 224.504 259.55 225.439 256.407 226.512L257.756 198.25L259.289 199.522C262.647 211.373 284.968 251.861 285.359 252.544Z" fill="black"/>
        <path d="M286.21 250.85C282.822 249.439 264.916 228.996 264.916 228.996V224.343C264.264 222.81 260.393 223.745 257.25 224.818L258.607 196.556L260.14 197.828C263.505 209.679 285.834 250.175 286.21 250.85Z" fill="white"/>
        <path opacity="0.1" d="M234.461 352.807C234.883 352.807 256.315 350.553 256.315 350.553C256.315 350.553 269.292 376.071 268.442 382.28C267.591 388.489 266.05 393.985 260.83 393.012C255.61 392.038 232.736 393.778 232.736 393.778L234.461 352.807Z" fill="black"/>
        <path d="M233.61 351.113C234.032 351.113 255.464 348.859 255.464 348.859C255.464 348.859 268.434 374.385 267.591 380.586C266.748 386.787 265.192 392.291 259.979 391.318C254.767 390.344 231.885 392.084 231.885 392.084L233.61 351.113Z" fill="white"/>
        <path d="M249.761 339.132C249.761 339.132 269.43 349.702 269.852 352.929C270.274 356.157 259.841 351.519 257.587 350.959C256.104 350.602 254.594 350.366 253.073 350.254L238.041 350.661L249.761 339.132Z" fill="#CF6F80"/>
        <path opacity="0.1" d="M279.871 253.862C281.014 253.862 281.94 252.935 281.94 251.792C281.94 250.649 281.014 249.723 279.871 249.723C278.728 249.723 277.801 250.649 277.801 251.792C277.801 252.935 278.728 253.862 279.871 253.862Z" fill="black"/>
        <path d="M279.871 253.019C281.014 253.019 281.94 252.092 281.94 250.949C281.94 249.806 281.014 248.88 279.871 248.88C278.728 248.88 277.801 249.806 277.801 250.949C277.801 252.092 278.728 253.019 279.871 253.019Z" fill="#3F3D56"/>
        <path opacity="0.1" d="M283.68 343.455C284.823 343.455 285.75 342.528 285.75 341.385C285.75 340.242 284.823 339.316 283.68 339.316C282.537 339.316 281.611 340.242 281.611 341.385C281.611 342.528 282.537 343.455 283.68 343.455Z" fill="black"/>
        <path d="M283.68 342.604C284.823 342.604 285.75 341.678 285.75 340.535C285.75 339.391 284.823 338.465 283.68 338.465C282.537 338.465 281.611 339.391 281.611 340.535C281.611 341.678 282.537 342.604 283.68 342.604Z" fill="#3F3D56"/>
        <path opacity="0.1" d="M281.933 298.659C283.076 298.659 284.002 297.732 284.002 296.589C284.002 295.446 283.076 294.519 281.933 294.519C280.79 294.519 279.863 295.446 279.863 296.589C279.863 297.732 280.79 298.659 281.933 298.659Z" fill="black"/>
        <path d="M281.933 297.815C283.076 297.815 284.002 296.889 284.002 295.746C284.002 294.603 283.076 293.676 281.933 293.676C280.79 293.676 279.863 294.603 279.863 295.746C279.863 296.889 280.79 297.815 281.933 297.815Z" fill="#3F3D56"/>
        <path d="M329.642 349.825C329.642 349.825 331.052 351.941 329.642 352.929C328.232 353.918 329.78 356.31 329.78 356.31C329.78 356.31 326.262 358.372 327.81 360.227C329.358 362.082 328.377 370.46 328.377 370.46L324.146 377.466C324.146 377.466 324.399 381.981 324.414 388.083C324.414 397.603 323.855 410.987 320.758 417.089L321.187 467.151C321.187 467.151 306.37 472.563 293.967 470.915L292.128 390.582C292.128 390.582 294.811 345.026 295.799 336.288C296.378 331.751 296.614 327.177 296.505 322.605C296.505 322.605 296.083 308.93 294.665 302.583C294.665 302.583 293.132 275.088 292.979 267.476C292.91 263.835 293.101 253.211 293.316 243.108C293.553 232.062 293.822 221.644 293.822 221.644L291.024 199.507C291.024 199.507 293.822 199.223 294.665 200.35C295.043 200.703 295.453 201.019 295.891 201.293C300.721 204.558 317.784 214.6 317.784 214.6C317.784 214.6 327.227 218.356 329.489 223.737C331.75 229.118 333.321 232.936 334.418 234.469C335.514 236.002 336.112 243.207 336.112 243.207C336.112 243.207 339.362 256.468 341.899 258.714C344.436 260.96 346.291 275.248 346.291 275.248L323.87 292.879C323.87 292.879 321.9 322.207 321.478 323.341C321.057 324.476 329.642 349.825 329.642 349.825Z" fill="white"/>
        <path d="M330.493 349.825C330.493 349.825 331.896 351.941 330.493 352.929C329.09 353.918 330.623 356.31 330.623 356.31C330.623 356.31 327.128 358.395 328.661 360.25C330.194 362.105 329.228 370.483 329.228 370.483L324.997 377.489C324.997 377.489 325.25 382.004 325.273 388.106C325.273 397.626 324.713 411.01 321.616 417.112L322.038 467.174C322.038 467.174 307.198 472.586 294.811 470.938L292.979 390.605C292.979 390.605 295.661 345.049 296.65 336.311C297.23 331.774 297.463 327.2 297.348 322.628C297.348 322.628 296.926 308.953 295.516 302.606C295.516 302.606 293.983 275.11 293.822 267.499C293.753 263.858 293.952 253.233 294.159 243.131C294.397 232.085 294.665 221.667 294.665 221.667L290.97 199.231C290.97 199.231 294.665 199.231 295.516 200.373C295.89 200.73 296.301 201.046 296.742 201.316C301.571 204.581 318.642 214.623 318.642 214.623C318.642 214.623 328.078 218.379 330.34 223.76C332.601 229.141 334.172 232.959 335.276 234.492C336.38 236.025 336.962 243.23 336.962 243.23C336.962 243.23 340.213 256.491 342.75 258.737C345.287 260.983 347.119 275.241 347.119 275.241L324.698 292.871C324.698 292.871 322.728 322.199 322.299 323.333C321.869 324.468 330.493 349.825 330.493 349.825Z" fill="white"/>
        <path opacity="0.1" d="M303.641 228.175L305.665 234.078L295.01 244.809C295.247 233.771 295.516 223.346 295.516 223.346L291.821 200.91C291.821 200.91 295.516 200.91 296.367 202.052C296.74 202.408 297.151 202.721 297.593 202.987L306.654 229.126L303.641 228.175Z" fill="black"/>
        <path d="M302.79 226.481L304.822 232.384L294.167 243.115C294.404 232.069 294.673 221.652 294.673 221.652L290.97 199.216C290.97 199.216 294.673 199.216 295.516 200.358C295.892 200.713 296.303 201.028 296.742 201.301L305.81 227.432L302.79 226.481Z" fill="white"/>
        <path opacity="0.1" d="M302.79 168.079C302.796 170.841 302.362 173.587 301.502 176.212C301.358 176.234 301.21 176.228 301.068 176.192C300.925 176.157 300.792 176.093 300.675 176.005C300.475 169.106 297.08 162.629 292.902 157.117C291.729 155.453 290.307 153.98 288.686 152.748C287.047 151.517 285.008 150.94 282.968 151.131C280.668 151.445 278.637 153.009 276.314 153.208C273.248 153.461 270.504 151.338 267.46 151.23C266.223 151.242 265.003 151.518 263.881 152.038C262.758 152.559 261.76 153.313 260.953 154.25C259.354 156.142 258.166 158.345 257.465 160.72C256.26 164.322 255.603 168.084 255.518 171.881C255.479 174.027 255.273 176.718 253.28 177.5C253.43 175.921 253.25 174.329 252.753 172.823C252.255 171.318 251.451 169.932 250.39 168.753L250.344 168.707C250.344 168.493 250.344 168.293 250.344 168.079C250.284 164.597 250.919 161.138 252.21 157.904C253.501 154.67 255.424 151.725 257.865 149.242C260.306 146.758 263.218 144.786 266.429 143.439C269.641 142.093 273.088 141.399 276.571 141.399C280.053 141.399 283.501 142.093 286.712 143.439C289.924 144.786 292.835 146.758 295.277 149.242C297.718 151.725 299.64 154.67 300.932 157.904C302.223 161.138 302.857 164.597 302.798 168.079H302.79Z" fill="black"/>
        <path d="M287.429 126.433C283.446 124.559 278.915 124.205 274.689 125.436C272.566 126.065 270.565 127.084 268.411 127.598C263.812 128.709 258.446 127.506 254.498 130.196C252.306 131.73 250.988 134.152 249.761 136.505L246.695 142.346C245.024 145.543 243.338 148.793 242.64 152.311C241.942 155.83 242.364 159.77 244.595 162.598C246.22 164.66 248.619 165.955 250.382 167.895C251.438 169.074 252.239 170.46 252.735 171.963C253.231 173.467 253.411 175.057 253.264 176.633C255.265 175.867 255.456 173.169 255.502 171.022C255.588 167.225 256.244 163.463 257.449 159.862C258.149 157.486 259.337 155.282 260.937 153.392C261.746 152.455 262.744 151.702 263.866 151.181C264.988 150.66 266.208 150.385 267.445 150.372C270.511 150.479 273.263 152.595 276.299 152.342C278.598 152.15 280.637 150.579 282.952 150.272C284.993 150.079 287.033 150.656 288.671 151.89C290.291 153.119 291.711 154.593 292.879 156.259C297.064 161.77 300.46 168.232 300.659 175.146C301.525 175.783 302.775 174.955 303.204 173.973C303.633 172.992 303.649 171.843 304.193 170.907C304.822 169.827 306.025 169.252 306.968 168.439C309.359 166.377 309.957 162.905 309.865 159.754C309.773 156.604 309.16 153.407 309.758 150.31C310.118 148.409 310.931 146.631 311.375 144.753C311.82 142.875 311.874 140.767 310.824 139.15C309.29 136.773 306.063 136.306 303.25 136.084C300.054 135.808 297.194 136.16 295.155 133.47C294.198 132.066 293.121 130.747 291.936 129.53C291.53 129.131 287.429 126.601 287.429 126.433Z" fill="#512E4E"/>
        <path opacity="0.1" d="M204.114 288.08L196.103 273.271L193.566 296.121C193.566 296.121 194.977 306.27 194.693 307.826C194.409 309.382 200.473 323.333 200.473 323.333C200.473 323.333 220.502 359.008 228.681 360.848L256.315 341.102L248.987 331.796C248.987 331.796 246.45 330.807 245.813 331.796C245.813 331.796 232.207 308.386 230.797 306.692C229.387 304.998 229.662 301.617 229.662 301.617C229.662 301.617 227.547 299.364 228.252 297.248C228.957 295.132 224.166 287.797 224.166 287.797L228.536 283.711L204.114 288.08Z" fill="black"/>
        <path d="M196.525 271.584L194.409 273.271L191.872 296.121C191.872 296.121 193.283 306.27 192.999 307.826C192.715 309.382 198.786 323.333 198.786 323.333C198.786 323.333 218.808 359.008 226.987 360.848L254.629 341.102L247.293 331.796C247.293 331.796 244.756 330.807 244.119 331.796C244.119 331.796 230.513 308.386 229.103 306.692C227.692 304.998 227.976 301.617 227.976 301.617C227.976 301.617 225.86 299.364 226.566 297.248C227.271 295.132 222.472 287.797 222.472 287.797L226.842 283.711L196.525 271.584Z" fill="white"/>
        <path opacity="0.1" d="M327.81 361.101C329.343 362.963 328.377 371.326 328.377 371.326L324.146 378.333C324.146 378.333 324.399 382.855 324.414 388.949L317.301 391.172C316.658 391.373 315.976 391.417 315.313 391.301C314.65 391.185 314.024 390.911 313.487 390.504C312.951 390.097 312.52 389.567 312.23 388.959C311.94 388.351 311.799 387.683 311.82 387.01L313.046 347.449L329.642 353.796C328.232 354.777 329.78 357.184 329.78 357.184C329.78 357.184 326.262 359.238 327.81 361.101Z" fill="black"/>
        <path d="M328.661 360.25C330.194 362.113 329.228 370.483 329.228 370.483L324.997 377.489C324.997 377.489 325.25 382.004 325.273 388.106L318.029 390.367C317.399 390.563 316.732 390.605 316.083 390.491C315.434 390.377 314.821 390.109 314.296 389.71C313.771 389.311 313.349 388.792 313.065 388.197C312.781 387.602 312.643 386.948 312.663 386.289L313.897 346.605L330.501 352.952C329.082 353.934 330.631 356.333 330.631 356.333C330.631 356.333 327.128 358.395 328.661 360.25Z" fill="white"/>
        <path d="M334.157 341.393C334.157 341.393 333.03 348.591 330.209 349.012C327.388 349.434 326.124 360.656 323.31 360.258C320.497 359.859 322.36 349.825 322.46 347.878C322.559 345.931 319.393 337.867 321.762 336.035C324.131 334.203 331.627 336.035 331.627 336.035L334.157 341.393Z" fill="#CF6F80"/>
        <path opacity="0.1" d="M340.159 285.965L345.479 275.233C345.479 275.233 347.594 283.412 347.594 287.781C347.594 292.151 350.553 292.58 350.553 292.58C350.553 292.58 353.796 296.413 352.086 299.203C350.377 301.993 349.687 308.938 349.687 308.938C349.687 308.938 350.247 322.191 347.709 324.023C345.172 325.855 344.643 330.232 344.643 330.232C344.643 330.232 339.983 338.549 340.128 340.527C340.274 342.505 333.643 355.896 333.643 355.896C333.643 355.896 336.886 339.254 317.991 332.064C317.991 332.064 317.845 326.415 319.255 324.866C320.666 323.318 322.866 322.613 321.486 314.787C320.106 306.96 321.087 297.608 321.087 295.73C321.087 293.852 325.319 282.14 325.319 282.14L340.159 285.965Z" fill="black"/>
        <path d="M342.459 273.7L347.104 275.233C347.104 275.233 349.227 283.412 349.227 287.781C349.227 292.151 352.186 292.58 352.186 292.58C352.186 292.58 355.428 296.413 353.719 299.203C352.01 301.993 351.327 308.938 351.327 308.938C351.327 308.938 351.887 322.191 349.35 324.023C346.812 325.855 346.245 330.232 346.245 330.232C346.245 330.232 341.592 338.549 341.738 340.527C341.884 342.505 335.245 355.896 335.245 355.896C335.245 355.896 338.496 339.254 319.593 332.064C319.593 332.064 319.455 326.415 320.865 324.866C322.276 323.318 324.476 322.613 323.096 314.787C321.716 306.96 322.697 297.608 322.697 295.73C322.697 293.852 326.928 282.14 326.928 282.14L342.459 273.7Z" fill="white"/>
        <path opacity="0.1" d="M239.857 551.854C239.857 551.854 247.262 547.201 252.122 550.581C256.982 553.962 239.857 551.854 239.857 551.854Z" fill="black"/>
        <path opacity="0.1" d="M297.394 537.466C297.394 537.466 303.948 536.623 309.451 542.548C314.955 548.473 297.394 537.466 297.394 537.466Z" fill="black"/>
        <g opacity="0.1">
            <path d="M306.983 166.76C306.04 167.573 304.829 168.155 304.201 169.236C303.664 170.164 303.649 171.306 303.219 172.302C302.79 173.299 301.541 174.111 300.675 173.483C300.475 166.584 297.072 160.107 292.894 154.588C291.726 152.922 290.306 151.448 288.686 150.218C287.045 148.985 285.003 148.408 282.96 148.601C280.66 148.915 278.637 150.479 276.314 150.671C273.248 150.931 270.496 148.808 267.453 148.701C266.216 148.713 264.996 148.99 263.875 149.512C262.754 150.034 261.758 150.79 260.953 151.729C259.352 153.616 258.164 155.817 257.465 158.19C256.26 161.792 255.604 165.554 255.518 169.351C255.472 171.49 255.272 174.157 253.295 174.955C253.341 175.521 253.341 176.09 253.295 176.656C255.288 175.89 255.487 173.192 255.533 171.045C255.619 167.248 256.275 163.486 257.48 159.884C258.18 157.509 259.368 155.305 260.968 153.415C261.775 152.479 262.772 151.725 263.893 151.204C265.013 150.684 266.232 150.408 267.468 150.395C270.534 150.502 273.294 152.618 276.329 152.365C278.629 152.173 280.668 150.602 282.975 150.295C285.019 150.102 287.061 150.679 288.701 151.913C290.322 153.142 291.742 154.616 292.91 156.282C297.087 161.793 300.491 168.255 300.69 175.169C301.556 175.805 302.806 174.978 303.235 173.996C303.664 173.015 303.679 171.865 304.216 170.93C304.845 169.849 306.056 169.275 306.998 168.462C309.39 166.4 309.988 162.928 309.896 159.777C309.896 159.678 309.896 159.578 309.896 159.486C309.75 162.215 309.022 164.997 306.983 166.76Z" fill="black"/>
            <path d="M250.397 166.216C248.634 164.277 246.227 162.981 244.61 160.927C243.248 159.108 242.47 156.919 242.379 154.649C242.138 157.486 242.93 160.314 244.61 162.613C246.227 164.675 248.634 165.971 250.397 167.91C252.09 169.807 253.106 172.212 253.287 174.748C253.405 173.204 253.209 171.653 252.713 170.187C252.216 168.721 251.428 167.37 250.397 166.216Z" fill="black"/>
            <path d="M311.391 143.074C310.939 144.952 310.134 146.738 309.766 148.632C309.548 149.897 309.468 151.182 309.528 152.464C309.554 151.734 309.633 151.006 309.766 150.287C310.134 148.386 310.939 146.608 311.391 144.73C311.654 143.694 311.74 142.621 311.644 141.557C311.596 142.068 311.512 142.575 311.391 143.074Z" fill="black"/>
        </g>
        <path opacity="0.1" d="M101.743 583.021C142.994 583.021 176.434 577.65 176.434 571.025C176.434 564.399 142.994 559.029 101.743 559.029C60.4917 559.029 27.0511 564.399 27.0511 571.025C27.0511 577.65 60.4917 583.021 101.743 583.021Z" fill="#7EA6F4"/>
        <path d="M104.15 341.217H99.3433V449.429H104.15V341.217Z" fill="#535461"/>
        <path d="M134.351 449.099L134.052 453.974L133.623 460.873L133.447 463.74L133.025 470.639L132.841 473.506L132.412 480.405L127.567 558.645C127.357 562.012 125.871 565.171 123.413 567.481C120.955 569.791 117.71 571.077 114.337 571.079H89.1484C85.7762 571.077 82.5314 569.79 80.0747 567.481C77.6181 565.171 76.1343 562.011 75.9256 558.645L71.1041 480.351L70.6748 473.452L70.4985 470.585L70.0693 463.687L69.893 460.82L69.4637 453.921L69.1571 449.046C69.1038 448.107 69.2428 447.168 69.5656 446.285C69.8884 445.403 70.3881 444.595 71.0341 443.913C71.6801 443.23 72.4588 442.687 73.3223 442.316C74.1859 441.945 75.1161 441.754 76.0559 441.756H127.575C128.511 441.764 129.436 441.964 130.292 442.343C131.148 442.722 131.917 443.273 132.552 443.961C133.187 444.649 133.674 445.46 133.984 446.344C134.293 447.228 134.418 448.165 134.351 449.099Z" fill="#3F3D56"/>
        <path d="M134.052 453.974L133.623 460.85H69.8623L69.433 453.974H134.052Z" fill="#9D9CB5"/>
        <path d="M133.447 463.717L133.025 470.601H70.4678L70.0386 463.717H133.447Z" fill="#9D9CB5"/>
        <path d="M132.841 473.475L132.419 480.351H71.0734L70.6442 473.475H132.841Z" fill="#9D9CB5"/>
        <path d="M62.0972 381.774C90.0835 402.026 101.766 433.7 101.766 433.7C101.766 433.7 68.0379 432.542 40.0439 412.29C12.05 392.038 0.39093 360.373 0.39093 360.373C0.39093 360.373 34.1033 361.522 62.0972 381.774Z" fill="#7EA6F4"/>
        <path d="M0.36792 360.373C0.36792 360.373 35.3834 379.804 46.6132 395.894C57.8429 411.984 101.766 433.7 101.766 433.7" stroke="#535461" stroke-width="2" stroke-miterlimit="10"/>
        <path d="M80.1645 340.979C95.3956 351.994 101.766 369.234 101.766 369.234C101.766 369.234 83.407 368.605 68.1682 357.59C52.9294 346.575 46.5748 329.328 46.5748 329.328C46.5748 329.328 64.9258 329.956 80.1645 340.979Z" fill="#7EA6F4"/>
        <path d="M46.5748 329.328C46.5748 329.328 65.631 339.906 71.7403 348.66C77.8496 357.414 101.766 369.234 101.766 369.234" stroke="#535461" stroke-width="2" stroke-miterlimit="10"/>
        <path d="M123.88 368.36C106.38 387.592 102.678 412.727 102.678 412.727C102.678 412.727 127.353 406.671 144.837 387.431C162.322 368.191 166.04 343.064 166.04 343.064C166.04 343.064 141.38 349.127 123.88 368.36Z" fill="#7EA6F4"/>
        <path d="M166.055 343.072C166.055 343.072 143.258 362.787 137.463 376.37C131.668 389.953 102.678 412.727 102.678 412.727" stroke="#535461" stroke-width="2" stroke-miterlimit="10"/>
        <path d="M766.285 361.591C766.285 361.591 753.63 298.628 758.474 290.794C758.474 290.794 758.65 283.512 758.359 274.229C758.359 273.876 758.359 273.524 758.359 273.163C759.211 273.732 760.1 274.244 761.019 274.697C765.483 276.99 770.607 277.651 775.507 276.567L771.674 272.297C770.754 271.278 769.796 270.174 769.597 268.825C769.397 267.476 769.949 266.272 770.424 265.069C774.066 255.87 774.257 244.303 767.243 237.282C761.318 231.379 759.877 223.76 753.446 218.371C748.747 214.424 746.163 208.636 743.726 203.041C741.664 198.311 739.587 193.543 738.406 188.53C737.486 184.613 737.118 180.558 735.854 176.733C734.589 172.908 732.22 169.19 728.518 167.481C727.199 166.875 725.735 166.53 724.532 165.726C722.953 164.66 722.002 162.928 720.86 161.41C715.057 153.745 695.626 158.259 686.427 161.372C683.926 162.155 681.611 163.438 679.62 165.143L679.705 165.005C679.774 164.89 679.858 164.775 679.935 164.66C678.928 165.474 678.058 166.445 677.359 167.535C676.018 169.658 675.458 172.134 674.339 174.433C672.99 177.155 665.485 184.751 668.712 187.809C668.939 188.015 669.198 188.181 669.479 188.3C670.691 188.804 672.024 188.938 673.312 188.683L673.174 189.013C672.072 191.711 671.507 194.599 671.51 197.514C671.51 210.108 681.897 220.318 694.721 220.318C697.132 220.321 699.529 219.951 701.827 219.222C701.881 219.513 701.927 219.805 701.98 220.096C701.98 220.211 702.019 220.326 702.034 220.441L701.628 221.008C701.607 220.973 701.584 220.94 701.559 220.909L689.524 237.726C687.684 239.022 677.091 246.687 676.493 252.436C675.864 258.73 675.236 266.096 675.236 266.096L675.151 267.675C674.625 268.115 674.01 268.435 673.349 268.613C672.687 268.792 671.994 268.825 671.319 268.71C667.563 268.097 667.563 282.508 667.563 282.508C667.563 282.508 665.064 284.807 663.347 282.814C661.63 280.821 657.092 287.574 657.092 287.574L628.653 288.801L628.002 288.839L626.469 284.094C626.304 283.594 625.948 283.179 625.478 282.939C625.009 282.699 624.464 282.654 623.962 282.814C623.843 282.853 623.728 282.902 623.617 282.96L623.51 283.021L623.31 283.159L623.211 283.251C623.156 283.301 623.105 283.355 623.057 283.412L622.965 283.519L622.92 283.565C622.742 283.81 622.625 284.093 622.577 284.391C622.529 284.689 622.552 284.995 622.644 285.282L623.962 289.353C618.474 290.457 612.863 293.569 617.439 302.139L594.243 297.854L601.748 304.155L640.489 312.15C639.975 313.069 640.312 314.403 641.914 316.281C648.813 324.384 661.384 326.584 666.444 327.151C667.78 330.139 669.448 332.968 671.418 335.583L670.981 343.654C670.981 343.654 658.173 405.177 655.827 408.296C657.011 406.955 658.095 405.528 659.069 404.027C655.352 416.667 650.155 433.968 648.79 436.559C646.598 440.698 644.567 457.447 647.065 458.52C647.832 458.85 650.024 458.689 653.152 458.451V459.839L653.014 512.415C653.014 512.415 653.642 544.664 651.918 547.737C650.193 550.811 649.733 557.258 649.733 557.258C649.733 557.258 642.834 569.975 637.369 575.087C637.332 575.127 637.29 575.163 637.246 575.195L637.077 573.999C637.077 573.999 630.508 582.293 615.975 581.825C615.975 581.825 607.228 587.513 620.198 587.82C633.168 588.126 649.733 587.36 649.733 587.36C649.733 587.36 661.3 569.729 670.989 572.029V585.39H673.956V571.814C675.331 570.909 676.509 569.733 677.417 568.359C678.324 566.984 678.944 565.44 679.237 563.819C679.491 562.149 679.305 560.441 678.697 558.864C678.09 557.287 677.082 555.896 675.772 554.828C675.184 554.296 674.712 553.648 674.386 552.926C674.061 552.203 673.888 551.42 673.879 550.627L673.772 550.719C673.772 550.451 673.703 550.175 673.672 549.891C672.821 542.993 671.756 528.758 675.519 518.226C680.678 503.784 682.242 483.67 678.486 471.697C677.274 467.87 676.278 463.977 675.504 460.038C675.412 459.54 675.328 459.064 675.251 458.62C677.819 458.967 680.361 459.479 682.863 460.153C691.563 462.552 710.596 462.997 726.847 462.866C726.885 463.311 726.931 463.779 726.985 464.246C727.274 467.496 727.88 470.71 728.794 473.843C730.833 479.975 731.768 507.011 731.768 507.011C731.768 507.011 734.397 529.241 732.964 538.286C732.197 543.314 731.431 548.366 730.994 553.44V553.54C730.994 553.54 726.686 565.805 723.535 572.466C723.459 572.635 723.374 572.803 723.298 572.964C722.458 573.041 721.631 573.224 720.837 573.508C720.837 573.508 716.613 581.94 712.405 583.335C708.197 584.731 709.592 589.322 719.12 587.636C728.648 585.949 743.036 584.57 743.036 584.57L743.657 575.969L746.585 572.305L745.819 580.883L748.938 580.269L748.524 569.837L753.315 563.842C753.315 563.842 759.103 558.691 750.502 548.558V548.78C750.41 548.634 750.326 548.481 750.226 548.335V548.289C748.8 546.082 747.666 541.965 749.743 534.66C753.499 521.46 755.684 509.48 755.684 509.48C755.684 509.48 764.07 477.385 753.99 462.199H754.434C753.401 460.063 752.671 457.792 752.265 455.454C752.214 455.178 752.168 454.894 752.127 454.603C759.586 454.174 766.906 452.825 772.877 449.912C772.854 449.881 769.259 373.718 766.285 361.591ZM671.595 308.47V308.624L670.062 308.7L671.595 308.47ZM666.336 309.198C666.084 309.254 665.848 309.367 665.646 309.528C664.987 310.461 664.573 311.544 664.443 312.679L662.051 312.142C662.051 312.142 660.373 311.782 657.958 311.375L656.816 310.226C659.959 309.965 663.224 309.582 666.336 309.198Z" fill="url(#paint1_linear_145_1926)"/>
        <path d="M745.466 569.944L744.554 580.806L747.612 580.193L747.152 568.411L745.466 569.944Z" fill="#1D2366"/>
        <path d="M675.688 518.371C672.001 528.873 673.043 543.046 673.871 549.93C674.178 552.475 674.461 554.023 674.461 554.023C674.461 554.023 668.95 566.579 668.49 567.054C668.03 567.529 652.27 577.15 652.27 577.15L641.255 583.581C641.255 583.581 630.079 578.683 635.437 576.996C636.532 576.557 637.518 575.885 638.327 575.026C643.693 569.929 650.431 557.258 650.431 557.258C650.431 557.258 650.89 550.827 652.577 547.768C654.263 544.71 653.65 512.569 653.65 512.569L653.78 460.176V453.346L674.745 453.499C674.877 455.818 675.18 458.124 675.65 460.398C676.402 464.324 677.377 468.204 678.57 472.019C682.265 483.969 680.732 503.983 675.688 518.371Z" fill="#FFB0B1"/>
        <path opacity="0.1" d="M674.461 554.023C674.461 554.023 668.95 566.579 668.49 567.054C668.03 567.529 652.27 577.149 652.27 577.149L641.255 583.581C641.255 583.581 630.079 578.683 635.437 576.996C636.532 576.557 637.518 575.885 638.327 575.026L638.802 578.376L642.474 578.223L673.902 549.945C674.178 552.475 674.461 554.023 674.461 554.023Z" fill="black"/>
        <path d="M674.078 550.658L642.474 579.127L638.802 579.281L638.036 573.915C638.036 573.915 631.612 582.178 617.339 581.718C617.339 581.718 608.769 587.383 621.471 587.689C634.172 587.996 650.392 587.23 650.392 587.23C650.392 587.23 661.722 569.599 671.204 571.899V585.214H674.117V571.776C675.471 570.864 676.627 569.688 677.515 568.318C678.402 566.948 679.004 565.413 679.283 563.804C679.535 562.147 679.357 560.453 678.765 558.885C678.173 557.317 677.187 555.928 675.903 554.851C675.329 554.313 674.871 553.664 674.557 552.943C674.244 552.222 674.081 551.444 674.078 550.658Z" fill="#1D2366"/>
        <path d="M748.379 534.745C746.34 542.027 747.451 546.128 748.846 548.328V548.374C750.636 551.09 751.88 554.128 752.51 557.319L752.633 558.009L738.253 578.974L730.449 582.04C730.449 582.04 717.901 577.755 720.193 576.529C720.768 576.23 721.665 574.635 722.692 572.435C725.758 565.805 729.99 553.571 729.99 553.571V553.471C730.434 548.42 731.139 543.384 731.921 538.37C733.324 529.348 730.748 507.203 730.748 507.203C730.748 507.203 729.829 480.274 727.836 474.15C726.936 471.036 726.338 467.843 726.05 464.614C725.636 460.781 725.544 457.623 725.544 457.623C725.544 457.623 733.807 446.125 748.954 458.543C750.165 459.534 751.231 460.69 752.12 461.977C762.583 476.863 754.158 509.656 754.158 509.656C754.158 509.656 752.05 521.583 748.379 534.745Z" fill="#FFB0B1"/>
        <path opacity="0.1" d="M752.656 558.009L738.276 578.974L730.472 582.04C730.472 582.04 717.924 577.755 720.216 576.529C720.791 576.23 721.688 574.635 722.715 572.435C728.027 572.389 730.779 577.448 730.779 577.448L737.509 576.375C737.509 576.375 746.386 558.929 748.379 557.863C750.372 556.798 748.685 549.899 748.685 549.899V548.144C748.739 548.205 748.785 548.274 748.846 548.335V548.381C750.636 551.098 751.88 554.136 752.51 557.327L752.656 558.009Z" fill="black"/>
        <path d="M731.239 577.901C731.239 577.901 727.406 570.864 720.063 573.462C720.063 573.462 715.931 581.894 711.8 583.259C707.668 584.623 709.048 589.222 718.384 587.544C727.721 585.865 741.794 584.478 741.794 584.478L742.407 575.9L751.897 563.812C751.897 563.812 757.554 558.684 749.138 548.588V550.344C749.138 550.344 750.824 557.242 748.831 558.308C746.838 559.373 737.992 576.828 737.992 576.828L731.239 577.901Z" fill="#1D2366"/>
        <path opacity="0.1" d="M674.768 453.484C674.9 455.803 675.203 458.108 675.673 460.383C667.041 459.118 659.031 459.747 653.78 460.16V453.331L674.768 453.484Z" fill="black"/>
        <path opacity="0.1" d="M752.97 463.886C752.97 463.886 740.706 464.484 726.08 464.606C725.666 460.774 725.574 457.616 725.574 457.616C725.574 457.616 733.838 446.117 748.984 458.535C750.196 459.526 751.261 460.682 752.15 461.969C752.388 462.623 752.662 463.263 752.97 463.886Z" fill="black"/>
        <path d="M752.97 462.506C752.97 462.506 699.251 465.105 682.878 460.513C666.505 455.922 650.277 459.9 647.832 458.834C645.387 457.769 647.372 441.081 649.518 436.95C651.665 432.818 663.439 391.034 663.439 391.034L674.768 331.965L686.703 328.676L687.546 328.439L708.342 322.705L723.581 318.497C723.581 318.497 753.882 436.796 751.284 445.52C750.34 448.86 750.188 452.374 750.839 455.784C751.236 458.112 751.953 460.374 752.97 462.506Z" fill="#1D2366"/>
        <path d="M635.276 291.568C635.276 291.568 624.545 303.066 632.67 309.474C640.795 315.883 646.138 310.088 646.138 310.088L635.276 291.568Z" fill="#C7DAF5"/>
        <path opacity="0.1" d="M635.276 291.568C635.276 291.568 624.545 303.066 632.67 309.474C640.795 315.883 646.138 310.088 646.138 310.088L635.276 291.568Z" fill="black"/>
        <path d="M721.979 215.972C721.979 215.972 720.722 217.168 718.829 218.931C716.131 221.453 712.137 225.14 708.595 228.229C703.69 232.499 699.642 235.634 701.091 232.959C702.54 230.283 702.264 225.623 701.543 221.261C701.49 220.97 701.444 220.679 701.39 220.395C700.793 217.192 700.002 214.028 699.021 210.921C699.021 210.921 706.947 200.68 711.332 196.64C712.965 195.107 714.107 194.478 714.176 195.544C714.252 196.977 715.326 200.143 716.659 203.501C716.698 203.608 716.736 203.707 716.782 203.815C717.671 206.114 718.675 208.475 719.557 210.514C720.906 213.642 721.979 215.972 721.979 215.972Z" fill="#FFB0B1"/>
        <path opacity="0.1" d="M716.782 203.815C716.037 207.821 714.23 211.554 711.549 214.623C708.869 217.692 705.413 219.984 701.543 221.261C700.934 217.762 700.091 214.307 699.021 210.921C699.021 210.921 713.946 191.642 714.176 195.544C714.229 197.023 715.395 200.304 716.782 203.815Z" fill="black"/>
        <path opacity="0.1" d="M700.056 226.412L701.988 223.691C701.988 223.691 703.268 231.495 707.975 228.053C712.681 224.611 712.911 253.954 712.911 253.954L707.86 329.481L671.357 327.296L672.392 290.802L676.524 272.405L686.741 245.66L692.82 236.822L700.056 226.412Z" fill="black"/>
        <path d="M712.911 254.422L708.312 322.713L707.829 329.949L687.477 328.73L686.711 328.684L671.38 327.764L672.415 291.261L676.547 272.865L686.764 246.12L692.843 237.282L700.079 226.834L702.011 224.12C702.011 224.12 703.291 231.924 707.998 228.482L708.097 228.413C712.696 225.5 712.911 254.422 712.911 254.422Z" fill="#1D2366"/>
        <path d="M677.06 266.472C677.06 266.472 675.228 270.304 671.549 269.683C667.869 269.063 667.877 283.481 667.877 283.481C667.877 283.481 665.432 285.781 663.745 283.788C662.059 281.795 657.613 288.533 657.613 288.533L629.757 289.759C629.757 289.759 642.152 295.424 639.722 312.564C639.722 312.564 681.805 309.957 683.185 305.979C684.564 302.001 677.06 266.472 677.06 266.472Z" fill="white"/>
        <path opacity="0.03" d="M677.06 266.472C677.06 266.472 675.228 270.304 671.549 269.683C667.869 269.063 667.877 283.481 667.877 283.481C667.877 283.481 665.432 285.781 663.745 283.788C662.059 281.795 657.613 288.533 657.613 288.533L629.757 289.759C629.757 289.759 642.152 295.424 639.722 312.564C639.722 312.564 681.805 309.957 683.185 305.979C684.564 302.001 677.06 266.472 677.06 266.472Z" fill="black"/>
        <path d="M596.106 298.766L603.449 305.036L663.899 317.738L656.402 310.088L596.106 298.766Z" fill="white"/>
        <path d="M700.171 228.827C699.167 230.36 696.292 238.209 693.893 245.062C691.893 250.773 690.222 255.794 690.222 255.794C690.222 255.794 686.32 281.197 684.327 285.788C682.334 290.38 683.415 308.286 683.415 308.286L675.987 352.508C675.987 352.508 672.622 375.312 667.425 388.934C662.297 402.34 656.586 408.626 656.41 408.825C658.709 405.713 671.242 344.436 671.242 344.436L675.381 267.154C675.381 267.154 675.987 259.81 676.6 253.532C677.213 247.255 689.631 238.685 689.631 238.685L701.605 221.66C702.808 223.27 702.003 226.075 700.171 228.827Z" fill="white"/>
        <path d="M668.95 328.147C668.95 328.147 651.32 327.381 642.78 317.124C634.241 306.868 662.519 313.031 662.519 313.031L669.87 314.718L668.95 328.147Z" fill="#FFB0B1"/>
        <path opacity="0.1" d="M751.284 445.527C750.34 448.868 750.188 452.382 750.839 455.791C731.607 457.156 711.033 451.958 711.033 451.958C707.2 455.485 697.105 460.682 697.105 460.682L691.601 392.46C688.083 383.261 686.703 335.069 686.703 335.069C686.703 335.069 687.017 332.547 687.47 328.768C687.47 328.676 687.47 328.577 687.508 328.485C688.88 317.929 691.601 298.114 692.935 295.439C694.775 291.76 687.278 281.971 687.278 281.971L690.689 252.881L691.103 249.37C698.293 246.158 703.805 235.902 703.805 235.902L708.036 228.49C712.635 225.538 712.873 254.46 712.873 254.46L708.273 322.751L723.512 318.543C723.512 318.543 753.882 436.804 751.284 445.527Z" fill="black"/>
        <path d="M771.022 450.241C750.057 460.651 711.953 451.008 711.953 451.008C708.12 454.534 698.025 459.731 698.025 459.731L692.513 391.509C689.003 382.311 687.623 334.119 687.623 334.119C687.623 334.119 692.054 298.16 693.893 294.489C694.43 293.415 694.169 291.821 693.533 290.104C690.405 281.931 689.255 273.135 690.176 264.433L691.647 251.93L692.054 248.427C699.251 245.208 704.763 234.952 704.763 234.952L708.595 228.237L715.648 215.865L718.99 210.008L719.557 210.522L723.888 214.447C723.888 214.447 725.728 215.98 728.487 218.279C734.489 223.339 744.86 232.246 750.211 237.696C754.917 242.494 756.404 261.16 756.834 275.21C757.117 284.462 756.949 291.714 756.949 291.714C752.204 299.525 764.614 362.235 764.614 362.235C767.504 374.354 771.022 450.241 771.022 450.241Z" fill="white"/>
        <path opacity="0.03" d="M730.779 234.798C730.779 234.798 716.391 262.187 718.062 272.596C719.733 283.006 724.486 294.788 722.194 297.539C721.406 298.582 720.388 299.428 719.219 300.012C718.051 300.596 716.762 300.901 715.456 300.904C713.156 301.058 707.024 305.343 707.024 305.803C707.024 306.263 701.359 306.263 696.292 308.409C691.226 310.555 683.744 311.774 683.744 311.774C683.744 311.774 669.18 311.314 667.823 312.694C666.467 314.074 665.071 322.329 667.977 328.914C670.882 335.498 674.109 340.412 676.547 341.309C678.984 342.206 694.453 337.024 707.001 335.797C719.549 334.571 733.171 324.629 733.171 324.629C733.171 324.629 748.172 319.263 750.801 310.241C753.43 301.219 747.589 251.631 747.589 251.631C747.589 251.631 743.174 228.52 730.779 234.798Z" fill="black"/>
        <path opacity="0.03" d="M728.939 232.499C728.939 232.499 714.551 259.895 716.238 270.297C717.924 280.699 722.661 292.488 720.362 295.247C719.577 296.291 718.561 297.138 717.393 297.722C716.225 298.306 714.937 298.611 713.632 298.613C711.332 298.766 705.2 303.051 705.2 303.511C705.2 303.971 699.535 303.971 694.468 306.109C689.401 308.248 681.92 309.474 681.92 309.474C681.92 309.474 667.356 309.014 666.007 310.394C664.658 311.774 663.247 320.037 666.16 326.614C669.073 333.191 672.292 338.112 674.73 339.009C677.167 339.906 692.636 334.724 705.184 333.505C717.733 332.287 731.354 322.329 731.354 322.329C731.354 322.329 746.347 316.963 748.946 307.949C751.545 298.935 745.734 249.332 745.734 249.332C745.734 249.332 741.334 226.228 728.939 232.499Z" fill="black"/>
        <path d="M730.327 233.419C730.327 233.419 715.939 260.815 717.625 271.216C719.312 281.618 724.049 293.408 721.757 296.16C720.972 297.206 719.955 298.055 718.786 298.641C717.616 299.226 716.327 299.531 715.019 299.532C712.719 299.686 706.587 303.971 706.587 304.423C706.587 304.875 700.93 304.883 695.856 307.029C690.781 309.175 683.307 310.394 683.307 310.394C683.307 310.394 668.743 309.934 667.386 311.314C666.03 312.694 664.635 320.957 667.54 327.534C670.445 334.111 673.672 339.032 676.11 339.929C678.547 340.826 694.016 335.644 706.564 334.418C719.112 333.191 732.734 323.249 732.734 323.249C732.734 323.249 747.735 317.883 750.364 308.861C752.993 299.839 747.191 250.252 747.191 250.252C747.191 250.252 742.714 227.179 730.327 233.419Z" fill="white"/>
        <path opacity="0.1" d="M730.013 306.899C730.013 306.899 718.514 304.599 722.516 308.432C726.517 312.265 726.494 315.622 731.392 315.469C736.29 315.315 730.013 306.899 730.013 306.899Z" fill="black"/>
        <path opacity="0.1" d="M749.444 389.363C749.444 389.363 744.247 392.881 754.189 400.991C764.131 409.101 749.444 389.363 749.444 389.363Z" fill="black"/>
        <path opacity="0.1" d="M739.525 418.284C739.525 418.744 737.686 435.148 744.569 439.249C751.453 443.35 739.525 418.284 739.525 418.284Z" fill="black"/>
        <path d="M630.232 289.721C624.683 289.912 612.694 291.606 618.911 303.204C624.407 313.468 633.643 306.608 638.841 301.403C637.573 296.55 634.492 292.369 630.232 289.721Z" fill="#FFB0B1"/>
        <path d="M638.909 301.311L639.139 301.073L638.909 301.311Z" fill="#FFB0B1"/>
        <path opacity="0.1" d="M728.487 218.747C722.6 222.771 717.664 226.167 716.698 226.872C714.061 228.827 709.032 240.302 705.79 246.158C703.207 250.873 694.813 252.084 691.647 252.383L692.054 248.88C699.251 245.66 704.763 235.404 704.763 235.404L718.99 210.461L723.888 214.914C723.888 214.914 725.728 216.447 728.487 218.747Z" fill="black"/>
        <path d="M728.487 218.287C722.6 222.311 717.664 225.707 716.698 226.42C714.061 228.367 709.032 239.842 705.79 245.698C703.207 250.413 694.813 251.624 691.647 251.923L692.054 248.42C699.251 245.2 704.763 234.944 704.763 234.944L718.99 210.001L723.888 214.439C723.888 214.439 725.728 215.957 728.487 218.287Z" fill="#DCE7FF"/>
        <path d="M717.158 198.756C717.161 203.357 715.765 207.851 713.156 211.641C710.075 216.123 705.489 219.351 700.231 220.741C694.973 222.13 689.391 221.589 684.498 219.215C679.605 216.841 675.725 212.791 673.562 207.801C671.399 202.811 671.097 197.211 672.709 192.017C674.322 186.823 677.744 182.38 682.353 179.492C686.962 176.605 692.453 175.466 697.83 176.281C703.207 177.096 708.114 179.812 711.66 183.935C715.206 188.059 717.157 193.317 717.158 198.756Z" fill="#FFB0B1"/>
        <path opacity="0.1" d="M756.834 275.218C753.721 273.303 751.186 270.58 749.498 267.338C748.218 264.808 747.367 261.888 745.182 260.094C743.212 258.484 740.583 258.093 738.13 257.373C730.066 254.989 723.305 247.63 723.052 239.229C722.93 235.274 724.164 231.326 723.604 227.409C723.286 225.192 722.405 223.094 721.044 221.315C720.368 220.464 719.628 219.667 718.829 218.931C717.756 217.919 716.629 216.938 715.648 215.865C715.029 215.2 714.489 214.467 714.038 213.68C713.673 213.036 713.378 212.355 713.156 211.649C711.623 206.958 713.018 201.393 711.332 196.648L711.24 196.387C710.604 194.701 709.308 193.014 707.507 192.884C705.706 192.754 704.165 194.248 702.448 194.915C698.853 196.31 694.974 193.934 691.977 191.512C688.98 189.09 685.599 186.322 681.79 186.859C679.268 187.219 677.275 188.936 674.952 189.825C674.428 190.028 673.887 190.185 673.335 190.293C675.3 185.391 678.912 181.327 683.548 178.798C688.185 176.27 693.558 175.435 698.743 176.437C703.928 177.439 708.603 180.216 711.963 184.29C715.324 188.365 717.16 193.482 717.158 198.763C717.16 200.358 716.993 201.949 716.659 203.508C716.698 203.615 716.736 203.715 716.782 203.822C717.671 206.122 718.675 208.483 719.557 210.522L723.888 214.447C723.888 214.447 725.728 215.98 728.487 218.279C734.489 223.339 744.86 232.246 750.211 237.696C754.917 242.51 756.389 261.167 756.834 275.218Z" fill="black"/>
        <path d="M674.684 175.821C675.78 173.59 676.324 171.091 677.635 168.976C679.559 165.909 682.916 163.947 686.366 162.759C695.373 159.655 714.406 155.147 720.094 162.759C721.213 164.292 722.14 165.994 723.689 167.052C724.869 167.856 726.295 168.201 727.59 168.807C731.216 170.509 733.531 174.219 734.765 178.005C735.999 181.792 736.367 185.855 737.272 189.756C738.429 194.762 740.46 199.507 742.484 204.221C744.868 209.786 747.398 215.558 751.997 219.49C758.275 224.856 759.662 232.453 765.488 238.34C772.387 245.33 772.164 256.867 768.608 266.027C768.14 267.23 767.611 268.488 767.795 269.768C767.979 271.048 768.93 272.213 769.827 273.232L773.598 277.487C764.675 279.641 754.58 274.98 750.425 266.801C749.145 264.272 748.294 261.359 746.102 259.557C744.14 257.948 741.503 257.564 739.058 256.844C730.994 254.452 724.233 247.086 723.98 238.685C723.857 234.737 725.091 230.789 724.532 226.88C724.22 224.648 723.336 222.535 721.964 220.748C719.856 217.996 716.675 216.148 714.958 213.082C712.053 207.954 714.26 201.293 712.168 195.789C711.524 194.103 710.236 192.416 708.434 192.286C706.633 192.156 705.092 193.65 703.368 194.317C699.78 195.712 695.902 193.344 692.904 190.914C689.907 188.484 686.527 185.724 682.709 186.269C680.188 186.621 678.202 188.338 675.88 189.235C674.163 189.894 670.682 190.485 669.18 189.036C666.007 186.115 673.358 178.55 674.684 175.821Z" fill="#591D4B"/>
        <path opacity="0.1" d="M752.556 264.272C751.269 261.742 750.425 258.829 748.233 257.036C746.271 255.426 743.634 255.035 741.181 254.314C733.125 251.93 726.364 244.564 726.103 236.163C725.981 232.215 727.215 228.26 726.663 224.35C726.342 222.133 725.458 220.035 724.095 218.256C721.979 215.505 718.798 213.657 717.089 210.591C714.184 205.471 716.391 198.809 714.291 193.298C713.655 191.619 712.359 189.933 710.565 189.795C708.772 189.657 707.216 191.167 705.499 191.834C701.911 193.229 698.025 190.853 695.035 188.43C692.046 186.008 688.65 183.241 684.84 183.778C682.319 184.138 680.326 185.855 678.011 186.744C676.294 187.403 672.806 188.001 671.303 186.552C668.145 183.486 675.496 175.936 676.815 173.222C677.911 170.984 678.455 168.493 679.774 166.377C679.843 166.262 679.919 166.147 679.996 166.032C679.01 166.849 678.159 167.817 677.474 168.899C676.163 171.015 675.619 173.498 674.523 175.744C673.197 178.458 665.846 186.031 669.011 189.074C670.545 190.531 673.994 189.933 675.711 189.274C678.011 188.377 680.019 186.66 682.541 186.307C686.374 185.763 689.746 188.53 692.736 190.952C695.725 193.375 699.635 195.751 703.207 194.356C704.924 193.689 706.426 192.186 708.266 192.324C710.106 192.462 711.332 194.141 711.999 195.827C714.092 201.331 711.884 207.992 714.789 213.121C716.506 216.133 719.687 218.019 721.795 220.786C723.167 222.574 724.052 224.687 724.363 226.918C724.923 230.828 723.689 234.775 723.811 238.723C724.064 247.155 730.825 254.491 738.889 256.882C741.319 257.603 743.971 257.986 745.934 259.596C748.133 261.397 749 264.31 750.257 266.84C754.411 275.019 764.507 279.679 773.429 277.525L771.651 275.517C763.917 275.632 756.09 271.232 752.556 264.272Z" fill="black"/>
        <path opacity="0.1" d="M699.711 229.287C698.707 230.82 695.833 238.669 693.433 245.522C691.187 244.648 689.148 239.076 689.148 239.076L701.122 222.043C702.348 223.729 701.543 226.527 699.711 229.287Z" fill="black"/>
        <path d="M700.171 228.827C699.167 230.36 696.292 238.209 693.893 245.062C691.647 244.196 689.608 238.616 689.608 238.616L701.582 221.591C702.808 223.27 702.003 226.075 700.171 228.827Z" fill="#DCE7FF"/>
        <path d="M630.554 307.136L623.916 286.202C623.837 285.957 623.808 285.699 623.829 285.443C623.851 285.186 623.923 284.936 624.041 284.708C624.159 284.479 624.322 284.276 624.518 284.11C624.715 283.945 624.943 283.819 625.188 283.742C625.682 283.587 626.217 283.635 626.677 283.873C627.136 284.111 627.483 284.521 627.641 285.014L634.28 305.925L633.62 310.302L630.554 307.136Z" fill="#BE8B87"/>
        <path opacity="0.1" d="M624.545 284.363C625.04 284.206 625.577 284.252 626.038 284.491C626.499 284.729 626.847 285.141 627.005 285.635L633.643 306.546L633.145 309.827L633.628 310.333L634.287 305.956L627.611 285.045C627.452 284.552 627.106 284.142 626.646 283.904C626.187 283.665 625.652 283.618 625.158 283.772C624.742 283.907 624.383 284.177 624.138 284.539C624.269 284.469 624.404 284.41 624.545 284.363Z" fill="white"/>
        <path d="M630.554 307.136L634.28 305.956L633.735 309.543L633.62 310.333L632.532 309.198L630.554 307.136Z" fill="#EFC8C4"/>
        <path d="M632.532 309.198C632.597 309.117 632.678 309.049 632.769 308.999C632.823 308.965 632.886 308.947 632.95 308.947C633.013 308.947 633.076 308.965 633.13 308.999C633.182 309.062 633.226 309.132 633.26 309.206C633.311 309.291 633.38 309.363 633.462 309.417C633.544 309.472 633.638 309.507 633.735 309.52L633.62 310.287L632.532 309.198Z" fill="#727A9C"/>
        <path d="M623.878 293.638C623.878 293.638 637.192 293.561 634.057 299.226C630.922 304.891 626.024 305.573 626.024 305.573L623.878 293.638Z" fill="#FFB0B1"/>
        <path d="M541.069 39.4154H540.494C517.62 39.4154 497.391 51.519 485.755 69.3794C474.119 51.519 453.89 39.4154 431.017 39.4154H430.442C413.276 39.579 396.868 46.5105 384.784 58.7036C372.7 70.8967 365.916 87.3661 365.907 104.533C365.907 125.85 375.243 156.098 393.449 180.987C428.135 228.413 485.755 269.906 485.755 269.906C485.755 269.906 543.376 228.421 578.054 180.987C596.267 156.098 605.596 125.85 605.596 104.533C605.586 87.3674 598.804 70.8992 586.721 58.7063C574.639 46.5134 558.233 39.581 541.069 39.4154ZM532.844 184.636C530.239 184.626 527.697 183.829 525.554 182.349C523.41 180.868 521.764 178.775 520.832 176.342H507.157C506.256 176.336 505.38 176.05 504.65 175.522C503.921 174.994 503.374 174.252 503.087 173.399L498.886 160.743L485.594 207.188C485.335 208.082 484.793 208.868 484.05 209.427C483.306 209.987 482.401 210.291 481.47 210.292H481.202C480.231 210.245 479.305 209.866 478.58 209.219C477.854 208.572 477.373 207.695 477.216 206.735L463.518 124.348L453.507 173.1C453.277 174.026 452.744 174.848 451.993 175.436C451.241 176.024 450.314 176.343 449.36 176.342H430.097C429.519 176.367 428.943 176.274 428.402 176.07C427.862 175.866 427.368 175.554 426.95 175.154C426.533 174.754 426.201 174.274 425.974 173.743C425.748 173.211 425.631 172.639 425.631 172.061C425.631 171.483 425.748 170.911 425.974 170.379C426.201 169.848 426.533 169.368 426.95 168.968C427.368 168.568 427.862 168.256 428.402 168.052C428.943 167.848 429.519 167.755 430.097 167.78H445.987L460.168 102.233C460.401 101.264 460.963 100.406 461.759 99.8055C462.554 99.205 463.533 98.8994 464.529 98.9411C465.525 98.9827 466.475 99.369 467.218 100.034C467.96 100.699 468.449 101.601 468.6 102.586L482.589 186.629L494.501 145.075C494.749 144.2 495.274 143.428 495.996 142.876C496.719 142.323 497.601 142.019 498.51 142.009H498.595C499.496 142.009 500.373 142.294 501.103 142.822C501.832 143.351 502.376 144.096 502.657 144.952L510.254 167.803H520.663C521.403 165.554 522.75 163.554 524.556 162.023C526.361 160.491 528.554 159.488 530.893 159.125C533.232 158.761 535.626 159.051 537.811 159.962C539.996 160.873 541.887 162.37 543.274 164.288C544.662 166.206 545.493 168.47 545.675 170.83C545.858 173.19 545.385 175.555 544.308 177.663C543.231 179.771 541.593 181.541 539.574 182.777C537.555 184.013 535.234 184.667 532.867 184.667L532.844 184.636Z" fill="#7EA6F4"/>
    </g>
    <defs>
        <linearGradient id="paint0_linear_145_1926" x1="273.14" y1="593.967" x2="273.14" y2="122.286" gradientUnits="userSpaceOnUse">
            <stop stop-color="#808080" stop-opacity="0.25"/>
            <stop offset="0.54" stop-color="#808080" stop-opacity="0.12"/>
            <stop offset="1" stop-color="#808080" stop-opacity="0.1"/>
        </linearGradient>
        <linearGradient id="paint1_linear_145_1926" x1="684.848" y1="588.004" x2="684.848" y2="157.209" gradientUnits="userSpaceOnUse">
            <stop stop-color="#808080" stop-opacity="0.25"/>
            <stop offset="0.54" stop-color="#808080" stop-opacity="0.12"/>
            <stop offset="1" stop-color="#808080" stop-opacity="0.1"/>
        </linearGradient>
        <clipPath id="clip0_145_1926">
            <rect width="847.055" height="600" fill="white"/>
        </clipPath>
    </defs>
</svg>
