<svg width="287" height="257" viewBox="0 0 287 257" fill="none" xmlns="http://www.w3.org/2000/svg">
<g clip-path="url(#clip0_661_5829)">
<path d="M146.651 0.55983L137.333 2.9626L22.5406 32.5653L13.2232 34.9681C8.70066 36.1398 4.82755 39.0576 2.45361 43.0814C0.0796776 47.1052 -0.60121 51.9064 0.560328 56.4315L40.9627 213.103C42.1344 217.625 45.0523 221.499 49.076 223.873C53.0998 226.247 57.901 226.927 62.4262 225.766L62.4502 225.76L195.829 191.364L195.854 191.358C200.376 190.186 204.249 187.268 206.623 183.244C208.997 179.22 209.678 174.419 208.516 169.894L168.114 13.2228C166.942 8.70023 164.025 4.8271 160.001 2.45315C155.977 0.0792028 151.176 -0.6017 146.651 0.55983Z" fill="#F2F2F2"/>
<path d="M147.917 5.47259L136.882 8.31851L25.5257 37.035L14.49 39.8809C11.2693 40.7153 8.5112 42.7931 6.82065 45.6585C5.1301 48.524 4.64522 51.943 5.47238 55.1655L45.8748 211.837C46.7092 215.057 48.787 217.816 51.6525 219.506C54.5179 221.197 57.9369 221.682 61.1594 220.854L61.1835 220.848L194.563 186.452L194.587 186.446C197.808 185.612 200.566 183.534 202.256 180.668C203.947 177.803 204.432 174.384 203.604 171.162L163.202 14.4902C162.368 11.2696 160.29 8.51147 157.424 6.82093C154.559 5.13038 151.14 4.64547 147.917 5.47259Z" fill="white"/>
<path d="M139.584 56.2069L72.1112 73.6069C71.3576 73.8013 70.5576 73.6883 69.8873 73.2928C69.217 72.8974 68.7313 72.2518 68.5369 71.4982C68.3426 70.7446 68.4556 69.9447 68.851 69.2744C69.2465 68.6041 69.892 68.1183 70.6457 67.924L138.119 50.524C138.872 50.3304 139.672 50.4439 140.341 50.8394C141.011 51.2349 141.496 51.8802 141.691 52.6333C141.885 53.3865 141.772 54.186 141.377 54.8561C140.982 55.5262 140.337 56.012 139.584 56.2069Z" fill="#F2F2F2"/>
<path d="M153.779 62.774L74.5842 83.1966C73.8306 83.391 73.0306 83.278 72.3603 82.8825C71.69 82.4871 71.2043 81.8415 71.01 81.0879C70.8156 80.3343 70.9286 79.5344 71.3241 78.8641C71.7195 78.1938 72.3651 77.708 73.1187 77.5137L152.313 57.091C153.067 56.8967 153.867 57.0097 154.537 57.4051C155.207 57.8006 155.693 58.4461 155.887 59.1997C156.082 59.9533 155.969 60.7533 155.573 61.4236C155.178 62.0939 154.532 62.5796 153.779 62.774Z" fill="#F2F2F2"/>
<path d="M150.667 99.1841L83.1942 116.584C82.821 116.68 82.4326 116.702 82.051 116.648C81.6694 116.594 81.3022 116.466 80.9703 116.27C80.6384 116.074 80.3484 115.815 80.1167 115.507C79.885 115.199 79.7162 114.849 79.6199 114.475C79.5237 114.102 79.5019 113.714 79.5558 113.332C79.6097 112.951 79.7382 112.583 79.934 112.252C80.1299 111.92 80.3891 111.63 80.6971 111.398C81.005 111.166 81.3555 110.997 81.7287 110.901L149.202 93.5012C149.575 93.4049 149.964 93.3831 150.345 93.437C150.727 93.4909 151.094 93.6195 151.426 93.8153C151.758 94.0111 152.048 94.2704 152.279 94.5783C152.511 94.8862 152.68 95.2367 152.776 95.6099C152.872 95.983 152.894 96.3715 152.84 96.7531C152.786 97.1346 152.658 97.5018 152.462 97.8337C152.266 98.1656 152.007 98.4557 151.699 98.6874C151.391 98.9191 151.041 99.0879 150.667 99.1841Z" fill="#F2F2F2"/>
<path d="M164.862 105.751L85.6672 126.173C85.2941 126.269 84.9056 126.291 84.524 126.237C84.1425 126.183 83.7753 126.055 83.4434 125.859C83.1115 125.663 82.8214 125.404 82.5897 125.096C82.358 124.788 82.1892 124.438 82.093 124.064C81.9967 123.691 81.9749 123.303 82.0288 122.921C82.0827 122.54 82.2113 122.173 82.4071 121.841C82.6029 121.509 82.8621 121.219 83.1701 120.987C83.478 120.755 83.8285 120.586 84.2017 120.49L163.396 100.068C164.15 99.8732 164.95 99.9862 165.62 100.382C166.29 100.777 166.776 101.423 166.97 102.176C167.165 102.93 167.052 103.73 166.656 104.4C166.261 105.07 165.615 105.556 164.862 105.751Z" fill="#F2F2F2"/>
<path d="M161.75 142.161L94.2772 159.561C93.5238 159.754 92.7243 159.641 92.0544 159.246C91.3846 158.85 90.8992 158.205 90.7049 157.451C90.5107 156.698 90.6235 155.899 91.0185 155.229C91.4136 154.558 92.0585 154.073 92.8117 153.878L160.285 136.478C161.039 136.283 161.839 136.396 162.509 136.792C163.179 137.187 163.665 137.833 163.859 138.586C164.054 139.34 163.941 140.14 163.545 140.81C163.15 141.481 162.504 141.966 161.75 142.161Z" fill="#F2F2F2"/>
<path d="M175.945 148.729L96.7502 169.152C96.3769 169.248 95.9882 169.27 95.6064 169.217C95.2246 169.163 94.8571 169.035 94.5249 168.839C94.1927 168.643 93.9024 168.384 93.6705 168.076C93.4386 167.768 93.2697 167.417 93.1734 167.044C93.0771 166.67 93.0554 166.282 93.1094 165.9C93.1634 165.518 93.2921 165.151 93.4882 164.819C93.6843 164.487 93.9438 164.197 94.2521 163.965C94.5603 163.733 94.9112 163.565 95.2847 163.469L174.479 143.046C175.233 142.852 176.033 142.965 176.703 143.36C177.373 143.756 177.859 144.401 178.053 145.155C178.248 145.908 178.135 146.708 177.739 147.379C177.344 148.049 176.698 148.535 175.945 148.729Z" fill="#F2F2F2"/>
<path d="M60.5924 91.448L36.7143 97.6056C36.3529 97.6984 35.9696 97.644 35.6483 97.4545C35.327 97.2649 35.094 96.9557 35.0004 96.5945L29.5192 75.3396C29.4265 74.9783 29.4808 74.5949 29.6704 74.2736C29.8599 73.9523 30.1692 73.7193 30.5303 73.6258L54.4085 67.4681C54.7698 67.3753 55.1532 67.4297 55.4745 67.6192C55.7958 67.8088 56.0288 68.1181 56.1224 68.4792L61.6036 89.7341C61.6963 90.0954 61.642 90.4788 61.4524 90.8001C61.2628 91.1214 60.9536 91.3544 60.5924 91.448Z" fill="#E6E6E6"/>
<path d="M71.6754 134.424L47.7973 140.582C47.436 140.675 47.0526 140.621 46.7313 140.431C46.41 140.241 46.177 139.932 46.0834 139.571L40.6022 118.316C40.5095 117.955 40.5638 117.571 40.7534 117.25C40.943 116.929 41.2522 116.696 41.6134 116.602L65.4915 110.445C65.8528 110.352 66.2362 110.406 66.5575 110.596C66.8788 110.785 67.1118 111.095 67.2054 111.456L72.6866 132.711C72.7793 133.072 72.725 133.455 72.5354 133.777C72.3458 134.098 72.0366 134.331 71.6754 134.424Z" fill="#E6E6E6"/>
<path d="M82.7585 177.403L58.8803 183.561C58.519 183.653 58.1356 183.599 57.8143 183.41C57.493 183.22 57.26 182.911 57.1664 182.55L51.6852 161.295C51.5925 160.933 51.6468 160.55 51.8364 160.229C52.026 159.907 52.3352 159.674 52.6964 159.581L76.5745 153.423C76.9359 153.33 77.3192 153.385 77.6405 153.574C77.9618 153.764 78.1948 154.073 78.2884 154.434L83.7696 175.689C83.8623 176.051 83.808 176.434 83.6184 176.755C83.4289 177.077 83.1196 177.309 82.7585 177.403Z" fill="#E6E6E6"/>
<path d="M239.709 40.2754H101.917C97.2451 40.2807 92.766 42.1389 89.4625 45.4424C86.159 48.7459 84.3008 53.225 84.2955 57.8969V219.694C84.3008 224.366 86.159 228.845 89.4625 232.148C92.766 235.452 97.2451 237.31 101.917 237.315H239.709C244.381 237.31 248.86 235.452 252.164 232.148C255.467 228.845 257.326 224.366 257.331 219.694V57.8969C257.326 53.225 255.467 48.7459 252.164 45.4424C248.86 42.1389 244.381 40.2807 239.709 40.2754Z" fill="#E6E6E6"/>
<path d="M239.71 45.3477H101.917C98.59 45.3514 95.4003 46.6747 93.0478 49.0272C90.6953 51.3797 89.372 54.5693 89.3683 57.8963V219.693C89.372 223.02 90.6953 226.21 93.0478 228.562C95.4003 230.915 98.59 232.238 101.917 232.242H239.71C243.037 232.238 246.226 230.915 248.579 228.562C250.931 226.21 252.254 223.02 252.258 219.693V57.8963C252.254 54.5694 250.931 51.3797 248.579 49.0272C246.226 46.6747 243.037 45.3514 239.71 45.3477Z" fill="white"/>
<path d="M254.186 257.001C271.951 257.001 286.353 242.599 286.353 224.833C286.353 207.068 271.951 192.666 254.186 192.666C236.42 192.666 222.018 207.068 222.018 224.833C222.018 242.599 236.42 257.001 254.186 257.001Z" fill="#36A793"/>
<path d="M269.57 220.636H258.381V209.448C258.381 208.335 257.939 207.268 257.152 206.481C256.366 205.694 255.298 205.252 254.186 205.252C253.073 205.252 252.006 205.694 251.219 206.481C250.432 207.268 249.99 208.335 249.99 209.448V220.636H238.801C237.689 220.636 236.621 221.078 235.834 221.865C235.048 222.652 234.606 223.719 234.606 224.832C234.606 225.945 235.048 227.012 235.834 227.799C236.621 228.586 237.689 229.028 238.801 229.028H249.99V240.216C249.99 241.329 250.432 242.396 251.219 243.183C252.006 243.97 253.073 244.412 254.186 244.412C255.298 244.412 256.366 243.97 257.152 243.183C257.939 242.396 258.381 241.329 258.381 240.216V229.028H269.57C270.683 229.028 271.75 228.586 272.537 227.799C273.324 227.012 273.766 225.945 273.766 224.832C273.766 223.719 273.324 222.652 272.537 221.865C271.75 221.078 270.683 220.636 269.57 220.636Z" fill="white"/>
<path d="M218.972 134.254H149.291C148.905 134.254 148.523 134.178 148.167 134.031C147.811 133.884 147.487 133.668 147.214 133.395C146.941 133.123 146.725 132.799 146.577 132.443C146.429 132.087 146.353 131.705 146.353 131.319C146.353 130.934 146.429 130.552 146.577 130.195C146.725 129.839 146.941 129.516 147.214 129.243C147.487 128.971 147.811 128.754 148.167 128.607C148.523 128.46 148.905 128.384 149.291 128.385H218.972C219.749 128.386 220.495 128.695 221.045 129.245C221.594 129.796 221.903 130.542 221.903 131.319C221.903 132.097 221.594 132.843 221.045 133.393C220.495 133.943 219.749 134.253 218.972 134.254Z" fill="#E6E6E6"/>
<path d="M231.076 144.158H149.291C148.905 144.158 148.523 144.083 148.167 143.936C147.811 143.788 147.487 143.572 147.214 143.3C146.941 143.027 146.725 142.703 146.577 142.347C146.429 141.991 146.353 141.609 146.353 141.224C146.353 140.838 146.429 140.456 146.577 140.1C146.725 139.744 146.941 139.42 147.214 139.147C147.487 138.875 147.811 138.659 148.167 138.511C148.523 138.364 148.905 138.289 149.291 138.289H231.076C231.855 138.289 232.601 138.598 233.151 139.149C233.702 139.699 234.011 140.445 234.011 141.224C234.011 142.002 233.702 142.748 233.151 143.298C232.601 143.849 231.855 144.158 231.076 144.158Z" fill="#E6E6E6"/>
<path d="M218.972 178.638H149.291C148.905 178.639 148.523 178.563 148.167 178.416C147.811 178.269 147.487 178.053 147.214 177.78C146.941 177.508 146.725 177.184 146.577 176.828C146.429 176.471 146.353 176.09 146.353 175.704C146.353 175.318 146.429 174.936 146.577 174.58C146.725 174.224 146.941 173.9 147.214 173.628C147.487 173.355 147.811 173.139 148.167 172.992C148.523 172.845 148.905 172.769 149.291 172.77H218.972C219.75 172.77 220.496 173.079 221.047 173.629C221.597 174.179 221.906 174.926 221.906 175.704C221.906 176.482 221.597 177.229 221.047 177.779C220.496 178.329 219.75 178.638 218.972 178.638Z" fill="#E6E6E6"/>
<path d="M231.076 188.541H149.291C148.905 188.541 148.523 188.466 148.167 188.318C147.811 188.171 147.487 187.955 147.214 187.682C146.941 187.41 146.725 187.086 146.577 186.73C146.429 186.374 146.353 185.992 146.353 185.606C146.353 185.221 146.429 184.839 146.577 184.483C146.725 184.126 146.941 183.803 147.214 183.53C147.487 183.258 147.811 183.042 148.167 182.894C148.523 182.747 148.905 182.671 149.291 182.672H231.076C231.462 182.671 231.844 182.747 232.2 182.894C232.557 183.042 232.881 183.258 233.153 183.53C233.426 183.803 233.643 184.126 233.79 184.483C233.938 184.839 234.014 185.221 234.014 185.606C234.014 185.992 233.938 186.374 233.79 186.73C233.643 187.086 233.426 187.41 233.153 187.682C232.881 187.955 232.557 188.171 232.2 188.318C231.844 188.466 231.462 188.541 231.076 188.541Z" fill="#E6E6E6"/>
<path d="M133.682 148.653H109.023C108.65 148.653 108.292 148.504 108.028 148.24C107.764 147.977 107.616 147.619 107.616 147.246V125.296C107.616 124.923 107.764 124.565 108.028 124.301C108.292 124.037 108.65 123.889 109.023 123.889H133.682C134.055 123.889 134.413 124.037 134.677 124.301C134.94 124.565 135.089 124.923 135.089 125.296V147.246C135.089 147.619 134.94 147.977 134.677 148.24C134.413 148.504 134.055 148.653 133.682 148.653Z" fill="#E6E6E6"/>
<path d="M133.682 193.038H109.023C108.65 193.037 108.292 192.889 108.028 192.625C107.764 192.361 107.616 192.004 107.616 191.631V169.681C107.616 169.307 107.764 168.95 108.028 168.686C108.292 168.422 108.65 168.274 109.023 168.273H133.682C134.055 168.274 134.413 168.422 134.677 168.686C134.94 168.95 135.089 169.307 135.089 169.681V191.631C135.089 192.004 134.94 192.361 134.677 192.625C134.413 192.889 134.055 193.037 133.682 193.038Z" fill="#E6E6E6"/>
<path d="M219.049 84.8474H167.676C166.898 84.8474 166.152 84.5382 165.601 83.9879C165.051 83.4376 164.742 82.6912 164.742 81.913C164.742 81.1347 165.051 80.3883 165.601 79.838C166.152 79.2877 166.898 78.9785 167.676 78.9785H219.049C219.827 78.9785 220.574 79.2877 221.124 79.838C221.674 80.3883 221.983 81.1347 221.983 81.913C221.983 82.6912 221.674 83.4376 221.124 83.9879C220.574 84.5382 219.827 84.8474 219.049 84.8474Z" fill="#CCCCCC"/>
<path d="M231.154 94.7497H167.676C167.291 94.7497 166.909 94.6738 166.553 94.5264C166.197 94.3789 165.874 94.1628 165.601 93.8903C165.329 93.6178 165.113 93.2943 164.965 92.9383C164.818 92.5822 164.742 92.2007 164.742 91.8153C164.742 91.4299 164.818 91.0484 164.965 90.6923C165.113 90.3363 165.329 90.0128 165.601 89.7403C165.874 89.4678 166.197 89.2517 166.553 89.1042C166.909 88.9568 167.291 88.8809 167.676 88.8809H231.154C231.932 88.8809 232.678 89.19 233.229 89.7403C233.779 90.2906 234.088 91.037 234.088 91.8153C234.088 92.5936 233.779 93.34 233.229 93.8903C232.678 94.4406 231.932 94.7497 231.154 94.7497Z" fill="#CCCCCC"/>
<path d="M156.307 106.753H108.945C108.572 106.753 108.215 106.605 107.951 106.341C107.687 106.077 107.539 105.719 107.538 105.346V68.3836C107.539 68.0106 107.687 67.6529 107.951 67.3891C108.215 67.1253 108.572 66.977 108.945 66.9766H156.307C156.68 66.977 157.037 67.1253 157.301 67.3891C157.565 67.6529 157.713 68.0106 157.714 68.3836V105.346C157.713 105.719 157.565 106.077 157.301 106.341C157.037 106.605 156.68 106.753 156.307 106.753Z" fill="#36A793"/>
</g>
<defs>
<clipPath id="clip0_661_5829">
<rect width="286.353" height="257" fill="white"/>
</clipPath>
</defs>
</svg>
