<svg width="719" height="501" viewBox="0 0 719 501" fill="none" xmlns="http://www.w3.org/2000/svg">
<g clip-path="url(#clip0_71_172)">
<path d="M600.186 76.9238L544.773 77.4636C542.168 64.6411 533.417 30.9969 541.298 21.82C541.657 18.3661 543.335 15.1839 545.981 12.9356C548.628 10.6874 552.039 9.54654 555.506 9.75046C564.095 -3.6937 578.4 -1.67514 588.069 6.72132C597.8 10.079 601.468 16.044 600.186 24.1388C607.392 30.4468 608.721 38.1213 605.487 46.8573L600.186 76.9238Z" fill="#2F2E41"/>
<path d="M594.851 111.06L554.872 105.524L546.876 93.838C557.891 86.5319 561.788 76.3273 556.717 62.4699L584.395 61.8549C583.098 74.195 587.179 83.7497 598.541 89.5326L594.851 111.06Z" fill="#FFB9B9"/>
<path d="M545.42 471.659L543.892 492.557C543.822 493.503 543.956 494.453 544.284 495.343C544.612 496.233 545.127 497.043 545.793 497.718C546.46 498.392 547.263 498.917 548.148 499.256C549.034 499.595 549.982 499.741 550.929 499.683L561.663 499.033C562.161 499.003 562.645 498.864 563.083 498.625C563.52 498.386 563.9 498.054 564.194 497.652C564.489 497.251 564.691 496.789 564.787 496.3C564.883 495.811 564.871 495.307 564.75 494.823L558.791 470.99L545.42 471.659Z" fill="#E6E6E6"/>
<path d="M580.172 470.99L574.214 494.823C574.093 495.307 574.08 495.811 574.176 496.3C574.272 496.789 574.474 497.251 574.769 497.652C575.064 498.054 575.443 498.386 575.881 498.625C576.318 498.864 576.803 499.003 577.3 499.033L588.034 499.683C588.981 499.741 589.929 499.595 590.815 499.256C591.701 498.917 592.504 498.392 593.17 497.718C593.837 497.043 594.351 496.233 594.679 495.343C595.007 494.453 595.141 493.503 595.072 492.557L593.543 471.659L580.172 470.99Z" fill="#E6E6E6"/>
<path d="M594.236 474.56L579.75 473.107L565.329 318.95L559.878 472.61L545.646 472.1L521.659 259.289H613.303L594.236 474.56Z" fill="#7EA6F4"/>
<path d="M572.094 72.3109C587.38 72.3109 599.772 59.9191 599.772 44.6332C599.772 29.3472 587.38 16.9554 572.094 16.9554C556.808 16.9554 544.416 29.3472 544.416 44.6332C544.416 59.9191 556.808 72.3109 572.094 72.3109Z" fill="#FFB9B9"/>
<path d="M626.834 264.21L514.893 265.44C531.506 202.197 541.443 143.451 524.119 103.064L551.797 89.5326C565.142 103.452 580.005 102.017 596.081 88.3025L622.529 95.0681C617.999 148.029 620.029 204.751 626.834 264.21Z" fill="#7EA6F4"/>
<path d="M484.14 199.013L553.642 226.691L569.181 231.261C569.876 231.466 570.605 231.527 571.325 231.443C572.044 231.358 572.739 231.129 573.368 230.769C573.997 230.41 574.546 229.926 574.984 229.349C575.421 228.771 575.737 228.111 575.913 227.408C576.221 226.176 576.082 224.874 575.522 223.734C574.962 222.594 574.016 221.689 572.852 221.18L556.717 216.235L508.128 187.942L518.276 161.187L497.057 149.808L484.14 199.013Z" fill="#FFB9B9"/>
<path d="M484.755 148.578C497.979 153.737 508.496 162.541 516.738 174.411L542.571 136.892L524.119 103.064L484.755 148.578Z" fill="#7EA6F4"/>
<path d="M603.288 40.1474C592.055 37.253 581.01 36.8556 570.274 40.5269C563.435 43.8392 555.221 43.534 546.088 40.8049V13.1908L595.398 14.5058L603.288 40.1474Z" fill="#2F2E41"/>
<path d="M553.411 166.765C551.238 166.768 549.154 167.632 547.618 169.169C546.081 170.706 545.216 172.789 545.214 174.963L548.45 242.696C548.452 244.869 549.316 246.953 550.853 248.489C552.39 250.026 554.474 250.891 556.647 250.893H593.641C595.814 250.891 597.898 250.026 599.435 248.489C600.972 246.953 601.836 244.869 601.839 242.696L605.074 174.963C605.072 172.789 604.207 170.706 602.671 169.169C601.134 167.632 599.05 166.768 596.877 166.765H553.411Z" fill="#3F3D56"/>
<path d="M658.374 193.896L597.794 218.018L593.223 219.839C593.078 219.895 592.932 219.944 592.779 219.992L577.466 224.498C575.508 225.072 572.798 222.435 571.213 220.615C570.428 219.738 569.983 218.609 569.959 217.432C569.936 216.255 570.334 215.108 571.083 214.2C571.295 213.956 571.528 213.732 571.779 213.529C572.369 213.07 573.064 212.764 573.801 212.639L589.098 209.63C589.647 209.522 590.174 209.325 590.659 209.047L597.794 204.89L634.835 183.324C635.865 182.725 636.649 181.78 637.047 180.657C637.446 179.534 637.433 178.306 637.011 177.192L629.941 158.546C629.507 157.406 629.503 156.146 629.931 155.003C630.358 153.859 631.187 152.911 632.262 152.334L643.975 146.057C644.645 145.697 645.387 145.495 646.146 145.464C646.905 145.433 647.661 145.575 648.357 145.878C649.053 146.182 649.672 146.64 650.165 147.217C650.659 147.795 651.015 148.476 651.207 149.211L661.375 187.943C661.688 189.13 661.555 190.391 661.003 191.488C660.45 192.585 659.515 193.441 658.374 193.896Z" fill="#FFB9B9"/>
<path d="M661.893 141.813C648.669 146.971 638.152 155.776 629.91 167.645L604.077 130.127L622.529 95.0681L661.893 141.813Z" fill="#7EA6F4"/>
<path d="M590.514 69.2677C578.405 74.3042 565.709 74.0997 552.494 69.2677C556.34 62.7041 550.592 57.5635 547.641 50.9377L596.985 49.4713C593.212 55.2273 587.644 62.0279 590.514 69.2677Z" fill="white"/>
<path d="M596.462 50.5665L595.89 49.9946L596.699 49.1857L601.531 43.5459L602.146 44.0717L597.292 49.7342L596.462 50.5665Z" fill="white"/>
<path d="M544.26 47.1383L543.742 47.76L548.595 51.8046L549.113 51.1829L544.26 47.1383Z" fill="white"/>
<path d="M597.857 55.3223L589.361 68.6682L590.043 69.1027L598.539 55.7567L597.857 55.3223Z" fill="white"/>
<path d="M545.151 55.3212L544.468 55.7556L552.962 69.1028L553.644 68.6684L545.151 55.3212Z" fill="white"/>
<path d="M599.412 203.745V218.4L594.31 220.432C594.148 220.495 593.985 220.549 593.813 220.603L576.721 225.633C574.536 226.274 571.511 223.33 569.741 221.299C568.865 220.32 568.368 219.059 568.342 217.745C568.315 216.432 568.76 215.152 569.596 214.138C569.833 213.866 570.092 213.615 570.373 213.389C571.032 212.876 571.807 212.535 572.63 212.396L589.705 209.037C590.318 208.916 590.906 208.697 591.448 208.386L599.412 203.745Z" fill="white"/>
<path d="M606.805 151.473H603.882C603.882 110.129 595.369 81.3163 587.073 81.3163L586.343 78.3931C593.782 78.3931 598.525 90.3845 601.194 100.444C604.813 114.082 606.805 132.205 606.805 151.473Z" fill="#3F3D56"/>
<path d="M539.571 141.242H536.648C536.648 103.377 545.22 79.8547 557.841 79.8547L557.111 82.7779C548.38 82.7779 539.571 100.856 539.571 141.242Z" fill="#3F3D56"/>
<path d="M605.343 159.512C609.38 159.512 612.651 156.24 612.651 152.204C612.651 148.168 609.38 144.896 605.343 144.896C601.307 144.896 598.035 148.168 598.035 152.204C598.035 156.24 601.307 159.512 605.343 159.512Z" fill="#3F3D56"/>
<path d="M527.879 158.781H524.955C524.955 148.304 530.856 139.78 538.11 139.78V142.703C532.468 142.703 527.879 149.916 527.879 158.781Z" fill="#3F3D56"/>
<path d="M551.264 158.781H548.341C548.341 149.916 543.751 142.703 538.11 142.703V139.78C545.363 139.78 551.264 148.304 551.264 158.781Z" fill="#3F3D56"/>
<path d="M549.803 162.435C551.417 162.435 552.726 161.126 552.726 159.512C552.726 157.898 551.417 156.589 549.803 156.589C548.188 156.589 546.879 157.898 546.879 159.512C546.879 161.126 548.188 162.435 549.803 162.435Z" fill="#3F3D56"/>
<path d="M526.417 162.435C528.031 162.435 529.34 161.126 529.34 159.512C529.34 157.898 528.031 156.589 526.417 156.589C524.803 156.589 523.494 157.898 523.494 159.512C523.494 161.126 524.803 162.435 526.417 162.435Z" fill="#3F3D56"/>
<path d="M174.137 61.2746L122.798 69.9686C121.53 70.1849 120.226 69.9232 119.14 69.2339C118.054 68.5446 117.262 67.4769 116.917 66.2373C113.208 52.8501 105.453 35.3859 112.982 26.619C113.366 22.9308 115.157 19.5326 117.983 17.1319C120.809 14.7311 124.452 13.5128 128.154 13.7306C137.325 -0.625673 152.602 1.52982 162.926 10.4959C173.317 14.0813 177.235 20.4511 175.865 29.0951C180.354 33.0243 182.707 37.4502 183.203 42.3079C183.439 45.0112 183.095 47.7335 182.195 50.2933C181.294 52.8531 179.858 55.1914 177.983 57.1523L174.137 61.2746Z" fill="#2F2E41"/>
<path d="M166.155 101.693L126.356 99.3514C130.257 90.3992 131.815 81.7785 130.258 73.5989H159.912C159.845 79.8792 162.971 90.7431 166.155 101.693Z" fill="#9F616A"/>
<path d="M118.248 469.45L116.616 491.767C116.542 492.777 116.685 493.791 117.035 494.741C117.385 495.692 117.934 496.556 118.646 497.277C119.358 497.997 120.215 498.558 121.161 498.92C122.107 499.282 123.12 499.437 124.131 499.376L135.593 498.682C136.124 498.649 136.642 498.501 137.109 498.246C137.576 497.991 137.981 497.636 138.296 497.207C138.61 496.778 138.827 496.285 138.929 495.763C139.032 495.241 139.018 494.702 138.889 494.186L132.526 468.736L118.248 469.45Z" fill="#E6E6E6"/>
<path d="M155.357 468.736L148.995 494.186C148.866 494.702 148.852 495.241 148.954 495.763C149.057 496.285 149.273 496.778 149.588 497.207C149.902 497.636 150.308 497.991 150.775 498.246C151.242 498.501 151.759 498.649 152.29 498.682L163.753 499.376C164.764 499.437 165.776 499.282 166.722 498.92C167.668 498.558 168.526 497.997 169.237 497.277C169.949 496.556 170.498 495.692 170.849 494.741C171.199 493.791 171.342 492.777 171.268 491.767L169.636 469.45L155.357 468.736Z" fill="#E6E6E6"/>
<path d="M170.375 472.548L154.907 470.996L139.507 306.381L133.687 470.465L118.489 469.921L92.8749 242.673H190.736L170.375 472.548Z" fill="#7EA6F4"/>
<path d="M145.867 83.0722C162.19 83.0722 175.423 69.8398 175.423 53.5168C175.423 37.1938 162.19 23.9614 145.867 23.9614C129.544 23.9614 116.312 37.1938 116.312 53.5168C116.312 69.8398 129.544 83.0722 145.867 83.0722Z" fill="#9F616A"/>
<path d="M179.178 39.3978C167.182 37.3087 155.389 37.0219 143.924 39.6717C136.621 42.0624 127.85 41.8422 118.097 39.8723V19.9414L170.753 20.8905L179.178 39.3978Z" fill="#2F2E41"/>
<path d="M165.537 77.2312C152.607 82.6094 139.05 82.391 124.938 77.2312C129.044 70.2223 122.906 64.733 119.755 57.6577L172.447 56.0918C168.418 62.2383 162.472 69.5002 165.537 77.2312Z" fill="white"/>
<path d="M116.127 53.6215L115.609 54.2433L120.792 58.562L121.31 57.9402L116.127 53.6215Z" fill="white"/>
<path d="M173.402 62.3537L164.33 76.6052L165.012 77.0397L174.085 62.7882L173.402 62.3537Z" fill="white"/>
<path d="M117.072 62.3531L116.39 62.7875L125.459 77.0403L126.142 76.606L117.072 62.3531Z" fill="white"/>
<path d="M89.6783 188.315L67.0472 174.268L86.3475 117.741C88.5001 111.908 92.6232 107.011 98.0039 103.896L104.505 100.132L105.071 157.157L89.6783 188.315Z" fill="#7EA6F4"/>
<path d="M187.499 215.768L184.151 187.09C183.972 171.953 186.548 157.318 192.688 143.833L195.81 101.692L161.473 87.6456C161.368 88.3453 161.278 89.0446 161.178 89.7442L145.085 97.7906L129.391 94.2237L129.478 89.2064L98.2623 103.253C108.585 151.245 102.955 201.082 85.2032 259.949L126.326 271.193L126.668 251.447L163.318 248.829C163.695 255.236 163.999 261.529 164.175 267.682C184.855 275.295 185.565 275.169 204.408 264.268C196.904 248.492 190.963 232.075 187.499 215.768Z" fill="#7EA6F4"/>
<path d="M240.291 181.291L219.221 174.268L185.518 135.033L195.809 101.693L242.632 167.245L240.291 181.291Z" fill="#7EA6F4"/>
<path d="M174.258 211.666C174.602 213.179 175.533 214.494 176.845 215.321C178.158 216.149 179.745 216.423 181.259 216.082L199.145 212.032L196.56 200.615L178.673 204.665C177.16 205.008 175.844 205.938 175.016 207.251C174.188 208.564 173.915 210.152 174.258 211.666V211.666Z" fill="#E6E6E6"/>
<path d="M190.347 198.46L200.492 217.189C217.556 212.43 232.344 197.426 246.534 179.73L242.633 167.244L218.441 173.487L190.347 198.46Z" fill="#7EA6F4"/>
<path d="M58.0725 139.711L77.5481 143.188L122.064 206.484L98.4151 200.919L58.0725 139.711Z" fill="#E6E6E6"/>
<path d="M54.6183 138.936C54.3215 138.94 54.0313 139.024 53.7782 139.179C53.5251 139.334 53.3182 139.555 53.1793 139.817C53.0404 140.079 52.9745 140.374 52.9885 140.67C53.0026 140.967 53.096 141.254 53.2591 141.502L94.8695 204.636C95.1017 204.988 95.4604 205.239 95.8717 205.335L115.232 209.891C115.558 209.967 115.9 209.943 116.213 209.821C116.525 209.699 116.793 209.485 116.981 209.207C117.168 208.929 117.267 208.601 117.264 208.266C117.261 207.93 117.156 207.604 116.963 207.329L71.2775 142.37C71.1536 142.193 70.9961 142.042 70.8139 141.926C70.6316 141.81 70.4283 141.731 70.2156 141.694L54.9303 138.964C54.8273 138.946 54.7229 138.936 54.6183 138.936Z" fill="#3F3D56"/>
<path d="M80.5751 184.075L81.7316 195.724L99.9805 193.913C101.525 193.759 102.946 192.999 103.93 191.798C104.913 190.597 105.38 189.055 105.227 187.51C105.073 185.966 104.313 184.545 103.112 183.561C101.911 182.577 100.369 182.111 98.8244 182.264L80.5751 184.075Z" fill="#E6E6E6"/>
<path d="M64.7064 182.726C64.7329 186.698 66.3282 190.499 69.1445 193.3C71.9609 196.1 75.7701 197.675 79.7421 197.679H82.7428L84.9273 179.474L66.8395 172.962L64.7064 182.726Z" fill="#7EA6F4"/>
<path d="M171.006 58.1058L170.434 57.5338L171.298 56.6699L176.459 50.6459L177.073 51.1717L171.89 57.2184L171.006 58.1058Z" fill="white"/>
<path d="M718.323 498.423H0V500.041H718.323V498.423Z" fill="#3F3D56"/>
<path d="M274.225 497.615H444.099V291.569C444.099 280.658 433.352 271.782 420.143 271.782H298.181C284.971 271.782 274.225 280.658 274.225 291.569V497.615Z" fill="#E6E6E6"/>
<path d="M287.168 489.094H431.156V314.446C431.156 305.198 422.047 297.674 410.851 297.674H307.473C296.276 297.674 287.168 305.198 287.168 314.446V489.094Z" fill="white"/>
<path d="M272.942 255.747C268.743 255.747 265.327 258.568 265.327 262.036V280.192C265.327 283.659 268.743 286.481 272.942 286.481H445.382C449.581 286.481 452.997 283.659 452.997 280.192V262.036C452.997 258.568 449.581 255.747 445.382 255.747H272.942Z" fill="#3F3D56"/>
<path d="M308.346 466.7C306.375 466.705 304.486 467.491 303.092 468.885C301.698 470.279 300.912 472.168 300.906 474.139C300.912 476.11 301.698 477.999 303.092 479.393C304.486 480.787 306.375 481.573 308.346 481.578H322.271V466.7H308.346Z" fill="#3F3D56"/>
<path d="M335.051 466.7H321.508V481.578H335.051C337.023 481.573 338.911 480.787 340.305 479.393C341.699 477.999 342.485 476.11 342.491 474.139C342.485 472.168 341.699 470.279 340.305 468.885C338.911 467.491 337.023 466.705 335.051 466.7Z" fill="#7EA6F4"/>
<path opacity="0.2" d="M339.906 468.521C341.079 469.867 341.726 471.591 341.728 473.376C341.722 475.347 340.936 477.236 339.542 478.63C338.148 480.024 336.26 480.81 334.288 480.815H321.508V481.578H335.051C337.023 481.573 338.911 480.787 340.305 479.393C341.699 477.999 342.485 476.11 342.491 474.139C342.489 473.072 342.257 472.018 341.811 471.048C341.365 470.079 340.715 469.217 339.906 468.521Z" fill="black"/>
<path d="M371.183 354.643C369.827 353.212 367.96 352.377 365.989 352.318C364.019 352.26 362.105 352.984 360.667 354.332C359.237 355.689 358.401 357.556 358.343 359.526C358.285 361.497 359.009 363.41 360.357 364.848L369.908 374.981L380.735 364.775L371.183 354.643Z" fill="#3F3D56"/>
<path d="M389.502 374.075L380.212 364.22L369.385 374.426L378.675 384.281C380.031 385.712 381.898 386.547 383.869 386.605C385.839 386.664 387.753 385.94 389.191 384.592C390.622 383.235 391.457 381.368 391.515 379.398C391.574 377.427 390.85 375.514 389.502 374.075Z" fill="#7EA6F4"/>
<path opacity="0.2" d="M391.506 378.858C391.331 380.634 390.521 382.287 389.223 383.513C387.785 384.861 385.871 385.585 383.901 385.527C381.93 385.469 380.063 384.633 378.707 383.203L369.94 373.903L369.385 374.426L378.675 384.281C380.031 385.712 381.898 386.547 383.869 386.605C385.839 386.664 387.753 385.94 389.191 384.592C389.966 383.858 390.574 382.967 390.974 381.977C391.373 380.988 391.555 379.924 391.506 378.858Z" fill="black"/>
<path d="M331.546 378.101C330.19 376.671 328.322 375.835 326.352 375.777C324.382 375.719 322.468 376.443 321.03 377.791C319.599 379.147 318.764 381.015 318.706 382.985C318.647 384.955 319.371 386.869 320.719 388.307L330.271 398.44L341.098 388.234L331.546 378.101Z" fill="#3F3D56"/>
<path d="M349.864 397.534L340.574 387.679L329.748 397.885L339.038 407.74C340.394 409.17 342.261 410.006 344.232 410.064C346.202 410.122 348.116 409.398 349.554 408.05C350.984 406.694 351.82 404.827 351.878 402.856C351.936 400.886 351.212 398.972 349.864 397.534Z" fill="#7EA6F4"/>
<path opacity="0.2" d="M351.868 402.316C351.694 404.093 350.884 405.746 349.586 406.972C348.147 408.32 346.234 409.044 344.264 408.986C342.293 408.927 340.426 408.092 339.069 406.661L330.303 397.361L329.748 397.885L339.038 407.74C340.394 409.17 342.261 410.006 344.232 410.064C346.202 410.122 348.116 409.398 349.554 408.05C350.329 407.317 350.937 406.425 351.337 405.436C351.736 404.446 351.918 403.382 351.868 402.316Z" fill="black"/>
<path d="M371.183 399.942C369.827 398.512 367.96 397.676 365.989 397.618C364.019 397.56 362.105 398.284 360.667 399.632C359.237 400.988 358.401 402.856 358.343 404.826C358.285 406.796 359.009 408.71 360.357 410.148L369.908 420.281L380.735 410.075L371.183 399.942Z" fill="#3F3D56"/>
<path d="M389.502 419.375L380.212 409.52L369.385 419.726L378.675 429.581C380.031 431.011 381.898 431.847 383.869 431.905C385.839 431.963 387.753 431.239 389.191 429.892C390.622 428.535 391.457 426.668 391.515 424.697C391.574 422.727 390.85 420.814 389.502 419.375Z" fill="#7EA6F4"/>
<path opacity="0.2" d="M391.506 424.157C391.331 425.934 390.521 427.587 389.223 428.813C387.785 430.161 385.871 430.885 383.901 430.827C381.93 430.768 380.063 429.933 378.707 428.502L369.94 419.202L369.385 419.726L378.675 429.581C380.031 431.011 381.898 431.847 383.869 431.905C385.839 431.963 387.753 431.239 389.191 429.891C389.966 429.158 390.574 428.266 390.974 427.277C391.373 426.287 391.555 425.223 391.506 424.157Z" fill="black"/>
<path d="M395.364 446.429C396.778 445.055 397.591 443.178 397.625 441.207C397.659 439.236 396.912 437.331 395.547 435.91C394.173 434.496 392.296 433.683 390.325 433.649C388.354 433.614 386.449 434.361 385.028 435.727L375.012 445.401L385.348 456.103L395.364 446.429Z" fill="#3F3D56"/>
<path d="M376.156 464.982L385.897 455.573L375.56 444.871L365.819 454.28C364.405 455.653 363.592 457.531 363.558 459.502C363.524 461.473 364.271 463.377 365.636 464.799C367.01 466.213 368.887 467.026 370.858 467.06C372.829 467.094 374.734 466.347 376.156 464.982Z" fill="#7EA6F4"/>
<path opacity="0.2" d="M371.398 467.044C369.62 466.891 367.956 466.1 366.715 464.818C365.35 463.396 364.603 461.491 364.637 459.52C364.671 457.549 365.484 455.672 366.898 454.298L376.091 445.42L375.56 444.871L365.819 454.28C364.405 455.653 363.592 457.531 363.558 459.502C363.524 461.473 364.271 463.377 365.636 464.799C366.379 465.565 367.278 466.163 368.272 466.55C369.267 466.937 370.333 467.106 371.398 467.044Z" fill="black"/>
<path d="M341.975 422.97C343.389 421.596 344.202 419.719 344.236 417.748C344.271 415.777 343.523 413.873 342.158 412.451C340.784 411.037 338.907 410.224 336.936 410.19C334.965 410.155 333.061 410.903 331.639 412.268L321.623 421.942L331.959 432.644L341.975 422.97Z" fill="#3F3D56"/>
<path d="M322.767 441.523L332.508 432.114L322.172 421.412L312.43 430.821C311.016 432.195 310.203 434.072 310.169 436.043C310.135 438.014 310.882 439.918 312.247 441.34C313.621 442.754 315.498 443.567 317.469 443.601C319.44 443.635 321.345 442.888 322.767 441.523Z" fill="#7EA6F4"/>
<path opacity="0.2" d="M318.009 443.585C316.231 443.432 314.568 442.642 313.326 441.359C311.961 439.937 311.214 438.033 311.248 436.062C311.282 434.091 312.095 432.213 313.509 430.84L322.702 421.961L322.172 421.412L312.43 430.821C311.016 432.195 310.203 434.072 310.169 436.043C310.135 438.014 310.882 439.918 312.247 441.34C312.99 442.107 313.889 442.704 314.883 443.091C315.878 443.479 316.944 443.647 318.009 443.585Z" fill="black"/>
<path d="M418.014 394.658C419.428 393.284 420.241 391.407 420.275 389.436C420.309 387.465 419.562 385.56 418.197 384.138C416.823 382.725 414.946 381.912 412.975 381.877C411.004 381.843 409.099 382.59 407.677 383.956L397.661 393.63L407.998 404.332L418.014 394.658Z" fill="#3F3D56"/>
<path d="M398.805 413.211L408.547 403.802L398.21 393.1L388.469 402.509C387.055 403.882 386.242 405.76 386.208 407.731C386.174 409.702 386.921 411.606 388.286 413.028C389.66 414.442 391.537 415.255 393.508 415.289C395.479 415.323 397.384 414.576 398.805 413.211Z" fill="#7EA6F4"/>
<path opacity="0.2" d="M394.048 415.273C392.27 415.12 390.606 414.329 389.365 413.047C388 411.625 387.253 409.72 387.287 407.749C387.321 405.778 388.134 403.901 389.548 402.527L398.74 393.648L398.21 393.1L388.469 402.509C387.055 403.882 386.242 405.76 386.208 407.731C386.174 409.702 386.921 411.606 388.286 413.028C389.029 413.794 389.928 414.391 390.922 414.779C391.917 415.166 392.983 415.335 394.048 415.273Z" fill="black"/>
<path d="M401.114 453.331C399.757 451.901 397.89 451.065 395.919 451.007C393.949 450.949 392.036 451.673 390.597 453.021C389.167 454.377 388.331 456.244 388.273 458.215C388.215 460.185 388.939 462.099 390.287 463.537L399.838 473.67L410.665 463.464L401.114 453.331Z" fill="#3F3D56"/>
<path d="M419.432 472.764L410.142 462.909L399.315 473.115L408.605 482.97C409.961 484.4 411.829 485.236 413.799 485.294C415.77 485.352 417.683 484.628 419.121 483.28C420.552 481.924 421.387 480.057 421.446 478.086C421.504 476.116 420.78 474.202 419.432 472.764Z" fill="#7EA6F4"/>
<path opacity="0.2" d="M421.436 477.546C421.262 479.323 420.451 480.976 419.153 482.202C417.715 483.55 415.801 484.274 413.831 484.215C411.861 484.157 409.993 483.322 408.637 481.891L399.87 472.591L399.315 473.115L408.605 482.97C409.961 484.4 411.829 485.236 413.799 485.294C415.77 485.352 417.683 484.628 419.121 483.28C419.897 482.547 420.505 481.655 420.904 480.666C421.304 479.676 421.485 478.612 421.436 477.546Z" fill="black"/>
<path d="M348.534 452.522C347.177 451.092 345.31 450.256 343.339 450.198C341.369 450.14 339.456 450.864 338.017 452.212C336.587 453.568 335.751 455.436 335.693 457.406C335.635 459.376 336.359 461.29 337.707 462.728L347.258 472.861L358.085 462.655L348.534 452.522Z" fill="#3F3D56"/>
<path d="M366.852 471.955L357.562 462.1L346.735 472.306L356.025 482.161C357.381 483.591 359.249 484.427 361.219 484.485C363.19 484.543 365.103 483.819 366.541 482.471C367.972 481.115 368.807 479.248 368.866 477.277C368.924 475.307 368.2 473.393 366.852 471.955Z" fill="#7EA6F4"/>
<path opacity="0.2" d="M368.856 476.737C368.682 478.514 367.871 480.167 366.573 481.393C365.135 482.741 363.221 483.465 361.251 483.406C359.281 483.348 357.413 482.513 356.057 481.082L347.29 471.782L346.735 472.306L356.025 482.161C357.381 483.591 359.249 484.427 361.219 484.485C363.19 484.543 365.103 483.819 366.541 482.471C367.317 481.738 367.925 480.846 368.324 479.857C368.724 478.867 368.905 477.803 368.856 476.737Z" fill="black"/>
<path d="M363.334 425.833C363.335 428.307 362.481 430.704 360.916 432.62C359.352 434.536 357.174 435.853 354.751 436.348C353.335 436.634 351.876 436.634 350.459 436.348C348.036 435.852 345.859 434.535 344.295 432.62C342.731 430.704 341.876 428.306 341.876 425.833C341.876 423.36 342.731 420.963 344.295 419.047C345.859 417.131 348.036 415.814 350.459 415.319C351.876 415.033 353.335 415.033 354.751 415.319C357.174 415.814 359.352 417.13 360.916 419.046C362.481 420.962 363.335 423.36 363.334 425.833Z" fill="#7EA6F4"/>
<path opacity="0.2" d="M354.751 415.319V436.348C353.335 436.634 351.876 436.634 350.459 436.348V415.319C351.876 415.033 353.335 415.033 354.751 415.319Z" fill="black"/>
<path d="M368.188 382.96C368.188 385.434 367.334 387.831 365.77 389.747C364.206 391.663 362.028 392.98 359.604 393.475C358.188 393.761 356.729 393.761 355.313 393.475C352.89 392.979 350.712 391.663 349.148 389.747C347.584 387.831 346.73 385.433 346.73 382.96C346.73 380.487 347.584 378.09 349.148 376.174C350.712 374.258 352.89 372.941 355.313 372.446C356.729 372.16 358.188 372.16 359.604 372.446C362.028 372.941 364.206 374.257 365.77 376.173C367.334 378.089 368.188 380.487 368.188 382.96Z" fill="#7EA6F4"/>
<path opacity="0.2" d="M359.605 372.446V393.475C358.188 393.761 356.729 393.761 355.313 393.475V372.446C356.729 372.16 358.188 372.16 359.605 372.446Z" fill="black"/>
<path d="M368.188 444.438C368.188 446.912 367.334 449.309 365.77 451.225C364.206 453.141 362.028 454.458 359.604 454.953C358.188 455.239 356.729 455.239 355.313 454.953C352.89 454.458 350.712 453.141 349.148 451.225C347.584 449.309 346.73 446.912 346.73 444.438C346.73 441.965 347.584 439.568 349.148 437.652C350.712 435.736 352.89 434.419 355.313 433.924C356.729 433.638 358.188 433.638 359.604 433.924C362.028 434.419 364.206 435.736 365.77 437.652C367.334 439.568 368.188 441.965 368.188 444.438Z" fill="#7EA6F4"/>
<path opacity="0.2" d="M359.605 433.924V454.953C358.188 455.239 356.729 455.239 355.313 454.953V433.924C356.729 433.638 358.188 433.638 359.605 433.924Z" fill="black"/>
<path d="M394.882 474.369C394.883 476.842 394.028 479.24 392.464 481.156C390.9 483.072 388.722 484.388 386.299 484.883C384.883 485.169 383.424 485.169 382.007 484.883C379.584 484.388 377.407 483.071 375.843 481.155C374.279 479.239 373.424 476.842 373.424 474.369C373.424 471.895 374.279 469.498 375.843 467.582C377.407 465.666 379.584 464.349 382.007 463.854C383.424 463.568 384.883 463.568 386.299 463.854C388.722 464.349 390.9 465.666 392.464 467.582C394.028 469.498 394.883 471.895 394.882 474.369Z" fill="#7EA6F4"/>
<path opacity="0.2" d="M386.299 463.854V484.883C384.883 485.169 383.424 485.169 382.007 484.883V463.854C383.424 463.568 384.883 463.568 386.299 463.854Z" fill="black"/>
<path d="M418.463 419.301C420.245 421.017 421.378 423.295 421.672 425.751C421.966 428.207 421.403 430.689 420.077 432.777C419.3 433.995 418.288 435.046 417.099 435.867C415.061 437.268 412.601 437.922 410.137 437.719C407.672 437.515 405.353 436.466 403.572 434.75C401.792 433.034 400.658 430.755 400.364 428.299C400.07 425.844 400.633 423.362 401.958 421.274C402.735 420.055 403.748 419.005 404.937 418.184C406.975 416.782 409.434 416.128 411.899 416.331C414.364 416.535 416.683 417.584 418.463 419.301Z" fill="#7EA6F4"/>
<path opacity="0.2" d="M404.937 418.184L420.077 432.777C419.301 433.995 418.288 435.046 417.099 435.867L401.958 421.274C402.735 420.055 403.748 419.005 404.937 418.184Z" fill="black"/>
<path d="M421.699 442.759C423.48 444.475 424.614 446.754 424.908 449.21C425.202 451.666 424.639 454.148 423.313 456.236C422.536 457.454 421.524 458.505 420.335 459.326C418.297 460.727 415.837 461.381 413.372 461.177C410.908 460.974 408.589 459.925 406.808 458.209C405.027 456.493 403.894 454.214 403.6 451.758C403.306 449.302 403.869 446.821 405.194 444.732C405.971 443.514 406.984 442.464 408.172 441.642C410.21 440.241 412.67 439.587 415.135 439.79C417.6 439.994 419.919 441.043 421.699 442.759Z" fill="#7EA6F4"/>
<path opacity="0.2" d="M408.172 441.643L423.313 456.236C422.536 457.454 421.524 458.505 420.335 459.326L405.194 444.732C405.971 443.514 406.984 442.464 408.172 441.643Z" fill="black"/>
<path d="M325.437 448.422C327.219 450.138 328.352 452.417 328.646 454.872C328.94 457.328 328.377 459.81 327.051 461.898C326.274 463.116 325.262 464.167 324.073 464.988C322.035 466.389 319.575 467.043 317.111 466.84C314.646 466.636 312.327 465.588 310.546 463.871C308.766 462.155 307.632 459.876 307.338 457.421C307.044 454.965 307.607 452.483 308.932 450.395C309.709 449.177 310.722 448.126 311.911 447.305C313.949 445.903 316.408 445.249 318.873 445.453C321.338 445.656 323.657 446.705 325.437 448.422Z" fill="#7EA6F4"/>
<path opacity="0.2" d="M311.911 447.305L327.051 461.898C326.274 463.116 325.262 464.167 324.073 464.988L308.932 450.395C309.709 449.177 310.722 448.126 311.911 447.305Z" fill="black"/>
<path opacity="0.2" d="M290.808 255.747H286.763V285.677H290.808V255.747Z" fill="black"/>
<path opacity="0.2" d="M314.267 255.747H310.222V285.677H314.267V255.747Z" fill="black"/>
<path opacity="0.2" d="M337.725 255.747H333.681V285.677H337.725V255.747Z" fill="black"/>
<path opacity="0.2" d="M361.184 255.747H357.139V285.677H361.184V255.747Z" fill="black"/>
<path opacity="0.2" d="M384.643 255.747H380.598V285.677H384.643V255.747Z" fill="black"/>
<path opacity="0.2" d="M408.101 255.747H404.057V285.677H408.101V255.747Z" fill="black"/>
<path opacity="0.2" d="M431.56 255.747H427.516V285.677H431.56V255.747Z" fill="black"/>
</g>
<defs>
<clipPath id="clip0_71_172">
<rect width="718.323" height="500" fill="white" transform="translate(0 0.0412598)"/>
</clipPath>
</defs>
</svg>
