<svg width="258" height="257" viewBox="0 0 258 257" fill="none" xmlns="http://www.w3.org/2000/svg">
    <g clip-path="url(#clip0_159_3964)">
        <path d="M255.272 229.978C252.082 236.6 246.204 241.527 240.042 245.532C233.307 249.905 226.05 253.418 218.442 255.987C217.399 256.347 216.346 256.681 215.288 257H172.499C172.2 256.676 171.916 256.337 171.648 255.987C168.782 252.316 167.233 247.613 167.795 243.005C168.519 237.086 173.015 231.648 178.838 230.393C184.666 229.132 191.308 232.61 193.08 238.307C194.053 227.33 195.177 215.897 201.01 206.55C206.295 198.089 215.445 192.034 225.358 190.95C231.189 190.343 237.072 191.42 242.31 194.054C242.791 194.297 243.267 194.55 243.733 194.814C246.876 196.596 249.65 198.962 251.905 201.786C258.087 209.613 259.601 220.99 255.272 229.978Z" fill="#F2F2F2"/>
        <path d="M243.419 195.507C223.521 211.713 207.797 232.452 197.567 255.987C197.42 256.321 197.273 256.661 197.131 257H195.116C195.258 256.661 195.399 256.321 195.546 255.987C197.496 251.43 199.647 246.955 202.012 242.595C207.043 233.325 212.963 224.565 219.688 216.439C226.408 208.302 233.914 200.849 242.097 194.186C242.162 194.133 242.234 194.089 242.31 194.054C242.452 193.992 242.607 193.963 242.761 193.97C242.916 193.976 243.068 194.017 243.205 194.09C243.342 194.163 243.46 194.266 243.552 194.391C243.643 194.517 243.705 194.661 243.733 194.814C243.747 194.947 243.726 195.081 243.671 195.203C243.615 195.325 243.529 195.43 243.419 195.507Z" fill="white"/>
        <path d="M84.6641 148.649C85.1639 148.155 85.5493 147.557 85.7931 146.898C86.0369 146.238 86.1331 145.533 86.075 144.833C86.0169 144.132 85.8059 143.453 85.4569 142.843C85.1078 142.232 84.6293 141.706 84.0548 141.301L81.6264 125.291L71.6512 128.431L77.116 142.714C76.4991 143.724 76.2742 144.925 76.4839 146.09C76.6937 147.255 77.3234 148.303 78.2538 149.034C79.1842 149.766 80.3506 150.131 81.5321 150.06C82.7135 149.989 83.8279 149.487 84.6641 148.649H84.6641Z" fill="#FFB8B8"/>
        <path d="M74.388 141.117L68.2346 112.38C67.6352 109.628 67.7525 106.767 68.5753 104.073C69.3981 101.378 70.899 98.9401 72.934 96.9919C80.8103 89.4019 90.9332 79.8351 94.4299 77.3606C97.7117 75.0212 101.683 73.8491 105.709 74.0313L105.793 74.0405L111.086 79.0427L99.556 98.0241L82.0516 108.992L83.9995 137.158L74.388 141.117Z" fill="#36A793"/>
        <path d="M95.9377 102.066H70.1154C68.9968 102.066 68.0901 102.972 68.0901 104.091C68.0901 105.209 68.9968 106.116 70.1154 106.116H95.9377C97.0563 106.116 97.963 105.209 97.963 104.091C97.963 102.972 97.0563 102.066 95.9377 102.066Z" fill="#CCCCCC"/>
        <path d="M95.9377 146.116H70.1154C68.9968 146.116 68.0901 147.022 68.0901 148.141C68.0901 149.26 68.9968 150.166 70.1154 150.166H95.9377C97.0563 150.166 97.963 149.26 97.963 148.141C97.963 147.022 97.0563 146.116 95.9377 146.116Z" fill="#CCCCCC"/>
        <path d="M83.2797 256.494C83.0266 256.494 82.7827 256.399 82.596 256.228C82.4093 256.057 82.2934 255.823 82.271 255.571L69.3618 104.181C69.338 103.913 69.4215 103.647 69.5939 103.441C69.7663 103.235 70.0134 103.106 70.281 103.082C70.5485 103.059 70.8145 103.142 71.0204 103.315C71.2264 103.487 71.3554 103.734 71.3791 104.002L83.2651 243.874L94.8132 104.004C94.8246 103.872 94.862 103.743 94.9233 103.625C94.9846 103.507 95.0685 103.402 95.1702 103.316C95.272 103.23 95.3896 103.166 95.5164 103.126C95.6432 103.085 95.7767 103.071 95.9092 103.082C96.0417 103.094 96.1706 103.131 96.2886 103.192C96.4067 103.253 96.5115 103.337 96.5971 103.439C96.6827 103.541 96.7474 103.659 96.7876 103.785C96.8277 103.912 96.8425 104.046 96.8311 104.178L84.2886 255.568C84.2668 255.82 84.1513 256.055 83.9647 256.227C83.7782 256.398 83.5342 256.493 83.2809 256.494H83.2797Z" fill="#CCCCCC"/>
        <path d="M112.259 67.9714C119.596 67.9714 125.544 62.0234 125.544 54.6861C125.544 47.3489 119.596 41.4009 112.259 41.4009C104.922 41.4009 98.9735 47.3489 98.9735 54.6861C98.9735 62.0234 104.922 67.9714 112.259 67.9714Z" fill="#FFB8B8"/>
        <path d="M72.6652 250.422L66.3473 248.408L71.1077 223.08L80.4331 226.052L72.6652 250.422Z" fill="#FFB8B8"/>
        <path d="M72.3136 256.026L51.9741 249.543L52.1421 249.015C52.7891 246.994 54.2112 245.312 56.0966 244.338C57.9821 243.364 60.1768 243.177 62.1995 243.819L74.9127 247.871L72.3136 256.026Z" fill="#2F2E41"/>
        <path d="M118.634 250.291H112.002L108.846 224.712H118.634V250.291Z" fill="#FFB8B8"/>
        <path d="M99.4664 256.196H119.802V248.649H106.965C104.977 248.652 103.071 249.442 101.665 250.848C100.259 252.254 99.4687 254.16 99.4664 256.148V256.196Z" fill="#2F2E41"/>
        <path d="M118.44 241.99L116.202 241.656C109.413 240.645 109.007 240.584 107.929 240.111C107.379 239.869 107.34 236.216 107.671 215.678C107.913 200.603 108.215 181.841 107.629 171.769C107.605 171.371 107.447 170.994 107.182 170.696C106.917 170.399 106.56 170.2 106.168 170.131C105.775 170.062 105.372 170.127 105.021 170.316C104.67 170.504 104.393 170.806 104.235 171.171C99.184 182.835 90.7099 208.938 85.1025 226.21C83.152 232.218 81.6114 236.964 80.6367 239.809C80.4484 240.347 80.0664 240.795 79.5651 241.066C79.0639 241.338 78.4795 241.412 77.9261 241.276C73.3115 240.122 73.62 239.632 67.0475 237.932C66.4788 237.787 65.9883 237.427 65.6786 236.929C65.3689 236.431 65.264 235.832 65.3859 235.258C66.5746 229.651 88.3295 138.753 89.9947 130.112C90.0511 129.816 90.1654 129.535 90.3313 129.283C90.4971 129.032 90.711 128.816 90.9608 128.648C91.2105 128.48 91.4911 128.363 91.7864 128.304C92.0816 128.245 92.3856 128.245 92.6808 128.304C97.5789 129.291 100.559 130.338 105.399 131.35C110.622 132.443 116.023 133.572 121.291 134.627C121.815 134.732 122.285 135.02 122.617 135.44C123.92 137.086 125.853 138.01 127.9 138.988C129.279 139.648 126.153 139.589 127.354 140.54C132.22 144.391 125.223 222.608 120.995 240.274C120.86 240.827 120.522 241.309 120.05 241.627C119.577 241.944 119.003 242.074 118.44 241.99V241.99Z" fill="#2F2E41"/>
        <path d="M117.921 66.3112C117.146 63.0201 121.067 55.9384 120.291 52.6473C119.766 50.4185 114.525 51.9336 113.302 49.9977C112.079 48.0619 110.03 46.4935 107.74 46.4678C105.108 46.4383 102.519 48.3906 100.025 47.5468C97.5046 46.6936 96.6989 43.2416 97.8134 40.8249C98.9279 38.4082 101.329 36.8683 103.701 35.6616C107.74 33.6067 112.443 32.1061 116.766 33.4657C119.379 34.2875 121.564 36.0683 123.679 37.81C125.606 39.3977 127.566 41.0214 128.914 43.1239C131.554 47.2427 131.394 52.7924 129.138 57.1333C126.883 61.4743 122.772 64.6599 118.243 66.509" fill="#2F2E41"/>
        <path d="M85.3 142.901C86.7339 140.505 88.9109 129.282 91.5955 110.444C93.4233 97.5837 95.0158 84.517 95.8059 77.8423C95.8673 77.3021 96.0648 76.7864 96.3801 76.3434C96.6953 75.9005 97.1179 75.5449 97.6082 75.31C98.121 75.0625 98.6306 74.8283 99.1373 74.6074C105.681 71.7613 112.312 70.8184 118.845 71.8043C125.369 72.8063 131.489 75.5947 136.526 79.8605L136.585 79.9166L136.6 79.9967C136.629 80.145 139.373 94.9321 133.752 104.923C128.209 114.78 128.144 140.885 128.144 141.147V141.483L127.822 141.391C119.198 138.927 85.8855 143.238 85.5499 143.282L85.0312 143.349L85.3 142.901Z" fill="#36A793"/>
        <path d="M135.431 108.648H109.608C108.49 108.648 107.583 109.555 107.583 110.673C107.583 111.792 108.49 112.699 109.608 112.699H135.431C136.549 112.699 137.456 111.792 137.456 110.673C137.456 109.555 136.549 108.648 135.431 108.648Z" fill="#CCCCCC"/>
        <path d="M135.431 152.698H109.608C108.49 152.698 107.583 153.605 107.583 154.723C107.583 155.842 108.49 156.748 109.608 156.748H135.431C136.549 156.748 137.456 155.842 137.456 154.723C137.456 153.605 136.549 152.698 135.431 152.698Z" fill="#CCCCCC"/>
        <path d="M122.773 257C122.52 257 122.276 256.905 122.089 256.734C121.902 256.564 121.786 256.329 121.764 256.077L108.855 110.763C108.843 110.63 108.857 110.497 108.897 110.37C108.937 110.243 109.002 110.125 109.087 110.023C109.172 109.921 109.277 109.837 109.395 109.776C109.513 109.714 109.642 109.676 109.774 109.665C109.906 109.653 110.04 109.667 110.167 109.707C110.294 109.747 110.411 109.811 110.513 109.897C110.615 109.982 110.7 110.087 110.761 110.205C110.823 110.322 110.86 110.451 110.872 110.584L122.758 244.38L134.306 110.586C134.329 110.319 134.458 110.071 134.663 109.898C134.869 109.725 135.135 109.641 135.402 109.664C135.67 109.687 135.917 109.816 136.09 110.021C136.263 110.227 136.347 110.493 136.324 110.76L123.782 256.074C123.76 256.327 123.644 256.562 123.458 256.733C123.271 256.904 123.027 257 122.774 257H122.773Z" fill="#CCCCCC"/>
        <path d="M114.435 153.339C114.284 152.653 114.285 151.941 114.439 151.255C114.593 150.569 114.895 149.925 115.324 149.369C115.754 148.812 116.3 148.357 116.925 148.034C117.549 147.711 118.237 147.53 118.939 147.502L129.677 135.381L136.345 143.437L123.997 152.458C123.966 153.641 123.502 154.772 122.693 155.636C121.884 156.5 120.786 157.037 119.607 157.146C118.429 157.254 117.251 156.927 116.298 156.225C115.345 155.524 114.682 154.497 114.435 153.339V153.339Z" fill="#FFB8B8"/>
        <path d="M120.687 144.903L137.627 122.317L128.892 103.598L129.526 81.3982L136.688 80.0751L136.763 80.1131C140.242 82.1479 142.939 85.2897 144.423 89.0368C146.014 93.0142 149.314 106.546 151.801 117.197C152.451 119.939 152.386 122.801 151.613 125.51C150.84 128.219 149.384 130.684 147.385 132.669L126.604 153.45L120.687 144.903Z" fill="#36A793"/>
        <path d="M49.6754 250.719L72.8512 256.299C73.3008 256.418 73.7779 256.376 74.1993 256.179C74.6208 255.982 74.9598 255.644 75.1573 255.223L95.0658 202.291C95.1536 202.087 95.1991 201.868 95.1994 201.647C95.1997 201.425 95.1548 201.206 95.0675 201.002C94.9671 200.773 94.8213 200.567 94.639 200.397C94.4567 200.226 94.2417 200.094 94.0069 200.009L76.5821 193.355C76.3067 193.249 76.0121 193.203 75.7177 193.22C75.4233 193.236 75.1356 193.314 74.8735 193.449C74.6457 193.562 74.4447 193.721 74.284 193.918C74.1232 194.115 74.0065 194.344 73.9417 194.589L73.9412 194.592L61.6427 241.244L61.46 241.255C61.3893 241.259 54.3388 241.739 51.1684 245.545C50.5767 246.258 50.1386 247.086 49.8817 247.976C49.6248 248.867 49.5545 249.8 49.6754 250.719Z" fill="#CCCCCC"/>
        <path d="M251.135 256.494C251.136 256.56 251.123 256.626 251.097 256.688C251.072 256.749 251.035 256.805 250.988 256.852C250.94 256.899 250.885 256.937 250.823 256.962C250.761 256.987 250.696 257 250.629 257H0.506321C0.372036 257 0.243259 256.947 0.148305 256.852C0.0533517 256.757 0 256.628 0 256.494C0 256.359 0.0533517 256.231 0.148305 256.136C0.243259 256.041 0.372036 255.987 0.506321 255.987H250.629C250.696 255.987 250.761 256 250.823 256.025C250.885 256.051 250.94 256.088 250.988 256.135C251.035 256.182 251.072 256.238 251.097 256.3C251.123 256.361 251.136 256.427 251.135 256.494Z" fill="#3F3D56"/>
        <path d="M66.4599 221.047L66.3533 222.054L87.4829 224.292L87.5896 223.284L66.4599 221.047Z" fill="#B3B3B3"/>
        <path d="M64.6177 229.389L64.2021 230.313L81.2058 237.964L81.6214 237.04L64.6177 229.389Z" fill="#B3B3B3"/>
        <path d="M89.8133 216.192L69.7716 209.554L70.1873 208.63L90.229 215.268L89.8133 216.192Z" fill="#B3B3B3"/>
        <path d="M91.8386 211.635L71.7969 201.959L72.2126 201.035L92.2543 210.711L91.8386 211.635Z" fill="#B3B3B3"/>
        <path d="M62.8503 237.318L62.1926 238.088L76.6427 250.432L77.3003 249.662L62.8503 237.318Z" fill="#B3B3B3"/>
        <path d="M58.7476 241.41L57.8254 241.829L63.6275 254.623L64.5497 254.205L58.7476 241.41Z" fill="#B3B3B3"/>
        <path d="M194.599 242.015V11.2318C194.599 8.11539 194.659 4.99234 194.599 1.87631C194.597 1.74007 194.599 1.60356 194.599 1.46729C194.599 -0.487477 191.562 -0.490713 191.562 1.46729V232.251C191.562 235.367 191.502 238.49 191.562 241.606C191.564 241.742 191.562 241.879 191.562 242.015C191.562 243.97 194.599 243.973 194.599 242.015V242.015Z" fill="#F2F2F2"/>
        <path d="M211.401 65.9694H174.946C174.073 65.9684 173.237 65.6213 172.62 65.0043C172.003 64.3874 171.656 63.5508 171.655 62.6783V18.3752C171.656 17.5027 172.003 16.6661 172.62 16.0492C173.237 15.4322 174.073 15.0851 174.946 15.0841H211.401C212.273 15.0851 213.11 15.4322 213.727 16.0492C214.344 16.6661 214.691 17.5027 214.692 18.3752V62.6783C214.691 63.5508 214.344 64.3874 213.727 65.0043C213.11 65.6213 212.273 65.9684 211.401 65.9694Z" fill="#F2F2F2"/>
    </g>
    <defs>
        <clipPath id="clip0_159_3964">
            <rect width="257.741" height="257" fill="white"/>
        </clipPath>
    </defs>
</svg>
