<svg width="708" height="510" viewBox="0 0 708 510" fill="none" xmlns="http://www.w3.org/2000/svg">
<g clip-path="url(#clip0_71_672)">
<path opacity="0.1" d="M411.208 89.9425C365.836 88.3656 322.589 73.7173 281.355 57.694C240.12 41.6708 199.251 23.9143 154.941 15.4237C126.452 9.95668 93.8717 9.18777 70.9218 24.4616C48.832 39.1556 41.6969 64.523 37.8588 88.0593C34.9722 105.77 33.2975 124.406 41.1886 140.99C46.6817 152.498 56.4299 162.174 63.1741 173.199C86.6323 211.56 70.0486 258.867 44.6226 296.355C32.6981 313.948 18.8643 330.688 9.66344 349.396C0.462632 368.104 -3.79893 389.536 4.25504 408.615C12.2373 427.512 31.2515 441.73 51.8555 451.719C93.7023 471.991 143.01 477.791 191.093 481.114C297.528 488.392 404.536 485.238 511.251 482.085C550.745 480.912 590.416 479.732 629.265 473.614C650.84 470.219 673.119 464.836 688.784 451.843C708.664 435.344 713.597 407.416 700.272 386.727C677.921 352.035 616.128 343.414 600.503 306.181C591.908 285.688 600.737 262.855 613.235 243.848C640.036 203.076 684.972 167.302 687.337 120.692C688.966 88.6783 667.365 56.6254 633.963 41.4753C598.958 25.5824 550.413 27.5894 524.59 53.856C497.997 80.9176 451.263 91.3304 411.208 89.9425Z" fill="#7EA6F4"/>
<path d="M157.854 472.447C157.854 472.447 122.015 445.353 115.245 410.889C112.499 396.414 105.135 383.22 94.2561 373.284C89.052 368.611 83.4312 364.423 77.464 360.773" stroke="#535461" stroke-width="2" stroke-miterlimit="10"/>
<path d="M73.0787 339.062C76.2195 343.31 77.64 361.314 77.64 361.314C77.64 361.314 60.8479 354.7 57.7006 350.458C56.1893 348.419 55.55 345.863 55.9233 343.352C56.2966 340.842 57.652 338.582 59.6912 337.071C61.7305 335.56 64.2866 334.92 66.7972 335.294C69.3079 335.667 71.5674 337.022 73.0787 339.062Z" fill="#7EA6F4"/>
<path d="M103.196 353.189C103.522 358.46 94.9404 374.347 94.9404 374.347C94.9404 374.347 84.4298 359.659 84.0975 354.388C83.9711 351.874 84.8401 349.413 86.5161 347.536C88.1921 345.659 90.5402 344.518 93.0516 344.36C95.563 344.202 98.0354 345.041 99.933 346.693C101.831 348.346 103.001 350.679 103.19 353.189H103.196Z" fill="#7EA6F4"/>
<path d="M132.389 393.798C130.017 398.515 114.58 407.898 114.58 407.898C114.58 407.898 112.931 389.914 115.303 385.196C116.471 382.978 118.463 381.306 120.85 380.541C123.238 379.777 125.83 379.98 128.07 381.107C130.309 382.234 132.016 384.196 132.824 386.569C133.632 388.943 133.475 391.538 132.389 393.798Z" fill="#7EA6F4"/>
<path d="M147.565 429.48C146.021 434.53 132.395 446.383 132.395 446.383C132.395 446.383 127.723 428.939 129.267 423.883C130.01 421.456 131.685 419.424 133.926 418.233C136.167 417.042 138.788 416.79 141.215 417.533C143.641 418.275 145.673 419.951 146.864 422.191C148.055 424.432 148.307 427.054 147.565 429.48Z" fill="#7EA6F4"/>
<path d="M79.4059 387.118C84.6188 387.822 101.098 380.381 101.098 380.381C101.098 380.381 87.1927 368.86 81.9537 368.156C79.4392 367.818 76.8934 368.493 74.8765 370.032C72.8595 371.572 71.5366 373.849 71.1988 376.363C70.8609 378.878 71.5358 381.424 73.0749 383.441C74.614 385.458 76.8913 386.78 79.4059 387.118Z" fill="#7EA6F4"/>
<path d="M97.6837 428.633C102.897 427.74 116.365 415.718 116.365 415.718C116.365 415.718 99.645 408.889 94.4386 409.782C93.1921 409.986 91.9984 410.435 90.9264 411.103C89.8544 411.771 88.9253 412.645 88.1928 413.674C87.4604 414.703 86.9389 415.867 86.6587 417.099C86.3784 418.331 86.3449 419.606 86.56 420.85C86.7752 422.095 87.2347 423.285 87.9121 424.351C88.5895 425.417 89.4713 426.339 90.5067 427.062C91.5421 427.786 92.7106 428.297 93.9446 428.567C95.1787 428.836 96.4539 428.859 97.6967 428.633H97.6837Z" fill="#7EA6F4"/>
<path d="M120.979 466.55C126.263 466.55 141.576 456.978 141.576 456.978C141.576 456.978 126.257 447.419 120.972 447.419C118.435 447.419 116.002 448.427 114.208 450.221C112.414 452.015 111.407 454.448 111.407 456.985C111.407 459.522 112.414 461.955 114.208 463.749C116.002 465.543 118.435 466.55 120.972 466.55H120.979Z" fill="#7EA6F4"/>
<path d="M506.012 238.107C506.012 238.107 528.102 198.977 561.399 187.704C575.381 183.061 587.481 174.009 595.883 161.907C599.823 156.121 603.224 149.985 606.041 143.577" stroke="#535461" stroke-width="2" stroke-miterlimit="10"/>
<path d="M626.945 136.409C623.153 140.084 605.501 143.89 605.501 143.89C605.501 143.89 609.834 126.361 613.626 122.68C615.457 120.966 617.887 120.039 620.394 120.1C622.901 120.16 625.284 121.202 627.03 123.002C628.776 124.802 629.746 127.215 629.73 129.723C629.714 132.231 628.714 134.632 626.945 136.409Z" fill="#7EA6F4"/>
<path d="M616.963 168.097C611.75 169.127 594.892 162.728 594.892 162.728C594.892 162.728 608.055 150.347 613.235 149.337C614.479 149.061 615.766 149.036 617.019 149.264C618.273 149.492 619.468 149.968 620.535 150.665C621.602 151.361 622.519 152.263 623.233 153.319C623.946 154.375 624.442 155.562 624.69 156.812C624.938 158.061 624.935 159.348 624.679 160.596C624.423 161.844 623.92 163.029 623.201 164.08C622.481 165.131 621.558 166.028 620.487 166.718C619.416 167.408 618.217 167.877 616.963 168.097Z" fill="#7EA6F4"/>
<path d="M580.629 202.424C575.637 200.698 564.293 186.649 564.293 186.649C564.293 186.649 581.886 182.622 586.891 184.349C588.093 184.747 589.204 185.381 590.16 186.213C591.115 187.045 591.896 188.058 592.456 189.194C593.017 190.33 593.347 191.566 593.426 192.83C593.505 194.095 593.332 195.362 592.917 196.559C592.503 197.756 591.854 198.859 591.01 199.803C590.166 200.748 589.142 201.515 587.999 202.061C586.856 202.606 585.616 202.919 584.35 202.982C583.085 203.044 581.82 202.855 580.629 202.424Z" fill="#7EA6F4"/>
<path d="M547.24 222.207C542.027 221.347 528.499 209.39 528.499 209.39C528.499 209.39 545.174 202.444 550.38 203.304C552.886 203.716 555.126 205.107 556.606 207.17C558.087 209.234 558.687 211.801 558.275 214.307C557.863 216.812 556.472 219.052 554.408 220.532C552.345 222.013 549.778 222.613 547.272 222.201L547.24 222.207Z" fill="#7EA6F4"/>
<path d="M580.172 149.024C580.166 154.309 589.751 169.642 589.751 169.642C589.751 169.642 599.323 154.329 599.323 149.05C599.357 147.774 599.134 146.503 598.668 145.314C598.203 144.125 597.504 143.041 596.613 142.126C595.721 141.211 594.656 140.484 593.479 139.987C592.302 139.491 591.038 139.235 589.761 139.235C588.484 139.235 587.219 139.491 586.043 139.987C584.866 140.484 583.8 141.211 582.909 142.126C582.018 143.041 581.319 144.125 580.853 145.314C580.388 146.503 580.165 147.774 580.198 149.05L580.172 149.024Z" fill="#7EA6F4"/>
<path d="M541.447 172.652C543.023 177.696 556.733 189.457 556.733 189.457C556.733 189.457 561.295 171.981 559.705 166.937C558.88 164.601 557.181 162.675 554.965 161.566C552.749 160.457 550.19 160.251 547.825 160.992C545.46 161.733 543.475 163.362 542.288 165.537C541.101 167.712 540.804 170.263 541.46 172.652H541.447Z" fill="#7EA6F4"/>
<path d="M506.996 200.782C507.7 205.995 519.22 219.92 519.22 219.92C519.22 219.92 526.655 203.467 525.951 198.234C525.812 196.967 525.42 195.74 524.799 194.625C524.178 193.511 523.341 192.533 522.336 191.747C521.332 190.961 520.18 190.384 518.949 190.05C517.718 189.716 516.433 189.631 515.169 189.801C513.905 189.971 512.688 190.392 511.589 191.039C510.49 191.687 509.531 192.547 508.77 193.57C508.008 194.593 507.459 195.759 507.154 196.997C506.85 198.236 506.796 199.523 506.996 200.782Z" fill="#7EA6F4"/>
<path opacity="0.25" d="M626.945 136.409C623.153 140.084 605.501 143.89 605.501 143.89C605.501 143.89 609.834 126.361 613.626 122.68C615.457 120.966 617.887 120.039 620.394 120.1C622.901 120.16 625.284 121.202 627.03 123.002C628.776 124.802 629.746 127.215 629.73 129.723C629.714 132.231 628.714 134.632 626.945 136.409Z" fill="black"/>
<path opacity="0.25" d="M616.963 168.097C611.75 169.127 594.892 162.728 594.892 162.728C594.892 162.728 608.055 150.347 613.235 149.337C614.479 149.061 615.766 149.036 617.019 149.264C618.273 149.492 619.468 149.968 620.535 150.665C621.602 151.361 622.519 152.263 623.233 153.319C623.946 154.375 624.442 155.562 624.69 156.812C624.938 158.061 624.935 159.348 624.679 160.596C624.423 161.844 623.92 163.029 623.201 164.08C622.481 165.131 621.558 166.028 620.487 166.718C619.416 167.408 618.217 167.877 616.963 168.097Z" fill="black"/>
<path opacity="0.25" d="M580.629 202.424C575.637 200.698 564.293 186.649 564.293 186.649C564.293 186.649 581.886 182.622 586.891 184.349C588.093 184.747 589.204 185.381 590.16 186.213C591.115 187.045 591.896 188.058 592.456 189.194C593.017 190.33 593.347 191.566 593.426 192.83C593.505 194.095 593.332 195.362 592.917 196.559C592.503 197.756 591.854 198.859 591.01 199.803C590.166 200.748 589.142 201.515 587.999 202.061C586.856 202.606 585.616 202.919 584.35 202.982C583.085 203.044 581.82 202.855 580.629 202.424Z" fill="black"/>
<path opacity="0.25" d="M547.24 222.207C542.027 221.347 528.499 209.39 528.499 209.39C528.499 209.39 545.174 202.444 550.38 203.304C552.886 203.716 555.126 205.107 556.606 207.17C558.087 209.234 558.687 211.801 558.275 214.307C557.863 216.812 556.472 219.052 554.408 220.532C552.345 222.013 549.778 222.613 547.272 222.201L547.24 222.207Z" fill="black"/>
<path opacity="0.25" d="M580.172 149.024C580.166 154.309 589.751 169.642 589.751 169.642C589.751 169.642 599.323 154.329 599.323 149.05C599.357 147.774 599.134 146.503 598.668 145.314C598.203 144.125 597.504 143.041 596.613 142.126C595.721 141.211 594.656 140.484 593.479 139.987C592.302 139.491 591.038 139.235 589.761 139.235C588.484 139.235 587.219 139.491 586.043 139.987C584.866 140.484 583.8 141.211 582.909 142.126C582.018 143.041 581.319 144.125 580.853 145.314C580.388 146.503 580.165 147.774 580.198 149.05L580.172 149.024Z" fill="black"/>
<path opacity="0.25" d="M541.447 172.652C543.023 177.696 556.733 189.457 556.733 189.457C556.733 189.457 561.295 171.981 559.705 166.937C558.88 164.601 557.181 162.675 554.965 161.566C552.749 160.457 550.19 160.251 547.825 160.992C545.46 161.733 543.475 163.362 542.288 165.537C541.101 167.712 540.804 170.263 541.46 172.652H541.447Z" fill="black"/>
<path opacity="0.25" d="M506.996 200.782C507.7 205.995 519.22 219.92 519.22 219.92C519.22 219.92 526.655 203.467 525.951 198.234C525.812 196.967 525.42 195.74 524.799 194.625C524.178 193.511 523.341 192.533 522.336 191.747C521.332 190.961 520.18 190.384 518.949 190.05C517.718 189.716 516.433 189.631 515.169 189.801C513.905 189.971 512.688 190.392 511.589 191.039C510.49 191.687 509.531 192.547 508.77 193.57C508.008 194.593 507.459 195.759 507.154 196.997C506.85 198.236 506.796 199.523 506.996 200.782Z" fill="black"/>
<path d="M507.283 237.331C507.283 237.331 511.622 192.604 537.465 168.82C548.366 158.908 555.76 145.73 558.539 131.261C559.804 124.383 560.434 117.403 560.422 110.41" stroke="#535461" stroke-width="2" stroke-miterlimit="10"/>
<path d="M576.621 95.3184C574.666 100.219 560.044 110.853 560.044 110.853C560.044 110.853 556.903 93.0703 558.878 88.1702C559.828 85.8173 561.674 83.9383 564.01 82.9466C566.346 81.955 568.98 81.9318 571.333 82.8823C573.686 83.8328 575.565 85.6791 576.557 88.015C577.548 90.3509 577.571 92.985 576.621 95.338V95.3184Z" fill="#7EA6F4"/>
<path d="M580.341 128.368C576.021 131.405 557.991 132.402 557.991 132.402C557.991 132.402 565.015 115.76 569.336 112.723C570.36 111.956 571.528 111.403 572.771 111.096C574.013 110.788 575.304 110.733 576.568 110.934C577.832 111.135 579.043 111.587 580.129 112.264C581.215 112.941 582.154 113.83 582.89 114.876C583.627 115.923 584.146 117.106 584.416 118.357C584.687 119.608 584.704 120.9 584.467 122.158C584.229 123.415 583.741 124.612 583.033 125.678C582.324 126.744 581.409 127.656 580.341 128.362V128.368Z" fill="#7EA6F4"/>
<path d="M561.015 174.49C555.75 174.933 539.681 166.67 539.681 166.67C539.681 166.67 554.147 155.853 559.412 155.41C561.94 155.198 564.449 155.998 566.387 157.636C568.326 159.273 569.534 161.614 569.746 164.142C569.959 166.67 569.158 169.18 567.521 171.118C565.883 173.056 563.543 174.264 561.015 174.477V174.49Z" fill="#7EA6F4"/>
<path d="M538.528 206.086C533.412 207.39 516.184 202.001 516.184 202.001C516.184 202.001 528.61 188.897 533.725 187.568C536.181 186.931 538.789 187.295 540.976 188.582C543.163 189.868 544.749 191.97 545.386 194.426C546.023 196.882 545.658 199.49 544.372 201.677C543.085 203.863 540.983 205.45 538.528 206.086Z" fill="#7EA6F4"/>
<path d="M538.983 125.84C541.121 130.669 556.069 140.827 556.069 140.827C556.069 140.827 558.61 122.947 556.473 118.118C555.408 115.859 553.502 114.106 551.161 113.234C548.821 112.362 546.232 112.44 543.949 113.45C541.665 114.461 539.867 116.325 538.939 118.644C538.011 120.963 538.027 123.552 538.983 125.86V125.84Z" fill="#7EA6F4"/>
<path d="M513.153 163.125C516.64 167.094 533.934 172.294 533.934 172.294C533.934 172.294 531.014 154.472 527.528 150.504C526.705 149.54 525.699 148.749 524.568 148.177C523.437 147.605 522.203 147.264 520.939 147.173C519.675 147.082 518.405 147.243 517.204 147.647C516.002 148.051 514.893 148.69 513.941 149.526C512.988 150.362 512.212 151.379 511.656 152.518C511.1 153.657 510.776 154.896 510.703 156.161C510.629 157.426 510.808 158.694 511.229 159.889C511.65 161.085 512.304 162.185 513.153 163.125Z" fill="#7EA6F4"/>
<path d="M493.025 202.822C495.788 207.318 511.955 215.365 511.955 215.365C511.955 215.365 512.091 197.309 509.348 192.807C507.983 190.728 505.861 189.262 503.433 188.721C501.005 188.18 498.462 188.607 496.343 189.909C494.224 191.212 492.696 193.289 492.083 195.7C491.469 198.11 491.819 200.665 493.058 202.822H493.025Z" fill="#7EA6F4"/>
<path d="M474.05 62.1705C475.132 58.2022 476.435 54.2143 477.347 50.1938C476.253 54.2143 474.943 58.2152 474.05 62.1705Z" fill="url(#paint0_linear_71_672)"/>
<path d="M469.202 100.394C469.111 100.238 469.046 100.082 468.974 99.9382C468.974 99.8731 468.909 99.8209 468.883 99.7558C468.741 99.8228 468.595 99.8815 468.446 99.9317C468.16 100.042 467.866 100.147 467.567 100.231C467.267 100.316 467.143 100.362 466.915 100.414C466.726 100.479 466.532 100.529 466.335 100.564L466.387 100.681C466.628 100.629 466.863 100.583 467.104 100.518L467.169 101.326C467.443 101.326 467.697 101.287 467.945 101.287C468.062 101.281 468.179 101.281 468.297 101.287C468.805 101.287 469.248 101.287 469.6 101.287C469.463 100.994 469.32 100.688 469.202 100.394ZM601.48 310.951C598.418 306.826 592.305 262.555 592.305 262.555C592.305 262.555 580.283 231.076 583.561 218.513C586.838 205.95 574.608 173.805 574.608 173.805C574.608 173.805 566.528 170.293 566.091 165.08C566.091 165.08 533.1 154.654 531.555 146.835C530.304 140.423 509.844 135.823 502.493 134.37C500.252 125.325 497.997 116.887 496.336 112.28C495.886 110.846 495.462 109.608 495.071 108.631C492.263 101.463 483.583 100.811 477.289 101.385C477.016 100.163 476.509 99.0059 475.797 97.9769C475.693 97.6231 475.486 97.308 475.204 97.0711C475.069 96.956 474.925 96.8514 474.774 96.7583C474.66 96.5471 474.51 96.3575 474.33 96.1979C474.152 96.0369 473.955 95.8969 473.744 95.7809C473.593 95.699 473.436 95.6272 473.275 95.5659C472.897 95.4221 472.507 95.3151 472.108 95.2466C471.644 95.1511 471.174 95.0902 470.701 95.0641C471.851 94.561 472.877 93.8114 473.705 92.8682C474.268 92.206 474.688 91.4337 474.936 90.6006C475.143 89.9077 475.235 89.1858 475.21 88.4633C475.041 88.761 474.845 89.0424 474.624 89.3039C474.897 86.4172 473.373 83.4849 472.499 80.6113C471.441 76.8702 471.245 72.938 471.926 69.1103C472.799 63.337 474.963 57.4985 476.429 51.6209C476.432 51.5884 476.432 51.5556 476.429 51.5232C477.198 48.6042 477.673 45.6159 477.849 42.6025C478.103 36.523 476.546 30.4564 474.044 24.9177C471.822 20.011 468.544 15.1826 463.527 13.1886C459.799 11.6834 455.623 11.9245 451.609 11.6769C442.603 11.1165 434.015 7.94962 425.453 5.06948C416.891 2.18934 408.081 -0.430156 399.069 0.0715876C390.057 0.573332 380.785 4.91961 376.673 12.8954C375.37 15.3846 374.62 18.1539 373.063 20.4932C370.144 24.9047 364.918 27.1136 360.558 30.1567C356.199 33.1997 352.361 37.5199 350.784 42.6742C349.923 45.4512 349.802 48.4048 350.432 51.243C350.574 51.8839 350.757 52.5151 350.98 53.1327C351.598 54.8544 352.563 56.4312 353.814 57.7656C354.758 58.752 355.843 59.593 357.033 60.2613C358.528 61.09 360.128 61.7125 361.79 62.1119C361.731 62.3074 361.673 62.5159 361.608 62.7179C361.503 63.0503 361.412 63.3695 361.314 63.7279C361.099 64.5294 360.897 65.3439 360.728 66.165C360.721 66.2234 360.721 66.2825 360.728 66.3409C359.927 70.0473 359.526 73.8286 359.529 77.6204C359.528 79.4137 359.619 81.2058 359.803 82.9897C362.409 109.432 384.238 130.29 411.208 131.646C412.134 131.691 413.066 131.718 414.01 131.718C414.44 131.718 414.864 131.718 415.314 131.718C415.737 132.278 416.154 132.851 416.552 133.412C416.949 133.972 417.314 134.546 417.659 135.106L416.715 134.128L415.77 133.262C415.514 133.613 415.228 133.943 414.916 134.246C414.3 134.029 413.671 133.851 413.033 133.711C410.329 133.112 406.211 132.89 400.789 134.526C395.804 136.018 389.712 139.087 382.583 144.919L347.845 165.771L329.053 177.2L322.283 193.751C322.283 193.751 317.193 213.417 311.531 235.95C311.309 236.015 311.094 236.08 310.879 236.158C310.421 236.106 309.959 236.08 309.498 236.08C306.212 236.073 303.052 237.338 300.68 239.612C298.308 241.885 296.91 244.989 296.778 248.272C285.518 261.956 284.88 275.64 287.525 281.921C287.765 282.51 288.066 283.071 288.425 283.596C290.158 286.098 293.396 292.549 296.681 299.424C296.596 299.991 296.544 300.466 296.518 300.825C296.512 300.942 296.512 301.059 296.518 301.177C296.518 301.177 298.472 330.701 291.956 339.166C290.529 341.01 290.744 343.434 291.956 346.119C296.322 355.776 313.583 368.671 313.583 368.671C313.583 368.671 334.285 368.56 345.819 367.303C345.786 368.463 345.76 369.616 345.734 370.743C345.474 382.133 345.473 391.68 345.473 391.68L345.043 403.624C345.043 403.624 341.134 428.796 339.179 435.735C337.947 440.088 339.368 480.391 340.606 510.02H544.575C546.973 492.491 543.591 439.235 543.591 439.235C543.591 439.235 540.378 425.466 540.261 413.463C540.255 413.45 540.251 413.435 540.251 413.421C540.251 413.406 540.255 413.392 540.261 413.378C540.261 412.329 540.261 411.306 540.3 410.303L541.779 410.251L544.438 410.159H544.679C544.679 410.159 544.744 409.912 544.894 409.508C545.246 408.501 545.725 407.544 546.321 406.66C547.455 404.986 549.227 403.344 551.892 403.233C553.365 403.174 555.646 401.982 558.219 400.222C558.237 400.226 558.254 400.226 558.272 400.222C565.198 395.537 574.353 386.89 576.576 385.47C579.632 383.515 594.267 370.483 594.267 370.483C594.267 370.483 596.45 367.72 598.776 364.39L598.861 364.273C601.754 360.102 604.83 355.117 604.074 353.547C602.77 350.732 604.947 344.001 604.947 344.001C611.743 331.562 604.543 315.076 601.48 310.951ZM475.477 110.527C475.54 110.722 475.579 110.923 475.595 111.126C475.432 110.911 475.269 110.683 475.106 110.475L474.95 110.266L474.839 110.11L475.086 109.771C475.086 109.771 475.086 109.771 475.086 109.817C475.258 110.028 475.391 110.269 475.477 110.527ZM473.288 104.754C472.578 104.897 472.017 105.027 471.652 105.125C471.19 104.304 470.747 103.483 470.349 102.649C471.394 103.255 472.378 103.96 473.288 104.754ZM472.063 105.783C472.061 105.77 472.061 105.757 472.063 105.744L472.115 105.783C472.382 105.959 472.643 106.129 472.884 106.305C473.099 106.461 473.294 106.611 473.49 106.767C473.36 106.995 473.216 107.23 473.073 107.419C472.845 107.06 472.63 106.715 472.421 106.357C472.291 106.213 472.174 106.018 472.063 105.783ZM468.153 97.7423C469.412 97.6181 470.68 97.6181 471.939 97.7423C472.115 97.7423 472.271 97.7749 472.428 97.8009C472.781 97.8556 473.128 97.945 473.464 98.0681C474.234 99.1454 474.708 100.406 474.839 101.724L474.487 101.776L474.142 101.841C473.49 101.952 472.838 102.062 472.33 102.167L471.678 102.304C470.812 102.493 470.31 102.636 470.29 102.642C470.206 102.466 470.121 102.304 470.03 102.134C469.886 101.854 469.737 101.567 469.606 101.287C469.476 101.007 469.307 100.688 469.17 100.394C469.078 100.238 469.013 100.082 468.942 99.9382C468.942 99.8731 468.876 99.8209 468.85 99.7558C468.812 99.6866 468.78 99.6148 468.753 99.5407C468.355 98.7327 467.99 97.9247 467.638 97.1298C467.599 97.0516 467.567 96.9669 467.534 96.8887L468.029 96.8561V97.0255L468.153 97.7423ZM312.684 501.966C312.632 492.263 311.928 481.766 309.973 471.913C309.139 467.723 308.279 463.533 307.406 459.415C307.185 458.386 306.97 457.369 306.755 456.352L304.748 456.62H304.565C299.092 430.809 293.37 408.068 293.37 408.068C293.37 408.068 282.006 364.677 283.322 361.217C283.492 360.767 283.277 359.555 282.795 357.776C280.045 347.911 268.563 320.725 264.549 311.433C264.549 311.394 264.517 311.348 264.504 311.316C263.852 309.758 263.383 308.709 263.24 308.403L264.184 294.537L264.237 293.703L264.36 291.93L264.308 291.885L264.36 291.064C264.36 291.064 254.443 282.931 237.644 277.06C236.993 276.826 236.302 276.598 235.618 276.376C236.458 270.766 237.572 264.432 239.026 258.261C239.162 257.642 239.312 257.043 239.469 256.437C239.606 255.831 239.762 255.244 239.918 254.651C240.166 253.687 240.433 252.736 240.707 251.797C241.612 251.511 242.505 251.191 243.385 250.852L243.724 250.722C254.561 246.505 263.503 238.505 268.894 228.201C274.285 217.898 275.76 205.99 273.046 194.683C271.499 188.27 268.642 182.247 264.654 176.992C264.354 176.588 264.035 176.184 263.715 175.786C263.396 175.389 263.012 174.946 262.653 174.542C264.536 170.261 266.758 166.188 266.941 162.024C266.973 161.497 266.973 160.968 266.941 160.441V160.376C266.7 157.697 265.514 154.987 262.751 152.139C258.717 147.962 252.977 145.845 247.236 144.828C241.495 143.812 235.644 143.785 229.87 143.101C220.298 141.954 210.974 139.003 201.401 138.097C189.611 137.005 177.74 139.027 166.976 143.961C159.854 147.219 152.641 152.915 152.211 160.727C151.859 167.185 156.355 173.375 155.221 179.755C154.094 186.023 147.708 190.956 148.269 197.296C148.484 199.772 149.754 201.988 151.344 203.962C151.892 204.614 152.471 205.265 153.071 205.917C155.391 208.374 157.945 210.732 159.242 213.828C159.294 213.958 159.346 214.088 159.392 214.219C160.493 217.275 159.998 221.139 157.274 222.892C157.289 222.903 157.3 222.919 157.306 222.937C157.346 222.989 157.385 223.028 157.417 223.081C157.421 223.07 157.421 223.058 157.417 223.048C158.383 224.193 159.685 225.005 161.138 225.368L161.692 225.537C161.242 226.026 160.819 226.534 160.389 227.068L160.108 227.44C159.39 228.405 158.737 229.418 158.154 230.47C157.821 231.056 157.502 231.643 157.235 232.229C156.342 234.017 155.695 235.917 155.313 237.879C154.615 242.192 155.599 246.689 154.544 250.911C153.24 256.124 149.116 260.125 146.789 264.966C142.384 274.089 144.88 284.795 145.766 294.869C146.972 308.553 145.017 322.296 143.069 335.888C142.035 343.117 141.001 350.352 139.967 357.594C137.361 375.769 134.754 393.945 132.148 412.121C131.196 418.78 130.069 425.805 125.631 430.946H125.677C125.677 430.946 125.677 430.985 125.631 430.998C126.964 431.58 128.38 431.946 129.828 432.08C135.621 432.66 141.759 429.858 146.972 426.795C151.1 424.41 155.01 421.664 158.655 418.591C158.121 420.546 157.548 422.677 156.935 424.971C156.937 424.992 156.937 425.014 156.935 425.036C149.578 453.055 137.745 504.422 137.745 504.422C137.745 504.422 136.67 506.657 135.275 509.987H319.031C316.881 507.38 314.88 504.885 313.316 502.871L312.684 501.966ZM176.627 242.883C176.672 242.805 176.705 242.733 176.751 242.662C176.751 242.87 176.751 243.072 176.751 243.268C176.751 243.463 176.751 243.639 176.751 243.821C176.751 244.004 176.751 243.984 176.751 244.076C176.751 244.167 176.751 244.076 176.751 244.076C176.751 244.343 176.692 244.61 176.646 244.877C176.646 244.877 176.646 244.91 176.646 244.936L177.298 245.177L178.054 245.49C182.52 247.253 187.042 248.85 191.621 250.279C192.09 250.429 192.565 250.572 193.041 250.709L193.139 251.517C193.256 252.345 193.367 253.185 193.471 254.026C193.471 254.026 193.471 254.065 193.471 254.091C193.764 256.417 194.051 258.737 194.305 261.005C194.305 261.005 182.342 256.443 182.491 263.37C182.485 263.494 182.485 263.618 182.491 263.741C182.478 263.906 182.478 264.072 182.491 264.237C182.602 269.632 184.29 272.831 184.629 274.474C184.608 274.542 184.573 274.604 184.524 274.656C184.235 275.285 184.136 275.985 184.238 276.669C184.226 277.835 184.318 279 184.511 280.149C184.16 280.364 183.814 280.579 183.469 280.801C183.208 280.964 182.961 281.146 182.706 281.328C181.108 275.784 179.017 270.393 176.457 265.221C174.666 261.532 172.652 257.688 172.672 253.641C172.672 253.381 172.672 253.114 172.704 252.846C172.777 251.674 173 250.515 173.369 249.399C173.519 248.976 173.682 248.559 173.864 248.148C174.29 247.173 174.766 246.22 175.291 245.294C175.63 244.682 175.988 244.076 176.334 243.463C176.444 243.281 176.549 243.092 176.653 242.909L176.627 242.883ZM469.202 100.394C469.111 100.238 469.046 100.082 468.974 99.9382C468.974 99.8731 468.909 99.8209 468.883 99.7558C468.741 99.8228 468.595 99.8815 468.446 99.9317C468.16 100.042 467.866 100.147 467.567 100.231C467.267 100.316 467.143 100.362 466.915 100.414L466.335 100.564L466.387 100.681C466.628 100.629 466.863 100.583 467.104 100.518L467.169 101.326C467.443 101.326 467.697 101.287 467.945 101.287H468.297C468.805 101.287 469.248 101.287 469.6 101.287C469.463 100.994 469.32 100.688 469.202 100.394Z" fill="url(#paint1_linear_71_672)"/>
<path d="M326.824 196.104L322.915 197.83C322.915 197.83 297.43 296.837 297.43 304.839C297.43 312.841 351.468 357.366 351.468 357.366L359.9 300.453C359.9 300.453 347.793 169.941 326.824 196.104Z" fill="#E8F5FF"/>
<path d="M445.359 164.611L422.781 152.83C421.516 147.439 419.272 142.325 416.161 137.745C412.857 132.975 408.465 128.29 402.991 125.846C389.158 119.643 461.507 87.0818 461.507 87.0818C462.646 90.9933 463.988 94.843 465.527 98.6154C469.254 107.816 475.438 119.715 483.407 123.103C496.954 128.87 445.359 164.611 445.359 164.611Z" fill="#FFC1C7"/>
<path opacity="0.1" d="M465.527 98.6154C462.436 109.488 456.007 119.114 447.149 126.135C438.291 133.156 427.451 137.217 416.161 137.745C412.857 132.975 408.465 128.29 402.991 125.846C389.158 119.643 461.507 87.0818 461.507 87.0818C462.646 90.9933 463.988 94.843 465.527 98.6154Z" fill="black"/>
<path d="M467.56 82.1752C467.563 92.8381 464.403 103.262 458.481 112.129C452.558 120.996 444.14 127.908 434.289 131.99C424.439 136.072 413.599 137.141 403.14 135.062C392.682 132.983 383.076 127.849 375.535 120.309C367.995 112.77 362.86 103.164 360.78 92.706C358.699 82.2481 359.767 71.4081 363.848 61.557C367.929 51.7059 374.839 43.2863 383.705 37.363C392.572 31.4397 402.995 28.2788 413.658 28.2801C420.745 28.2473 427.769 29.619 434.323 32.3157C440.877 35.0125 446.832 38.9811 451.843 43.9921C456.855 49.0032 460.824 54.9576 463.522 61.5112C466.219 68.0649 467.592 75.0881 467.56 82.1752Z" fill="#FFC1C7"/>
<path d="M475.34 157.691L460.64 191.992L447.673 214.759H406.165L394.058 183.632L398.965 151.351H430.666L451.133 150.197L458.046 147.891L462.504 150.419L475.34 157.691Z" fill="#575A89"/>
<path opacity="0.1" d="M470.277 111.967C470.277 111.967 479.445 113.922 471.235 120.653C463.025 127.384 434.699 148.79 434.699 148.79C434.699 148.79 444.649 157.652 442.59 168.032L475.555 149.656L481.42 120.256C481.42 120.256 482.078 111.42 470.277 111.967Z" fill="black"/>
<path opacity="0.1" d="M441.183 148.79L420.214 152.25C420.214 152.25 424.54 168.247 422.377 172.789C422.312 172.93 422.257 173.076 422.214 173.226L413.658 196.351L420.07 214.512L442.264 184.244L434.699 172.789C434.699 172.789 442.694 162.194 447.451 158.519C452.208 154.844 441.183 148.79 441.183 148.79Z" fill="black"/>
<path d="M441.183 147.897L420.214 151.351C420.214 151.351 424.54 167.348 422.377 171.89C422.312 172.031 422.257 172.177 422.214 172.326L413.658 195.452L420.07 213.613L442.264 183.326L434.699 171.87C434.699 171.87 442.694 161.275 447.451 157.6C452.208 153.925 441.183 147.897 441.183 147.897Z" fill="#DCE6F2"/>
<path d="M471.157 110.24C471.157 110.24 480.325 112.195 472.108 118.926C463.891 125.657 434.699 148.79 434.699 148.79C434.699 148.79 445.509 155.925 443.457 166.299L476.422 147.93L482.287 118.529C482.287 118.529 482.938 109.693 471.157 110.24Z" fill="#575A89"/>
<path opacity="0.1" d="M417.601 139.785C417.601 139.785 419.601 143.525 428.431 150.269C428.431 150.269 413.73 158.089 419.354 169.081L396.866 163.217L393.406 152.406L417.601 139.785Z" fill="black"/>
<path d="M416.734 138.924C416.734 138.924 418.735 142.665 427.564 149.409C427.564 149.409 412.864 157.189 418.487 168.214L396.006 162.35L392.546 151.546L416.734 138.924Z" fill="#575A89"/>
<path opacity="0.1" d="M475.34 157.691L460.64 191.992L447.699 214.759H406.165L394.058 183.632L398.958 151.351H407.774C407.631 158.883 410.381 167.732 410.205 171.023C409.905 176.431 418.272 205.611 418.272 205.611C418.272 205.611 435.781 177.292 442.694 174.77C447.041 173.186 456.248 160.011 462.497 150.419L475.34 157.691Z" fill="black"/>
<path d="M533.249 338.195L531.757 340.071C531.757 340.071 542.567 394.331 539.577 406.654C539.068 408.875 538.778 411.14 538.71 413.417V413.515C538.182 426.052 541.968 442.323 541.968 442.323C541.968 442.323 544.991 490.282 543.271 510.006H340.866C339.681 480.84 338.403 443.053 339.563 438.863C341.518 431.949 345.428 406.869 345.428 406.869L345.858 394.983C345.858 394.983 345.858 383.495 346.21 370.697C346.36 364.944 346.581 358.903 346.9 353.547C347.311 346.809 347.884 341.134 348.673 338.345C349.159 336.231 349.438 334.075 349.507 331.907C349.507 331.705 349.507 331.496 349.546 331.288C349.546 330.636 349.611 329.932 349.637 329.209C349.637 329.007 349.637 328.805 349.637 328.557C349.761 324.361 349.715 319.383 349.579 314.222C349.579 313.942 349.579 313.655 349.579 313.368C349.468 309.498 349.305 305.549 349.122 301.796C348.556 290.066 347.819 280.149 347.819 280.149L322.96 197.785L329.659 181.286L348.249 169.896L382.622 149.142C399.388 135.36 410.426 137.015 414.636 138.527C415.045 138.666 415.445 138.829 415.835 139.015C415.965 139.081 416.069 139.133 416.167 139.191C416.301 139.255 416.43 139.329 416.552 139.413C415.399 139.968 414.397 140.792 413.632 141.817C412.77 142.984 412.156 144.314 411.827 145.727C411.607 146.603 411.453 147.494 411.365 148.392C411.28 149.337 411.247 150.315 411.247 151.298C411.294 153.456 411.479 155.609 411.801 157.743C411.801 157.782 411.801 157.834 411.801 157.886C412.016 159.411 412.284 160.903 412.544 162.304C412.541 162.328 412.541 162.352 412.544 162.376C412.844 164.011 413.144 165.523 413.346 166.826C413.385 167.061 413.417 167.276 413.45 167.478C413.594 168.339 413.661 169.211 413.652 170.085C413.725 172.193 414.009 174.288 414.499 176.34C414.668 177.2 414.864 178.119 415.079 179.077C415.372 180.38 415.691 181.801 416.037 183.247C416.226 184.042 416.428 184.863 416.636 185.678C416.715 186.003 416.799 186.329 416.877 186.662L417.008 187.176C418.396 192.696 419.901 198.189 420.826 201.512C421.374 203.467 421.719 204.672 421.719 204.672C421.719 204.672 431.532 188.805 439.365 179.774C439.482 179.644 439.586 179.52 439.697 179.403C440.472 178.51 441.235 177.695 441.965 176.979C443.561 175.389 444.995 174.255 446.148 173.838C446.394 173.748 446.631 173.636 446.858 173.506C450.064 171.687 455.238 165.087 460.079 158.173C460.555 157.521 461.018 156.811 461.487 156.14C462.562 154.589 463.605 153.032 464.589 151.54C465.345 150.399 466.068 149.291 466.752 148.236C470.01 143.166 472.304 139.387 472.304 139.387L476.826 139.185L477.614 139.146H478.142L498.675 138.194C498.675 138.194 499.561 138.344 501.02 138.638C501.099 138.638 501.177 138.638 501.262 138.69C508.547 140.136 528.786 144.717 530.024 151.07C531.536 158.851 564.182 169.231 564.182 169.231C564.612 174.444 572.607 177.878 572.607 177.878C572.607 177.878 584.714 209.872 581.475 222.409C578.276 234.79 589.803 265.416 590.109 266.276L587.9 269.065L533.249 338.195Z" fill="#E8F5FF"/>
<path opacity="0.1" d="M470.271 109.693C470.271 109.693 490.256 104.024 494.798 115.694C499.339 127.365 509.498 174.496 509.498 174.496C509.498 174.496 483.121 179.468 476.207 174.496C472.152 171.545 467.132 170.233 462.152 170.821L447.236 180.98L442.831 179.677C442.831 179.677 466.694 144.203 471.88 132.148C477.067 120.093 478.82 114.704 470.271 109.693Z" fill="black"/>
<path d="M469.404 107.087C469.404 107.087 489.402 101.418 493.964 113.088C498.525 124.758 508.664 171.89 508.664 171.89C508.664 171.89 482.293 176.862 475.373 171.89C471.32 168.939 466.303 167.626 461.324 168.215L446.396 178.373L441.991 177.07C441.991 177.07 465.853 141.596 471.04 129.541C476.227 117.486 477.953 112.111 469.404 107.087Z" fill="#E8F5FF"/>
<path opacity="0.1" d="M335.256 295.11C335.256 295.11 350.172 298.785 352.987 307.217C355.802 315.649 341.961 315.864 341.961 315.864C341.961 315.864 333.529 300.949 335.256 295.11Z" fill="black"/>
<path opacity="0.1" d="M390.813 357.365C390.813 357.365 354.283 432.164 362.715 439.3C371.147 446.435 390.813 357.365 390.813 357.365Z" fill="black"/>
<path opacity="0.1" d="M441.183 302.246C441.183 302.246 470.369 374.901 464.53 386.122C458.692 397.342 477.067 386.122 477.067 386.122L441.183 302.246Z" fill="black"/>
<path d="M481.824 374.014C481.824 374.014 383.247 378.771 412.003 409.469C440.759 440.166 499.769 410.772 499.769 410.772L481.824 374.014Z" fill="#FFC1C7"/>
<path opacity="0.1" d="M467.56 82.1753C467.569 89.2454 466.18 96.2476 463.474 102.779C462.569 102.884 461.663 102.949 460.79 102.988C459.486 100.127 460.184 96.8236 460.21 93.6763C460.236 90.529 459.076 86.8278 456.046 85.9807C450.005 84.28 445.835 95.5725 439.879 93.533C435.318 91.9821 436.51 85.062 433.884 81.0676C431.806 77.9072 427.642 77.0145 424.403 75.0336C417.516 70.8046 417.724 64.0408 414.525 57.6419C411.176 50.9368 404.099 52.9177 397.954 56.873C393.289 59.8835 389.262 63.917 384.27 66.315C379.95 68.4001 375.096 69.156 370.306 69.2668C367.358 69.381 364.408 69.0694 361.549 68.3415C364.912 55.6962 372.76 44.7059 383.629 37.4202C394.498 30.1344 407.646 27.0507 420.621 28.7439C433.596 30.4372 445.512 36.7919 454.148 46.6229C462.783 56.454 467.548 69.0903 467.553 82.1753H467.56Z" fill="black"/>
<path d="M397.974 55.1463C393.302 58.1568 389.282 62.1838 384.29 64.5948C379.97 66.6734 375.115 67.4293 370.326 67.5401C364.461 67.6704 358.147 66.6408 354.14 62.4053C350.458 58.4956 349.579 52.4812 351.136 47.353C352.693 42.2248 356.427 37.9697 360.812 34.8876C365.198 31.8055 370.287 29.6747 373.193 25.2632C374.731 22.9305 375.474 20.1806 376.751 17.698C380.837 9.75478 390.024 5.45412 398.906 4.91979C407.787 4.38547 416.591 7.03102 425.049 9.89813C433.507 12.7652 442.03 15.9191 450.957 16.512C454.932 16.7597 459.063 16.512 462.751 18.0173C467.71 20.0308 470.962 24.8462 473.177 29.7464C475.66 35.2721 477.204 41.306 476.943 47.34C476.396 60.2224 467.886 72.8638 471.626 85.2054C472.617 88.496 474.474 91.8714 473.483 95.1621C472.037 99.9645 465.84 101.059 460.829 101.287C459.526 98.4267 460.223 95.1164 460.249 91.9757C460.275 88.8349 459.115 85.1272 456.092 84.2801C450.045 82.5924 445.874 93.8653 439.932 91.8323C435.403 90.2749 436.576 83.3613 433.943 79.3669C431.865 76.2 427.694 75.3138 424.462 73.3329C417.575 69.1039 417.783 62.3402 414.584 55.9413C411.208 49.2036 404.125 51.1845 397.974 55.1463Z" fill="#3F3D56"/>
<path d="M302.389 303.106L297.417 304.839C297.417 304.839 299.372 334.24 292.856 342.672C286.339 351.104 314.255 372.066 314.255 372.066C314.255 372.066 352.518 371.851 353.599 368.808C354.681 365.765 351.644 314.333 351.644 314.333C351.644 314.333 331.105 306.331 332.832 293.579C332.832 293.579 326.564 323.625 317.272 322.328C307.98 321.032 297.43 313.271 302.389 303.106Z" fill="#E8F5FF"/>
<path opacity="0.1" d="M318.972 331.425C326.217 331.425 332.089 326.054 332.089 319.429C332.089 312.803 326.217 307.432 318.972 307.432C311.728 307.432 305.855 312.803 305.855 319.429C305.855 326.054 311.728 331.425 318.972 331.425Z" fill="black"/>
<path d="M333.314 303.972C333.314 303.972 330.708 224.423 308.019 242.147C285.329 259.871 285.108 281.068 289.428 287.33C293.748 293.592 307.602 324.941 307.602 324.941C309.769 326.197 312.202 326.922 314.703 327.056C317.204 327.19 319.701 326.729 321.99 325.712C324.279 324.695 326.294 323.15 327.87 321.204C329.447 319.257 330.54 316.965 331.06 314.515L333.314 303.972Z" fill="#FFC1C7"/>
<path opacity="0.1" d="M474.852 102.473C474.746 102.124 474.542 101.812 474.265 101.574C473.144 100.551 470.733 100.192 467.097 100.505L467.247 102.225C472.095 101.808 473.053 102.773 473.177 102.936V103.099L473.327 103.314C473.931 104.126 474.359 105.056 474.584 106.043C474.808 107.031 474.824 108.054 474.63 109.048C473.568 114.359 467.045 118.587 466.98 118.633L466.824 118.724L466.726 118.874C463.911 123.051 447.992 134.839 443.828 137.888L443.463 137.471C441.6 139.087 425.218 153.429 424.332 158.923C423.758 162.37 419.875 163.705 418.467 164.077C416.982 162.949 412.16 159.111 409.651 154.811C407.299 150.764 416.767 142.867 417.601 139.785L416.297 138.449C416.161 138.944 404.001 150.308 407.383 156.114C410.094 160.773 415.046 164.761 416.78 166.077C416.226 171.108 412.779 200.645 407.481 207.644C400.9 216.343 395.368 260.184 395.98 275.49C396.521 289.089 392.97 314.776 381.11 325.808C379.057 327.801 376.58 329.306 373.864 330.208C371.148 331.111 368.264 331.389 365.426 331.021H365.282H365.139C364.97 331.021 347.767 332.78 333.314 320.595C321.487 310.645 314.789 294.406 313.394 272.317H313.108L312.99 265.885C316.197 265.385 319.085 263.661 321.047 261.076C323.009 258.491 323.893 255.246 323.513 252.022C323.133 248.799 321.519 245.849 319.009 243.791C316.499 241.734 313.289 240.729 310.054 240.988C306.819 241.247 303.81 242.751 301.66 245.182C299.51 247.613 298.386 250.783 298.524 254.025C298.662 257.268 300.051 260.331 302.4 262.57C304.749 264.81 307.875 266.052 311.12 266.035H311.264L311.381 272.427L310.807 272.467C312.241 295.273 319.278 312.143 331.659 322.563C341.069 330.361 353.089 334.294 365.289 333.569C366.155 333.663 367.025 333.711 367.895 333.712C373.487 333.741 378.868 331.577 382.883 327.684C395.374 316.053 399.173 289.422 398.58 275.36C397.928 259.141 403.734 216.877 409.56 209.182C415.268 201.629 418.728 172.202 419.334 166.501C421.4 165.921 426.072 164.09 426.867 159.333C427.44 155.892 438.381 145.291 445.112 139.42L444.91 139.185C448.533 136.54 459.799 128.199 465.384 122.843C467.117 121.181 468.837 119.519 470.636 117.936C472.799 116.02 475.549 112.977 476.272 109.38C476.519 108.193 476.52 106.968 476.276 105.78C476.031 104.592 475.547 103.467 474.852 102.473Z" fill="black"/>
<path d="M416.558 165.667C416.284 165.478 409.794 160.832 406.543 155.241C403.167 149.435 415.327 138.078 415.457 137.582L416.76 138.918C415.933 141.994 406.465 149.898 408.817 153.938C411.782 159.04 418.024 163.504 418.089 163.549L416.558 165.667Z" fill="#353146"/>
<path d="M442.981 139.152L441.965 137.751C442.173 137.602 462.64 122.797 465.866 118.007L465.97 117.864L466.12 117.766C466.185 117.721 472.708 113.498 473.77 108.181C473.966 107.188 473.951 106.166 473.727 105.179C473.502 104.192 473.073 103.264 472.467 102.453L472.317 102.232V102.075C472.187 101.906 471.229 100.948 466.381 101.365L466.231 99.6385C469.873 99.3257 472.278 99.6841 473.399 100.707C473.678 100.947 473.883 101.261 473.991 101.613C474.696 102.604 475.19 103.728 475.444 104.917C475.697 106.106 475.704 107.335 475.464 108.526C474.741 112.13 471.998 115.173 469.828 117.082C468.036 118.666 466.309 120.34 464.582 121.989C458.033 128.264 443.698 138.638 442.981 139.152Z" fill="#E8F5FF"/>
<path d="M312.15 263.617L310.423 263.648L310.616 274.144L312.342 274.113L312.15 263.617Z" fill="#E8F5FF"/>
<path d="M310.28 265.208C317.243 265.208 322.888 259.562 322.888 252.599C322.888 245.635 317.243 239.99 310.28 239.99C303.316 239.99 297.671 245.635 297.671 252.599C297.671 259.562 303.316 265.208 310.28 265.208Z" fill="#7EA6F4"/>
<path d="M310.28 263.07C316.063 263.07 320.751 258.382 320.751 252.599C320.751 246.816 316.063 242.127 310.28 242.127C304.497 242.127 299.808 246.816 299.808 252.599C299.808 258.382 304.497 263.07 310.28 263.07Z" fill="#E8F5FF"/>
<path d="M367.075 332.871C366.204 332.873 365.334 332.827 364.468 332.735C352.27 333.453 340.252 329.52 330.838 321.729C318.458 311.303 311.433 294.452 309.987 271.626L312.593 271.463C313.988 293.553 320.686 309.798 332.519 319.741C346.972 331.894 364.168 330.167 364.338 330.167H364.481H364.625C367.464 330.533 370.349 330.255 373.065 329.352C375.782 328.45 378.26 326.946 380.316 324.954C392.168 313.922 395.72 288.236 395.179 274.637C394.527 259.317 400.059 215.476 406.647 206.784C412.414 199.166 415.991 164.833 416.031 164.487L416.128 163.51L417.093 163.341C417.151 163.341 422.781 162.272 423.485 158.063C424.397 152.576 440.753 138.234 442.61 136.611L444.311 138.566C437.553 144.431 426.613 155.039 426.065 158.486C425.27 163.256 420.598 165.08 418.539 165.654C417.888 171.362 414.454 200.782 408.765 208.335C402.94 216.03 397.134 258.294 397.785 274.513C398.346 288.575 394.586 315.213 382.094 326.838C378.072 330.74 372.679 332.906 367.075 332.871Z" fill="#353146"/>
<g opacity="0.1">
<path d="M473.112 66.771C474.18 62.8222 475.471 58.8474 476.37 54.8464C475.295 58.8669 473.998 62.8222 473.112 66.771Z" fill="black"/>
<path d="M462.21 97.8009C460.907 94.9403 461.604 91.6301 461.63 88.4893C461.657 85.3486 460.497 81.6734 457.473 80.7938C451.426 79.1061 447.256 90.3855 441.313 88.346C436.752 86.7886 437.957 79.875 435.325 75.8806C433.246 72.7137 429.082 71.8275 425.85 69.8466C418.956 65.6176 419.165 58.8539 415.972 52.455C412.616 45.7434 405.546 47.7243 399.395 51.6861C394.723 54.6966 390.702 58.7301 385.711 61.1345C381.39 63.2132 376.536 63.9691 371.747 64.0798C365.915 64.2167 359.568 63.1806 355.56 58.9451C352.472 55.687 351.358 50.9107 351.996 46.4341C351.885 46.7403 351.788 47.0466 351.69 47.3529C350.126 52.4811 351.038 58.5085 354.694 62.4052C358.701 66.6407 365.048 67.6702 370.88 67.5399C375.676 67.4291 380.524 66.6733 384.851 64.5946C389.855 62.1836 393.875 58.1566 398.534 55.1462C404.686 51.1844 411.762 49.2034 415.112 55.9151C418.305 62.314 418.103 69.0777 424.99 73.3067C428.248 75.2616 432.386 76.1738 434.471 79.3407C437.078 83.3481 435.924 90.2487 440.459 91.8061C446.396 93.8391 450.566 82.5662 456.613 84.2538C459.636 85.1009 460.803 88.8152 460.77 91.9494C460.738 95.0837 460.06 98.4004 461.35 101.261C466.361 101.033 472.558 99.9578 474.011 95.1358C474.211 94.4438 474.303 93.7251 474.285 93.005C472.167 96.6606 466.72 97.5989 462.21 97.8009Z" fill="black"/>
</g>
<path opacity="0.1" d="M579.977 258.359L587.542 266.361C587.542 266.361 593.596 310.456 596.619 314.58C599.643 318.705 606.784 335.113 600.079 347.435C600.079 347.435 597.916 354.14 599.212 356.949C600.509 359.757 589.49 373.812 589.49 373.812C589.49 373.812 575.005 386.779 571.975 388.728C568.945 390.676 552.954 406.237 547.552 406.452C542.151 406.667 540.385 413.372 540.385 413.372L509.902 414.454C509.902 414.454 493.064 413.574 489.402 415.952C489.402 415.952 491.357 390.227 472.545 373.363L496.537 364.716C496.537 364.716 505.621 360.806 508.429 356.72C510.196 354.216 512.703 352.327 515.597 351.319C515.597 351.319 522.296 346.562 522.511 343.968C522.726 341.375 530.702 338.195 530.702 338.195L526.186 299.652L528.564 235.663C528.564 235.663 536.13 182.048 552.127 185.078C568.124 188.108 579.977 258.359 579.977 258.359Z" fill="black"/>
<path d="M582.583 258.359L590.148 266.361C590.148 266.361 596.202 310.456 599.225 314.58C602.249 318.705 609.391 335.113 602.685 347.435C602.685 347.435 600.529 354.14 601.825 356.949C603.122 359.757 592.097 373.812 592.097 373.812C592.097 373.812 577.611 386.779 574.581 388.728C571.551 390.676 555.561 406.237 550.159 406.452C544.757 406.667 542.991 413.372 542.991 413.372L512.508 414.454C512.508 414.454 495.658 413.574 492.009 415.952C492.009 415.952 493.963 390.227 475.151 373.363L499.144 364.716C499.144 364.716 508.227 360.806 511.036 356.72C512.803 354.216 515.309 352.327 518.204 351.319C518.204 351.319 524.902 346.562 525.117 343.968C525.332 341.375 533.308 338.195 533.308 338.195L528.792 299.652L531.171 235.663C531.171 235.663 538.736 182.048 554.733 185.078C570.73 188.108 582.583 258.359 582.583 258.359Z" fill="#E8F5FF"/>
<path opacity="0.1" d="M554.46 322.999C554.46 322.999 576.725 317.135 582.564 324.303C588.402 331.47 554.46 322.999 554.46 322.999Z" fill="black"/>
<path opacity="0.1" d="M549.272 332.832C556.838 338.13 580.185 338.345 580.185 338.345L549.272 332.832Z" fill="black"/>
<path opacity="0.1" d="M560.728 359.314C561.38 359.529 576.777 375.963 583.241 370.991C589.705 366.019 560.728 359.314 560.728 359.314Z" fill="black"/>
<path opacity="0.1" d="M353.358 221.393C353.358 221.393 357.88 252.527 355.652 265.207C353.423 277.888 361.555 293.598 361.555 293.598L353.358 221.393Z" fill="black"/>
<path d="M253.244 234.054C248.031 238.14 244.225 247.809 241.469 258.437C236.66 276.976 235.09 298.473 235.09 298.473C235.09 298.473 193.582 288.959 196.605 284.639C198.508 281.922 195.954 261.448 193.823 246.604C192.552 237.833 191.419 231.024 191.419 231.024C191.419 231.024 267.514 222.807 253.244 234.054Z" fill="#FFCCD0"/>
<path opacity="0.1" d="M253.244 233.187C248.031 237.279 244.225 246.943 241.469 257.571C233.199 260.082 224.404 260.308 216.015 258.226C207.627 256.144 199.959 251.831 193.823 245.744C192.552 236.966 191.419 230.157 191.419 230.157C191.419 230.157 267.514 221.947 253.244 233.187Z" fill="black"/>
<path d="M275.555 209.898C275.559 221.232 271.554 232.202 264.248 240.866C256.942 249.531 246.806 255.331 235.635 257.241C224.463 259.151 212.976 257.047 203.206 251.302C193.437 245.557 186.015 236.54 182.254 225.849C178.493 215.157 178.635 203.48 182.656 192.884C186.677 182.287 194.317 173.455 204.224 167.95C214.131 162.445 225.666 160.622 236.787 162.804C247.909 164.986 257.9 171.032 264.992 179.872C271.827 188.388 275.553 198.979 275.555 209.898Z" fill="#FFCCD0"/>
<path opacity="0.1" d="M313.401 510.007H299.717L298.564 485.838L297.358 460.823C297.358 460.823 300.466 460.36 305.419 459.669L307.419 459.402H307.582C308.664 464.478 309.732 469.691 310.762 474.898C312.476 484.14 313.367 493.517 313.427 502.917C313.427 503.569 313.427 504.22 313.427 504.833C313.466 506.573 313.427 508.312 313.401 510.007Z" fill="black"/>
<path d="M310.775 510.006H139.166C139.908 508.319 140.404 507.296 140.404 507.296C140.404 507.296 154.133 447.23 161.112 421.817C161.114 421.795 161.114 421.773 161.112 421.752C161.984 418.299 163.037 414.895 164.266 411.554C164.345 411.327 164.448 411.108 164.572 410.902C168.026 405.285 172.352 399.232 166.299 390.585C160.245 381.938 162.389 343.89 162.389 343.89C162.389 343.89 169.739 311.459 177.52 294.165C178.7 291.486 180.376 289.055 182.459 286.997C183.136 286.335 183.859 285.721 184.622 285.16C185.203 284.724 185.807 284.321 186.434 283.954L186.558 283.876C189.826 282.023 193.455 280.896 197.198 280.572C199.857 280.295 202.541 280.369 205.181 280.794C217.796 282.645 227.896 285.74 235.924 289.265C257.681 298.824 264.269 311.635 264.4 311.902L264.452 312.013C265.325 314.052 278.096 343.87 282.697 357.782C283.889 361.405 284.541 363.953 284.28 364.65C282.977 368.104 294.224 411.339 294.224 411.339C294.224 411.339 299.437 432.19 304.65 456.633C304.878 457.649 305.093 458.666 305.301 459.695C306.233 464.133 307.159 468.655 308.051 473.171C309.781 482.477 310.673 491.92 310.716 501.385C310.812 504.335 310.831 507.209 310.775 510.006Z" fill="#878787"/>
<path opacity="0.1" d="M196.175 265.703C196.175 265.703 184.335 261.142 184.479 268.062C184.622 274.982 187.365 278.292 186.499 279.302C185.632 280.312 186.929 286.366 186.929 286.366C186.929 286.366 202.926 286.366 210.276 289.676C217.626 292.986 244.721 299.62 248.181 301.64C251.641 303.66 264.471 312.717 264.471 312.717L265.624 295.566C265.624 295.566 252.364 284.613 230.607 278.996C208.849 273.379 196.175 265.703 196.175 265.703Z" fill="black"/>
<path d="M196.175 264.836C196.175 264.836 184.335 260.275 184.479 267.195C184.622 274.115 187.365 277.425 186.499 278.435C185.632 279.445 186.929 285.499 186.929 285.499C186.929 285.499 202.926 285.499 210.276 288.815C217.626 292.132 244.721 298.759 248.181 300.773C251.641 302.786 264.471 311.85 264.471 311.85L265.637 294.752C265.637 294.752 252.377 283.798 230.62 278.181C208.862 272.564 196.175 264.836 196.175 264.836Z" fill="#878787"/>
<path opacity="0.1" d="M231.916 306.11C231.916 306.11 254.54 330.604 253.387 337.387C252.234 344.17 231.916 306.11 231.916 306.11Z" fill="black"/>
<path opacity="0.1" d="M195.165 394.592C195.165 394.592 178.582 409.873 173.695 410.739C168.807 411.606 177.441 414.486 183.058 412.186C188.675 409.886 200.652 403.832 200.652 403.832L195.165 394.592Z" fill="black"/>
<path d="M317.513 510.007H278.839C273.431 505.315 268.316 500.969 265.058 498.356C259.845 494.172 256.085 488.015 253.687 483.062C253.146 481.935 252.677 480.879 252.279 479.921C251.568 478.271 250.941 476.586 250.403 474.871L279.041 457.864C280.624 459.21 282.111 460.665 283.492 462.217L283.837 462.615C285.427 464.491 286.828 466.622 286.952 468.368C287.095 470.401 292.751 478.266 298.531 485.819C304.396 493.501 310.404 500.845 310.801 501.34C310.801 501.34 311.791 502.689 313.407 504.761C314.548 506.26 315.955 508.058 317.513 510.007Z" fill="#FFCCD0"/>
<path opacity="0.1" d="M264.992 179.872C263.617 182.974 262.386 186.193 262.203 189.646C261.689 199.616 262.523 221.908 251.484 226.912C246.017 229.375 240.166 223.967 234.171 223.837C229.857 223.745 225.902 226.482 223.269 229.903C220.637 233.324 219.001 237.384 217.092 241.254C215.354 244.767 213.352 248.144 211.104 251.354C210.432 252.337 209.691 253.271 208.888 254.15C202.158 251.31 196.164 246.97 191.364 241.463C186.564 235.956 183.085 229.425 181.191 222.369C179.297 215.314 179.039 207.919 180.436 200.748C181.834 193.578 184.849 186.82 189.253 180.992C193.657 175.163 199.334 170.417 205.85 167.114C212.367 163.811 219.551 162.04 226.856 161.934C234.16 161.829 241.393 163.392 248.002 166.505C254.611 169.618 260.422 174.199 264.992 179.898V179.872Z" fill="black"/>
<path d="M261.337 187.887C260.816 197.856 261.656 220.148 250.611 225.146C245.144 227.609 239.293 222.207 233.298 222.077C228.984 221.979 225.035 224.723 222.396 228.137C219.757 231.552 218.135 235.618 216.219 239.495C214.481 243.008 212.479 246.384 210.231 249.595C208.888 251.497 207.403 253.407 205.337 254.475C201.74 256.352 197.381 255.296 193.523 254.091C188.519 252.514 183.588 250.737 178.732 248.761C178.843 248.027 178.9 247.287 178.901 246.545C178.758 246.819 178.601 247.073 178.445 247.347L178.139 247.881C177.585 248.858 177.044 249.836 176.549 250.839C176.36 251.224 176.177 251.621 176.014 252.019C175.359 253.498 174.948 255.074 174.796 256.684C174.464 261.031 176.607 265.155 178.51 269.065C185.828 284.189 190.35 301.874 184.844 317.741C182.459 324.641 178.328 330.773 175.311 337.439C170.037 349.246 168.484 362.379 170.86 375.089C172.365 382.987 175.382 390.806 174.639 398.815C173.336 412.596 161.451 422.853 149.546 429.903C143.114 433.696 135.243 437.071 128.414 434.074C132.767 428.991 133.887 421.96 134.826 415.327C137.393 397.233 139.967 379.132 142.547 361.021C143.577 353.814 144.604 346.607 145.63 339.4C147.545 325.86 149.487 312.169 148.288 298.544C147.415 288.503 144.952 277.842 149.305 268.752C151.605 263.937 155.703 259.949 156.981 254.762C158.03 250.546 157.052 246.063 157.743 241.769C158.121 239.815 158.761 237.921 159.646 236.139C160.772 233.72 162.243 231.477 164.012 229.479C162.265 228.971 160.636 228.274 159.646 226.814C162.448 224.99 162.871 220.878 161.601 217.789C160.33 214.701 157.789 212.348 155.501 209.911C153.214 207.474 151.012 204.633 150.725 201.31C150.171 194.983 156.492 190.083 157.606 183.84C158.733 177.487 154.276 171.31 154.635 164.878C155.052 157.104 162.194 151.455 169.244 148.177C179.884 143.252 191.637 141.229 203.311 142.313C212.811 143.212 222.005 146.151 231.48 147.291C237.195 147.943 242.987 148.008 248.663 149.011C254.339 150.015 260.027 152.133 264.022 156.296C274.552 167.276 261.936 176.314 261.337 187.887Z" fill="#FFE0D0"/>
<path opacity="0.1" d="M252.527 483.069C249.204 481.629 243.157 482.489 232.777 479.328C222.396 476.168 220.396 461.885 220.396 461.885V461.839C220.272 461.513 219.308 459.389 212.778 451.947C205.565 443.731 189.972 402.229 189.972 402.229C189.972 402.229 176.145 387.379 176.581 381.905C177.018 376.432 174.125 361.868 174.411 345.578C174.698 329.287 205.539 318.483 205.539 318.483C264.921 307.96 250.937 376.419 249.354 381.605C247.77 386.792 255.987 400.802 255.987 400.802C254.827 406.901 260.744 416.343 260.744 416.343C260.744 416.343 262.177 424.697 262.471 427.87C262.487 428.017 262.52 428.161 262.568 428.3C263.52 431.291 271.274 434.002 274.428 435.651C277.745 437.384 288.411 452.514 288.411 452.514C290.712 463.624 255.837 484.528 252.527 483.069Z" fill="black"/>
<path d="M254.254 480.462C250.937 479.016 244.884 479.882 234.51 476.716C224.136 473.549 222.129 459.278 222.129 459.278V459.233C222.012 458.9 221.041 456.783 214.512 449.341C207.298 441.124 191.705 399.616 191.705 399.616C191.705 399.616 177.878 384.773 178.308 379.299C178.738 373.825 175.858 359.262 176.145 342.984C176.431 326.707 207.253 315.91 207.253 315.91C266.635 305.386 252.651 373.845 251.067 379.032C249.484 384.219 257.701 398.228 257.701 398.228C256.541 404.328 262.458 413.769 262.458 413.769C262.458 413.769 263.891 422.123 264.191 425.297C264.202 425.443 264.233 425.588 264.282 425.727C265.234 428.718 272.988 431.428 276.148 433.077C279.458 434.804 290.132 449.941 290.132 449.941C292.445 461.031 257.571 481.935 254.254 480.462Z" fill="#878787"/>
<path opacity="0.1" d="M208.426 351.651C208.426 351.651 234.367 379.019 241.137 379.019C247.907 379.019 208.426 351.651 208.426 351.651Z" fill="black"/>
<path d="M254.254 480.462C250.937 479.016 244.884 479.883 234.51 476.716C224.136 473.549 222.129 459.278 222.129 459.278V459.233C229.004 454.671 246.415 441.789 253.276 437.078C258.105 433.774 262.047 428.92 264.354 425.701C265.305 428.692 273.059 431.402 276.22 433.051C279.53 434.778 290.203 449.915 290.203 449.915C292.445 461.031 257.57 481.935 254.254 480.462Z" fill="#878787"/>
<g opacity="0.1">
<path d="M159.685 226.886C159.717 226.938 159.763 226.984 159.802 227.036C159.998 226.788 160.2 226.541 160.408 226.306C160.186 226.522 159.944 226.716 159.685 226.886Z" fill="black"/>
<path d="M174.802 256.756C175.076 253.14 177.011 249.953 178.823 246.774C177.637 246.317 176.451 245.855 175.278 245.373C175.39 244.642 175.446 243.903 175.447 243.164C173.616 246.422 171.622 249.628 171.342 253.296C171.01 257.649 173.154 261.767 175.056 265.677C182.381 280.794 186.896 298.479 181.39 314.353C178.999 321.247 174.874 327.385 171.857 334.051C166.585 345.856 165.035 358.987 167.413 371.695C168.905 379.599 171.929 387.412 171.186 395.42C169.883 409.202 158.004 419.458 146.092 426.502C141.225 429.382 135.536 432.021 130.095 431.832C129.591 432.643 129.029 433.416 128.414 434.146C135.249 437.163 143.114 433.768 149.546 429.962C161.464 422.925 173.369 412.694 174.672 398.887C175.415 390.878 172.391 383.066 170.893 375.161C168.514 362.455 170.059 349.325 175.324 337.518C178.321 330.858 182.491 324.713 184.857 317.819C190.363 301.946 185.841 284.261 178.523 269.144C176.627 265.208 174.47 261.109 174.802 256.756Z" fill="black"/>
<path d="M264.008 156.375C263.368 155.717 262.679 155.107 261.949 154.55C269.847 164.794 258.444 173.499 257.877 184.525C257.369 194.494 258.203 216.793 247.158 221.784C241.697 224.254 235.839 218.845 229.851 218.715C225.531 218.624 221.582 221.367 218.943 224.781C216.304 228.196 214.681 232.262 212.772 236.133C211.03 239.645 209.026 243.021 206.777 246.233C205.474 248.142 203.949 250.045 201.877 251.12C198.293 252.99 193.934 251.941 190.07 250.729C186.312 249.547 182.589 248.244 178.901 246.819C178.893 247.498 178.837 248.175 178.732 248.846C183.593 250.827 188.525 252.603 193.53 254.176C197.387 255.388 201.747 256.437 205.337 254.567C207.403 253.492 208.901 251.582 210.237 249.673C212.488 246.466 214.49 243.092 216.226 239.58C218.141 235.709 219.757 231.636 222.403 228.222C225.048 224.808 228.991 222.071 233.304 222.162C239.299 222.292 245.157 227.701 250.618 225.231C261.663 220.24 260.822 197.941 261.337 187.972C261.936 176.379 274.552 167.348 264.008 156.375Z" fill="black"/>
</g>
<path opacity="0.1" d="M178.145 247.887C177.591 248.865 177.05 249.842 176.555 250.846C176.366 251.23 176.184 251.628 176.021 252.025C172.606 248.585 164.292 240.407 159.652 237.872C160.78 235.454 162.251 233.211 164.018 231.213C164.018 231.213 175.076 237.058 178.145 247.887Z" fill="black"/>
<path d="M178.451 247.353C175.89 235.761 164.018 229.486 164.018 229.486C162.249 231.483 160.779 233.727 159.652 236.145C164.546 238.823 173.564 247.803 176.555 250.846L178.451 247.353Z" fill="#878787"/>
</g>
<defs>
<linearGradient id="paint0_linear_71_672" x1="475.699" y1="62.1705" x2="475.699" y2="50.1938" gradientUnits="userSpaceOnUse">
<stop stop-color="#808080" stop-opacity="0.25"/>
<stop offset="0.54" stop-color="#808080" stop-opacity="0.12"/>
<stop offset="1" stop-color="#808080" stop-opacity="0.1"/>
</linearGradient>
<linearGradient id="paint1_linear_71_672" x1="366.749" y1="510.007" x2="366.749" y2="-8.45252e-05" gradientUnits="userSpaceOnUse">
<stop stop-color="#808080" stop-opacity="0.25"/>
<stop offset="0.54" stop-color="#808080" stop-opacity="0.12"/>
<stop offset="1" stop-color="#808080" stop-opacity="0.1"/>
</linearGradient>
<clipPath id="clip0_71_672">
<rect width="707.739" height="510" fill="white"/>
</clipPath>
</defs>
</svg>
