<svg width="700" height="600" viewBox="0 0 848 600" fill="none" xmlns="http://www.w3.org/2000/svg">
    <g clip-path="url(#clip0_158_2368)">
        <path opacity="0.1" d="M281.611 599.663C322.862 599.663 356.302 594.292 356.302 587.666C356.302 581.041 322.862 575.67 281.611 575.67C240.36 575.67 206.919 581.041 206.919 587.666C206.919 594.292 240.36 599.663 281.611 599.663Z" fill="#AEDBD3"/>
        <path opacity="0.1" d="M687.623 600C739.098 600 780.826 594.63 780.826 588.004C780.826 581.379 739.098 576.008 687.623 576.008C636.148 576.008 594.42 581.379 594.42 588.004C594.42 594.63 636.148 600 687.623 600Z" fill="#AEDBD3"/>
        <path opacity="0.1" d="M10.6089 259.242H88.4048V365.277H16.3042C16.1126 366.366 15.9286 367.462 15.7293 368.558H88.4048V454.073C88.2745 454.035 88.1595 453.989 88.0369 453.943C85.9825 453.13 83.9436 452.272 81.9046 451.352L80.6014 450.762C78.5574 449.796 76.5132 448.774 74.4691 447.696C73.7563 447.32 73.0434 446.929 72.3382 446.53C60.9902 440.174 50.6812 432.119 41.7686 422.645C41.508 422.392 41.2627 422.124 41.0021 421.879C39.7603 420.529 38.5415 419.165 37.361 417.77L36.0579 416.237C34.6628 414.527 33.3137 412.772 32.0029 410.994C31.8113 410.733 31.6273 410.472 31.428 410.227C26.0971 402.836 21.6708 394.832 18.2436 386.388C18.1363 386.135 18.0443 385.859 17.9446 385.621C16.8919 382.913 15.9593 380.179 15.1468 377.419C14.7942 376.262 14.4569 375.12 14.1656 373.916C14.0583 373.564 13.9663 373.219 13.882 372.874C9.52804 355.88 9.01447 338.226 9.01447 320.696C9.01447 318.649 9.01447 316.595 9.01447 314.563C9.01447 307.473 9.09878 300.336 9.22143 293.208C9.22143 291.36 9.29808 289.52 9.33641 287.665C9.44373 282.959 9.59703 278.252 9.79633 273.546C9.84233 272.235 9.90365 270.932 9.97264 269.629C9.97264 268.878 10.011 268.126 10.0876 267.375C10.2716 264.646 10.4249 261.94 10.6089 259.242Z" fill="#AEDBD3"/>
        <path opacity="0.1" d="M88.4049 141.182H45.7317C52.6684 130.324 60.2477 119.891 68.4289 109.938C74.7681 102.15 81.46 94.5608 88.4049 87.248V141.182Z" fill="#AEDBD3"/>
        <path opacity="0.1" d="M88.4048 144.461V255.962H10.8542C10.8542 255.64 10.9078 255.31 10.9308 254.988C10.9998 254.107 11.0688 253.225 11.1455 252.351C11.2298 251.324 11.3218 250.289 11.4214 249.285C11.5211 248.281 11.6284 247.054 11.7434 245.943C11.8584 244.831 11.9657 243.705 12.096 242.593C12.2263 241.482 12.3413 240.37 12.4792 239.266C12.6172 238.163 12.7399 237.043 12.8855 235.94C13.0005 235.02 13.1231 234.108 13.2458 233.188C13.4221 231.892 13.6061 230.589 13.8054 229.301C13.8054 229.11 13.859 228.91 13.8897 228.726C15.2888 219.299 17.1951 209.954 19.6004 200.732C22.1181 191.059 25.3332 181.58 29.2204 172.371C33.3518 162.737 38.189 153.421 43.6927 144.499L88.4048 144.461Z" fill="#AEDBD3"/>
        <path opacity="0.1" d="M106.978 259.236V365.279H273.141V259.236H106.978ZM106.978 368.552V459.617C107.929 459.816 108.871 460.008 109.807 460.169C111.079 460.414 112.344 460.637 113.639 460.828C113.885 460.867 114.138 460.905 114.406 460.928C114.912 461.012 115.433 461.081 115.939 461.15C117.219 461.327 118.491 461.472 119.772 461.587C120.377 461.648 120.99 461.702 121.604 461.748L123.083 461.863C123.888 461.924 124.685 461.97 125.475 461.993C125.965 461.993 126.456 462.039 126.962 462.055C127.345 462.055 127.728 462.055 128.127 462.055C128.525 462.055 129.093 462.055 129.576 462.055C130.235 462.055 130.894 462.055 131.546 462.055H132.427C133.086 462.055 133.746 462.055 134.397 461.993H134.443C134.895 461.993 135.355 461.993 135.815 461.932C135.943 461.94 136.071 461.94 136.198 461.932C136.582 461.932 136.965 461.932 137.333 461.878H137.601L140.169 461.679C141.012 461.602 141.863 461.503 142.722 461.411L144.469 461.204C151.58 460.208 158.611 458.712 165.511 456.727C181.01 452.404 196.172 446.356 211.664 441.925C231.694 436.215 253.824 433.409 273.179 440.392V368.552H106.978ZM273.141 141.182V0.00862959C254.949 -0.188465 236.806 1.93929 219.153 6.34024C177.078 16.9108 139.326 39.838 106.978 69.1197V141.174H115.318V144.447H106.978V255.963H273.141V144.455H149.559V141.182H273.141ZM486.568 93.4956C476.158 93.1277 465.81 89.8316 456.45 84.7417C438.552 75.0067 424.256 59.9749 408.281 47.2887C375.09 20.8661 333.927 4.92214 291.698 0.966802V141.182H528.904L529.494 140.561L486.568 93.4956ZM508.176 89.6629L531.088 114.805V83.0707C523.415 84.0212 516.693 86.2825 508.207 89.6323L508.176 89.6629ZM531.088 482.23V368.552H482.267C482.137 368.07 482.007 367.579 481.853 367.088C481.999 367.579 482.122 368.07 482.26 368.552H291.729V450.764C293.538 452.105 295.324 453.516 297.095 454.949C299.004 456.482 300.889 458.099 302.783 459.686L304.691 461.265C305.603 462.032 306.523 462.798 307.451 463.519C309.29 465.011 311.148 466.483 313.023 467.934C313.951 468.701 314.902 469.391 315.844 470.111C330.813 481.555 346.602 491.883 363.086 501.01C366.781 503.054 370.509 505.05 374.27 506.997C376.776 508.277 379.298 509.549 381.828 510.784C385.63 512.639 389.463 514.427 393.326 516.149C428.944 532.138 466.608 543.11 505.241 548.75C513.821 550.018 522.434 551.014 531.081 551.74V482.222H531.847L531.088 482.23ZM291.729 144.455V255.963H531.119V144.455H291.729ZM291.729 259.236V365.279H531.119V259.236H291.729ZM549.7 82.9327V118.331L578.943 86.2442C569.254 84.6804 559.506 83.5638 549.7 82.8944V82.9327ZM549.7 259.275V365.279H782.536V259.236L549.7 259.275ZM781.685 490.647L782.505 368.552H549.7V552.958C564.697 553.589 579.718 553.409 594.696 552.422H594.956C602.111 551.972 609.232 551.318 616.32 550.46H616.481C654.294 546.059 691.269 536.193 726.249 521.17M827.432 276.698C826.558 274.636 825.646 272.59 824.718 270.566C822.986 266.733 821.154 263.008 819.268 259.282H801.101V365.279H847.032C847.009 335.262 839.413 304.6 827.455 276.66L827.432 276.698ZM801.101 368.591V473.606C814.04 461.204 824.971 447.015 832.844 430.795C842.31 411.264 846.641 390.115 846.994 368.575L801.101 368.591ZM801.101 228.376V255.971H817.567C812.586 246.471 807.097 237.247 801.124 228.337L801.101 228.376ZM643.194 103.737C641.983 103.277 640.772 102.809 639.553 102.357C626.699 97.6098 613.564 93.6623 600.222 90.5368L555.472 139.649L554.613 140.561L555.188 141.19H714.46C692.277 125.921 668.363 113.336 643.217 103.698L643.194 103.737ZM719.128 144.493H552.965L549.7 147.483V255.963H578.322H578.368H782.566V203.417C764.095 181.077 742.774 161.254 719.151 144.455L719.128 144.493Z" fill="#AEDBD3"/>
        <path opacity="0.1" d="M88.4048 200.703V255.963H10.8542C10.8542 255.641 10.9078 255.311 10.9308 254.989C10.9998 254.108 11.0688 253.226 11.1455 252.352C11.2298 251.325 11.3218 250.29 11.4214 249.286C11.5211 248.282 11.6284 247.056 11.7434 245.944C11.8584 244.833 11.9657 243.706 12.096 242.594C12.2263 241.483 12.3413 240.371 12.4792 239.268C12.6172 238.164 12.7399 237.045 12.8855 235.941C13.0005 235.021 13.1231 234.109 13.2458 233.189C13.4221 231.894 13.6061 230.59 13.8054 229.303C13.8054 229.111 13.859 228.912 13.8897 228.728C15.2888 219.301 17.1951 209.956 19.6004 200.734L88.4048 200.703Z" fill="#AEDBD3"/>
        <path opacity="0.1" d="M10.6089 259.242H88.4048V365.277H16.3042C16.1126 366.366 15.9286 367.462 15.7293 368.558H88.4048V454.073C88.2745 454.035 88.1595 453.989 88.0369 453.943C85.9825 453.13 83.9436 452.272 81.9046 451.352L80.6014 450.762C78.5574 449.796 76.5132 448.774 74.4691 447.696C73.7563 447.32 73.0434 446.929 72.3382 446.53C60.9902 440.174 50.6812 432.119 41.7686 422.645C41.508 422.392 41.2627 422.124 41.0021 421.879C39.7603 420.529 38.5415 419.165 37.361 417.77L36.0579 416.237C34.6628 414.527 33.3137 412.772 32.0029 410.994C31.8113 410.733 31.6273 410.472 31.428 410.227C26.0971 402.836 21.6708 394.832 18.2436 386.388C18.1363 386.135 18.0443 385.859 17.9446 385.621C16.8919 382.913 15.9593 380.179 15.1468 377.419C14.7942 376.262 14.4569 375.12 14.1656 373.916C14.0583 373.564 13.9663 373.219 13.882 372.874C9.52804 355.88 9.01447 338.226 9.01447 320.696C9.01447 318.649 9.01447 316.595 9.01447 314.563C9.01447 307.473 9.09878 300.336 9.22143 293.208C9.22143 291.36 9.29808 289.52 9.33641 287.665C9.44373 282.959 9.59703 278.252 9.79633 273.546C9.84233 272.235 9.90365 270.932 9.97264 269.629C9.97264 268.878 10.011 268.126 10.0876 267.375C10.2716 264.646 10.4249 261.94 10.6089 259.242Z" fill="#AEDBD3"/>
        <path opacity="0.1" d="M165.473 160.42V255.961H106.978V160.42H115.318V128.072H149.552V160.42H165.473Z" fill="#AEDBD3"/>
        <path opacity="0.1" d="M165.473 259.236H106.986V365.272H165.473V259.236Z" fill="#AEDBD3"/>
        <path opacity="0.1" d="M106.978 368.559H165.473V456.71C158.573 458.693 151.541 460.186 144.431 461.179L142.683 461.394C141.825 461.494 140.974 461.578 140.131 461.662C139.288 461.747 138.414 461.808 137.563 461.862H137.295C136.927 461.862 136.528 461.908 136.168 461.915H135.777C135.317 461.915 134.857 461.961 134.397 461.977C133.746 462.015 133.094 462.023 132.427 462.03C132.144 462.03 131.875 462.03 131.592 462.03C130.932 462.03 130.281 462.03 129.622 462.03H128.173C127.782 462.03 127.406 462.03 127 462.03L125.521 461.977C124.754 461.977 123.926 461.892 123.129 461.839L121.657 461.731L119.825 461.563C118.537 461.448 117.257 461.302 115.993 461.126L114.459 460.911L113.693 460.804C112.413 460.605 111.148 460.39 109.86 460.145C108.917 459.984 107.982 459.784 107.032 459.593L106.978 368.559Z" fill="#AEDBD3"/>
        <path opacity="0.1" d="M531.119 149.137H482.888V255.954H531.119V149.137Z" fill="#AEDBD3"/>
        <path opacity="0.1" d="M531.127 259.236V365.279H291.729V319.54H419.243V346.522H482.888V259.236H531.127Z" fill="#AEDBD3"/>
        <path opacity="0.1" d="M531.885 482.253H531.119V551.816C522.483 551.085 513.872 550.091 505.287 548.834C466.635 543.175 428.955 532.181 393.326 516.164C383.039 511.534 372.962 506.48 363.094 501.002C346.61 491.87 330.818 481.543 315.844 470.103C312.083 467.221 308.371 464.272 304.707 461.257C302.169 459.165 299.647 457.018 297.095 454.933C295.324 453.5 293.538 452.089 291.729 450.74V368.56H482.252C482.122 368.069 481.991 367.579 481.853 367.096C481.999 367.579 482.137 368.069 482.267 368.56H531.119V482.207C531.38 482.214 531.632 482.237 531.885 482.253Z" fill="#AEDBD3"/>
        <path opacity="0.1" d="M656.908 141.18H625.48V131.414H639.569V102.324C640.79 102.769 642.006 103.226 643.217 103.696V131.414H656.908V141.18Z" fill="#AEDBD3"/>
        <path opacity="0.1" d="M732.626 255.962H578.338C578.338 255.962 578.338 255.962 578.391 256L578.322 255.962H549.7V149.144H557.81V228.098H594.872V181.339H625.487V144.461H656.915V181.37H687.531V228.129H732.626V255.962Z" fill="#AEDBD3"/>
        <path opacity="0.1" d="M549.7 259.236V365.279H732.626V259.236H549.7ZM782.283 490.102L782.536 406.166H732.626V368.606H549.7V552.958C564.697 553.588 579.718 553.409 594.696 552.422H594.956C602.111 551.972 609.232 551.318 616.32 550.459H616.481C654.294 546.059 691.269 536.193 726.249 521.17" fill="#AEDBD3"/>
        <path opacity="0.1" d="M804.351 368.559H847.025C846.649 390.091 842.326 411.239 832.867 430.771C824.994 446.998 814.056 461.187 801.132 473.582V406.127H804.351V368.559Z" fill="#AEDBD3"/>
        <path opacity="0.1" d="M847.048 365.278H804.351V276.658H827.455C839.413 304.599 847.009 335.26 847.048 365.278Z" fill="#AEDBD3"/>
        <path opacity="0.1" d="M531.127 178.834H505.287V212.324H531.127V178.834Z" fill="#AEDBD3"/>
        <path opacity="0.1" d="M531.127 248.252H505.287V255.963H531.127V248.252Z" fill="#AEDBD3"/>
        <path opacity="0.1" d="M531.127 259.236H505.287V281.734H531.127V259.236Z" fill="#AEDBD3"/>
        <path opacity="0.1" d="M531.127 317.668H505.287V351.158H531.127V317.668Z" fill="#AEDBD3"/>
        <path opacity="0.1" d="M531.127 387.086H505.287V420.576H531.127V387.086Z" fill="#AEDBD3"/>
        <path opacity="0.1" d="M531.119 482.206C531.38 482.206 531.632 482.206 531.885 482.252H531.119V490.032H505.287V456.504H531.119V482.206Z" fill="#AEDBD3"/>
        <path opacity="0.1" d="M531.119 525.906V551.777C522.483 551.046 513.872 550.052 505.287 548.795V525.906H531.119Z" fill="#AEDBD3"/>
        <path opacity="0.1" d="M402.471 362.818H291.729V365.279H402.471V362.818Z" fill="#AEDBD3"/>
        <path opacity="0.1" d="M402.471 368.551H291.729V377.979H402.471V368.551Z" fill="#AEDBD3"/>
        <path opacity="0.1" d="M402.471 408.887H291.729V424.049H402.471V408.887Z" fill="#AEDBD3"/>
        <path opacity="0.1" d="M402.463 454.955V470.117H315.844C312.083 467.245 308.368 464.297 304.699 461.271C302.162 459.179 299.647 457.032 297.087 454.955H402.463Z" fill="#AEDBD3"/>
        <path opacity="0.1" d="M402.463 501.017V516.164H393.318C383.042 511.529 372.967 506.472 363.094 500.994L402.463 501.017Z" fill="#AEDBD3"/>
        <path opacity="0.1" d="M616.504 269.516H594.703V291.316H616.504V269.516Z" fill="#AEDBD3"/>
        <path opacity="0.1" d="M144.485 167.941H122.684V189.742H144.485V167.941Z" fill="#AEDBD3"/>
        <path opacity="0.1" d="M144.485 218.578H122.684V240.378H144.485V218.578Z" fill="#AEDBD3"/>
        <path opacity="0.1" d="M144.485 269.215H122.684V291.015H144.485V269.215Z" fill="#AEDBD3"/>
        <path opacity="0.1" d="M144.485 319.846H122.684V341.646H144.485V319.846Z" fill="#AEDBD3"/>
        <path opacity="0.1" d="M144.485 370.482H122.684V392.283H144.485V370.482Z" fill="#AEDBD3"/>
        <path opacity="0.1" d="M144.485 421.121H122.684V442.921H144.485V421.121Z" fill="#AEDBD3"/>
        <path opacity="0.1" d="M699.727 269.516H677.926V291.316H699.727V269.516Z" fill="#AEDBD3"/>
        <path opacity="0.1" d="M616.504 323.287H594.703V345.087H616.504V323.287Z" fill="#AEDBD3"/>
        <path opacity="0.1" d="M699.727 323.287H677.926V345.087H699.727V323.287Z" fill="#AEDBD3"/>
        <path opacity="0.1" d="M616.504 377.053H594.703V398.853H616.504V377.053Z" fill="#AEDBD3"/>
        <path opacity="0.1" d="M699.727 377.053H677.926V398.853H699.727V377.053Z" fill="#AEDBD3"/>
        <path opacity="0.1" d="M616.504 430.824H594.703V452.625H616.504V430.824Z" fill="#AEDBD3"/>
        <path opacity="0.1" d="M699.727 430.824H677.926V452.625H699.727V430.824Z" fill="#AEDBD3"/>
        <path opacity="0.1" d="M616.504 484.598H594.703V506.398H616.504V484.598Z" fill="#AEDBD3"/>
        <path opacity="0.1" d="M699.727 484.598H677.926V506.398H699.727V484.598Z" fill="#AEDBD3"/>
        <path opacity="0.1" d="M594.703 552.422V538.363H616.496V550.421L594.703 552.422Z" fill="#AEDBD3"/>
        <path opacity="0.1" d="M13.7977 228.713V241.184H88.4048V228.713H13.7977ZM21.2331 240.403H15.1468V229.479H21.2791L21.2331 240.403ZM28.6608 240.403H22.5285V229.479H28.6608V240.403ZM36.0733 240.403H29.941V229.479H36.0733V240.403ZM43.501 240.403H37.3764V229.479H43.5087L43.501 240.403ZM50.9211 240.403H44.7888V229.479H50.9211V240.403ZM58.3489 240.403H52.2166V229.479H58.3489V240.403ZM65.7766 240.403H59.6443V229.479H65.7766V240.403ZM73.1967 240.403H67.0644V229.479H73.1967V240.403ZM80.6168 240.403H74.4845V229.479H80.6168V240.403ZM88.0369 240.403H81.9046V229.479H88.0369V240.403Z" fill="#AEDBD3"/>
        <path opacity="0.1" d="M13.7977 265V277.472H88.4048V265H13.7977ZM21.2331 276.682H15.1468V265.79H21.2791L21.2331 276.682ZM28.6608 276.682H22.5285V265.79H28.6608V276.682ZM36.0733 276.682H29.941V265.79H36.0733V276.682ZM43.501 276.682H37.3764V265.79H43.5087L43.501 276.682ZM50.9211 276.682H44.7888V265.79H50.9211V276.682ZM58.3489 276.682H52.2166V265.79H58.3489V276.682ZM65.7766 276.682H59.6443V265.79H65.7766V276.682ZM73.1967 276.682H67.0644V265.79H73.1967V276.682ZM80.6168 276.682H74.4845V265.79H80.6168V276.682ZM88.0369 276.682H81.9046V265.79H88.0369V276.682Z" fill="#AEDBD3"/>
        <path opacity="0.1" d="M13.7977 301.303V313.797H88.4048V301.303H13.7977ZM21.2331 312.985H15.1468V302.085H21.2791L21.2331 312.985ZM28.6608 312.985H22.5285V302.085H28.6608V312.985ZM36.0733 312.985H29.941V302.085H36.0733V312.985ZM43.501 312.985H37.3764V302.085H43.5087L43.501 312.985ZM50.9211 312.985H44.7888V302.085H50.9211V312.985ZM58.3489 312.985H52.2166V302.085H58.3489V312.985ZM65.7766 312.985H59.6443V302.085H65.7766V312.985ZM73.1967 312.985H67.0644V302.085H73.1967V312.985ZM80.6168 312.985H74.4845V302.085H80.6168V312.985ZM88.0369 312.985H81.9046V302.085H88.0369V312.985Z" fill="#AEDBD3"/>
        <path opacity="0.1" d="M13.7977 337.605V350.062H88.4048V337.605H13.7977ZM21.2331 349.288H15.1468V338.38H21.2791L21.2331 349.288ZM28.6608 349.288H22.5285V338.38H28.6608V349.288ZM36.0733 349.288H29.941V338.38H36.0733V349.288ZM43.501 349.288H37.3764V338.38H43.5087L43.501 349.288ZM50.9211 349.288H44.7888V338.38H50.9211V349.288ZM58.3489 349.288H52.2166V338.38H58.3489V349.288ZM65.7766 349.288H59.6443V338.38H65.7766V349.288ZM73.1967 349.288H67.0644V338.38H73.1967V349.288ZM80.6168 349.288H74.4845V338.38H80.6168V349.288ZM88.0369 349.288H81.9046V338.38H88.0369V349.288Z" fill="#AEDBD3"/>
        <path opacity="0.1" d="M14.1196 373.902C14.4186 375.075 14.7559 376.248 15.1085 377.405V374.684H21.2408V385.584H17.96C18.0596 385.837 18.1593 386.113 18.2589 386.351H88.4048V373.902H14.1196ZM28.6839 385.584H22.5515V374.684H28.6839V385.584ZM36.0963 385.584H29.964V374.684H36.0963V385.584ZM43.524 385.584H37.3764V374.684H43.5087L43.524 385.584ZM50.9441 385.584H44.8118V374.684H50.9441V385.584ZM58.3719 385.584H52.2396V374.684H58.3719V385.584ZM65.7996 385.584H59.6673V374.684H65.7996V385.584ZM73.2197 385.584H67.0874V374.684H73.2197V385.584ZM80.6398 385.584H74.5075V374.684H80.6398V385.584ZM88.0599 385.584H81.9276V374.684H88.0599V385.584Z" fill="#AEDBD3"/>
        <path opacity="0.1" d="M31.4434 410.205C31.6351 410.45 31.819 410.726 32.0183 410.972H36.0733V416.207C36.5102 416.728 36.9395 417.25 37.3841 417.74V410.941H43.5164V421.879H41.0328C41.2781 422.132 41.5157 422.401 41.7993 422.646H88.4279V410.205H31.4434ZM50.9211 421.879H44.7888V410.987H50.9211V421.879ZM58.3489 421.879H52.2166V410.987H58.3489V421.879ZM65.7767 421.879H59.6444V410.987H65.7767V421.879ZM73.1967 421.879H67.0644V410.987H73.1967V421.879ZM80.6168 421.879H74.4845V410.987H80.6168V421.879ZM88.0369 421.879H81.9046V410.987H88.0369V421.879Z" fill="#AEDBD3"/>
        <path opacity="0.1" d="M72.3688 446.5C73.0664 446.899 73.7793 447.267 74.4998 447.665V447.282H80.6321V450.731L81.9352 451.337V447.282H88.0675V453.912C88.1851 453.971 88.3084 454.017 88.4355 454.05V446.5H72.3688Z" fill="#AEDBD3"/>
        <path opacity="0.1" d="M578.338 255.963H578.384H578.338ZM531.119 482.199H531.885H531.119ZM481.853 367.088C481.999 367.578 482.122 368.069 482.26 368.552C482.137 368.069 482.007 367.578 481.853 367.088ZM578.338 255.94H578.384H578.338ZM115.349 141.158V144.431H149.59V141.158H115.349ZM531.119 482.199H531.885H531.119ZM481.853 367.088C481.999 367.578 482.122 368.069 482.26 368.552C482.137 368.069 482.007 367.578 481.853 367.088ZM578.338 255.94H578.384H578.338ZM531.119 482.176H531.885H531.119ZM481.853 367.088C481.999 367.578 482.122 368.069 482.26 368.552C482.137 368.069 482.007 367.578 481.853 367.088Z" fill="#AEDBD3"/>
        <path d="M353.834 291.032C353.834 291.032 350.814 290.61 350.814 286.21C350.814 281.81 348.652 273.593 348.652 273.593C348.652 273.555 346.782 259.282 344.199 257.013C341.615 254.744 338.296 241.421 338.296 241.421C338.296 241.421 337.729 234.193 336.572 232.637C335.414 231.081 333.85 227.271 331.543 221.836C329.236 216.402 319.616 212.638 319.616 212.638C319.616 212.638 302.223 202.55 297.294 199.262C296.846 198.992 296.427 198.676 296.045 198.319C295.186 197.192 291.445 197.169 291.445 197.169C291.054 194.701 290.679 191.865 290.556 189.297C290.556 189.021 290.556 188.745 290.518 188.469C296.014 185.22 300.154 180.098 302.177 174.043C302.269 173.751 302.346 173.445 302.43 173.153C302.759 173.045 303.062 172.869 303.32 172.637C303.577 172.404 303.783 172.121 303.925 171.804C304.369 170.816 304.377 169.658 304.929 168.738C305.573 167.65 306.799 167.067 307.765 166.247C310.203 164.177 310.831 160.69 310.716 157.516C310.64 154.948 310.226 152.357 310.387 149.805L310.433 149.161C310.479 148.778 310.532 148.394 310.601 148.026C310.977 146.125 311.797 144.332 312.257 142.446C312.717 140.56 312.763 138.437 311.69 136.812C310.118 134.428 306.845 133.953 303.971 133.707C300.713 133.431 297.8 133.792 295.715 131.086C294.739 129.672 293.641 128.346 292.434 127.123C292.005 126.724 287.835 124.179 287.835 124.011C283.765 122.126 279.152 121.772 274.842 123.014C272.681 123.643 270.642 124.67 268.449 125.184C263.72 126.303 258.277 125.092 254.261 127.797C252.022 129.33 250.681 131.768 249.424 134.144C248.402 136.102 247.364 138.056 246.312 140.008C244.618 143.22 242.893 146.486 242.18 150.042C242.03 150.816 241.938 151.6 241.904 152.388V152.426C241.904 152.71 241.904 152.994 241.904 153.277V153.637C241.904 153.906 241.904 154.166 241.95 154.404C241.996 154.642 241.988 154.718 242.011 154.879C242.034 155.04 242.073 155.4 242.119 155.646C242.165 155.891 242.257 156.32 242.349 156.658C242.387 156.803 242.441 156.941 242.487 157.079C242.563 157.34 242.655 157.593 242.755 157.846C242.809 157.976 242.862 158.114 242.924 158.244C243.039 158.513 243.177 158.773 243.314 159.011C243.376 159.118 243.422 159.218 243.483 159.317C243.697 159.674 243.932 160.017 244.188 160.345C245.829 162.391 248.243 163.694 250.029 165.611C250.029 165.687 250.029 165.764 250.029 165.833C250.029 166.048 250.029 166.255 250.029 166.469C250.124 170.743 251.262 174.929 253.343 178.663C255.424 182.397 258.387 185.566 261.972 187.894C261.972 188.185 262.01 188.484 262.026 188.776C262.175 191.051 262.147 193.334 261.941 195.605C261.629 195.238 261.238 194.945 260.798 194.749C260.358 194.552 259.879 194.457 259.396 194.471C259.067 194.455 258.737 194.483 258.415 194.555L258.346 194.502V194.571C256.66 194.984 254.583 196.74 252.597 201.73C252.597 201.73 246.557 208.537 241.958 208.253C237.359 207.97 225.715 215.336 225.715 215.336C225.715 215.336 214.355 222.71 211.917 230.222C210.555 234.482 208.921 238.65 207.027 242.701L192.984 271.638L190.393 294.596C190.393 294.596 191.826 304.806 191.543 306.362C191.259 307.919 197.437 321.954 197.437 321.954C197.437 321.954 217.85 357.82 226.19 359.66L226.788 359.238C227.145 359.425 227.523 359.566 227.915 359.66L229.632 358.449C229.735 359.799 229.691 361.156 229.501 362.496C228.352 366.037 229.931 389.149 231.939 393.679C233.947 398.209 233.235 457.608 233.235 457.608L232.951 462.851C232.951 462.851 232.951 463.02 233.02 463.311L232.951 464.553L233.158 464.66C233.373 466.323 233.303 468.011 232.951 469.65C232.23 471.95 231.939 478.45 231.939 478.45C231.939 478.45 226.198 515.152 228.919 522.526C231.64 529.9 233.955 537.98 233.955 537.98C233.955 537.98 236.83 547.178 234.093 548.749C231.357 550.321 223.576 552.958 225.178 556.79C226.635 560.332 232.161 569.822 232.982 571.209L232.913 571.937L231.786 584.148C231.968 585.76 232.405 587.334 233.081 588.809C234.315 591.469 236.715 594.228 241.276 593.929C242.042 593.876 242.931 593.784 243.79 593.669C252.137 592.549 262.417 588.824 262.417 588.824C261.883 588.485 261.394 588.081 260.96 587.621C260.55 587.223 260.225 586.746 260.005 586.219C259.785 585.692 259.674 585.126 259.68 584.554C259.803 582.331 255.64 571.738 254.606 569.132C254.445 568.756 254.36 568.542 254.36 568.542C254.36 568.542 263.85 558.622 262.271 549.83C262.271 549.83 251.769 543.698 255.227 540.333C258.684 536.968 264.862 527.302 264.862 527.302C264.862 527.302 265.145 491.159 264.862 485.763C264.566 482.018 264.744 478.25 265.391 474.549C265.506 473.989 265.644 473.445 265.789 472.908C270.57 473.622 275.397 473.988 280.231 474.004C281.994 474.004 283.788 474.004 285.597 473.897C285.597 474.408 285.62 474.96 285.666 475.553C286.064 484.506 286.808 500.205 287.413 506.038C288.272 514.401 293.017 536.937 293.017 536.937C293.017 536.937 283.964 542.747 294.596 557.066C294.596 557.066 294.596 562.256 293.891 563.007C293.138 565.463 292.531 567.961 292.074 570.488C291.629 573.187 291.445 575.916 292.166 577.334C293.891 580.722 304.239 580.446 304.239 580.446L304.492 580.4C306.446 580.198 308.42 580.386 310.3 580.953C312.181 581.52 313.93 582.455 315.446 583.704C319.378 586.862 334.303 585.474 342.382 584.47C345.548 584.072 347.663 583.704 347.663 583.704C347.766 583.345 347.802 582.971 347.771 582.6C347.686 580.614 346.13 576.261 335.583 572.374C335.583 572.374 325.664 565.705 325.802 559.895H325.595H324.445C325.28 559.849 325.817 559.895 325.817 559.895C325.817 559.895 321.931 545.714 323.517 544.564C325.104 543.414 320.352 527.7 320.352 527.7C320.352 527.7 317.63 501.331 317.485 499.484C317.491 497.899 317.731 496.323 318.198 494.808L317.485 480.351C317.485 480.351 317.347 475.545 317.485 473.981C317.461 472.624 317.351 471.27 317.155 469.926C317.086 469.39 317.017 468.83 316.94 468.278C320.658 467.335 323.073 466.462 323.073 466.462L322.644 416.138C325.802 410.006 326.384 396.553 326.369 387.01C326.369 380.878 326.093 376.34 326.093 376.34L330.409 369.295C330.409 369.295 331.405 360.863 329.826 359.016C329.128 358.18 329.443 357.314 330.018 356.601C330.316 356.365 330.631 356.149 330.96 355.957C330.96 355.957 330.914 355.889 330.861 355.789C331.162 355.537 331.482 355.309 331.819 355.107C331.819 355.107 330.286 352.73 331.658 351.726C332.946 352.6 334.096 353.259 334.969 353.796C334.908 354.355 334.847 354.677 334.847 354.677L335.215 353.911C336.058 354.386 336.572 354.677 336.572 354.677C336.572 354.677 343.332 341.209 343.187 339.224C343.041 337.239 347.786 328.876 347.786 328.876C347.786 328.876 348.361 324.483 350.952 322.644C353.543 320.804 352.96 307.474 352.96 307.474C352.96 307.474 353.681 300.529 355.405 297.693C357.13 294.857 353.834 291.032 353.834 291.032ZM224.473 285.122L224.603 288.333C223.837 287.099 223.285 286.21 223.285 286.21L224.473 285.122Z" fill="url(#paint0_linear_158_2368)"/>
        <path d="M336.939 348.859L335.284 355.911C335.284 355.911 322.023 349.142 319.631 340.542C317.239 331.941 323.632 328.676 323.632 328.676L335.989 333.911L336.939 348.859Z" fill="white"/>
        <path opacity="0.1" d="M336.939 348.859L335.284 355.911C335.284 355.911 322.023 349.142 319.631 340.542C317.239 331.941 323.632 328.676 323.632 328.676L335.989 333.911L336.939 348.859Z" fill="black"/>
        <path d="M262.516 588.87C262.516 588.87 250.252 593.378 241.82 593.945C237.343 594.244 234.99 591.5 233.779 588.855C233.117 587.385 232.69 585.82 232.514 584.217L233.61 572.068L234.193 565.598L252.107 560.945L254.644 568.703L254.882 569.293C255.901 571.884 259.987 582.424 259.864 584.624C259.859 585.187 259.968 585.746 260.184 586.266C260.4 586.786 260.719 587.257 261.121 587.652C261.532 588.115 262.001 588.525 262.516 588.87Z" fill="white"/>
        <path d="M346.291 582.692C346.322 583.061 346.286 583.432 346.184 583.788C346.184 583.788 319.953 588.165 314.587 583.788C313.074 582.51 311.311 581.561 309.41 581.004C307.509 580.447 305.513 580.294 303.549 580.554C303.549 580.554 293.4 580.829 291.706 577.487C291.001 576.085 291.185 573.363 291.622 570.681C292.067 568.167 292.661 565.681 293.4 563.237L293.806 562.915L296.221 560.976L324.491 560.141H324.706C324.568 565.92 334.303 572.551 334.303 572.551C344.643 576.384 346.169 580.714 346.291 582.692Z" fill="white"/>
        <path opacity="0.1" d="M346.291 582.691C346.318 583.061 346.279 583.432 346.176 583.787C346.176 583.787 319.953 588.164 314.587 583.787C313.075 582.51 311.313 581.562 309.414 581.005C307.514 580.448 305.519 580.294 303.557 580.553C303.557 580.553 293.4 580.829 291.714 577.487C291.008 576.076 291.185 573.363 291.622 570.68C295.531 571.071 301.702 572.044 304.124 574.367C307.788 577.9 313.997 581.427 317.807 581.703C320.788 581.894 338.626 582.461 346.291 582.691Z" fill="black"/>
        <path opacity="0.1" d="M262.516 588.87C262.516 588.87 250.252 593.377 241.82 593.944C237.343 594.243 234.99 591.499 233.786 588.847C236.906 589.897 241.237 591.001 243.514 589.989C246.212 588.793 255.778 588.019 261.144 587.689C261.553 588.137 262.013 588.533 262.516 588.87Z" fill="black"/>
        <path d="M280.714 225.647C270.596 221.714 257.58 208.721 260.83 202.65C261.552 201.118 261.981 199.465 262.095 197.775C262.304 195.481 262.335 193.175 262.187 190.876C261.959 187.112 261.506 183.365 260.83 179.654C260.83 179.654 292.419 180.367 290.579 185.02C290.043 186.385 289.958 188.753 290.104 191.405C290.25 194.058 290.633 197.055 291.032 199.592C291.583 203.072 292.135 205.724 292.135 205.724C292.135 205.724 290.204 208.43 289.069 208.576C287.935 208.721 295.232 231.25 280.714 225.647Z" fill="#CF6F80"/>
        <path opacity="0.1" d="M254.859 569.293L254.621 569.554C245.177 558.132 233.756 572.367 233.756 572.367L233.587 572.068L234.17 565.598L252.084 560.945L254.621 568.703L254.859 569.293Z" fill="black"/>
        <path opacity="0.1" d="M324.713 560.945C324.713 560.945 317.814 560.799 314.135 564.049C310.456 567.299 292.672 564.755 293.438 564.049C293.666 563.7 293.802 563.3 293.837 562.884L296.252 560.945L324.522 560.109C324.629 560.623 324.713 560.945 324.713 560.945Z" fill="black"/>
        <path d="M266.61 471.252C266.096 472.523 265.706 473.84 265.444 475.185C264.805 478.869 264.628 482.618 264.916 486.346C265.199 491.711 264.916 527.67 264.916 527.67C264.916 527.67 258.852 537.259 255.472 540.639C252.091 544.02 262.371 550.091 262.371 550.091C263.904 558.829 254.613 568.702 254.613 568.702C245.17 557.281 233.748 571.523 233.748 571.523C233.748 571.523 227.539 560.792 225.991 556.959C224.442 553.126 232.054 550.474 234.729 548.918C237.404 547.362 234.599 538.187 234.599 538.187C234.599 538.187 232.338 530.146 229.655 522.81C226.972 515.474 232.614 478.956 232.614 478.956C232.614 478.956 232.905 472.471 233.602 470.21C233.954 468.578 234.024 466.898 233.809 465.243C233.763 464.683 233.71 464.216 233.671 463.901C233.633 463.587 233.602 463.441 233.602 463.441L233.71 463.257L237.542 456.113C237.542 456.113 268.449 466.753 266.61 471.252Z" fill="#AEDBD3"/>
        <path d="M324.713 560.101C324.713 560.101 317.814 559.956 314.135 563.167C310.456 566.379 292.672 563.873 293.438 563.167C294.205 562.462 294.144 557.242 294.144 557.242C283.711 543 292.611 537.22 292.611 537.22C292.611 537.22 287.95 514.799 287.107 506.482C286.517 500.671 285.788 485.057 285.397 476.142C285.229 472.31 285.129 469.673 285.129 469.673L293.653 467.956L294.749 467.733L315.308 463.609C315.308 463.609 315.875 467.442 316.258 470.577C316.449 471.916 316.557 473.265 316.58 474.617C316.442 476.15 316.58 480.948 316.58 480.948L317.278 495.336C316.822 496.846 316.587 498.413 316.58 499.989C316.718 501.821 319.393 528.052 319.393 528.052C319.393 528.052 324.046 543.705 322.46 544.832C320.873 545.959 324.713 560.101 324.713 560.101Z" fill="#AEDBD3"/>
        <path opacity="0.1" d="M290.579 185.02C290.043 186.385 289.958 188.753 290.104 191.405C285.873 193.953 281.009 195.256 276.07 195.164C271.132 195.072 266.32 193.588 262.187 190.884C261.959 187.117 261.506 183.367 260.83 179.654C260.83 179.654 292.419 180.352 290.579 185.02Z" fill="black"/>
        <path d="M302.79 168.08C302.796 170.842 302.362 173.587 301.502 176.213C299.582 182.095 295.644 187.109 290.384 190.368C285.125 193.628 278.882 194.923 272.76 194.025C266.638 193.127 261.03 190.093 256.928 185.46C252.826 180.828 250.494 174.894 250.344 168.708C250.344 168.494 250.344 168.294 250.344 168.08C250.284 164.598 250.919 161.139 252.21 157.905C253.501 154.671 255.424 151.726 257.865 149.242C260.306 146.759 263.218 144.787 266.429 143.44C269.641 142.094 273.088 141.4 276.571 141.4C280.053 141.4 283.501 142.094 286.712 143.44C289.924 144.787 292.835 146.759 295.277 149.242C297.718 151.726 299.64 154.671 300.932 157.905C302.223 161.139 302.857 164.598 302.798 168.08H302.79Z" fill="#CF6F80"/>
        <path opacity="0.1" d="M280.714 225.647C270.596 221.714 257.58 208.722 260.83 202.651C261.552 201.119 261.981 199.465 262.095 197.775L275.946 209.158L284.516 216.188L291.032 199.6C291.583 203.08 292.135 205.732 292.135 205.732C292.135 205.732 290.204 208.438 289.069 208.584C287.935 208.729 295.232 231.25 280.714 225.647Z" fill="black"/>
        <path d="M316.534 275.955L304.967 470.272L289.882 471.261L250.819 358.587L257.227 224.819L258.576 196.557L275.946 210.822L284.524 217.851L291.231 200.78L303.702 211.65L316.534 275.955Z" fill="#AEDBD3"/>
        <path opacity="0.1" d="M266.61 471.252C266.096 472.522 265.706 473.839 265.444 475.184C254.468 473.489 243.807 470.159 233.817 465.303L233.61 465.196L233.679 463.962L233.717 463.318L237.55 456.174C237.55 456.174 268.449 466.752 266.61 471.252Z" fill="black"/>
        <path opacity="0.1" d="M293.829 475.215C291.023 475.692 288.193 476.015 285.351 476.181C285.183 472.348 285.083 469.711 285.083 469.711L293.607 467.994L293.829 475.215Z" fill="black"/>
        <path opacity="0.1" d="M316.212 470.616C310.762 472.034 302.346 473.629 294.811 472.632L294.703 467.772L315.262 463.648C315.262 463.648 315.829 467.443 316.212 470.616Z" fill="black"/>
        <path opacity="0.1" d="M294.673 473.521C263.244 478.886 234.461 463.502 234.461 463.502L234.737 458.289C234.737 458.289 235.45 399.197 233.472 394.667C231.494 390.137 229.954 367.163 231.073 363.637C232.192 360.111 226.987 307.235 226.987 307.235L226.144 285.772L195.283 273.27L209.081 244.51C210.945 240.477 212.547 236.329 213.879 232.092C216.279 224.626 227.417 217.29 227.417 217.29C227.417 217.29 238.838 209.962 243.353 210.238C247.868 210.514 253.785 203.753 253.785 203.753C258.155 192.615 262.11 197.659 262.11 197.659C262.11 198.188 262.11 197.659 261.895 199.307C260.362 211.533 286.685 250.167 287.061 250.849L289.567 311.911L292.105 389.186L294.673 473.521Z" fill="black"/>
        <path d="M293.829 473.522C262.401 478.887 233.61 463.503 233.61 463.503L233.894 458.29C233.894 458.29 234.607 399.198 232.621 394.668C230.636 390.138 229.103 367.164 230.23 363.638C231.357 360.112 226.144 307.236 226.144 307.236L225.293 285.773L194.417 273.225L208.215 244.465C210.074 240.431 211.677 236.283 213.013 232.047C215.405 224.581 226.55 217.245 226.55 217.245C226.55 217.245 237.972 209.917 242.479 210.193C246.986 210.469 252.912 203.708 252.912 203.708C257.289 192.57 262.11 197.614 262.11 197.614C262.11 198.143 261.65 198.38 261.895 199.262C265.268 211.12 285.842 250.122 286.218 250.804L288.755 311.866L291.292 389.141L293.829 473.522Z" fill="white"/>
        <path opacity="0.1" d="M285.359 252.544C281.979 251.133 264.072 230.69 264.072 230.69V226.037C263.421 224.504 259.55 225.439 256.407 226.512L257.756 198.25L259.289 199.522C262.647 211.373 284.968 251.862 285.359 252.544Z" fill="black"/>
        <path d="M286.21 250.851C282.822 249.44 264.916 228.997 264.916 228.997V224.344C264.264 222.811 260.393 223.746 257.25 224.819L258.607 196.557L260.14 197.829C263.505 209.68 285.834 250.176 286.21 250.851Z" fill="white"/>
        <path opacity="0.1" d="M234.461 352.806C234.883 352.806 256.315 350.553 256.315 350.553C256.315 350.553 269.292 376.071 268.442 382.28C267.591 388.489 266.05 393.985 260.83 393.011C255.61 392.038 232.736 393.778 232.736 393.778L234.461 352.806Z" fill="black"/>
        <path d="M233.61 351.113C234.032 351.113 255.464 348.859 255.464 348.859C255.464 348.859 268.434 374.385 267.591 380.586C266.748 386.788 265.192 392.291 259.979 391.318C254.767 390.344 231.885 392.084 231.885 392.084L233.61 351.113Z" fill="white"/>
        <path d="M249.761 339.131C249.761 339.131 269.43 349.701 269.852 352.929C270.274 356.156 259.841 351.518 257.587 350.959C256.104 350.601 254.594 350.365 253.073 350.253L238.041 350.66L249.761 339.131Z" fill="#CF6F80"/>
        <path opacity="0.1" d="M279.871 253.862C281.014 253.862 281.94 252.935 281.94 251.792C281.94 250.649 281.014 249.723 279.871 249.723C278.728 249.723 277.801 250.649 277.801 251.792C277.801 252.935 278.728 253.862 279.871 253.862Z" fill="black"/>
        <path d="M279.871 253.018C281.014 253.018 281.94 252.092 281.94 250.949C281.94 249.806 281.014 248.879 279.871 248.879C278.728 248.879 277.801 249.806 277.801 250.949C277.801 252.092 278.728 253.018 279.871 253.018Z" fill="#3F3D56"/>
        <path opacity="0.1" d="M283.68 343.456C284.823 343.456 285.75 342.529 285.75 341.386C285.75 340.243 284.823 339.316 283.68 339.316C282.537 339.316 281.611 340.243 281.611 341.386C281.611 342.529 282.537 343.456 283.68 343.456Z" fill="black"/>
        <path d="M283.68 342.604C284.823 342.604 285.75 341.678 285.75 340.535C285.75 339.391 284.823 338.465 283.68 338.465C282.537 338.465 281.611 339.391 281.611 340.535C281.611 341.678 282.537 342.604 283.68 342.604Z" fill="#3F3D56"/>
        <path opacity="0.1" d="M281.933 298.659C283.076 298.659 284.002 297.732 284.002 296.589C284.002 295.446 283.076 294.52 281.933 294.52C280.79 294.52 279.863 295.446 279.863 296.589C279.863 297.732 280.79 298.659 281.933 298.659Z" fill="black"/>
        <path d="M281.933 297.815C283.076 297.815 284.002 296.888 284.002 295.745C284.002 294.602 283.076 293.676 281.933 293.676C280.79 293.676 279.863 294.602 279.863 295.745C279.863 296.888 280.79 297.815 281.933 297.815Z" fill="#3F3D56"/>
        <path d="M329.642 349.825C329.642 349.825 331.052 351.94 329.642 352.929C328.232 353.918 329.78 356.309 329.78 356.309C329.78 356.309 326.262 358.371 327.81 360.226C329.358 362.081 328.377 370.46 328.377 370.46L324.146 377.466C324.146 377.466 324.399 381.981 324.414 388.082C324.414 397.603 323.855 410.987 320.758 417.088L321.187 467.151C321.187 467.151 306.37 472.563 293.967 470.915L292.128 390.581C292.128 390.581 294.811 345.026 295.799 336.287C296.378 331.751 296.614 327.177 296.505 322.605C296.505 322.605 296.083 308.93 294.665 302.583C294.665 302.583 293.132 275.087 292.979 267.475C292.91 263.834 293.101 253.21 293.316 243.107C293.553 232.061 293.822 221.644 293.822 221.644L291.024 199.506C291.024 199.506 293.822 199.223 294.665 200.35C295.043 200.702 295.453 201.018 295.891 201.292C300.721 204.558 317.784 214.6 317.784 214.6C317.784 214.6 327.227 218.356 329.489 223.737C331.75 229.118 333.321 232.935 334.418 234.468C335.514 236.001 336.112 243.207 336.112 243.207C336.112 243.207 339.362 256.468 341.899 258.714C344.436 260.96 346.291 275.248 346.291 275.248L323.87 292.878C323.87 292.878 321.9 322.206 321.478 323.341C321.057 324.475 329.642 349.825 329.642 349.825Z" fill="white"/>
        <path d="M330.493 349.825C330.493 349.825 331.896 351.94 330.493 352.929C329.09 353.918 330.623 356.309 330.623 356.309C330.623 356.309 327.128 358.394 328.661 360.249C330.194 362.104 329.228 370.483 329.228 370.483L324.997 377.489C324.997 377.489 325.25 382.004 325.273 388.105C325.273 397.626 324.713 411.01 321.616 417.111L322.038 467.174C322.038 467.174 307.198 472.586 294.811 470.938L292.979 390.604C292.979 390.604 295.661 345.049 296.65 336.31C297.23 331.774 297.463 327.2 297.348 322.628C297.348 322.628 296.926 308.953 295.516 302.606C295.516 302.606 293.983 275.11 293.822 267.498C293.753 263.857 293.952 253.233 294.159 243.13C294.397 232.084 294.665 221.667 294.665 221.667L290.97 199.23C290.97 199.23 294.665 199.23 295.516 200.373C295.89 200.73 296.301 201.046 296.742 201.315C301.571 204.581 318.642 214.623 318.642 214.623C318.642 214.623 328.078 218.379 330.34 223.76C332.601 229.141 334.172 232.958 335.276 234.491C336.38 236.024 336.962 243.23 336.962 243.23C336.962 243.23 340.213 256.491 342.75 258.737C345.287 260.983 347.119 275.24 347.119 275.24L324.698 292.871C324.698 292.871 322.728 322.199 322.299 323.333C321.869 324.467 330.493 349.825 330.493 349.825Z" fill="white"/>
        <path opacity="0.1" d="M303.641 228.176L305.665 234.078L295.01 244.81C295.247 233.772 295.516 223.347 295.516 223.347L291.821 200.91C291.821 200.91 295.516 200.91 296.367 202.052C296.74 202.408 297.151 202.722 297.593 202.987L306.654 229.126L303.641 228.176Z" fill="black"/>
        <path d="M302.79 226.481L304.822 232.383L294.167 243.114C294.404 232.069 294.673 221.651 294.673 221.651L290.97 199.215C290.97 199.215 294.673 199.215 295.516 200.357C295.892 200.712 296.303 201.028 296.742 201.3L305.81 227.431L302.79 226.481Z" fill="white"/>
        <path opacity="0.1" d="M302.79 168.08C302.796 170.842 302.362 173.587 301.502 176.213C301.358 176.235 301.21 176.229 301.068 176.193C300.925 176.158 300.792 176.094 300.675 176.006C300.475 169.107 297.08 162.63 292.902 157.118C291.729 155.454 290.307 153.981 288.686 152.749C287.047 151.518 285.008 150.941 282.968 151.132C280.668 151.446 278.637 153.01 276.314 153.209C273.248 153.462 270.504 151.339 267.46 151.231C266.223 151.243 265.003 151.518 263.881 152.039C262.758 152.56 261.76 153.314 260.953 154.251C259.354 156.143 258.166 158.346 257.465 160.721C256.26 164.322 255.603 168.085 255.518 171.882C255.479 174.028 255.273 176.719 253.28 177.5C253.43 175.922 253.25 174.33 252.753 172.824C252.255 171.318 251.451 169.933 250.39 168.754L250.344 168.708C250.344 168.494 250.344 168.294 250.344 168.08C250.284 164.598 250.919 161.139 252.21 157.905C253.501 154.671 255.424 151.726 257.865 149.242C260.306 146.759 263.218 144.787 266.429 143.44C269.641 142.094 273.088 141.4 276.571 141.4C280.053 141.4 283.501 142.094 286.712 143.44C289.924 144.787 292.835 146.759 295.277 149.242C297.718 151.726 299.64 154.671 300.932 157.905C302.223 161.139 302.857 164.598 302.798 168.08H302.79Z" fill="black"/>
        <path d="M287.429 126.433C283.446 124.559 278.915 124.205 274.689 125.436C272.566 126.065 270.565 127.084 268.411 127.598C263.812 128.709 258.446 127.506 254.498 130.196C252.306 131.729 250.988 134.152 249.761 136.505L246.695 142.346C245.024 145.542 243.338 148.792 242.64 152.311C241.942 155.829 242.364 159.769 244.595 162.598C246.22 164.66 248.619 165.955 250.382 167.895C251.438 169.074 252.239 170.459 252.735 171.963C253.231 173.467 253.411 175.057 253.264 176.633C255.265 175.867 255.456 173.168 255.502 171.022C255.588 167.225 256.244 163.463 257.449 159.861C258.149 157.486 259.337 155.282 260.937 153.392C261.746 152.455 262.744 151.702 263.866 151.181C264.988 150.66 266.208 150.384 267.445 150.372C270.511 150.479 273.263 152.595 276.299 152.342C278.598 152.15 280.637 150.579 282.952 150.272C284.993 150.079 287.033 150.656 288.671 151.889C290.291 153.119 291.711 154.593 292.879 156.259C297.064 161.77 300.46 168.232 300.659 175.146C301.525 175.782 302.775 174.954 303.204 173.973C303.633 172.992 303.649 171.842 304.193 170.907C304.822 169.826 306.025 169.251 306.968 168.439C309.359 166.377 309.957 162.904 309.865 159.754C309.773 156.604 309.16 153.407 309.758 150.31C310.118 148.409 310.931 146.631 311.375 144.753C311.82 142.875 311.874 140.767 310.824 139.149C309.29 136.773 306.063 136.306 303.25 136.083C300.054 135.807 297.194 136.16 295.155 133.469C294.198 132.065 293.121 130.747 291.936 129.529C291.53 129.131 287.429 126.601 287.429 126.433Z" fill="#512E4E"/>
        <path opacity="0.1" d="M204.114 288.081L196.103 273.271L193.566 296.122C193.566 296.122 194.977 306.271 194.693 307.827C194.409 309.383 200.473 323.334 200.473 323.334C200.473 323.334 220.502 359.009 228.681 360.848L256.315 341.102L248.987 331.797C248.987 331.797 246.45 330.808 245.813 331.797C245.813 331.797 232.207 308.387 230.797 306.693C229.387 304.999 229.662 301.618 229.662 301.618C229.662 301.618 227.547 299.364 228.252 297.249C228.957 295.133 224.166 287.797 224.166 287.797L228.536 283.712L204.114 288.081Z" fill="black"/>
        <path d="M196.525 271.584L194.409 273.27L191.872 296.121C191.872 296.121 193.283 306.27 192.999 307.826C192.715 309.382 198.786 323.333 198.786 323.333C198.786 323.333 218.808 359.008 226.987 360.847L254.629 341.101L247.293 331.796C247.293 331.796 244.756 330.807 244.119 331.796C244.119 331.796 230.513 308.385 229.103 306.691C227.692 304.997 227.976 301.617 227.976 301.617C227.976 301.617 225.86 299.363 226.566 297.248C227.271 295.132 222.472 287.796 222.472 287.796L226.842 283.711L196.525 271.584Z" fill="white"/>
        <path opacity="0.1" d="M327.81 361.101C329.343 362.964 328.377 371.327 328.377 371.327L324.146 378.333C324.146 378.333 324.399 382.856 324.414 388.95L317.301 391.173C316.658 391.373 315.976 391.417 315.313 391.301C314.65 391.185 314.024 390.912 313.487 390.505C312.951 390.097 312.52 389.568 312.23 388.96C311.94 388.352 311.799 387.683 311.82 387.01L313.046 347.449L329.642 353.796C328.232 354.777 329.78 357.184 329.78 357.184C329.78 357.184 326.262 359.239 327.81 361.101Z" fill="black"/>
        <path d="M328.661 360.25C330.194 362.113 329.228 370.483 329.228 370.483L324.997 377.489C324.997 377.489 325.25 382.004 325.273 388.106L318.029 390.367C317.399 390.563 316.732 390.605 316.083 390.491C315.434 390.377 314.821 390.109 314.296 389.71C313.771 389.311 313.349 388.792 313.065 388.197C312.781 387.602 312.643 386.948 312.663 386.289L313.897 346.605L330.501 352.952C329.082 353.934 330.631 356.333 330.631 356.333C330.631 356.333 327.128 358.395 328.661 360.25Z" fill="white"/>
        <path d="M334.157 341.393C334.157 341.393 333.03 348.591 330.209 349.012C327.388 349.434 326.124 360.656 323.31 360.258C320.497 359.859 322.36 349.825 322.46 347.878C322.559 345.931 319.393 337.867 321.762 336.035C324.131 334.203 331.627 336.035 331.627 336.035L334.157 341.393Z" fill="#CF6F80"/>
        <path opacity="0.1" d="M340.159 285.964L345.479 275.232C345.479 275.232 347.594 283.411 347.594 287.781C347.594 292.15 350.553 292.579 350.553 292.579C350.553 292.579 353.796 296.412 352.086 299.202C350.377 301.992 349.687 308.937 349.687 308.937C349.687 308.937 350.247 322.191 347.709 324.023C345.172 325.855 344.643 330.232 344.643 330.232C344.643 330.232 339.983 338.548 340.128 340.526C340.274 342.504 333.643 355.895 333.643 355.895C333.643 355.895 336.886 339.254 317.991 332.064C317.991 332.064 317.845 326.414 319.255 324.866C320.666 323.317 322.866 322.612 321.486 314.786C320.106 306.959 321.087 297.608 321.087 295.73C321.087 293.852 325.319 282.139 325.319 282.139L340.159 285.964Z" fill="black"/>
        <path d="M342.459 273.699L347.104 275.232C347.104 275.232 349.227 283.411 349.227 287.781C349.227 292.15 352.186 292.579 352.186 292.579C352.186 292.579 355.428 296.412 353.719 299.202C352.01 301.992 351.327 308.937 351.327 308.937C351.327 308.937 351.887 322.19 349.35 324.022C346.812 325.854 346.245 330.231 346.245 330.231C346.245 330.231 341.592 338.548 341.738 340.526C341.884 342.504 335.245 355.895 335.245 355.895C335.245 355.895 338.496 339.254 319.593 332.063C319.593 332.063 319.455 326.414 320.865 324.866C322.276 323.317 324.476 322.612 323.096 314.786C321.716 306.959 322.697 297.608 322.697 295.73C322.697 293.851 326.928 282.139 326.928 282.139L342.459 273.699Z" fill="white"/>
        <path opacity="0.1" d="M239.857 551.853C239.857 551.853 247.262 547.2 252.122 550.581C256.982 553.961 239.857 551.853 239.857 551.853Z" fill="black"/>
        <path opacity="0.1" d="M297.394 537.465C297.394 537.465 303.948 536.622 309.451 542.547C314.955 548.473 297.394 537.465 297.394 537.465Z" fill="black"/>
        <g opacity="0.1">
            <path d="M306.983 166.76C306.04 167.573 304.829 168.155 304.201 169.236C303.664 170.164 303.649 171.306 303.219 172.302C302.79 173.299 301.541 174.111 300.675 173.483C300.475 166.584 297.072 160.107 292.894 154.588C291.726 152.922 290.306 151.448 288.686 150.218C287.045 148.985 285.003 148.408 282.96 148.601C280.66 148.915 278.637 150.479 276.314 150.671C273.248 150.931 270.496 148.808 267.453 148.701C266.216 148.713 264.996 148.989 263.875 149.512C262.754 150.034 261.758 150.79 260.953 151.728C259.352 153.616 258.164 155.817 257.465 158.19C256.26 161.792 255.604 165.554 255.518 169.351C255.472 171.49 255.272 174.157 253.295 174.954C253.341 175.521 253.341 176.09 253.295 176.656C255.288 175.89 255.487 173.191 255.533 171.045C255.619 167.248 256.275 163.486 257.48 159.884C258.18 157.509 259.368 155.305 260.968 153.415C261.775 152.479 262.772 151.725 263.893 151.204C265.013 150.683 266.232 150.407 267.468 150.395C270.534 150.502 273.294 152.618 276.329 152.365C278.629 152.173 280.668 150.602 282.975 150.295C285.019 150.102 287.061 150.679 288.701 151.912C290.322 153.142 291.742 154.616 292.91 156.282C297.087 161.793 300.491 168.255 300.69 175.169C301.556 175.805 302.806 174.977 303.235 173.996C303.664 173.015 303.679 171.865 304.216 170.93C304.845 169.849 306.056 169.274 306.998 168.462C309.39 166.4 309.988 162.928 309.896 159.777C309.896 159.677 309.896 159.578 309.896 159.486C309.75 162.215 309.022 164.997 306.983 166.76Z" fill="black"/>
            <path d="M250.397 166.215C248.634 164.276 246.227 162.981 244.61 160.926C243.248 159.108 242.47 156.919 242.379 154.648C242.138 157.485 242.93 160.314 244.61 162.613C246.227 164.675 248.634 165.97 250.397 167.91C252.09 169.807 253.106 172.211 253.287 174.747C253.405 173.204 253.209 171.653 252.713 170.187C252.216 168.72 251.428 167.37 250.397 166.215Z" fill="black"/>
            <path d="M311.391 143.074C310.939 144.952 310.134 146.738 309.766 148.632C309.548 149.897 309.468 151.182 309.528 152.464C309.554 151.734 309.633 151.006 309.766 150.288C310.134 148.386 310.939 146.608 311.391 144.73C311.654 143.694 311.74 142.621 311.644 141.557C311.596 142.068 311.512 142.575 311.391 143.074Z" fill="black"/>
        </g>
        <path opacity="0.1" d="M101.743 583.022C142.994 583.022 176.434 577.651 176.434 571.026C176.434 564.4 142.994 559.029 101.743 559.029C60.4917 559.029 27.0511 564.4 27.0511 571.026C27.0511 577.651 60.4917 583.022 101.743 583.022Z" fill="#AEDBD3"/>
        <path d="M104.15 341.217H99.3433V449.429H104.15V341.217Z" fill="#535461"/>
        <path d="M134.351 449.099L134.052 453.974L133.623 460.873L133.447 463.74L133.025 470.639L132.841 473.506L132.412 480.405L127.567 558.645C127.357 562.012 125.871 565.171 123.413 567.481C120.955 569.791 117.71 571.077 114.337 571.079H89.1484C85.7762 571.077 82.5314 569.79 80.0747 567.481C77.6181 565.171 76.1343 562.011 75.9256 558.645L71.1041 480.351L70.6748 473.452L70.4985 470.585L70.0693 463.687L69.893 460.82L69.4637 453.921L69.1571 449.046C69.1038 448.107 69.2428 447.168 69.5656 446.285C69.8884 445.403 70.3881 444.595 71.0341 443.913C71.6801 443.23 72.4588 442.687 73.3223 442.316C74.1859 441.945 75.1161 441.754 76.0559 441.756H127.575C128.511 441.764 129.436 441.964 130.292 442.343C131.148 442.722 131.917 443.273 132.552 443.961C133.187 444.649 133.674 445.46 133.984 446.344C134.293 447.228 134.418 448.165 134.351 449.099Z" fill="#3F3D56"/>
        <path d="M134.052 453.975L133.623 460.85H69.8623L69.433 453.975H134.052Z" fill="#9D9CB5"/>
        <path d="M133.447 463.717L133.025 470.6H70.4678L70.0386 463.717H133.447Z" fill="#9D9CB5"/>
        <path d="M132.841 473.475L132.419 480.35H71.0734L70.6442 473.475H132.841Z" fill="#9D9CB5"/>
        <path d="M62.0972 381.775C90.0835 402.027 101.766 433.7 101.766 433.7C101.766 433.7 68.0379 432.543 40.0439 412.291C12.05 392.039 0.39093 360.373 0.39093 360.373C0.39093 360.373 34.1033 361.523 62.0972 381.775Z" fill="#AEDBD3"/>
        <path d="M0.36792 360.373C0.36792 360.373 35.3834 379.805 46.6132 395.894C57.8429 411.984 101.766 433.7 101.766 433.7" stroke="#535461" stroke-width="2" stroke-miterlimit="10"/>
        <path d="M80.1645 340.979C95.3956 351.995 101.766 369.234 101.766 369.234C101.766 369.234 83.407 368.606 68.1682 357.59C52.9294 346.575 46.5748 329.328 46.5748 329.328C46.5748 329.328 64.9258 329.957 80.1645 340.979Z" fill="#AEDBD3"/>
        <path d="M46.5748 329.328C46.5748 329.328 65.631 339.906 71.7403 348.66C77.8496 357.414 101.766 369.234 101.766 369.234" stroke="#535461" stroke-width="2" stroke-miterlimit="10"/>
        <path d="M123.88 368.36C106.38 387.593 102.678 412.727 102.678 412.727C102.678 412.727 127.353 406.672 144.837 387.432C162.322 368.192 166.04 343.064 166.04 343.064C166.04 343.064 141.38 349.128 123.88 368.36Z" fill="#AEDBD3"/>
        <path d="M166.055 343.072C166.055 343.072 143.258 362.788 137.463 376.371C131.668 389.954 102.678 412.728 102.678 412.728" stroke="#535461" stroke-width="2" stroke-miterlimit="10"/>
        <path d="M766.285 361.591C766.285 361.591 753.63 298.628 758.474 290.794C758.474 290.794 758.65 283.512 758.359 274.229C758.359 273.876 758.359 273.524 758.359 273.163C759.211 273.732 760.1 274.244 761.019 274.696C765.483 276.99 770.607 277.651 775.507 276.567L771.674 272.297C770.754 271.278 769.796 270.174 769.597 268.825C769.397 267.476 769.949 266.272 770.424 265.069C774.066 255.87 774.257 244.303 767.243 237.282C761.318 231.379 759.877 223.76 753.446 218.371C748.747 214.424 746.163 208.636 743.726 203.04C741.664 198.311 739.587 193.543 738.406 188.53C737.486 184.613 737.118 180.558 735.854 176.733C734.589 172.908 732.22 169.19 728.518 167.481C727.199 166.875 725.735 166.53 724.532 165.725C722.953 164.66 722.002 162.927 720.86 161.41C715.057 153.744 695.626 158.259 686.427 161.371C683.926 162.155 681.611 163.438 679.62 165.143L679.705 165.005C679.774 164.89 679.858 164.775 679.935 164.66C678.928 165.474 678.058 166.445 677.359 167.534C676.018 169.658 675.458 172.134 674.339 174.433C672.99 177.154 665.485 184.751 668.712 187.809C668.939 188.015 669.198 188.181 669.479 188.3C670.691 188.804 672.024 188.937 673.312 188.683L673.174 189.013C672.072 191.711 671.507 194.599 671.51 197.514C671.51 210.108 681.897 220.318 694.721 220.318C697.132 220.32 699.529 219.951 701.827 219.222C701.881 219.513 701.927 219.805 701.98 220.096C701.98 220.211 702.019 220.326 702.034 220.441L701.628 221.008C701.607 220.973 701.584 220.94 701.559 220.908L689.524 237.726C687.684 239.022 677.091 246.687 676.493 252.436C675.864 258.729 675.236 266.096 675.236 266.096L675.151 267.675C674.625 268.114 674.01 268.435 673.349 268.613C672.687 268.792 671.994 268.825 671.319 268.71C667.563 268.096 667.563 282.507 667.563 282.507C667.563 282.507 665.064 284.807 663.347 282.814C661.63 280.821 657.092 287.574 657.092 287.574L628.653 288.801L628.002 288.839L626.469 284.094C626.304 283.594 625.948 283.178 625.478 282.939C625.009 282.699 624.464 282.654 623.962 282.814C623.843 282.853 623.728 282.902 623.617 282.96L623.51 283.021L623.31 283.159L623.211 283.251C623.156 283.301 623.105 283.355 623.057 283.412L622.965 283.519L622.92 283.565C622.742 283.81 622.625 284.093 622.577 284.391C622.529 284.689 622.552 284.994 622.644 285.282L623.962 289.353C618.474 290.456 612.863 293.569 617.439 302.138L594.243 297.854L601.748 304.154L640.489 312.149C639.975 313.069 640.312 314.403 641.914 316.281C648.813 324.383 661.384 326.583 666.444 327.151C667.78 330.139 669.448 332.968 671.418 335.583L670.981 343.654C670.981 343.654 658.173 405.176 655.827 408.296C657.011 406.955 658.095 405.528 659.069 404.027C655.352 416.667 650.155 433.968 648.79 436.559C646.598 440.698 644.567 457.447 647.065 458.52C647.832 458.849 650.024 458.689 653.152 458.451V459.838L653.014 512.415C653.014 512.415 653.642 544.663 651.918 547.737C650.193 550.811 649.733 557.258 649.733 557.258C649.733 557.258 642.834 569.974 637.369 575.087C637.332 575.127 637.29 575.163 637.246 575.195L637.077 573.999C637.077 573.999 630.508 582.293 615.975 581.825C615.975 581.825 607.228 587.513 620.198 587.819C633.168 588.126 649.733 587.36 649.733 587.36C649.733 587.36 661.3 569.729 670.989 572.029V585.39H673.956V571.814C675.331 570.908 676.509 569.733 677.417 568.359C678.324 566.984 678.944 565.44 679.237 563.819C679.491 562.149 679.305 560.441 678.697 558.864C678.09 557.287 677.082 555.896 675.772 554.828C675.184 554.296 674.712 553.648 674.386 552.925C674.061 552.202 673.888 551.42 673.879 550.627L673.772 550.719C673.772 550.451 673.703 550.175 673.672 549.891C672.821 542.992 671.756 528.758 675.519 518.225C680.678 503.784 682.242 483.67 678.486 471.697C677.274 467.869 676.278 463.977 675.504 460.038C675.412 459.539 675.328 459.064 675.251 458.62C677.819 458.967 680.361 459.479 682.863 460.153C691.563 462.552 710.596 462.996 726.847 462.866C726.885 463.311 726.931 463.778 726.985 464.246C727.274 467.496 727.88 470.71 728.794 473.843C730.833 479.975 731.768 507.011 731.768 507.011C731.768 507.011 734.397 529.241 732.964 538.286C732.197 543.314 731.431 548.366 730.994 553.44V553.54C730.994 553.54 726.686 565.805 723.535 572.466C723.459 572.634 723.374 572.803 723.298 572.964C722.458 573.041 721.631 573.223 720.837 573.508C720.837 573.508 716.613 581.94 712.405 583.335C708.197 584.73 709.592 589.322 719.12 587.636C728.648 585.949 743.036 584.569 743.036 584.569L743.657 575.969L746.585 572.305L745.819 580.882L748.938 580.269L748.524 569.837L753.315 563.842C753.315 563.842 759.103 558.691 750.502 548.557V548.78C750.41 548.634 750.326 548.481 750.226 548.335V548.289C748.8 546.081 747.666 541.965 749.743 534.66C753.499 521.46 755.684 509.479 755.684 509.479C755.684 509.479 764.07 477.384 753.99 462.199H754.434C753.401 460.062 752.671 457.792 752.265 455.454C752.214 455.178 752.168 454.894 752.127 454.603C759.586 454.174 766.906 452.824 772.877 449.912C772.854 449.881 769.259 373.718 766.285 361.591ZM671.595 308.47V308.623L670.062 308.7L671.595 308.47ZM666.336 309.198C666.084 309.254 665.848 309.367 665.646 309.528C664.987 310.46 664.573 311.544 664.443 312.678L662.051 312.142C662.051 312.142 660.373 311.781 657.958 311.375L656.816 310.225C659.959 309.965 663.224 309.582 666.336 309.198Z" fill="url(#paint1_linear_158_2368)"/>
        <path d="M745.466 569.943L744.554 580.805L747.612 580.192L747.152 568.41L745.466 569.943Z" fill="#257466"/>
        <path d="M675.688 518.371C672.001 528.873 673.043 543.046 673.871 549.929C674.178 552.474 674.461 554.023 674.461 554.023C674.461 554.023 668.95 566.579 668.49 567.054C668.03 567.529 652.27 577.149 652.27 577.149L641.255 583.581C641.255 583.581 630.079 578.682 635.437 576.996C636.532 576.557 637.518 575.884 638.327 575.026C643.693 569.928 650.431 557.258 650.431 557.258C650.431 557.258 650.89 550.826 652.577 547.768C654.263 544.709 653.65 512.568 653.65 512.568L653.78 460.176V453.346L674.745 453.499C674.877 455.818 675.18 458.123 675.65 460.398C676.402 464.324 677.377 468.203 678.57 472.019C682.265 483.969 680.732 503.983 675.688 518.371Z" fill="#FFB0B1"/>
        <path opacity="0.1" d="M674.461 554.023C674.461 554.023 668.95 566.579 668.49 567.054C668.03 567.53 652.27 577.15 652.27 577.15L641.255 583.581C641.255 583.581 630.079 578.683 635.437 576.996C636.532 576.557 637.518 575.885 638.327 575.026L638.802 578.376L642.474 578.223L673.902 549.945C674.178 552.475 674.461 554.023 674.461 554.023Z" fill="black"/>
        <path d="M674.078 550.658L642.474 579.127L638.802 579.281L638.036 573.915C638.036 573.915 631.612 582.178 617.339 581.718C617.339 581.718 608.769 587.383 621.471 587.69C634.172 587.996 650.392 587.23 650.392 587.23C650.392 587.23 661.722 569.599 671.204 571.899V585.214H674.117V571.776C675.471 570.865 676.627 569.688 677.515 568.318C678.402 566.948 679.004 565.413 679.283 563.804C679.535 562.147 679.357 560.453 678.765 558.885C678.173 557.317 677.187 555.928 675.903 554.851C675.329 554.313 674.871 553.664 674.557 552.943C674.244 552.222 674.081 551.445 674.078 550.658Z" fill="#257466"/>
        <path d="M748.379 534.745C746.34 542.027 747.451 546.128 748.846 548.328V548.374C750.636 551.09 751.88 554.129 752.51 557.32L752.633 558.009L738.253 578.974L730.449 582.04C730.449 582.04 717.901 577.755 720.193 576.529C720.768 576.23 721.665 574.636 722.692 572.436C725.758 565.805 729.99 553.571 729.99 553.571V553.472C730.434 548.42 731.139 543.384 731.921 538.371C733.324 529.349 730.748 507.203 730.748 507.203C730.748 507.203 729.829 480.275 727.836 474.15C726.936 471.036 726.338 467.843 726.05 464.614C725.636 460.782 725.544 457.624 725.544 457.624C725.544 457.624 733.807 446.126 748.954 458.543C750.165 459.534 751.231 460.69 752.12 461.978C762.583 476.864 754.158 509.656 754.158 509.656C754.158 509.656 752.05 521.584 748.379 534.745Z" fill="#FFB0B1"/>
        <path opacity="0.1" d="M752.656 558.01L738.276 578.975L730.472 582.041C730.472 582.041 717.924 577.756 720.216 576.529C720.791 576.231 721.688 574.636 722.715 572.436C728.027 572.39 730.779 577.449 730.779 577.449L737.509 576.376C737.509 576.376 746.386 558.93 748.379 557.864C750.372 556.799 748.685 549.9 748.685 549.9V548.145C748.739 548.206 748.785 548.275 748.846 548.336V548.382C750.636 551.099 751.88 554.137 752.51 557.328L752.656 558.01Z" fill="black"/>
        <path d="M731.239 577.9C731.239 577.9 727.406 570.863 720.063 573.462C720.063 573.462 715.931 581.894 711.8 583.258C707.668 584.623 709.048 589.222 718.384 587.543C727.721 585.865 741.794 584.477 741.794 584.477L742.407 575.9L751.897 563.811C751.897 563.811 757.554 558.683 749.138 548.588V550.343C749.138 550.343 750.824 557.242 748.831 558.308C746.838 559.373 737.992 576.827 737.992 576.827L731.239 577.9Z" fill="#257466"/>
        <path opacity="0.1" d="M674.768 453.483C674.9 455.802 675.203 458.108 675.673 460.382C667.041 459.117 659.031 459.746 653.78 460.16V453.33L674.768 453.483Z" fill="black"/>
        <path opacity="0.1" d="M752.97 463.886C752.97 463.886 740.706 464.484 726.08 464.607C725.666 460.774 725.574 457.616 725.574 457.616C725.574 457.616 733.838 446.118 748.984 458.536C750.196 459.526 751.261 460.682 752.15 461.97C752.388 462.623 752.662 463.263 752.97 463.886Z" fill="black"/>
        <path d="M752.97 462.506C752.97 462.506 699.251 465.104 682.878 460.513C666.505 455.921 650.277 459.899 647.832 458.834C645.387 457.768 647.372 441.081 649.518 436.949C651.665 432.818 663.439 391.034 663.439 391.034L674.768 331.964L686.703 328.676L687.546 328.438L708.342 322.704L723.581 318.496C723.581 318.496 753.882 436.796 751.284 445.519C750.34 448.859 750.188 452.374 750.839 455.783C751.236 458.111 751.953 460.374 752.97 462.506Z" fill="#257466"/>
        <path d="M635.276 291.568C635.276 291.568 624.545 303.066 632.67 309.475C640.795 315.883 646.138 310.088 646.138 310.088L635.276 291.568Z" fill="#C7DAF5"/>
        <path opacity="0.1" d="M635.276 291.568C635.276 291.568 624.545 303.066 632.67 309.475C640.795 315.883 646.138 310.088 646.138 310.088L635.276 291.568Z" fill="black"/>
        <path d="M721.979 215.972C721.979 215.972 720.722 217.168 718.829 218.931C716.131 221.453 712.137 225.14 708.595 228.229C703.69 232.499 699.642 235.634 701.091 232.959C702.54 230.284 702.264 225.623 701.543 221.261C701.49 220.97 701.444 220.679 701.39 220.395C700.793 217.192 700.002 214.028 699.021 210.921C699.021 210.921 706.947 200.68 711.332 196.64C712.965 195.107 714.107 194.479 714.176 195.544C714.252 196.977 715.326 200.143 716.659 203.501C716.698 203.608 716.736 203.708 716.782 203.815C717.671 206.115 718.675 208.476 719.557 210.515C720.906 213.642 721.979 215.972 721.979 215.972Z" fill="#FFB0B1"/>
        <path opacity="0.1" d="M716.782 203.816C716.037 207.822 714.23 211.555 711.549 214.624C708.869 217.693 705.413 219.985 701.543 221.262C700.934 217.763 700.091 214.308 699.021 210.922C699.021 210.922 713.946 191.643 714.176 195.545C714.229 197.024 715.395 200.305 716.782 203.816Z" fill="black"/>
        <path opacity="0.1" d="M700.056 226.413L701.988 223.691C701.988 223.691 703.268 231.495 707.975 228.053C712.681 224.611 712.911 253.954 712.911 253.954L707.86 329.481L671.357 327.297L672.392 290.802L676.524 272.405L686.741 245.66L692.82 236.822L700.056 226.413Z" fill="black"/>
        <path d="M712.911 254.422L708.312 322.713L707.829 329.949L687.477 328.731L686.711 328.685L671.38 327.765L672.415 291.262L676.547 272.865L686.764 246.121L692.843 237.283L700.079 226.835L702.011 224.121C702.011 224.121 703.291 231.924 707.998 228.483L708.097 228.414C712.696 225.501 712.911 254.422 712.911 254.422Z" fill="#257466"/>
        <path d="M677.06 266.471C677.06 266.471 675.228 270.303 671.549 269.682C667.869 269.062 667.877 283.48 667.877 283.48C667.877 283.48 665.432 285.78 663.745 283.787C662.059 281.794 657.613 288.532 657.613 288.532L629.757 289.758C629.757 289.758 642.152 295.423 639.722 312.563C639.722 312.563 681.805 309.956 683.185 305.978C684.564 302 677.06 266.471 677.06 266.471Z" fill="white"/>
        <path opacity="0.03" d="M677.06 266.471C677.06 266.471 675.228 270.303 671.549 269.682C667.869 269.062 667.877 283.48 667.877 283.48C667.877 283.48 665.432 285.78 663.745 283.787C662.059 281.794 657.613 288.532 657.613 288.532L629.757 289.758C629.757 289.758 642.152 295.423 639.722 312.563C639.722 312.563 681.805 309.956 683.185 305.978C684.564 302 677.06 266.471 677.06 266.471Z" fill="black"/>
        <path d="M596.106 298.766L603.449 305.036L663.899 317.737L656.402 310.087L596.106 298.766Z" fill="white"/>
        <path d="M700.171 228.827C699.167 230.36 696.292 238.21 693.893 245.063C691.893 250.773 690.222 255.794 690.222 255.794C690.222 255.794 686.32 281.197 684.327 285.789C682.334 290.38 683.415 308.287 683.415 308.287L675.987 352.508C675.987 352.508 672.622 375.313 667.425 388.934C662.297 402.341 656.586 408.626 656.41 408.826C658.709 405.714 671.242 344.437 671.242 344.437L675.381 267.154C675.381 267.154 675.987 259.811 676.6 253.533C677.213 247.255 689.631 238.685 689.631 238.685L701.605 221.66C702.808 223.27 702.003 226.075 700.171 228.827Z" fill="white"/>
        <path d="M668.95 328.148C668.95 328.148 651.32 327.381 642.78 317.125C634.241 306.868 662.519 313.031 662.519 313.031L669.87 314.718L668.95 328.148Z" fill="#FFB0B1"/>
        <path opacity="0.1" d="M751.284 445.526C750.34 448.867 750.188 452.381 750.839 455.79C731.607 457.155 711.033 451.958 711.033 451.958C707.2 455.484 697.105 460.681 697.105 460.681L691.601 392.459C688.083 383.26 686.703 335.068 686.703 335.068C686.703 335.068 687.017 332.546 687.47 328.767C687.47 328.675 687.47 328.576 687.508 328.484C688.88 317.928 691.601 298.113 692.935 295.438C694.775 291.759 687.278 281.97 687.278 281.97L690.689 252.88L691.103 249.369C698.293 246.157 703.805 235.901 703.805 235.901L708.036 228.489C712.635 225.538 712.873 254.459 712.873 254.459L708.273 322.75L723.512 318.542C723.512 318.542 753.882 436.803 751.284 445.526Z" fill="black"/>
        <path d="M771.022 450.241C750.057 460.65 711.953 451.007 711.953 451.007C708.12 454.533 698.025 459.731 698.025 459.731L692.513 391.509C689.003 382.31 687.623 334.118 687.623 334.118C687.623 334.118 692.054 298.16 693.893 294.488C694.43 293.415 694.169 291.82 693.533 290.103C690.405 281.931 689.255 273.134 690.176 264.432L691.647 251.93L692.054 248.427C699.251 245.207 704.763 234.951 704.763 234.951L708.595 228.236L715.648 215.864L718.99 210.008L719.557 210.521L723.888 214.446C723.888 214.446 725.728 215.979 728.487 218.279C734.489 223.338 744.86 232.245 750.211 237.695C754.917 242.494 756.404 261.159 756.834 275.21C757.117 284.462 756.949 291.713 756.949 291.713C752.204 299.524 764.614 362.235 764.614 362.235C767.504 374.354 771.022 450.241 771.022 450.241Z" fill="white"/>
        <path opacity="0.03" d="M730.779 234.798C730.779 234.798 716.391 262.186 718.062 272.596C719.733 283.006 724.486 294.787 722.194 297.539C721.406 298.582 720.388 299.428 719.219 300.012C718.051 300.596 716.762 300.901 715.456 300.904C713.156 301.058 707.024 305.342 707.024 305.802C707.024 306.262 701.359 306.262 696.292 308.409C691.226 310.555 683.744 311.774 683.744 311.774C683.744 311.774 669.18 311.314 667.823 312.694C666.467 314.073 665.071 322.329 667.977 328.914C670.882 335.498 674.109 340.412 676.547 341.308C678.984 342.205 694.453 337.024 707.001 335.797C719.549 334.571 733.171 324.629 733.171 324.629C733.171 324.629 748.172 319.263 750.801 310.241C753.43 301.218 747.589 251.631 747.589 251.631C747.589 251.631 743.174 228.52 730.779 234.798Z" fill="black"/>
        <path opacity="0.03" d="M728.939 232.499C728.939 232.499 714.551 259.895 716.238 270.297C717.924 280.699 722.661 292.488 720.362 295.248C719.577 296.291 718.561 297.139 717.393 297.723C716.225 298.307 714.937 298.611 713.632 298.613C711.332 298.766 705.2 303.051 705.2 303.511C705.2 303.971 699.535 303.971 694.468 306.11C689.401 308.248 681.92 309.475 681.92 309.475C681.92 309.475 667.356 309.015 666.007 310.395C664.658 311.774 663.247 320.038 666.16 326.615C669.073 333.191 672.292 338.113 674.73 339.009C677.167 339.906 692.636 334.724 705.184 333.506C717.733 332.287 731.354 322.33 731.354 322.33C731.354 322.33 746.347 316.964 748.946 307.949C751.545 298.935 745.734 249.332 745.734 249.332C745.734 249.332 741.334 226.229 728.939 232.499Z" fill="black"/>
        <path d="M730.327 233.418C730.327 233.418 715.939 260.814 717.625 271.216C719.312 281.618 724.049 293.407 721.757 296.159C720.972 297.205 719.955 298.055 718.786 298.64C717.616 299.226 716.327 299.531 715.019 299.532C712.719 299.685 706.587 303.97 706.587 304.423C706.587 304.875 700.93 304.883 695.856 307.029C690.781 309.175 683.307 310.394 683.307 310.394C683.307 310.394 668.743 309.934 667.386 311.314C666.03 312.694 664.635 320.957 667.54 327.534C670.445 334.111 673.672 339.032 676.11 339.929C678.547 340.825 694.016 335.644 706.564 334.417C719.112 333.191 732.734 323.249 732.734 323.249C732.734 323.249 747.735 317.883 750.364 308.861C752.993 299.839 747.191 250.251 747.191 250.251C747.191 250.251 742.714 227.179 730.327 233.418Z" fill="white"/>
        <path opacity="0.1" d="M730.013 306.899C730.013 306.899 718.514 304.599 722.516 308.432C726.517 312.265 726.494 315.622 731.392 315.469C736.29 315.316 730.013 306.899 730.013 306.899Z" fill="black"/>
        <path opacity="0.1" d="M749.444 389.363C749.444 389.363 744.247 392.882 754.189 400.992C764.131 409.102 749.444 389.363 749.444 389.363Z" fill="black"/>
        <path opacity="0.1" d="M739.525 418.285C739.525 418.745 737.686 435.149 744.569 439.25C751.453 443.351 739.525 418.285 739.525 418.285Z" fill="black"/>
        <path d="M630.232 289.721C624.683 289.912 612.694 291.606 618.911 303.204C624.407 313.468 633.643 306.608 638.841 301.403C637.573 296.55 634.492 292.369 630.232 289.721Z" fill="#FFB0B1"/>
        <path d="M638.909 301.31L639.139 301.072L638.909 301.31Z" fill="#FFB0B1"/>
        <path opacity="0.1" d="M728.487 218.747C722.6 222.772 717.664 226.167 716.698 226.873C714.061 228.827 709.032 240.302 705.79 246.159C703.207 250.873 694.813 252.084 691.647 252.383L692.054 248.88C699.251 245.66 704.763 235.404 704.763 235.404L718.99 210.461L723.888 214.915C723.888 214.915 725.728 216.448 728.487 218.747Z" fill="black"/>
        <path d="M728.487 218.286C722.6 222.311 717.664 225.706 716.698 226.419C714.061 228.366 709.032 239.841 705.79 245.698C703.207 250.412 694.813 251.623 691.647 251.922L692.054 248.419C699.251 245.199 704.763 234.943 704.763 234.943L718.99 210L723.888 214.438C723.888 214.438 725.728 215.956 728.487 218.286Z" fill="#DCE7FF"/>
        <path d="M717.158 198.755C717.161 203.357 715.765 207.85 713.156 211.641C710.075 216.122 705.489 219.35 700.231 220.74C694.973 222.129 689.391 221.588 684.498 219.214C679.605 216.84 675.725 212.791 673.562 207.801C671.399 202.811 671.097 197.211 672.709 192.017C674.322 186.823 677.744 182.379 682.353 179.492C686.962 176.605 692.453 175.465 697.83 176.28C703.207 177.096 708.114 179.811 711.66 183.935C715.206 188.058 717.157 193.316 717.158 198.755Z" fill="#FFB0B1"/>
        <path opacity="0.1" d="M756.834 275.217C753.721 273.302 751.186 270.579 749.498 267.337C748.218 264.808 747.367 261.887 745.182 260.094C743.212 258.484 740.583 258.093 738.13 257.372C730.066 254.988 723.305 247.63 723.052 239.228C722.93 235.273 724.164 231.325 723.604 227.408C723.286 225.191 722.405 223.093 721.044 221.314C720.368 220.464 719.628 219.666 718.829 218.93C717.756 217.919 716.629 216.937 715.648 215.864C715.029 215.2 714.489 214.467 714.038 213.68C713.673 213.035 713.378 212.355 713.156 211.648C711.623 206.957 713.018 201.392 711.332 196.647L711.24 196.387C710.604 194.7 709.308 193.014 707.507 192.883C705.706 192.753 704.165 194.248 702.448 194.915C698.853 196.31 694.974 193.934 691.977 191.511C688.98 189.089 685.599 186.322 681.79 186.858C679.268 187.219 677.275 188.936 674.952 189.825C674.428 190.028 673.887 190.184 673.335 190.293C675.3 185.391 678.912 181.326 683.548 178.798C688.185 176.269 693.558 175.434 698.743 176.436C703.928 177.439 708.603 180.215 711.963 184.29C715.324 188.364 717.16 193.481 717.158 198.763C717.16 200.358 716.993 201.948 716.659 203.508C716.698 203.615 716.736 203.715 716.782 203.822C717.671 206.122 718.675 208.482 719.557 210.521L723.888 214.446C723.888 214.446 725.728 215.979 728.487 218.279C734.489 223.338 744.86 232.245 750.211 237.695C754.917 242.509 756.389 261.167 756.834 275.217Z" fill="black"/>
        <path d="M674.684 175.821C675.78 173.59 676.324 171.092 677.635 168.976C679.559 165.91 682.916 163.947 686.366 162.759C695.373 159.655 714.406 155.148 720.094 162.759C721.213 164.292 722.14 165.994 723.689 167.052C724.869 167.857 726.295 168.202 727.59 168.807C731.216 170.509 733.531 174.219 734.765 178.006C735.999 181.792 736.367 185.855 737.272 189.757C738.429 194.762 740.46 199.507 742.484 204.221C744.868 209.786 747.398 215.558 751.997 219.491C758.275 224.857 759.662 232.453 765.488 238.34C772.387 245.331 772.164 256.867 768.608 266.027C768.14 267.231 767.611 268.488 767.795 269.768C767.979 271.048 768.93 272.213 769.827 273.233L773.598 277.487C764.675 279.641 754.58 274.98 750.425 266.801C749.145 264.272 748.294 261.359 746.102 259.558C744.14 257.948 741.503 257.565 739.058 256.844C730.994 254.453 724.233 247.086 723.98 238.685C723.857 234.737 725.091 230.789 724.532 226.88C724.22 224.648 723.336 222.536 721.964 220.748C719.856 217.996 716.675 216.149 714.958 213.082C712.053 207.954 714.26 201.293 712.168 195.789C711.524 194.103 710.236 192.417 708.434 192.286C706.633 192.156 705.092 193.651 703.368 194.318C699.78 195.713 695.902 193.344 692.904 190.914C689.907 188.484 686.527 185.725 682.709 186.269C680.188 186.622 678.202 188.339 675.88 189.235C674.163 189.895 670.682 190.485 669.18 189.036C666.007 186.116 673.358 178.55 674.684 175.821Z" fill="#591D4B"/>
        <path opacity="0.1" d="M752.556 264.271C751.269 261.741 750.425 258.828 748.233 257.035C746.271 255.425 743.634 255.034 741.181 254.313C733.125 251.929 726.364 244.563 726.103 236.162C725.981 232.214 727.215 228.259 726.663 224.349C726.342 222.132 725.458 220.034 724.095 218.255C721.979 215.504 718.798 213.656 717.089 210.59C714.184 205.47 716.391 198.808 714.291 193.297C713.655 191.618 712.359 189.932 710.565 189.794C708.772 189.656 707.216 191.166 705.499 191.833C701.911 193.228 698.025 190.852 695.035 188.429C692.046 186.007 688.65 183.24 684.84 183.777C682.319 184.137 680.326 185.854 678.011 186.743C676.294 187.402 672.806 188 671.303 186.551C668.145 183.485 675.496 175.935 676.815 173.221C677.911 170.983 678.455 168.492 679.774 166.376C679.843 166.261 679.919 166.146 679.996 166.031C679.01 166.848 678.159 167.816 677.474 168.898C676.163 171.014 675.619 173.497 674.523 175.743C673.197 178.457 665.846 186.03 669.011 189.073C670.545 190.53 673.994 189.932 675.711 189.273C678.011 188.376 680.019 186.659 682.541 186.306C686.374 185.762 689.746 188.529 692.736 190.951C695.725 193.374 699.635 195.75 703.207 194.355C704.924 193.688 706.426 192.186 708.266 192.323C710.106 192.461 711.332 194.14 711.999 195.827C714.092 201.33 711.884 207.992 714.789 213.12C716.506 216.132 719.687 218.018 721.795 220.785C723.167 222.573 724.052 224.686 724.363 226.917C724.923 230.827 723.689 234.774 723.811 238.722C724.064 247.154 730.825 254.49 738.889 256.881C741.319 257.602 743.971 257.985 745.934 259.595C748.133 261.396 749 264.309 750.257 266.839C754.411 275.018 764.507 279.678 773.429 277.524L771.651 275.516C763.917 275.631 756.09 271.231 752.556 264.271Z" fill="black"/>
        <path opacity="0.1" d="M699.711 229.287C698.707 230.82 695.833 238.669 693.433 245.522C691.187 244.648 689.148 239.075 689.148 239.075L701.122 222.043C702.348 223.729 701.543 226.527 699.711 229.287Z" fill="black"/>
        <path d="M700.171 228.826C699.167 230.359 696.292 238.208 693.893 245.061C691.647 244.195 689.608 238.615 689.608 238.615L701.582 221.59C702.808 223.269 702.003 226.074 700.171 228.826Z" fill="#DCE7FF"/>
        <path d="M630.554 307.136L623.916 286.202C623.837 285.957 623.808 285.699 623.829 285.442C623.851 285.186 623.923 284.936 624.041 284.707C624.159 284.479 624.322 284.276 624.518 284.11C624.715 283.944 624.943 283.819 625.188 283.742C625.682 283.587 626.217 283.634 626.677 283.873C627.136 284.111 627.483 284.521 627.641 285.014L634.28 305.925L633.62 310.302L630.554 307.136Z" fill="#BE8B87"/>
        <path opacity="0.1" d="M624.545 284.363C625.04 284.206 625.577 284.252 626.038 284.491C626.499 284.729 626.847 285.141 627.005 285.635L633.643 306.547L633.145 309.827L633.628 310.333L634.287 305.956L627.611 285.045C627.452 284.553 627.106 284.142 626.646 283.904C626.187 283.666 625.652 283.619 625.158 283.773C624.742 283.908 624.383 284.177 624.138 284.539C624.269 284.469 624.404 284.41 624.545 284.363Z" fill="white"/>
        <path d="M630.554 307.136L634.28 305.955L633.735 309.542L633.62 310.332L632.532 309.198L630.554 307.136Z" fill="#EFC8C4"/>
        <path d="M632.532 309.199C632.597 309.117 632.678 309.049 632.769 308.999C632.823 308.965 632.886 308.947 632.95 308.947C633.013 308.947 633.076 308.965 633.13 308.999C633.182 309.062 633.226 309.132 633.26 309.206C633.311 309.291 633.38 309.363 633.462 309.417C633.544 309.472 633.638 309.507 633.735 309.521L633.62 310.287L632.532 309.199Z" fill="#727A9C"/>
        <path d="M623.878 293.637C623.878 293.637 637.192 293.56 634.057 299.225C630.922 304.89 626.024 305.572 626.024 305.572L623.878 293.637Z" fill="#FFB0B1"/>
        <path d="M541.069 39.416H540.494C517.62 39.416 497.391 51.5196 485.755 69.38C474.119 51.5196 453.89 39.416 431.017 39.416H430.442C413.276 39.5796 396.868 46.5111 384.784 58.7042C372.7 70.8973 365.916 87.3667 365.907 104.533C365.907 125.851 375.243 156.098 393.449 180.988C428.135 228.414 485.755 269.906 485.755 269.906C485.755 269.906 543.376 228.421 578.054 180.988C596.267 156.098 605.596 125.851 605.596 104.533C605.586 87.368 598.804 70.8998 586.721 58.7069C574.639 46.514 558.233 39.5816 541.069 39.416ZM532.844 184.637C530.239 184.627 527.697 183.829 525.554 182.349C523.41 180.869 521.764 178.775 520.832 176.343H507.157C506.256 176.337 505.38 176.05 504.65 175.523C503.921 174.995 503.374 174.253 503.087 173.399L498.886 160.744L485.594 207.188C485.335 208.082 484.793 208.868 484.05 209.428C483.306 209.988 482.401 210.291 481.47 210.293H481.202C480.231 210.246 479.305 209.867 478.58 209.22C477.854 208.572 477.373 207.696 477.216 206.736L463.518 124.348L453.507 173.1C453.277 174.026 452.744 174.849 451.993 175.437C451.241 176.024 450.314 176.343 449.36 176.343H430.097C429.519 176.367 428.943 176.275 428.402 176.07C427.862 175.866 427.368 175.555 426.95 175.155C426.533 174.755 426.201 174.275 425.974 173.743C425.748 173.212 425.631 172.64 425.631 172.062C425.631 171.484 425.748 170.912 425.974 170.38C426.201 169.848 426.533 169.368 426.95 168.968C427.368 168.568 427.862 168.257 428.402 168.053C428.943 167.849 429.519 167.756 430.097 167.78H445.987L460.168 102.234C460.401 101.265 460.963 100.407 461.759 99.8061C462.554 99.2056 463.533 98.9001 464.529 98.9417C465.525 98.9834 466.475 99.3696 467.218 100.034C467.96 100.699 468.449 101.601 468.6 102.586L482.589 186.63L494.501 145.076C494.749 144.2 495.274 143.429 495.996 142.876C496.719 142.324 497.601 142.02 498.51 142.009H498.595C499.496 142.01 500.373 142.294 501.103 142.823C501.832 143.352 502.376 144.097 502.657 144.953L510.254 167.803H520.663C521.403 165.555 522.75 163.555 524.556 162.023C526.361 160.492 528.554 159.489 530.893 159.125C533.232 158.762 535.626 159.052 537.811 159.963C539.996 160.874 541.887 162.371 543.274 164.289C544.662 166.206 545.493 168.47 545.675 170.83C545.858 173.191 545.385 175.555 544.308 177.663C543.231 179.772 541.593 181.541 539.574 182.777C537.555 184.013 535.234 184.667 532.867 184.667L532.844 184.637Z" fill="#AEDBD3"/>
    </g>
    <defs>
        <linearGradient id="paint0_linear_158_2368" x1="273.14" y1="593.968" x2="273.14" y2="122.286" gradientUnits="userSpaceOnUse">
            <stop stop-color="#808080" stop-opacity="0.25"/>
            <stop offset="0.54" stop-color="#808080" stop-opacity="0.12"/>
            <stop offset="1" stop-color="#808080" stop-opacity="0.1"/>
        </linearGradient>
        <linearGradient id="paint1_linear_158_2368" x1="684.848" y1="588.003" x2="684.848" y2="157.209" gradientUnits="userSpaceOnUse">
            <stop stop-color="#808080" stop-opacity="0.25"/>
            <stop offset="0.54" stop-color="#808080" stop-opacity="0.12"/>
            <stop offset="1" stop-color="#808080" stop-opacity="0.1"/>
        </linearGradient>
        <clipPath id="clip0_158_2368">
            <rect width="847.055" height="600" fill="white"/>
        </clipPath>
    </defs>
</svg>
