<svg width="24" height="24" viewBox="0 0 24 24" fill="none" xmlns="http://www.w3.org/2000/svg">
<g clip-path="url(#clip0_83_764)">
<path d="M7.5051 23.9995C5.69485 23.9984 3.94611 23.3425 2.58155 22.153C1.217 20.9634 0.328736 19.3205 0.0806626 17.5273C-0.167411 15.7341 0.241451 13.9118 1.2318 12.3964C2.22215 10.8811 3.72716 9.77511 5.4691 9.28253C6.73523 8.91996 8.07539 8.90338 9.3501 9.23453L17.2581 1.32853C17.6779 0.905814 18.1775 0.570665 18.7278 0.342527C19.2782 0.114388 19.8683 -0.00219808 20.4641 -0.000469334C21.4017 0.000325098 22.3006 0.373122 22.9636 1.03608C23.6265 1.69903 23.9993 2.59797 24.0001 3.53553C24.0016 4.13132 23.8851 4.72151 23.6571 5.27197C23.4292 5.82243 23.0944 6.32225 22.6721 6.74253L22.0001 7.41453C21.6241 7.78797 21.116 7.99816 20.5861 7.99953H19.0001V8.99953C19.0001 9.52996 18.7894 10.0387 18.4143 10.4137C18.0392 10.7888 17.5305 10.9995 17.0001 10.9995H16.0001V12.5855C16.0008 12.8483 15.9494 13.1085 15.8488 13.3513C15.7482 13.594 15.6005 13.8143 15.4141 13.9995L14.7641 14.6495C15.0971 15.9236 15.0808 17.2639 14.7171 18.5295C14.3078 19.9715 13.4774 21.2585 12.3322 22.2257C11.1871 23.1929 9.77926 23.7963 8.2891 23.9585C8.02864 23.9856 7.76696 23.9993 7.5051 23.9995ZM7.5051 10.9995C6.48125 10.9985 5.47745 11.2834 4.60669 11.8219C3.73593 12.3605 3.03278 13.1314 2.5764 14.0479C2.12002 14.9644 1.92853 15.9901 2.02347 17.0096C2.11842 18.029 2.49604 19.0017 3.11382 19.8182C3.7316 20.6346 4.56502 21.2625 5.52026 21.631C6.47549 21.9994 7.51463 22.094 8.52069 21.9039C9.52675 21.7139 10.4598 21.2468 11.2148 20.5552C11.9698 19.8637 12.5167 18.9751 12.7941 17.9895C13.1061 16.9061 13.0711 15.7521 12.6941 14.6895C12.6326 14.5121 12.6223 14.3209 12.6644 14.1378C12.7064 13.9548 12.7992 13.7873 12.9321 13.6545L14.0001 12.5855V10.9995C14.0001 10.4691 14.2108 9.96039 14.5859 9.58532C14.961 9.21025 15.4697 8.99953 16.0001 8.99953H17.0001V7.99953C17.0001 7.4691 17.2108 6.96039 17.5859 6.58532C17.961 6.21024 18.4697 5.99953 19.0001 5.99953H20.5861L21.2581 5.32753C21.4941 5.09268 21.6811 4.81339 21.8085 4.50581C21.9358 4.19822 22.001 3.86844 22.0001 3.53553C21.9998 3.12841 21.8381 2.73803 21.5503 2.45006C21.2625 2.16209 20.8722 2.00006 20.4651 1.99953C20.132 1.99871 19.802 2.06396 19.4942 2.19149C19.1864 2.31902 18.907 2.50632 18.6721 2.74253L10.3411 11.0725C10.2081 11.2054 10.0404 11.2981 9.85719 11.34C9.67395 11.382 9.4826 11.3714 9.3051 11.3095C8.72517 11.1053 8.11493 11.0005 7.5001 10.9995H7.5051ZM5.0001 17.9995C5.0001 18.1973 5.05875 18.3907 5.16863 18.5551C5.27851 18.7196 5.43469 18.8477 5.61742 18.9234C5.80014 18.9991 6.00121 19.0189 6.19519 18.9803C6.38917 18.9417 6.56735 18.8465 6.70721 18.7066C6.84706 18.5668 6.9423 18.3886 6.98089 18.1946C7.01947 18.0006 6.99967 17.7996 6.92398 17.6168C6.84829 17.4341 6.72012 17.2779 6.55567 17.1681C6.39122 17.0582 6.19788 16.9995 6.0001 16.9995C5.73488 16.9995 5.48053 17.1049 5.29299 17.2924C5.10546 17.48 5.0001 17.7343 5.0001 17.9995Z" fill="url(#paint0_linear_83_764)"/>
</g>
<defs>
<linearGradient id="paint0_linear_83_764" x1="12.005" y1="-0.000488281" x2="12.005" y2="23.9995" gradientUnits="userSpaceOnUse">
<stop stop-color="#393BAA"/>
<stop offset="1" stop-color="#5154EC"/>
</linearGradient>
<clipPath id="clip0_83_764">
<rect width="24" height="24" fill="white"/>
</clipPath>
</defs>
</svg>
