<svg width="315" height="239" viewBox="0 0 315 239" fill="none" xmlns="http://www.w3.org/2000/svg">
<g clip-path="url(#clip0_207_5103)">
<path d="M125.7 49.5631H124.554V18.1697C124.554 15.7836 124.084 13.4209 123.171 11.2164C122.258 9.012 120.919 7.00899 119.232 5.32178C117.545 3.63457 115.542 2.2962 113.337 1.38309C111.133 0.469977 108.77 2.02167e-06 106.384 0H39.8728C35.0539 -9.18646e-06 30.4324 1.91428 27.0249 5.32174C23.6174 8.7292 21.7031 13.3507 21.7031 18.1696V190.396C21.7031 192.782 22.1731 195.145 23.0862 197.35C23.9993 199.554 25.3377 201.557 27.0249 203.244C28.7121 204.932 30.7151 206.27 32.9195 207.183C35.124 208.096 37.4867 208.566 39.8728 208.566H106.384C111.203 208.566 115.824 206.652 119.232 203.244C122.639 199.837 124.554 195.215 124.554 190.396V71.9095H125.7V49.5631Z" fill="#3F3D56"/>
<path d="M107.117 4.72754H98.4354C98.8346 5.70639 98.987 6.76842 98.8792 7.82004C98.7713 8.87167 98.4064 9.88064 97.8168 10.7581C97.2271 11.6355 96.4307 12.3544 95.4978 12.8515C94.5648 13.3487 93.5239 13.6087 92.4667 13.6088H54.3633C53.3061 13.6087 52.2652 13.3487 51.3323 12.8515C50.3993 12.3544 49.6029 11.6355 49.0132 10.7581C48.4236 9.88065 48.0587 8.87168 47.9508 7.82005C47.843 6.76842 47.9954 5.70639 48.3946 4.72754H40.2857C38.5038 4.72754 36.7394 5.07851 35.0931 5.76041C33.4469 6.44231 31.951 7.44178 30.691 8.70177C29.4311 9.96176 28.4316 11.4576 27.7497 13.1038C27.0678 14.7501 26.7168 16.5145 26.7168 18.2964V190.271C26.7168 192.052 27.0678 193.817 27.7497 195.463C28.4316 197.109 29.431 198.605 30.691 199.865C31.951 201.125 33.4468 202.125 35.0931 202.807C36.7394 203.488 38.5038 203.839 40.2857 203.839H107.117C108.899 203.839 110.664 203.488 112.31 202.807C113.956 202.125 115.452 201.125 116.712 199.865C117.972 198.605 118.971 197.109 119.653 195.463C120.335 193.817 120.686 192.052 120.686 190.271V18.2964C120.686 16.5145 120.335 14.7501 119.653 13.1038C118.971 11.4576 117.972 9.96176 116.712 8.70177C115.452 7.44178 113.956 6.44231 112.31 5.76041C110.664 5.07851 108.899 4.72754 107.117 4.72754Z" fill="white"/>
<path d="M147.018 208.596H0.384863C0.282791 208.596 0.184899 208.555 0.112724 208.483C0.0405477 208.411 0 208.313 0 208.211C0 208.109 0.0405477 208.011 0.112724 207.939C0.184899 207.867 0.282791 207.826 0.384863 207.826H147.018C147.12 207.826 147.218 207.867 147.29 207.939C147.362 208.011 147.403 208.109 147.403 208.211C147.403 208.313 147.362 208.411 147.29 208.483C147.218 208.555 147.12 208.596 147.018 208.596Z" fill="#CBCBCB"/>
<path d="M73.7014 133.04C91.6508 133.04 106.202 118.489 106.202 100.539C106.202 82.5899 91.6508 68.0391 73.7014 68.0391C55.752 68.0391 41.2012 82.5899 41.2012 100.539C41.2012 118.489 55.752 133.04 73.7014 133.04Z" fill="#36A793"/>
<path d="M70.4805 112.937C69.7493 112.938 69.0376 112.701 68.4526 112.263L68.4163 112.236L60.7783 106.393C60.4246 106.122 60.1277 105.783 59.9047 105.397C59.6817 105.011 59.5368 104.585 59.4784 104.144C59.4201 103.702 59.4493 103.253 59.5645 102.822C59.6797 102.391 59.8785 101.988 60.1497 101.634C60.4209 101.28 60.7592 100.983 61.1451 100.76C61.531 100.537 61.9571 100.392 62.399 100.334C62.8409 100.276 63.29 100.305 63.7206 100.42C64.1512 100.535 64.5549 100.734 64.9086 101.005L69.8559 104.799L81.5466 89.5473C81.8177 89.1937 82.1557 88.897 82.5415 88.674C82.9273 88.4511 83.3532 88.3063 83.7949 88.248C84.2366 88.1896 84.6855 88.2189 85.1159 88.334C85.5464 88.4491 85.9499 88.6479 86.3035 88.919L86.3045 88.9197L86.2319 89.0205L86.3064 88.9197C87.0198 89.468 87.4865 90.2769 87.6042 91.1689C87.7219 92.0609 87.4808 92.9631 86.934 93.6776L73.1832 111.609C72.8651 112.022 72.4561 112.357 71.9879 112.586C71.5197 112.816 71.0049 112.934 70.4835 112.933L70.4805 112.937Z" fill="white"/>
<path d="M267.189 211.79C267.584 211.151 268.05 210.558 268.577 210.022C268.794 209.796 269.023 209.584 269.259 209.378C270.696 208.099 272.448 207.225 274.335 206.848C276.221 206.47 278.174 206.602 279.992 207.229C281.811 207.857 283.43 208.957 284.682 210.417C285.934 211.878 286.775 213.645 287.118 215.538C288.705 209.668 284.573 203.886 280.419 199.445C276.263 195.005 271.512 190.135 271.536 184.051C271.548 180.666 273.203 177.646 275.704 175.407C275.781 175.339 275.858 175.271 275.937 175.206C278.958 172.616 282.846 171.261 286.824 171.412C294.213 171.808 300.664 176.774 305.145 182.664C312.357 192.142 315.517 205.447 310.468 216.236C306.027 225.726 296.556 231.361 286.889 235.891C285.54 236.524 284.193 237.137 282.848 237.732C282.839 237.734 282.83 237.74 282.821 237.743C282.756 237.771 282.691 237.8 282.631 237.829C282.353 237.951 282.076 238.074 281.8 238.195L281.928 238.278L282.325 238.535C282.188 238.452 282.051 238.371 281.913 238.288C281.872 238.262 281.829 238.239 281.788 238.213C277.041 235.365 272.227 232.351 268.947 227.904C265.546 223.286 264.178 216.672 267.189 211.79Z" fill="#F1F1F1"/>
<path d="M298.865 201.067C299.916 203.459 300.613 205.991 300.934 208.583C301.186 210.895 301.091 213.232 300.652 215.516C299.709 220.209 297.653 224.607 294.657 228.34C292.396 231.174 289.787 233.711 286.89 235.891C285.54 236.524 284.193 237.138 282.849 237.732C282.84 237.734 282.83 237.741 282.821 237.743C282.756 237.772 282.692 237.8 282.631 237.829C282.353 237.952 282.076 238.074 281.801 238.195L281.928 238.278L282.326 238.536C282.188 238.452 282.052 238.371 281.914 238.288C281.873 238.263 281.83 238.239 281.789 238.213C282.833 234.559 282.987 230.707 282.237 226.981C281.486 223.255 279.853 219.762 277.475 216.797C275.085 213.869 272.036 211.548 268.577 210.022C268.794 209.797 269.023 209.584 269.26 209.378C270.592 209.99 271.867 210.718 273.071 211.554C277.377 214.53 280.61 218.813 282.292 223.77C283.794 228.266 283.981 233.098 282.833 237.697C283.071 237.542 283.31 237.382 283.543 237.223C287.966 234.24 292.042 230.658 295.112 226.265C297.76 222.553 299.455 218.246 300.047 213.725C300.635 208.785 299.399 203.928 297.194 199.521C294.759 194.806 291.691 190.446 288.074 186.563C284.442 182.572 280.335 179.041 275.845 176.048C275.744 175.979 275.673 175.875 275.646 175.756C275.62 175.636 275.641 175.512 275.704 175.407C275.752 175.312 275.836 175.24 275.937 175.206C275.988 175.193 276.042 175.192 276.094 175.202C276.146 175.213 276.195 175.235 276.237 175.267C276.791 175.637 277.341 176.01 277.884 176.394C282.406 179.596 286.512 183.347 290.109 187.561C293.585 191.624 296.748 196.137 298.865 201.067Z" fill="white"/>
<path d="M202.069 15.0905C205.881 15.0905 208.971 12.0002 208.971 8.18829C208.971 4.37633 205.881 1.28613 202.069 1.28613C198.257 1.28613 195.167 4.37633 195.167 8.18829C195.167 12.0002 198.257 15.0905 202.069 15.0905Z" fill="#F1F1F1"/>
<path d="M287.894 107.458C290.218 107.458 292.102 105.574 292.102 103.25C292.102 100.926 290.218 99.042 287.894 99.042C285.57 99.042 283.686 100.926 283.686 103.25C283.686 105.574 285.57 107.458 287.894 107.458Z" fill="#F1F1F1"/>
<path d="M164.737 119.004C167.061 119.004 168.946 117.12 168.946 114.796C168.946 112.472 167.061 110.588 164.737 110.588C162.413 110.588 160.529 112.472 160.529 114.796C160.529 117.12 162.413 119.004 164.737 119.004Z" fill="#F1F1F1"/>
<path d="M167.113 239H313.746C313.848 239 313.946 238.96 314.018 238.887C314.091 238.815 314.131 238.717 314.131 238.615C314.131 238.513 314.091 238.415 314.018 238.343C313.946 238.271 313.848 238.23 313.746 238.23H167.113C167.011 238.23 166.913 238.271 166.841 238.343C166.769 238.415 166.729 238.513 166.729 238.615C166.729 238.717 166.769 238.815 166.841 238.887C166.913 238.96 167.011 239 167.113 239Z" fill="#CBCBCB"/>
<path d="M297.565 37.1912C297.757 35.8242 297.441 34.434 296.678 33.2842C295.914 32.1343 294.754 31.3046 293.42 30.9523C292.085 30.6001 290.667 30.7496 289.435 31.3727C288.203 31.9958 287.243 33.0491 286.736 34.3331L274.837 47.9743L278.328 57.7255L290.295 41.7863C291.076 42.0364 291.902 42.1123 292.715 42.0086C293.529 41.9048 294.309 41.624 295.002 41.1859C295.696 40.7478 296.284 40.1631 296.727 39.4729C297.169 38.7827 297.455 38.0038 297.565 37.1912Z" fill="#FFB7B7"/>
<path d="M248.241 90.2692L287.74 48.1156L282.412 39.6455L232.871 81.5432L248.241 90.2692Z" fill="#3F3D56"/>
<path d="M239.426 64.6574C247.078 64.6574 253.281 58.4543 253.281 50.8023C253.281 43.1504 247.078 36.9473 239.426 36.9473C231.774 36.9473 225.571 43.1504 225.571 50.8023C225.571 58.4543 231.774 64.6574 239.426 64.6574Z" fill="#2F2E41"/>
<path d="M240.54 42.9751C243.521 39.9518 247.129 37.6188 251.11 36.1403C253.665 35.1937 256.446 34.6089 259.117 35.1465C261.788 35.684 264.314 37.5319 265.059 40.1527C265.668 42.2957 265.039 44.6031 264.094 46.6205C263.148 48.6379 261.885 50.5086 261.121 52.6012C260.34 54.7364 260.106 57.0328 260.438 59.2817C260.77 61.5306 261.659 63.6609 263.023 65.4793C264.388 67.2976 266.185 68.7464 268.251 69.6941C270.318 70.6419 272.588 71.0585 274.856 70.9062C272.232 71.2581 269.812 72.4914 267.247 73.148C264.682 73.8044 261.654 73.7599 259.747 71.9221C257.73 69.9776 257.69 66.816 257.788 64.016C257.933 59.8538 258.078 55.6915 258.223 51.5292C258.296 49.4065 258.36 47.2158 257.594 45.2345C256.829 43.2533 255.009 41.5184 252.885 41.5365C251.276 41.5501 249.851 42.5253 248.56 43.4869C247.269 44.4486 245.903 45.4747 244.299 45.6177C242.696 45.7607 240.865 44.5742 240.985 42.9689L240.54 42.9751Z" fill="#2F2E41"/>
<path d="M186.804 143.832C185.474 144.202 184.054 144.071 182.814 143.464C181.575 142.856 180.6 141.816 180.077 140.538C179.553 139.261 179.516 137.836 179.973 136.533C180.43 135.23 181.348 134.141 182.555 133.47L194.525 119.891L204.648 122.078L190.409 136.025C190.76 136.766 190.943 137.575 190.946 138.395C190.95 139.215 190.773 140.026 190.429 140.77C190.086 141.515 189.583 142.175 188.956 142.704C188.33 143.233 187.595 143.618 186.804 143.832H186.804Z" fill="#FFB7B7"/>
<path d="M226.183 95.2172L196.35 132.664L187.257 128.489L222.322 73.8984L226.183 95.2172Z" fill="#3F3D56"/>
<path d="M202.38 208.292L195.27 208.181L196.125 232.414H202.378L202.38 208.292Z" fill="#FFB7B7"/>
<path d="M203.974 230.373L191.658 230.372H191.657C189.576 230.372 187.58 231.199 186.108 232.671C184.636 234.143 183.809 236.139 183.809 238.221V238.476L203.974 238.477L203.974 230.373Z" fill="#2F2E41"/>
<path d="M249.454 201.865L241.688 206.852L257.224 225.542L262.486 222.164L249.454 201.865Z" fill="#FFB7B7"/>
<path d="M262.726 219.583L252.362 226.237L252.362 226.237C250.61 227.362 249.377 229.136 248.934 231.17C248.491 233.204 248.873 235.33 249.998 237.082L250.136 237.297L267.104 226.403L262.726 219.583Z" fill="#2F2E41"/>
<path d="M252.222 127.867C252.222 127.867 234.965 70.5507 229.419 69.7762C223.873 69.0016 214.937 84.483 214.937 84.483C203.352 99.2649 191.405 147.147 191.405 147.147C191.405 147.147 211.321 148.393 225.879 156.138C240.437 163.884 257.618 155.746 257.618 155.746L252.222 127.867Z" fill="#3F3D56"/>
<path opacity="0.1" d="M252.222 127.867C252.222 127.867 234.965 70.5504 229.419 69.7759C223.873 69.0013 217.207 84.6398 217.207 84.6398C211.434 108.501 191.405 147.146 191.405 147.146C191.405 147.146 211.321 148.393 225.879 156.138C240.437 163.884 257.618 155.746 257.618 155.746L252.222 127.867Z" fill="black"/>
<path d="M238.063 110.718V139.52L241.453 181.24L258.387 212.799L250.305 218.572L227.213 188.553L218.08 158.745L203.736 224.73L192.96 223.96L200.444 132.474L214.646 106.723L238.063 110.718Z" fill="#2F2E41"/>
<path d="M220.665 82.8607C215.277 88.2488 220.28 94.0218 220.28 94.0218L214.122 107.877L238.368 114.42L246.842 76.5573L241.069 70.3995C229.523 70.0147 229.517 69.7754 229.517 69.7754C227.494 71.7551 220.665 82.8607 220.665 82.8607Z" fill="#7EA6F4"/>
<path d="M247.818 72.6355C246.717 71.8226 245.465 71.2364 244.136 70.9106C242.806 70.5848 241.426 70.5261 240.073 70.7377C238.721 70.9494 237.424 71.4273 236.258 72.1437C235.092 72.8601 234.079 73.8008 233.279 74.9112C227.184 83.3983 221.547 97.1029 229.313 114.195C241.782 141.639 252.633 155.689 257.044 155.687C257.237 155.689 257.429 155.659 257.611 155.598C260.327 154.677 264.253 150.082 264.963 146.033C265.218 144.584 265.157 142.565 263.424 141.179C258.446 137.197 249.508 124.799 246.72 108.48C245.179 99.4626 248.167 91.2487 250.945 85.9462C252.119 83.7521 252.462 81.2087 251.912 78.7821C251.362 76.3555 249.956 74.2083 247.952 72.7342L247.818 72.6355Z" fill="#3F3D56"/>
<path d="M240.139 63.2962C245.082 60.5944 246.898 54.3975 244.196 49.4551C241.495 44.5127 235.298 42.6962 230.355 45.398C225.413 48.0998 223.596 54.2967 226.298 59.2391C229 64.1816 235.197 65.998 240.139 63.2962Z" fill="#FFB7B7"/>
<path d="M220.903 53.5759H235.63L235.781 51.4616L236.536 53.5759H238.804L239.103 49.3854L240.6 53.5759H244.988V53.3683C244.984 50.4509 243.824 47.6539 241.761 45.5909C239.698 43.528 236.901 42.3676 233.984 42.3643H231.907C228.99 42.3675 226.193 43.528 224.13 45.5909C222.067 47.6539 220.907 50.4509 220.903 53.3683V53.5759Z" fill="#2F2E41"/>
<path d="M242.763 61.1753L249.048 59.136V43.874H237.177L237.471 44.1675C241.56 48.2512 246.107 62.7398 242.763 61.1753Z" fill="#2F2E41"/>
</g>
<defs>
<clipPath id="clip0_207_5103">
<rect width="314.131" height="239" fill="white"/>
</clipPath>
</defs>
</svg>
