<svg width="24" height="24" viewBox="0 0 30 30" fill="none" xmlns="http://www.w3.org/2000/svg">
    <path d="M29.6494 27.8833L22.1943 20.4282C24.2259 17.9435 25.2248 14.773 24.9843 11.5725C24.7438 8.37192 23.2824 5.38625 20.9023 3.233C18.5222 1.07976 15.4056 -0.0763113 12.197 0.00391253C8.98849 0.0841364 5.93351 1.39452 3.66402 3.66402C1.39452 5.93351 0.0841364 8.98849 0.00391253 12.197C-0.0763113 15.4056 1.07976 18.5222 3.233 20.9023C5.38625 23.2824 8.37192 24.7438 11.5725 24.9843C14.773 25.2248 17.9435 24.2259 20.4282 22.1943L27.8833 29.6494C28.1189 29.8769 28.4344 30.0028 28.7619 30C29.0894 29.9971 29.4026 29.8658 29.6342 29.6342C29.8658 29.4026 29.9971 29.0894 30 28.7619C30.0028 28.4344 29.8769 28.1189 29.6494 27.8833ZM12.5297 22.5215C10.5535 22.5215 8.62171 21.9355 6.97857 20.8376C5.33543 19.7397 4.05476 18.1792 3.2985 16.3534C2.54225 14.5276 2.34438 12.5186 2.72991 10.5804C3.11545 8.64219 4.06708 6.86183 5.46445 5.46445C6.86183 4.06708 8.64219 3.11545 10.5804 2.72991C12.5186 2.34438 14.5276 2.54225 16.3534 3.2985C18.1792 4.05476 19.7397 5.33543 20.8376 6.97857C21.9355 8.62171 22.5215 10.5535 22.5215 12.5297C22.5185 15.1788 21.4649 17.7185 19.5917 19.5917C17.7185 21.4649 15.1788 22.5185 12.5297 22.5215Z" fill="url(#paint0_linear_171_2604)"/>
    <defs>
        <linearGradient id="paint0_linear_171_2604" x1="15" y1="0" x2="15" y2="30" gradientUnits="userSpaceOnUse">
            <stop stop-color="#393BAA"/>
            <stop offset="1" stop-color="#5154EC"/>
        </linearGradient>
    </defs>
</svg>
