<svg xmlns="http://www.w3.org/2000/svg" width="512" height="512" viewBox="0 0 512 512" style="overflow: visible;" data-bbox="1.6740302618775422e-14 2.3092638912203256e-14 511.9999999999999 496.99298095703114"><g data-icon="" transform="matrix(1, 0, 0, 1, -0.000007629395440744702, -7.503021240234375)" data-uid="o_f5k98n1k9_5"><path d="m155.025 335.202v50.301c26.143 14.791 63.857 14.667 90-.191v-50.11c-.001 42.008-90 42.011-90 0z" fill="#fd3501" clip-rule="evenodd" fill-rule="evenodd" data-uid="o_f5k98n1k9_6"></path><path d="m245.024 385.312c-26.143 14.858-63.857 14.982-90 .191v111.493l90 .001z" fill="#ff6a47" clip-rule="evenodd" fill-rule="evenodd" data-uid="o_f5k98n1k9_7"></path><path d="m155.025 335.202c0 42.011 90 42.008 90 0v-34.639c-13.258 7.713-28.637 12.138-45 12.138-16.362 0-31.741-4.426-45-12.137z" fill="#fef2e2" clip-rule="evenodd" fill-rule="evenodd" data-uid="o_f5k98n1k9_8"></path><path d="m155.025 335.201-87.525 45c-29.346 15.088-60 27.002-60 60v56.796h147.524zm89.999 161.796h146.976c-62.132 0-112.5-50.368-112.5-112.5 0-10.227 1.365-20.136 3.922-29.554l-38.398-19.74zm-149.999-89.992c16.568 0 30 13.431 30 30s-13.432 30-30 30-30-13.431-30-30 13.431-30 30-30z" fill="#fff" clip-rule="evenodd" fill-rule="evenodd" data-uid="o_f5k98n1k9_9"></path><path fill="#9c9a9f" clip-rule="evenodd" fill-rule="evenodd" data-type="circle" data-cx="95.025" data-cy="437.005" data-r="30" d="M95.025,437.005m-30,0a30,30 0 1, 0 60,0a30,30 0 1, 0 -60,0" data-uid="o_f5k98n1k9_10"></path><path d="m200.025 15.004c-66 0-119.998 54.001-120 120l-.001 28.846h30v-23.648c0-8.25 6.751-15 15-15h149.998c8.249 0 15 6.75 15 15v23.648h30.003l.001-28.846c.001-66-54.001-120-120.001-120zm-45 320.198.001-34.64c-26.85-15.621-45-44.727-45-77.859h-15c-5.454 0-10.581-1.475-15-4.046v86.545c0 42.745 23.45 49.049 34.889 50.621zm89.999-34.639v34.638l38.397 19.742c6.133-22.586 19.125-42.348 36.601-56.912v-79.374c-4.419 2.571-9.546 4.046-15 4.046h-15c.001 33.137-18.148 62.24-44.998 77.86z" fill="#9c9a9f" clip-rule="evenodd" fill-rule="evenodd" data-uid="o_f5k98n1k9_11"></path><path d="m80.023 135.001v28.849h22.5v-28.849c0-62.207 47.974-113.746 108.75-119.465-70.044-6.591-131.25 48.908-131.25 119.465zm22.503 87.702h-7.5c-5.454 0-10.581-1.475-15-4.046v86.545c0 30.098 11.626 42.128 22.5 47.161z" fill="#79787d" clip-rule="evenodd" fill-rule="evenodd" data-uid="o_f5k98n1k9_12"></path><path d="m290.021 223.85h15c16.5 0 30-13.5 30-30v-15c0-8.25-6.75-15-15-15h-30zm-179.998 0v-60h-30c-8.25 0-15 6.75-15 15v15c0 16.5 13.5 30 30 30z" fill="#ffe1ba" clip-rule="evenodd" fill-rule="evenodd" data-uid="o_f5k98n1k9_13"></path><path d="m200.025 312.701c16.363 0 31.742-4.425 45-12.138 26.849-15.62 44.999-44.724 44.999-77.86v-82.502c0-8.251-6.752-15-15-15h-149.998c-8.248 0-15 6.752-15 15v82.502c0 49.714 40.72 89.998 89.999 89.998z" fill="#fef2e2" clip-rule="evenodd" fill-rule="evenodd" data-uid="o_f5k98n1k9_14"></path><path d="m211.274 311.996c-44.591-5.625-78.749-43.961-78.749-89.294v-97.502h-7.5c-8.248 0-15 6.751-15 15v82.502c.001 54.166 47.927 96.018 101.249 89.294z" fill="#ffe1ba" clip-rule="evenodd" fill-rule="evenodd" data-uid="o_f5k98n1k9_15"></path><path d="m34.235 397.992c-15.44 9.918-26.735 22.179-26.735 42.208v56.796h22.5v-79.296c0-7.475 1.527-13.973 4.235-19.708z" fill="#9ce4f8" clip-rule="evenodd" fill-rule="evenodd" data-uid="o_f5k98n1k9_16"></path><path d="m177.524 394.055c-8.016-1.831-15.655-4.679-22.5-8.552v111.493h22.5z" fill="#fd3501" clip-rule="evenodd" fill-rule="evenodd" data-uid="o_f5k98n1k9_17"></path><path d="m155.025 335.202c0 13.709 9.587 22.941 22.5 27.703v-53.071c-7.975-2.072-15.531-5.217-22.5-9.27z" fill="#ffe1ba" clip-rule="evenodd" fill-rule="evenodd" data-uid="o_f5k98n1k9_18"></path><path d="m392 496.997c62.132 0 112.5-50.368 112.5-112.5s-50.368-112.5-112.5-112.5c-62.495 0-112.5 50.729-112.5 112.5 0 61.79 50.025 112.5 112.5 112.5zm0-64.459c-18.959-10.972-45.439-26.036-52.783-48.042-11.008-32.97 21.28-62.836 52.783-40.042 31.503-22.794 63.791 7.072 52.783 40.042-7.344 22.006-33.824 37.07-52.783 48.042z" fill="#94b7f7" clip-rule="evenodd" fill-rule="evenodd" data-uid="o_f5k98n1k9_19"></path><path d="m444.783 384.497c11.007-32.97-21.28-62.836-52.783-40.042-31.503-22.794-63.791 7.072-52.783 40.042 7.344 22.006 33.824 37.07 52.783 48.042 18.959-10.973 45.439-26.037 52.783-48.042z" fill="#ff6a47" clip-rule="evenodd" fill-rule="evenodd" data-uid="o_f5k98n1k9_20"></path><path d="m279.5 384.497c0 66.731 57.607 118.508 123.75 111.941-56.85-5.645-101.25-53.606-101.25-111.941 0-58.013 44.107-106.284 101.242-111.943-66.149-6.561-123.742 45.216-123.742 111.943z" fill="#5b92f2" clip-rule="evenodd" fill-rule="evenodd" data-uid="o_f5k98n1k9_21"></path><path d="m371.617 336.534c-23.204-1.617-40.993 22.226-32.4 47.962 7.344 22.006 33.824 37.07 52.783 48.042 5.403-3.127 11.417-6.587 17.424-10.444-18.325-10.689-40.999-24.997-47.707-45.098-5.408-16.196-.363-31.641 9.9-40.462z" fill="#fd3501" clip-rule="evenodd" fill-rule="evenodd" data-uid="o_f5k98n1k9_22"></path><path d="m106.275 409.188c-10.994 4.451-18.75 15.227-18.75 27.817s7.756 23.366 18.75 27.817c-3.474 1.407-7.271 2.183-11.25 2.183-16.568 0-30-13.431-30-30s13.432-30 30-30c3.978 0 7.775.776 11.25 2.183z" fill="#79787d" clip-rule="evenodd" fill-rule="evenodd" data-uid="o_f5k98n1k9_23"></path><path d="m266.37 75.003h-15v-15h15zm-30-15h-15v-15h15z" fill="#fff" data-uid="o_f5k98n1k9_24"></path><path d="m306.5 391.996h27.632c9.027 19.69 30.731 33.503 54.111 47.033l3.757 2.174 3.757-2.174c23.38-13.531 45.083-27.343 54.111-47.033h27.632v-15h-23.388c1.871-15.548-3.88-30.647-15.958-39.976-13.261-10.244-30.564-10.698-46.154-1.521-15.591-9.178-32.895-8.722-46.155 1.521-12.078 9.329-17.828 24.428-15.957 39.976h-23.388zm85.5 31.864c-16.86-9.879-32.268-19.927-40.621-31.864h13.596l10.552-5.973 18.785 15.027 15.695-9.055h22.613c-8.352 11.938-23.76 21.987-40.62 31.865zm-36.985-74.968c4.252-3.285 9.146-4.917 14.292-4.917 5.966 0 12.271 2.196 18.296 6.556l4.396 3.181 4.396-3.181c11.222-8.12 23.405-8.732 32.588-1.639 9.245 7.14 11.591 18.286 9.935 28.104h-32.929l-10.305 5.945-18.715-14.971-15.947 9.025h-15.942c-1.656-9.817.69-20.963 9.935-28.103z" data-uid="o_f5k98n1k9_25"></path><path d="m464.045 456.542h15v15h-15z" transform="matrix(0.7039999961853027, -0.7099997997283936, 0.7099997997283936, 0.7039999961853027, -189.98300170898438, 472.4540100097656)" data-uid="o_f5k98n1k9_26"></path><path d="m392 264.496c-23.714 0-45.842 6.916-64.477 18.834v-60.648c9.102-6.848 15-17.737 15-29.98v-15.001c0-9.777-6.271-18.113-15-21.209v-21.491c0-70.303-57.196-127.498-127.499-127.498-30.906 0-60.762 11.294-84.067 31.801l9.909 11.262c20.565-18.097 46.902-28.063 74.158-28.063 62.032 0 112.499 50.467 112.499 112.498v20.201h-15v-15.002c0-12.406-10.093-22.5-22.5-22.5h-149.998c-12.406 0-22.5 10.094-22.5 22.5v15.002h-15v-20.201c0-27.254 9.966-53.59 28.062-74.157l-11.262-9.908c-20.506 23.307-31.8 53.162-31.8 84.065v21.491c-8.729 3.096-15 11.432-15 21.209v15.001c0 12.242 5.898 23.131 15 29.98v82.519c0 25.531 7.95 43.178 23.198 52.054 0 0-37.201 19.091-39.965 20.478-27.411 13.755-55.758 27.978-55.758 62.467v64.296h392c23.649 0 46.533-6.878 66.177-19.891l-8.284-12.506c-17.18 11.381-37.199 17.396-57.893 17.396-57.897 0-105-47.103-105-105s47.103-105 105-105 105 47.103 105 105c0 20.689-6.016 40.71-17.397 57.895l12.506 8.283c13.013-19.649 19.891-42.532 19.891-66.177 0-66.168-53.832-120-120-120zm-71.977-94.293c4.136 0 7.5 3.364 7.5 7.499v15.001c0 12.406-10.093 22.5-22.5 22.5h-7.5v-45zm-202.497-30.002c0-4.136 3.364-7.5 7.5-7.5h149.998c4.136 0 7.5 3.364 7.5 7.5v82.502c0 45.489-37.009 82.498-82.499 82.498s-82.499-37.009-82.499-82.498zm119.998 240.579c-22.436 10.965-52.622 11.035-75 .179v-17.52c.838.606 1.696 1.199 2.599 1.761 9.334 5.81 21.729 9.009 34.9 9.009s25.565-3.199 34.901-9.009c.903-.562 1.762-1.155 2.6-1.762zm-75 16.505c11.529 4.431 24.382 6.647 37.25 6.647 13.023 0 26.06-2.269 37.75-6.803v92.366h-75zm75-62.083c0 11.563-11.735 24.007-37.501 24.007-25.764 0-37.499-12.444-37.499-24.007v-22.505c11.55 4.831 24.218 7.504 37.5 7.504s25.95-2.674 37.5-7.504zm-164.998-157.5c0-4.135 3.364-7.499 7.5-7.499h22.5v45h-7.5c-12.406 0-22.5-10.094-22.5-22.5zm15 127.5v-75.754c2.424.494 4.932.755 7.5.755h7.786c2.394 31.32 19.651 58.547 44.713 74.625v25.797l-33.884 17.421c-8.511-1.476-26.115-7.196-26.115-42.844zm7.499 109.303c12.407 0 22.5 10.094 22.5 22.5s-10.093 22.5-22.5 22.5-22.5-10.094-22.5-22.5 10.093-22.5 22.5-22.5zm-80.025 25.695c0-25.233 22.006-36.274 47.487-49.059 2.808-1.409 25.038-12.804 25.038-12.804v21.922c-17.096 3.484-30 18.635-30 36.745 0 20.678 16.823 37.5 37.5 37.5s37.5-16.822 37.5-37.5c0-18.11-12.904-33.261-30-36.745v-29.634l45-23.135v142.006h-132.525zm318.963 49.296h-81.438v-142.006l22.229 11.428c-1.797 8.245-2.753 16.801-2.753 25.578-.001 45.129 25.044 84.513 61.962 105zm-55.001-145.279-26.438-13.592v-25.796c25.062-16.077 42.32-43.305 44.713-74.625h7.786c2.568 0 5.076-.261 7.5-.755v65.223c-15.013 13.299-26.68 30.292-33.561 49.545z" data-uid="o_f5k98n1k9_27"></path></g></svg>